<?xml version="1.0" encoding="UTF-8"?>
<!DOCTYPE svg PUBLIC "-//W3C//DTD SVG 1.1//EN" "http://www.w3.org/Graphics/SVG/1.1/DTD/svg11.dtd">
<svg version="1.2" width="40mm" height="40mm" viewBox="0 0 4000 4000" preserveAspectRatio="xMidYMid" fill-rule="evenodd" stroke-width="28.222" stroke-linejoin="round" xmlns="http://www.w3.org/2000/svg" xmlns:ooo="http://xml.openoffice.org/svg/export" xmlns:xlink="http://www.w3.org/1999/xlink" xmlns:presentation="http://sun.com/xmlns/staroffice/presentation" xmlns:smil="http://www.w3.org/2001/SMIL20/" xmlns:anim="urn:oasis:names:tc:opendocument:xmlns:animation:1.0" xmlns:svg="urn:oasis:names:tc:opendocument:xmlns:svg-compatible:1.0" xml:space="preserve">
 <defs class="ClipPathGroup">
  <clipPath id="presentation_clip_path" clipPathUnits="userSpaceOnUse">
   <rect x="0" y="0" width="4000" height="4000"/>
  </clipPath>
  <clipPath id="presentation_clip_path_shrink" clipPathUnits="userSpaceOnUse">
   <rect x="4" y="4" width="3992" height="3992"/>
  </clipPath>
 </defs>
 <defs class="TextShapeIndex">
  <g ooo:slide="id1" ooo:id-list="id3 id4 id5 id6 id7 id8 id9 id10 id11 id12"/>
 </defs>
 <defs class="EmbeddedBulletChars">
  <g id="bullet-char-template-57356" transform="scale(0.00048828125,-0.00048828125)">
   <path d="M 580,1141 L 1163,571 580,0 -4,571 580,1141 Z"/>
  </g>
  <g id="bullet-char-template-57354" transform="scale(0.00048828125,-0.00048828125)">
   <path d="M 8,1128 L 1137,1128 1137,0 8,0 8,1128 Z"/>
  </g>
  <g id="bullet-char-template-10146" transform="scale(0.00048828125,-0.00048828125)">
   <path d="M 174,0 L 602,739 174,1481 1456,739 174,0 Z M 1358,739 L 309,1346 659,739 1358,739 Z"/>
  </g>
  <g id="bullet-char-template-10132" transform="scale(0.00048828125,-0.00048828125)">
   <path d="M 2015,739 L 1276,0 717,0 1260,543 174,543 174,936 1260,936 717,1481 1274,1481 2015,739 Z"/>
  </g>
  <g id="bullet-char-template-10007" transform="scale(0.00048828125,-0.00048828125)">
   <path d="M 0,-2 C -7,14 -16,27 -25,37 L 356,567 C 262,823 215,952 215,954 215,979 228,992 255,992 264,992 276,990 289,987 310,991 331,999 354,1012 L 381,999 492,748 772,1049 836,1024 860,1049 C 881,1039 901,1025 922,1006 886,937 835,863 770,784 769,783 710,716 594,584 L 774,223 C 774,196 753,168 711,139 L 727,119 C 717,90 699,76 672,76 641,76 570,178 457,381 L 164,-76 C 142,-110 111,-127 72,-127 30,-127 9,-110 8,-76 1,-67 -2,-52 -2,-32 -2,-23 -1,-13 0,-2 Z"/>
  </g>
  <g id="bullet-char-template-10004" transform="scale(0.00048828125,-0.00048828125)">
   <path d="M 285,-33 C 182,-33 111,30 74,156 52,228 41,333 41,471 41,549 55,616 82,672 116,743 169,778 240,778 293,778 328,747 346,684 L 369,508 C 377,444 397,411 428,410 L 1163,1116 C 1174,1127 1196,1133 1229,1133 1271,1133 1292,1118 1292,1087 L 1292,965 C 1292,929 1282,901 1262,881 L 442,47 C 390,-6 338,-33 285,-33 Z"/>
  </g>
  <g id="bullet-char-template-9679" transform="scale(0.00048828125,-0.00048828125)">
   <path d="M 813,0 C 632,0 489,54 383,161 276,268 223,411 223,592 223,773 276,916 383,1023 489,1130 632,1184 813,1184 992,1184 1136,1130 1245,1023 1353,916 1407,772 1407,592 1407,412 1353,268 1245,161 1136,54 992,0 813,0 Z"/>
  </g>
  <g id="bullet-char-template-8226" transform="scale(0.00048828125,-0.00048828125)">
   <path d="M 346,457 C 273,457 209,483 155,535 101,586 74,649 74,723 74,796 101,859 155,911 209,963 273,989 346,989 419,989 480,963 531,910 582,859 608,796 608,723 608,648 583,586 532,535 482,483 420,457 346,457 Z"/>
  </g>
  <g id="bullet-char-template-8211" transform="scale(0.00048828125,-0.00048828125)">
   <path d="M -4,459 L 1135,459 1135,606 -4,606 -4,459 Z"/>
  </g>
  <g id="bullet-char-template-61548" transform="scale(0.00048828125,-0.00048828125)">
   <path d="M 173,740 C 173,903 231,1043 346,1159 462,1274 601,1332 765,1332 928,1332 1067,1274 1183,1159 1299,1043 1357,903 1357,740 1357,577 1299,437 1183,322 1067,206 928,148 765,148 601,148 462,206 346,322 231,437 173,577 173,740 Z"/>
  </g>
 </defs>
 <g>
  <g id="id2" class="Master_Slide">
   <g id="bg-id2" class="Background"/>
   <g id="bo-id2" class="BackgroundObjects"/>
  </g>
 </g>
 <g class="SlideGroup">
  <g>
   <g id="container-id1">
    <g id="id1" class="Slide" clip-path="url(#presentation_clip_path)">
     <g class="Page">
      <g class="com.sun.star.drawing.ClosedBezierShape">
       <g id="id3">
        <rect class="BoundingBox" stroke="none" fill="none" x="51" y="52" width="3884" height="3909"/>
        <path fill="rgb(255,255,255)" stroke="none" d="M 197,52 L 3788,52 C 3828,52 3868,66 3894,105 3920,118 3934,158 3934,198 L 3934,3800 C 3934,3840 3920,3880 3894,3906 3868,3933 3828,3959 3788,3959 L 197,3959 C 158,3959 118,3933 92,3906 65,3880 52,3840 52,3800 L 52,198 C 52,158 65,118 92,105 118,66 158,52 197,52 Z "/>
       </g>
      </g>
      <g class="com.sun.star.drawing.ClosedBezierShape">
       <g id="id4">
        <rect class="BoundingBox" stroke="none" fill="none" x="-1" y="0" width="4003" height="4001"/>
        <path fill="rgb(226,14,24)" stroke="none" d="M 3723,172 C 3776,172 3815,212 3815,265 L 3815,3735 C 3815,3775 3776,3828 3723,3828 L 277,3828 C 224,3828 171,3775 171,3735 L 171,265 C 171,212 224,172 277,172 L 3723,172 Z M 211,0 C 92,0 0,79 0,199 L 0,3801 C 0,3894 66,3973 158,4000 L 3829,4000 C 3908,3973 3974,3920 4000,3828 L 4000,159 C 3974,66 3895,0 3802,0 L 211,0 Z "/>
       </g>
      </g>
      <g class="com.sun.star.drawing.ClosedBezierShape">
       <g id="id5">
        <rect class="BoundingBox" stroke="none" fill="none" x="527" y="1880" width="2022" height="1180"/>
        <path fill="rgb(29,29,27)" stroke="none" d="M 2547,2595 L 1980,2595 C 1900,2595 1848,2555 1848,2489 1848,2397 1900,2344 1980,2344 L 2547,2344 2547,2158 C 2442,1999 2257,1880 2032,1880 1848,1880 1676,1959 1570,2105 L 1570,1920 527,1920 527,2291 818,2291 818,3019 1280,3019 1280,2291 1465,2291 C 1451,2344 1438,2397 1438,2463 1438,2794 1702,3059 2032,3059 2257,3059 2442,2953 2547,2781 L 2547,2595 Z "/>
       </g>
      </g>
      <g class="com.sun.star.drawing.PolyPolygonShape">
       <g id="id6">
        <rect class="BoundingBox" stroke="none" fill="none" x="2533" y="1919" width="927" height="1102"/>
        <path fill="rgb(29,29,27)" stroke="none" d="M 3036,2635 L 3036,1920 2534,1920 2534,2158 2824,2476 2534,2781 2534,3019 3458,3019 3458,2635 3036,2635 Z "/>
       </g>
      </g>
      <g class="Group">
       <g class="com.sun.star.drawing.ClosedBezierShape">
        <g id="id7">
         <rect class="BoundingBox" stroke="none" fill="none" x="538" y="983" width="478" height="567"/>
         <path fill="rgb(29,29,27)" stroke="none" d="M 538,1549 L 708,983 841,983 1014,1549 908,1549 871,1416 681,1416 643,1549 538,1549 Z M 703,1338 L 849,1338 787,1120 C 784,1108 781,1091 778,1067 L 776,1067 C 773,1092 769,1111 765,1126 L 703,1338 Z "/>
        </g>
       </g>
       <g class="com.sun.star.drawing.ClosedBezierShape">
        <g id="id8">
         <rect class="BoundingBox" stroke="none" fill="none" x="1058" y="972" width="459" height="589"/>
         <path fill="rgb(29,29,27)" stroke="none" d="M 1058,1268 C 1058,1179 1086,1108 1140,1054 1195,999 1270,972 1366,972 1415,972 1464,982 1514,1002 L 1475,1086 C 1440,1067 1401,1058 1360,1058 1301,1058 1253,1076 1216,1111 1179,1147 1160,1200 1160,1272 1160,1342 1178,1394 1215,1428 1251,1462 1298,1479 1355,1479 1373,1479 1394,1476 1419,1470 L 1419,1326 1332,1326 1332,1243 1515,1243 1515,1516 C 1460,1545 1401,1560 1339,1560 1254,1560 1185,1535 1135,1486 1084,1437 1058,1364 1058,1268 Z "/>
        </g>
       </g>
       <g class="com.sun.star.drawing.ClosedBezierShape">
        <g id="id9">
         <rect class="BoundingBox" stroke="none" fill="none" x="1643" y="983" width="318" height="567"/>
         <path fill="rgb(29,29,27)" stroke="none" d="M 1644,1549 C 1644,1360 1644,1172 1644,983 1746,983 1849,983 1951,983 1951,1011 1951,1039 1951,1067 1881,1067 1811,1067 1740,1067 1740,1115 1740,1164 1740,1213 1807,1213 1873,1213 1939,1213 1939,1240 1939,1267 1939,1294 1873,1294 1807,1294 1740,1294 1740,1351 1740,1408 1740,1465 1813,1465 1886,1465 1959,1465 1959,1493 1959,1521 1959,1549 1854,1549 1749,1549 1644,1549 Z "/>
        </g>
       </g>
       <g class="com.sun.star.drawing.ClosedBezierShape">
        <g id="id10">
         <rect class="BoundingBox" stroke="none" fill="none" x="2073" y="983" width="424" height="567"/>
         <path fill="rgb(29,29,27)" stroke="none" d="M 2073,1549 L 2073,983 2167,983 2369,1318 C 2379,1333 2389,1359 2399,1396 L 2399,983 2495,983 2495,1549 2402,1549 2199,1215 C 2187,1195 2178,1169 2170,1136 L 2170,1549 2073,1549 Z "/>
        </g>
       </g>
       <g class="com.sun.star.drawing.ClosedBezierShape">
        <g id="id11">
         <rect class="BoundingBox" stroke="none" fill="none" x="2604" y="972" width="442" height="589"/>
         <path fill="rgb(29,29,27)" stroke="none" d="M 2604,1275 C 2604,1183 2631,1110 2683,1055 2736,1000 2809,972 2902,972 2946,972 2992,980 3040,995 L 3012,1083 C 2970,1066 2930,1058 2893,1058 2838,1058 2793,1076 2759,1113 2725,1150 2707,1202 2707,1269 2707,1306 2713,1339 2723,1367 2734,1394 2748,1416 2766,1431 2785,1446 2804,1457 2826,1464 2848,1471 2871,1475 2896,1475 2935,1475 2976,1468 3018,1454 L 3044,1513 C 2995,1544 2936,1560 2866,1560 2831,1560 2799,1555 2769,1544 2739,1533 2712,1517 2686,1495 2661,1473 2641,1443 2626,1406 2612,1368 2604,1324 2604,1275 Z "/>
        </g>
       </g>
       <g class="com.sun.star.drawing.ClosedBezierShape">
        <g id="id12">
         <rect class="BoundingBox" stroke="none" fill="none" x="3126" y="983" width="317" height="567"/>
         <path fill="rgb(29,29,27)" stroke="none" d="M 3126,1549 C 3126,1360 3126,1172 3126,983 3229,983 3331,983 3434,983 3434,1011 3434,1039 3434,1067 3363,1067 3293,1067 3223,1067 3223,1115 3223,1164 3223,1213 3289,1213 3356,1213 3422,1213 3422,1240 3422,1267 3422,1294 3356,1294 3289,1294 3223,1294 3223,1351 3223,1408 3223,1465 3296,1465 3369,1465 3442,1465 3442,1493 3442,1521 3442,1549 3337,1549 3232,1549 3126,1549 Z "/>
        </g>
       </g>
      </g>
     </g>
    </g>
   </g>
  </g>
 </g>
</svg>