<?xml version="1.0" encoding="UTF-8" standalone="no"?>
<!DOCTYPE svg PUBLIC "-//W3C//DTD SVG 1.1//EN" "http://www.w3.org/Graphics/SVG/1.1/DTD/svg11.dtd">
<svg width="100%" height="100%" viewBox="0 0 2224 271" version="1.1" xmlns="http://www.w3.org/2000/svg" xmlns:xlink="http://www.w3.org/1999/xlink" xml:space="preserve" xmlns:serif="http://www.serif.com/" style="fill-rule:evenodd;clip-rule:evenodd;stroke-linejoin:round;stroke-miterlimit:2;">
    <g transform="matrix(1,0,0,1,-2192.652045,-369.959354)">
        <g transform="matrix(0.659376,0,0,0.659376,1692.9845,-1612.948041)">
            <path d="M3688.083,3268.999C3673.59,3255.628 3665.46,3236.753 3665.46,3211.533C3665.46,3151.858 3710.56,3127.658 3777.66,3127.658C3844.485,3127.658 3889.86,3151.858 3889.86,3211.533C3889.86,3236.753 3881.68,3255.628 3867.152,3268.999L3867.254,3268.999L3777.66,3351.812L3688.066,3268.999L3688.083,3268.999ZM3777.66,3255.808C3821.11,3255.808 3842.56,3245.083 3842.56,3211.533C3842.56,3177.708 3821.11,3166.983 3777.66,3166.983C3733.935,3166.983 3712.485,3177.708 3712.485,3211.533C3712.485,3245.083 3733.935,3255.808 3777.66,3255.808ZM1980.26,3250.858L2128.76,3250.858L2128.76,3292.383L1930.76,3292.383L1930.76,3099.883L1980.26,3099.883L1980.26,3250.858ZM2247.285,3295.133C2180.185,3295.133 2135.085,3270.933 2135.085,3211.533C2135.085,3151.858 2180.185,3127.658 2247.285,3127.658C2314.11,3127.658 2359.485,3151.858 2359.485,3211.533C2359.485,3270.933 2314.11,3295.133 2247.285,3295.133ZM2247.285,3255.808C2290.735,3255.808 2312.185,3245.083 2312.185,3211.533C2312.185,3177.708 2290.735,3166.983 2247.285,3166.983C2203.56,3166.983 2182.11,3177.708 2182.11,3211.533C2182.11,3245.083 2203.56,3255.808 2247.285,3255.808ZM2369.11,3211.533C2369.11,3151.858 2414.21,3127.658 2481.31,3127.658C2541.81,3127.658 2584.435,3147.458 2592.135,3195.033L2544.01,3195.033C2537.685,3174.133 2515.41,3166.983 2481.31,3166.983C2440.885,3166.983 2416.135,3177.708 2416.135,3211.533C2416.135,3245.083 2440.885,3255.808 2481.31,3255.808C2515.41,3255.808 2537.685,3248.658 2544.01,3227.758L2592.135,3227.758C2584.435,3275.333 2541.81,3295.133 2481.31,3295.133C2414.21,3295.133 2369.11,3270.933 2369.11,3211.533ZM2712.035,3127.658C2779.685,3127.658 2818.185,3149.383 2818.735,3210.708L2818.735,3292.383L2771.435,3292.383L2771.435,3272.308C2742.835,3286.333 2711.21,3295.133 2672.985,3295.133C2627.61,3295.133 2599.285,3280.558 2599.285,3243.983C2599.285,3201.908 2645.485,3188.708 2696.91,3188.708C2724.685,3188.708 2750.26,3193.108 2771.435,3200.258C2771.435,3169.458 2731.835,3166.983 2709.835,3166.983C2688.66,3166.983 2662.81,3168.908 2629.535,3178.808L2612.76,3144.433C2645.76,3133.708 2678.21,3127.658 2712.035,3127.658ZM2771.435,3242.058L2771.435,3229.408C2754.935,3224.183 2732.66,3219.508 2702.685,3219.508C2667.485,3219.508 2646.31,3225.558 2646.31,3242.058C2646.31,3259.108 2661.985,3260.483 2686.46,3260.483C2712.035,3260.483 2747.235,3252.508 2771.435,3242.058ZM2836.885,3072.383L2883.91,3072.383L2883.91,3292.383L2836.885,3292.383L2836.885,3072.383ZM2902.06,3072.383L2949.085,3072.383L2949.085,3113.358L2902.06,3113.358L2902.06,3072.383ZM2902.06,3130.408L2949.085,3130.408L2949.085,3292.383L2902.06,3292.383L2902.06,3130.408ZM2963.11,3235.458L3010.135,3235.458C3010.135,3252.783 3028.01,3259.383 3080.535,3259.383C3131.41,3259.383 3139.66,3256.083 3139.66,3243.433C3139.66,3231.058 3131.96,3230.233 3075.035,3226.658C3003.81,3222.533 2968.885,3217.033 2968.885,3177.983C2968.885,3135.633 3018.385,3127.658 3076.135,3127.658C3137.185,3127.658 3181.46,3135.633 3181.46,3180.183L3134.16,3180.183C3134.16,3166.708 3117.11,3163.408 3073.385,3163.408C3028.835,3163.408 3016.185,3166.708 3016.185,3176.058C3016.185,3186.233 3024.71,3187.883 3080.535,3192.008C3143.785,3196.683 3186.96,3198.333 3186.96,3241.508C3186.96,3287.158 3145.71,3295.133 3083.285,3295.133C3020.86,3295.133 2963.11,3287.158 2963.11,3235.458ZM3312.36,3127.658C3380.01,3127.658 3418.51,3149.383 3419.06,3210.708L3419.06,3292.383L3371.76,3292.383L3371.76,3272.308C3343.16,3286.333 3311.535,3295.133 3273.31,3295.133C3227.935,3295.133 3199.61,3280.558 3199.61,3243.983C3199.61,3201.908 3245.81,3188.708 3297.235,3188.708C3325.01,3188.708 3350.585,3193.108 3371.76,3200.258C3371.76,3169.458 3332.16,3166.983 3310.16,3166.983C3288.985,3166.983 3263.135,3168.908 3229.86,3178.808L3213.085,3144.433C3246.085,3133.708 3278.535,3127.658 3312.36,3127.658ZM3371.76,3242.058L3371.76,3229.408C3355.26,3224.183 3332.985,3219.508 3303.01,3219.508C3267.81,3219.508 3246.635,3225.558 3246.635,3242.058C3246.635,3259.108 3262.31,3260.483 3286.785,3260.483C3312.36,3260.483 3347.56,3252.508 3371.76,3242.058ZM3589.01,3169.733L3512.285,3169.733L3512.285,3216.483C3512.285,3247.833 3518.335,3255.808 3546.935,3255.808C3561.785,3255.808 3570.035,3255.808 3589.01,3253.058L3589.01,3291.008C3573.335,3293.758 3555.46,3295.133 3533.735,3295.133C3491.935,3295.133 3464.985,3279.458 3464.985,3243.708L3464.985,3169.733L3422.36,3169.733L3422.36,3130.408L3464.985,3130.408L3464.985,3096.858L3512.285,3083.383L3512.285,3130.408L3589.01,3130.408L3589.01,3169.733ZM3604.41,3072.383L3651.435,3072.383L3651.435,3113.358L3604.41,3113.358L3604.41,3072.383ZM3604.41,3130.408L3651.435,3130.408L3651.435,3292.383L3604.41,3292.383L3604.41,3130.408ZM4045.235,3127.658C4088.41,3127.658 4128.835,3143.058 4129.385,3202.733L4128.835,3292.383L4081.535,3292.383L4081.535,3220.608C4081.535,3186.233 4069.985,3168.358 4031.21,3168.358C3999.585,3168.358 3965.485,3184.583 3950.91,3201.633L3950.91,3292.383L3903.885,3292.383L3903.885,3130.408L3950.91,3130.408L3950.91,3158.733C3974.01,3140.583 4005.91,3127.658 4045.235,3127.658Z" style="fill:url(#_Linear1);"/>
        </g>
        <g transform="matrix(0.273505,0,0,0.273424,1181.22872,369.959354)">
            <path d="M5373,234L5384,390L4904,391C4847,391 4801,436 4801,493C4802,552 4848,598 4905,598L5385,597L5374,754C5287,895 5132,988 4953,988C4682,988 4460,767 4460,493C4460,444 4468,395 4482,350L4327,350L4328,954L3936,954L3935,350L3698,350L3698,35L4564,35L4564,190C4654,74 4795,0 4953,0C5132,0 5287,93 5373,234ZM5374,754L5615,494L5373,234L5373,35L5782,35L5783,623L6137,623L6138,953L5374,954L5374,754Z" style="fill:url(#_Linear2);"/>
        </g>
    </g>
    <defs>
        <linearGradient id="_Linear1" x1="0" y1="0" x2="1" y2="0" gradientUnits="userSpaceOnUse" gradientTransform="matrix(2804.96306,-344.562397,344.562397,2804.96306,1267.027647,3351.812321)"><stop offset="0" style="stop-color:rgb(255,0,0);stop-opacity:1"/><stop offset="0.5" style="stop-color:rgb(102,25,245);stop-opacity:1"/><stop offset="1" style="stop-color:rgb(77,77,255);stop-opacity:1"/></linearGradient>
        <linearGradient id="_Linear2" x1="0" y1="0" x2="1" y2="0" gradientUnits="userSpaceOnUse" gradientTransform="matrix(6762.293215,-830.929456,830.68187,6764.308724,4925.688826,830.929456)"><stop offset="0" style="stop-color:rgb(255,0,0);stop-opacity:1"/><stop offset="0.5" style="stop-color:rgb(102,25,245);stop-opacity:1"/><stop offset="1" style="stop-color:rgb(77,77,255);stop-opacity:1"/></linearGradient>
    </defs>
</svg>
