<?xml version="1.0" encoding="UTF-8"?>
<!DOCTYPE svg PUBLIC "-//W3C//DTD SVG 1.1//EN" "http://www.w3.org/Graphics/SVG/1.1/DTD/svg11.dtd">
<svg version="1.2" width="64mm" height="64mm" viewBox="0 0 6400 6400" preserveAspectRatio="xMidYMid" fill-rule="evenodd" stroke-width="28.222" stroke-linejoin="round" xmlns="http://www.w3.org/2000/svg" xmlns:ooo="http://xml.openoffice.org/svg/export" xmlns:xlink="http://www.w3.org/1999/xlink" xmlns:presentation="http://sun.com/xmlns/staroffice/presentation" xmlns:smil="http://www.w3.org/2001/SMIL20/" xmlns:anim="urn:oasis:names:tc:opendocument:xmlns:animation:1.0" xmlns:svg="urn:oasis:names:tc:opendocument:xmlns:svg-compatible:1.0" xml:space="preserve">
 <defs class="ClipPathGroup">
  <clipPath id="presentation_clip_path" clipPathUnits="userSpaceOnUse">
   <rect x="0" y="0" width="6400" height="6400"/>
  </clipPath>
  <clipPath id="presentation_clip_path_shrink" clipPathUnits="userSpaceOnUse">
   <rect x="6" y="6" width="6388" height="6388"/>
  </clipPath>
 </defs>
 <defs class="TextShapeIndex">
  <g ooo:slide="id1" ooo:id-list="id3 id4 id5 id6 id7 id8"/>
 </defs>
 <defs class="EmbeddedBulletChars">
  <g id="bullet-char-template-57356" transform="scale(0.00048828125,-0.00048828125)">
   <path d="M 580,1141 L 1163,571 580,0 -4,571 580,1141 Z"/>
  </g>
  <g id="bullet-char-template-57354" transform="scale(0.00048828125,-0.00048828125)">
   <path d="M 8,1128 L 1137,1128 1137,0 8,0 8,1128 Z"/>
  </g>
  <g id="bullet-char-template-10146" transform="scale(0.00048828125,-0.00048828125)">
   <path d="M 174,0 L 602,739 174,1481 1456,739 174,0 Z M 1358,739 L 309,1346 659,739 1358,739 Z"/>
  </g>
  <g id="bullet-char-template-10132" transform="scale(0.00048828125,-0.00048828125)">
   <path d="M 2015,739 L 1276,0 717,0 1260,543 174,543 174,936 1260,936 717,1481 1274,1481 2015,739 Z"/>
  </g>
  <g id="bullet-char-template-10007" transform="scale(0.00048828125,-0.00048828125)">
   <path d="M 0,-2 C -7,14 -16,27 -25,37 L 356,567 C 262,823 215,952 215,954 215,979 228,992 255,992 264,992 276,990 289,987 310,991 331,999 354,1012 L 381,999 492,748 772,1049 836,1024 860,1049 C 881,1039 901,1025 922,1006 886,937 835,863 770,784 769,783 710,716 594,584 L 774,223 C 774,196 753,168 711,139 L 727,119 C 717,90 699,76 672,76 641,76 570,178 457,381 L 164,-76 C 142,-110 111,-127 72,-127 30,-127 9,-110 8,-76 1,-67 -2,-52 -2,-32 -2,-23 -1,-13 0,-2 Z"/>
  </g>
  <g id="bullet-char-template-10004" transform="scale(0.00048828125,-0.00048828125)">
   <path d="M 285,-33 C 182,-33 111,30 74,156 52,228 41,333 41,471 41,549 55,616 82,672 116,743 169,778 240,778 293,778 328,747 346,684 L 369,508 C 377,444 397,411 428,410 L 1163,1116 C 1174,1127 1196,1133 1229,1133 1271,1133 1292,1118 1292,1087 L 1292,965 C 1292,929 1282,901 1262,881 L 442,47 C 390,-6 338,-33 285,-33 Z"/>
  </g>
  <g id="bullet-char-template-9679" transform="scale(0.00048828125,-0.00048828125)">
   <path d="M 813,0 C 632,0 489,54 383,161 276,268 223,411 223,592 223,773 276,916 383,1023 489,1130 632,1184 813,1184 992,1184 1136,1130 1245,1023 1353,916 1407,772 1407,592 1407,412 1353,268 1245,161 1136,54 992,0 813,0 Z"/>
  </g>
  <g id="bullet-char-template-8226" transform="scale(0.00048828125,-0.00048828125)">
   <path d="M 346,457 C 273,457 209,483 155,535 101,586 74,649 74,723 74,796 101,859 155,911 209,963 273,989 346,989 419,989 480,963 531,910 582,859 608,796 608,723 608,648 583,586 532,535 482,483 420,457 346,457 Z"/>
  </g>
  <g id="bullet-char-template-8211" transform="scale(0.00048828125,-0.00048828125)">
   <path d="M -4,459 L 1135,459 1135,606 -4,606 -4,459 Z"/>
  </g>
  <g id="bullet-char-template-61548" transform="scale(0.00048828125,-0.00048828125)">
   <path d="M 173,740 C 173,903 231,1043 346,1159 462,1274 601,1332 765,1332 928,1332 1067,1274 1183,1159 1299,1043 1357,903 1357,740 1357,577 1299,437 1183,322 1067,206 928,148 765,148 601,148 462,206 346,322 231,437 173,577 173,740 Z"/>
  </g>
 </defs>
 <g>
  <g id="id2" class="Master_Slide">
   <g id="bg-id2" class="Background"/>
   <g id="bo-id2" class="BackgroundObjects"/>
  </g>
 </g>
 <g class="SlideGroup">
  <g>
   <g id="container-id1">
    <g id="id1" class="Slide" clip-path="url(#presentation_clip_path)">
     <g class="Page">
      <g class="com.sun.star.drawing.PolyPolygonShape">
       <g id="id3">
        <rect class="BoundingBox" stroke="none" fill="none" x="250" y="249" width="5925" height="5925"/>
        <path fill="rgb(71,99,184)" stroke="none" d="M 250,250 L 6173,250 6173,6173 250,6173 250,250 Z "/>
       </g>
      </g>
      <g class="com.sun.star.drawing.PolyPolygonShape">
       <g id="id4">
        <rect class="BoundingBox" stroke="none" fill="none" x="0" y="0" width="6424" height="6424"/>
        <path fill="rgb(71,99,184)" stroke="none" d="M 500,5923 L 5923,5923 5923,500 500,500 500,5923 Z M 6423,6423 L 0,6423 0,0 6423,0 6423,6423 Z "/>
       </g>
      </g>
      <g class="com.sun.star.drawing.ClosedBezierShape">
       <g id="id5">
        <rect class="BoundingBox" stroke="none" fill="none" x="2282" y="445" width="3697" height="2371"/>
        <path fill="rgb(255,255,255)" stroke="none" d="M 3674,2108 C 3674,1837 3522,1608 3304,1489 L 3369,1315 4261,2206 C 4282,2239 4304,2250 4337,2250 L 4587,2250 C 4652,2565 4934,2815 5282,2815 5673,2815 5978,2500 5978,2108 5967,1554 5413,1261 4956,1489 L 4695,1098 4695,946 4847,946 C 4902,946 4945,891 4945,837 4945,783 4902,739 4847,739 L 4348,739 C 4293,739 4250,783 4250,837 4250,891 4293,946 4348,946 L 4489,946 4489,1032 3435,1032 3435,728 C 3435,685 3467,652 3511,652 L 3695,652 C 3750,652 3804,609 3804,554 3804,489 3750,446 3695,446 L 3511,446 C 3359,446 3228,576 3228,728 L 3228,1119 3119,1424 C 2717,1337 2283,1630 2283,2108 2272,2500 2598,2815 2978,2815 3359,2815 3674,2500 3674,2108 Z M 5282,2250 C 5326,2250 5358,2217 5380,2184 5391,2152 5391,2108 5369,2076 L 5076,1652 C 5456,1511 5771,1782 5771,2108 5771,2391 5554,2608 5282,2608 5043,2608 4858,2456 4804,2250 L 5282,2250 Z M 4782,2032 C 4804,1934 4847,1848 4913,1771 L 5076,2032 4782,2032 Z M 3576,1228 L 4543,1228 4793,1598 C 4674,1717 4597,1858 4576,2032 L 4380,2032 3576,1228 Z M 3043,1619 L 2880,2065 C 2859,2119 2891,2184 2946,2195 3011,2217 3054,2184 3076,2141 L 3239,1685 C 3380,1771 3467,1924 3467,2108 3467,2391 3250,2608 2978,2608 2707,2608 2489,2391 2489,2108 2489,1815 2750,1576 3043,1619 Z "/>
       </g>
      </g>
      <g class="com.sun.star.drawing.ClosedBezierShape">
       <g id="id6">
        <rect class="BoundingBox" stroke="none" fill="none" x="543" y="2814" width="2306" height="3121"/>
        <path fill="rgb(255,255,255)" stroke="none" d="M 544,2815 L 544,5934 1120,5934 1120,4890 1793,4890 C 2380,4890 2848,4434 2848,3858 2848,3282 2380,2815 1793,2815 L 544,2815 Z M 1120,4358 L 1120,3423 1793,3423 C 2054,3423 2272,3641 2272,3891 2272,4151 2054,4358 1793,4358 L 1120,4358 Z "/>
       </g>
      </g>
      <g class="com.sun.star.drawing.PolyPolygonShape">
       <g id="id7">
        <rect class="BoundingBox" stroke="none" fill="none" x="2673" y="4825" width="1208" height="1208"/>
        <path fill="rgb(255,255,255)" stroke="none" d="M 2674,5293 L 3130,5293 3130,4825 3424,4825 3424,5293 3880,5293 3880,5575 3424,5575 3424,6032 3130,6032 3130,5575 2674,5575 2674,5293 Z "/>
       </g>
      </g>
      <g class="com.sun.star.drawing.ClosedBezierShape">
       <g id="id8">
        <rect class="BoundingBox" stroke="none" fill="none" x="4358" y="4368" width="1425" height="1698"/>
        <path fill="rgb(255,255,255)" stroke="none" d="M 5782,6064 L 5228,6064 4815,5412 4815,6064 4358,6064 4358,4369 5054,4369 C 5151,4369 5228,4380 5304,4412 5369,4434 5434,4478 5478,4521 5521,4564 5554,4630 5575,4684 5597,4749 5608,4814 5608,4890 5608,5021 5586,5119 5521,5206 5456,5282 5369,5336 5249,5369 L 5782,6064 Z M 4815,5119 L 4891,5119 C 4978,5119 5043,5108 5097,5064 5141,5032 5162,4977 5162,4912 5162,4847 5141,4793 5097,4760 5043,4727 4978,4706 4891,4706 L 4815,4706 4815,5119 Z "/>
       </g>
      </g>
     </g>
    </g>
   </g>
  </g>
 </g>
</svg>