<?xml version="1.0" encoding="UTF-8" standalone="no"?>
<!DOCTYPE svg PUBLIC "-//W3C//DTD SVG 1.1//EN" "http://www.w3.org/Graphics/SVG/1.1/DTD/svg11.dtd">
<svg width="100%" height="100%" viewBox="0 0 1241 1241" version="1.1" xmlns="http://www.w3.org/2000/svg" xmlns:xlink="http://www.w3.org/1999/xlink" xml:space="preserve" xmlns:serif="http://www.serif.com/" style="fill-rule:evenodd;clip-rule:evenodd;stroke-linejoin:round;stroke-miterlimit:2;">
    <g transform="matrix(1,0,0,1,-1912.549495,-464.344949)">
        <g transform="matrix(4.166667,0,0,4.166667,1912.549495,464.344949)">
            <rect x="0" y="0" width="297.638" height="297.638" style="fill:rgb(35,31,32);"/>
        </g>
        <g transform="matrix(62.911761,0,0,62.911761,2633.696405,1454.796637)">
            <path d="M0,-13.879L-8.782,-13.879L-8.782,-9.882L-3.417,-9.882L-3.417,-12.131L0.163,-8.238L-3.417,-4.344L-3.417,-6.594L-8.782,-6.594L-8.782,0L-3.417,0L-3.417,-2.594L0,-2.594C3.076,-2.594 5.569,-5.121 5.569,-8.237C5.569,-11.352 3.076,-13.879 0,-13.879" style="fill:rgb(255,242,0);fill-rule:nonzero;"/>
        </g>
        <g transform="matrix(9.600088,0,0,9.600088,2094.215196,1631.74707)">
            <path d="M0,-10.113L0,0L-0.756,0L-0.756,-8.986L-4.449,-2.774L-4.577,-2.774L-8.27,-8.986L-8.27,0L-9.026,0L-9.026,-10.113L-8.085,-10.113L-4.52,-4.132L-0.955,-10.113L0,-10.113Z" style="fill:rgb(255,242,0);fill-rule:nonzero;"/>
        </g>
        <g transform="matrix(9.600088,0,0,9.600088,2165.252969,1596.663548)">
            <path d="M0,-2.601C0.656,-1.85 0.984,-0.954 0.984,0.072C0.984,0.144 0.97,0.346 0.97,0.418L-5.489,0.418C-5.404,1.228 -5.091,1.878 -4.534,2.383C-3.978,2.874 -3.28,3.12 -2.467,3.12C-1.326,3.12 -0.442,2.6 0,1.805L0.627,2.181C0.043,3.178 -1.098,3.814 -2.481,3.814C-3.579,3.814 -4.477,3.467 -5.176,2.759C-5.875,2.051 -6.231,1.141 -6.231,0.043C-6.231,-1.041 -5.889,-1.937 -5.204,-2.645C-4.506,-3.367 -3.622,-3.728 -2.538,-3.728C-1.497,-3.728 -0.642,-3.352 0,-2.601M-4.563,-2.269C-5.105,-1.763 -5.418,-1.099 -5.489,-0.29L0.242,-0.29C0.171,-1.142 -0.143,-1.821 -0.67,-2.298C-1.198,-2.789 -1.811,-3.034 -2.538,-3.034C-3.351,-3.034 -4.021,-2.774 -4.563,-2.269M-1.226,-6.415L-2.524,-4.58L-3.222,-4.58L-2.082,-6.415L-1.226,-6.415Z" style="fill:rgb(255,242,0);fill-rule:nonzero;"/>
        </g>
        <g transform="matrix(9.600088,0,0,9.600088,2217.127045,1608.306535)">
            <path d="M0,-4.074L-2.125,-4.074L-2.125,0.621C-2.125,1.878 -1.454,1.936 0,1.791L0,2.442C-1.925,2.73 -2.852,2.225 -2.852,0.621L-2.852,-4.074L-4.42,-4.074L-4.42,-4.782L-2.852,-4.782L-2.852,-6.588L-2.125,-6.804L-2.125,-4.782L0,-4.782L0,-4.074Z" style="fill:rgb(255,242,0);fill-rule:nonzero;"/>
        </g>
        <g transform="matrix(9.600088,0,0,9.600088,2233.824478,1617.186617)">
            <path d="M0,-4.291C0.428,-5.302 1.226,-5.808 2.381,-5.808L2.381,-5.114C1.026,-5.114 0,-4.233 0,-2.5L0,1.517L-0.713,1.517L-0.713,-5.707L0,-5.707L0,-4.291Z" style="fill:rgb(255,242,0);fill-rule:nonzero;"/>
        </g>
        <g transform="matrix(9.600088,0,0,9.600088,2265.57869,1571.270355)">
            <path d="M0,5.375C-0.727,4.638 -1.083,3.742 -1.083,2.688C-1.083,1.633 -0.727,0.737 0,0.015C0.727,-0.722 1.626,-1.083 2.667,-1.083C3.707,-1.083 4.577,-0.722 5.304,0.015C6.032,0.737 6.402,1.633 6.402,2.688C6.402,3.742 6.032,4.638 5.304,5.375C4.577,6.097 3.707,6.458 2.667,6.458C1.626,6.458 0.727,6.097 0,5.375M2.667,5.765C3.508,5.765 4.221,5.462 4.805,4.869C5.39,4.277 5.675,3.54 5.675,2.688C5.675,1.835 5.39,1.099 4.805,0.506C4.221,-0.086 3.508,-0.389 2.667,-0.389C1.825,-0.389 1.098,-0.086 0.513,0.506C-0.071,1.099 -0.356,1.835 -0.356,2.688C-0.356,3.54 -0.071,4.277 0.513,4.869C1.098,5.462 1.825,5.765 2.667,5.765" style="fill:rgb(255,242,0);fill-rule:nonzero;"/>
        </g>
        <g transform="matrix(9.600088,0,0,9.600088,2398.215427,1648.945628)">
            <path d="M0,-8.076C0.727,-7.354 1.084,-6.458 1.084,-5.403C1.084,-4.349 0.727,-3.453 0,-2.716C-0.713,-1.994 -1.583,-1.633 -2.609,-1.633C-3.964,-1.633 -5.09,-2.326 -5.675,-3.467L-5.675,1.098L-6.388,1.098L-6.388,-9.015L-5.675,-9.015L-5.675,-7.339C-5.09,-8.48 -3.964,-9.174 -2.609,-9.174C-1.583,-9.174 -0.713,-8.813 0,-8.076M-2.652,-2.326C-1.811,-2.326 -1.098,-2.629 -0.513,-3.222C0.071,-3.814 0.371,-4.551 0.371,-5.403C0.371,-6.256 0.071,-6.992 -0.513,-7.585C-1.098,-8.177 -1.811,-8.48 -2.652,-8.48C-3.493,-8.48 -4.22,-8.177 -4.805,-7.585C-5.39,-6.992 -5.675,-6.256 -5.675,-5.403C-5.675,-4.551 -5.39,-3.814 -4.805,-3.222C-4.22,-2.629 -3.493,-2.326 -2.652,-2.326" style="fill:rgb(255,242,0);fill-rule:nonzero;"/>
        </g>
        <g transform="matrix(9.600088,0,0,9.600088,2424.357427,1571.270355)">
            <path d="M0,5.375C-0.727,4.638 -1.083,3.742 -1.083,2.688C-1.083,1.633 -0.727,0.737 0,0.015C0.727,-0.722 1.626,-1.083 2.667,-1.083C3.707,-1.083 4.577,-0.722 5.304,0.015C6.031,0.737 6.402,1.633 6.402,2.688C6.402,3.742 6.031,4.638 5.304,5.375C4.577,6.097 3.707,6.458 2.667,6.458C1.626,6.458 0.727,6.097 0,5.375M2.667,5.765C3.507,5.765 4.22,5.462 4.805,4.869C5.39,4.277 5.675,3.54 5.675,2.688C5.675,1.835 5.39,1.099 4.805,0.506C4.22,-0.086 3.507,-0.389 2.667,-0.389C1.825,-0.389 1.098,-0.086 0.513,0.506C-0.071,1.099 -0.357,1.835 -0.357,2.688C-0.357,3.54 -0.071,4.277 0.513,4.869C1.098,5.462 1.825,5.765 2.667,5.765" style="fill:rgb(255,242,0);fill-rule:nonzero;"/>
        </g>
        <g transform="matrix(9.600088,0,0,9.600088,545.440658,1185.200891)">
            <rect x="203.147" y="35.969" width="0.713" height="10.546" style="fill:rgb(255,242,0);"/>
        </g>
        <g transform="matrix(9.600088,0,0,9.600088,2572.187264,1622.458985)">
            <path d="M0,-5.288C0.656,-4.537 0.984,-3.641 0.984,-2.615C0.984,-2.543 0.97,-2.341 0.97,-2.269L-5.489,-2.269C-5.404,-1.459 -5.09,-0.809 -4.534,-0.304C-3.978,0.187 -3.279,0.433 -2.467,0.433C-1.326,0.433 -0.442,-0.087 0,-0.882L0.628,-0.506C0.043,0.491 -1.098,1.127 -2.481,1.127C-3.579,1.127 -4.477,0.78 -5.176,0.072C-5.875,-0.636 -6.231,-1.546 -6.231,-2.644C-6.231,-3.728 -5.889,-4.624 -5.204,-5.332C-4.506,-6.054 -3.622,-6.415 -2.538,-6.415C-1.497,-6.415 -0.642,-6.039 0,-5.288M-4.563,-4.956C-5.105,-4.45 -5.418,-3.786 -5.489,-2.977L0.242,-2.977C0.171,-3.829 -0.143,-4.508 -0.67,-4.985C-1.198,-5.476 -1.811,-5.721 -2.538,-5.721C-3.351,-5.721 -4.021,-5.461 -4.563,-4.956" style="fill:rgb(255,242,0);fill-rule:nonzero;"/>
        </g>
        <g transform="matrix(9.600088,0,0,9.600088,2681.413227,1633.273485)">
            <path d="M0,-10.272L0.713,-10.272L0.713,-0.159L0,-0.159L0,-1.835C-0.585,-0.694 -1.711,0 -3.065,0C-4.092,0 -4.962,-0.361 -5.689,-1.083C-6.402,-1.82 -6.759,-2.716 -6.759,-3.771C-6.759,-4.825 -6.402,-5.721 -5.689,-6.443C-4.962,-7.18 -4.092,-7.542 -3.065,-7.542C-1.711,-7.542 -0.585,-6.848 0,-5.707L0,-10.272ZM-3.023,-0.694C-2.182,-0.694 -1.469,-0.997 -0.884,-1.589C-0.299,-2.182 0,-2.918 0,-3.771C0,-4.623 -0.299,-5.36 -0.884,-5.952C-1.469,-6.545 -2.182,-6.848 -3.023,-6.848C-3.864,-6.848 -4.591,-6.545 -5.176,-5.952C-5.76,-5.36 -6.046,-4.623 -6.046,-3.771C-6.046,-2.918 -5.76,-2.182 -5.176,-1.589C-4.591,-0.997 -3.864,-0.694 -3.023,-0.694" style="fill:rgb(255,242,0);fill-rule:nonzero;"/>
        </g>
        <g transform="matrix(9.600088,0,0,9.600088,2757.92785,1622.458985)">
            <path d="M0,-5.288C0.656,-4.537 0.984,-3.641 0.984,-2.615C0.984,-2.543 0.97,-2.341 0.97,-2.269L-5.489,-2.269C-5.404,-1.459 -5.09,-0.809 -4.534,-0.304C-3.978,0.187 -3.279,0.433 -2.467,0.433C-1.326,0.433 -0.442,-0.087 0,-0.882L0.628,-0.506C0.043,0.491 -1.098,1.127 -2.481,1.127C-3.579,1.127 -4.477,0.78 -5.176,0.072C-5.875,-0.636 -6.231,-1.546 -6.231,-2.644C-6.231,-3.728 -5.889,-4.624 -5.204,-5.332C-4.506,-6.054 -3.622,-6.415 -2.538,-6.415C-1.497,-6.415 -0.642,-6.039 0,-5.288M-4.563,-4.956C-5.105,-4.45 -5.418,-3.786 -5.489,-2.977L0.242,-2.977C0.171,-3.829 -0.143,-4.508 -0.67,-4.985C-1.198,-5.476 -1.811,-5.721 -2.538,-5.721C-3.351,-5.721 -4.021,-5.461 -4.563,-4.956" style="fill:rgb(255,242,0);fill-rule:nonzero;"/>
        </g>
        <g transform="matrix(9.600088,0,0,9.600088,2815.416057,1541.588803)">
            <path d="M0,8.669L4.705,8.669L4.705,9.391L-0.756,9.391L-0.756,-0.722L0,-0.722L0,8.669Z" style="fill:rgb(255,242,0);fill-rule:nonzero;"/>
        </g>
        <g transform="matrix(9.600088,0,0,9.600088,2912.327027,1660.456134)">
            <path d="M0,-10.214L0.77,-10.214L-2.31,-2.326C-2.866,-0.896 -3.935,0 -5.133,-0.101L-5.133,-0.78C-4.22,-0.708 -3.465,-1.358 -3.009,-2.47L-2.852,-2.86L-6.131,-10.214L-5.361,-10.214L-2.481,-3.785L0,-10.214Z" style="fill:rgb(255,242,0);fill-rule:nonzero;"/>
        </g>
        <g transform="matrix(9.600088,0,0,9.600088,2928.478215,1571.270355)">
            <path d="M0,5.375C-0.727,4.638 -1.083,3.742 -1.083,2.688C-1.083,1.633 -0.727,0.737 0,0.015C0.727,-0.722 1.626,-1.083 2.667,-1.083C3.707,-1.083 4.577,-0.722 5.304,0.015C6.031,0.737 6.402,1.633 6.402,2.688C6.402,3.742 6.031,4.638 5.304,5.375C4.577,6.097 3.707,6.458 2.667,6.458C1.626,6.458 0.727,6.097 0,5.375M2.667,5.765C3.507,5.765 4.22,5.462 4.805,4.869C5.39,4.277 5.675,3.54 5.675,2.688C5.675,1.835 5.39,1.099 4.805,0.506C4.22,-0.086 3.507,-0.389 2.667,-0.389C1.825,-0.389 1.098,-0.086 0.513,0.506C-0.071,1.099 -0.357,1.835 -0.357,2.688C-0.357,3.54 -0.071,4.277 0.513,4.869C1.098,5.462 1.825,5.765 2.667,5.765" style="fill:rgb(255,242,0);fill-rule:nonzero;"/>
        </g>
        <g transform="matrix(9.600088,0,0,9.600088,3057.692522,1604.012416)">
            <path d="M0,-1.604L0,2.889L-0.727,2.889L-0.727,-1.604C-0.727,-2.948 -1.497,-3.8 -2.823,-3.8C-4.292,-3.8 -5.319,-2.789 -5.319,-0.925L-5.319,2.889L-6.032,2.889L-6.032,-4.334L-5.319,-4.334L-5.319,-2.962C-4.805,-3.988 -3.95,-4.493 -2.766,-4.493C-1.069,-4.493 0,-3.352 0,-1.604" style="fill:rgb(255,242,0);fill-rule:nonzero;"/>
        </g>
    </g>
</svg>
