<?xml version="1.0" encoding="UTF-8" standalone="no"?>
<!DOCTYPE svg PUBLIC "-//W3C//DTD SVG 1.1//EN" "http://www.w3.org/Graphics/SVG/1.1/DTD/svg11.dtd">
<svg width="100%" height="100%" viewBox="0 0 1241 1241" version="1.1" xmlns="http://www.w3.org/2000/svg" xmlns:xlink="http://www.w3.org/1999/xlink" xml:space="preserve" xmlns:serif="http://www.serif.com/" style="fill-rule:evenodd;clip-rule:evenodd;stroke-linejoin:round;stroke-miterlimit:2;">
    <g transform="matrix(1,0,0,1,-1912.549495,-464.344949)">
        <g transform="matrix(4.166667,0,0,4.166667,1912.549495,464.344949)">
            <rect x="0" y="0" width="297.638" height="297.638" style="fill:rgb(21,0,255);"/>
        </g>
        <g transform="matrix(62.911761,0,0,62.911761,2634.117239,1521.421114)">
            <path d="M0,-13.879L-8.782,-13.879L-8.782,-9.882L-3.417,-9.882L-3.417,-12.131L0.163,-8.238L-3.417,-4.344L-3.417,-6.594L-8.782,-6.594L-8.782,0L-3.417,0L-3.417,-2.594L0,-2.594C3.076,-2.594 5.569,-5.121 5.569,-8.237C5.569,-11.352 3.076,-13.879 0,-13.879" style="fill:white;fill-rule:nonzero;"/>
        </g>
    </g>
</svg>
