<?xml version="1.0" standalone="no"?>
<!DOCTYPE svg PUBLIC "-//W3C//DTD SVG 20010904//EN"
 "http://www.w3.org/TR/2001/REC-SVG-20010904/DTD/svg10.dtd">
<svg version="1.0" xmlns="http://www.w3.org/2000/svg"
 width="1817.782387pt" height="1818.339028pt" viewBox="0 0 1817.782387 1818.339028"
 preserveAspectRatio="xMidYMid meet">
<metadata>
Created by potrace 1.12, written by Peter Selinger 2001-2015
</metadata>
<g transform="translate(-91.115614,1908.839028) scale(0.100000,-0.100000)"
fill="#000000" stroke="none">
<path d="M13395 19079 c-721 -67 -1361 -293 -1940 -683 -238 -160 -409 -303
-622 -518 -333 -335 -582 -685 -778 -1093 -239 -496 -366 -976 -406 -1530 -8
-111 -11 -780 -12 -2195 l-1 -2035 23 -52 c28 -63 95 -128 147 -142 26 -7 286
-11 786 -11 l746 0 38 -67 c120 -216 247 -378 476 -605 l178 -178 0 -99 0
-100 -32 -17 c-28 -15 -314 -144 -683 -309 -77 -34 -257 -116 -400 -181 l-260
-118 -250 -7 c-259 -7 -368 -20 -540 -64 -657 -170 -1209 -713 -1386 -1362
-12 -43 -25 -86 -30 -95 -9 -17 -183 -18 -3227 -20 l-3217 -3 -65 -24 c-106
-38 -170 -80 -251 -161 -166 -167 -226 -396 -160 -610 11 -36 63 -177 116
-315 53 -137 163 -428 245 -645 82 -217 180 -477 219 -576 38 -100 106 -280
151 -400 45 -121 95 -253 110 -294 16 -41 49 -127 73 -190 25 -63 93 -243 152
-400 60 -157 171 -449 248 -650 76 -201 140 -372 140 -380 2 -13 -112 -16
-955 -20 l-956 -5 -44 -30 c-60 -43 -105 -113 -113 -178 -3 -28 -5 -405 -3
-837 3 -740 4 -787 22 -828 24 -54 106 -129 154 -139 20 -4 4033 -8 8917 -8
8573 0 8882 1 8927 18 56 22 123 92 138 146 17 55 27 6128 11 6281 -50 481
-255 911 -587 1230 -173 167 -316 267 -519 365 -180 87 -367 147 -545 174
-102 16 -333 31 -472 31 l-126 0 -179 81 c-98 45 -281 128 -408 184 -126 57
-320 144 -430 195 -110 50 -231 106 -270 123 -38 17 -75 35 -82 40 -8 6 -11
40 -9 109 l3 100 49 40 c100 83 322 317 409 433 100 133 143 197 199 297 l37
67 767 3 767 3 44 25 c54 31 101 94 112 152 12 61 11 3913 -1 4127 -59 1065
-518 2068 -1285 2810 -323 312 -664 551 -1070 751 -455 223 -889 342 -1420
390 -129 12 -541 11 -670 -1z m667 -470 c985 -78 1937 -619 2565 -1458 374
-500 625 -1103 712 -1716 39 -272 41 -394 41 -2296 l0 -1849 -510 0 c-280 0
-510 3 -510 6 0 4 15 70 34 148 42 172 64 308 79 502 l12 146 88 29 c184 60
338 161 439 289 71 90 100 138 139 232 84 204 112 538 63 776 -80 392 -436
722 -828 768 -160 18 -457 91 -671 164 -407 139 -845 377 -1179 644 -202 161
-387 337 -544 519 -96 112 -136 142 -209 157 -98 21 -156 -9 -271 -140 -189
-216 -404 -417 -602 -565 -287 -213 -679 -421 -1061 -563 -234 -87 -630 -202
-696 -202 -15 0 -75 -11 -133 -25 -360 -87 -634 -364 -742 -751 -20 -71 -22
-102 -22 -304 0 -198 3 -234 22 -302 94 -342 326 -594 650 -707 l77 -27 3 -45
c11 -207 60 -526 103 -670 10 -36 19 -71 19 -78 0 -13 -302 -15 -743 -4 l-278
6 3 2001 c3 1998 4 2001 25 2156 58 405 154 733 317 1083 303 650 822 1222
1439 1586 514 304 1060 467 1687 505 78 4 343 -4 482 -15z m-222 -3616 c320
-325 685 -595 1104 -818 298 -158 639 -286 1024 -385 l43 -11 -4 -947 c-4
-1031 -3 -1013 -64 -1262 -77 -316 -251 -662 -458 -909 -347 -413 -829 -688
-1380 -787 -124 -22 -454 -30 -597 -14 -597 64 -1151 365 -1522 825 -249 309
-403 647 -478 1051 -22 117 -22 137 -25 1085 l-4 965 83 24 c868 249 1551 631
2078 1164 57 58 107 106 109 106 3 0 44 -39 91 -87z m-2830 -1868 c0 -300 -3
-545 -6 -545 -3 0 -32 21 -65 46 -107 82 -186 205 -209 323 -13 70 -13 281 1
357 15 83 79 210 131 261 54 52 119 101 136 102 10 1 12 -113 12 -544z m5543
507 c154 -114 217 -258 217 -497 0 -153 -12 -221 -57 -315 -38 -79 -140 -192
-202 -225 l-31 -16 0 546 c0 371 3 545 10 545 6 0 34 -17 63 -38z m-3809
-4063 c198 -78 448 -140 681 -170 146 -19 502 -17 655 5 276 38 472 90 725
193 88 36 166 68 174 71 11 4 13 1 7 -14 -10 -24 -62 -261 -136 -624 -85 -415
-81 -402 -129 -464 -107 -138 -312 -298 -476 -370 -478 -209 -1029 -101 -1388
273 -136 142 -127 120 -217 532 -43 200 -93 424 -110 498 -16 73 -30 144 -30
157 l0 24 71 -36 c40 -19 117 -53 173 -75z m2936 -411 c140 -64 340 -152 443
-198 103 -46 186 -88 184 -94 -2 -6 -67 -56 -144 -111 -702 -502 -679 -485
-709 -549 -26 -56 -31 -128 -12 -173 21 -49 68 -113 242 -328 491 -610 520
-647 508 -664 -16 -23 -81 -125 -224 -356 -176 -282 -565 -903 -593 -945 -40
-63 -90 -141 -242 -385 -83 -132 -255 -406 -383 -610 -128 -203 -284 -453
-348 -555 -63 -102 -122 -192 -130 -200 -19 -20 -19 -18 52 310 61 284 153
710 216 1010 22 102 49 228 60 280 11 52 46 212 76 355 30 143 69 323 85 400
17 77 34 160 39 185 5 25 21 99 35 165 14 66 34 161 45 210 20 97 77 365 109
510 57 263 213 994 230 1084 24 116 136 651 152 721 17 72 17 72 36 62 10 -6
133 -61 273 -124z m-3557 50 c9 -40 60 -278 113 -528 52 -250 154 -727 225
-1060 71 -333 181 -848 244 -1145 63 -297 155 -729 205 -960 84 -389 194 -906
275 -1290 18 -88 38 -180 44 -205 5 -24 8 -46 7 -48 -2 -2 -14 14 -27 35 -25
42 -63 103 -291 463 -85 135 -211 335 -280 445 -69 110 -213 340 -320 510
-108 171 -316 501 -463 735 -340 540 -542 861 -557 881 -12 17 -9 20 362 480
209 258 351 441 373 480 21 36 27 59 27 105 0 89 -36 144 -147 226 -87 65
-470 339 -650 467 -51 35 -92 66 -90 67 1 1 58 26 127 57 419 186 712 318 746
335 21 12 44 21 50 22 6 0 18 -33 27 -72z m-1408 -598 c50 -35 205 -148 345
-250 140 -103 292 -212 338 -244 45 -32 82 -62 82 -67 0 -8 -118 -157 -519
-654 -198 -245 -218 -286 -184 -386 10 -30 120 -216 248 -419 126 -201 320
-509 430 -685 111 -176 275 -437 365 -580 89 -143 216 -343 280 -445 65 -102
158 -249 206 -327 107 -171 367 -586 595 -946 91 -144 222 -353 291 -464 l127
-203 -1044 0 -1045 0 0 1207 c0 1196 0 1207 -21 1249 -69 143 -244 178 -364
72 -80 -70 -77 -39 -78 -798 l-2 -672 -23 54 c-22 49 -152 390 -484 1268 -71
190 -193 509 -269 710 -247 648 -287 753 -334 885 -83 230 -164 365 -289 482
-105 99 -246 172 -365 189 -72 10 -72 11 -50 79 121 360 428 704 774 866 118
55 272 104 390 123 140 22 160 23 345 22 l165 -1 90 -65z m6654 50 c558 -101
1001 -483 1176 -1015 75 -228 69 -19 72 -2487 l3 -2218 -950 0 -950 0 -2 1208
-3 1207 -22 40 c-51 94 -108 129 -209 130 -61 0 -77 -4 -119 -30 -31 -19 -61
-49 -80 -79 l-30 -49 -3 -1214 -2 -1213 -1041 0 -1041 0 14 23 c53 81 434 687
725 1152 55 88 194 309 308 490 114 182 297 472 405 645 109 173 302 482 430
685 443 704 612 977 641 1032 34 65 38 130 12 195 -10 25 -160 221 -362 472
-304 380 -342 431 -326 440 28 17 754 540 811 585 25 20 39 21 229 21 158 0
225 -4 314 -20z m-4408 -859 c83 -45 228 -99 354 -131 374 -94 815 -54 1163
106 126 58 125 58 118 32 -11 -40 -103 -464 -166 -768 -34 -162 -111 -527
-172 -810 -60 -283 -197 -931 -305 -1440 -107 -509 -197 -927 -199 -929 -9 -9
-16 11 -34 95 -10 49 -32 152 -49 229 -16 77 -71 331 -120 565 -89 418 -125
588 -216 1005 -25 116 -79 368 -120 560 -41 193 -93 436 -115 540 -22 105 -65
305 -95 445 -95 445 -106 495 -111 513 -7 24 4 22 67 -12z m-4015 -683 c65
-23 127 -68 159 -115 21 -32 66 -140 165 -398 10 -27 67 -178 126 -335 59
-157 126 -334 149 -395 77 -202 230 -605 433 -1140 110 -291 269 -710 353
-930 84 -220 189 -500 235 -622 45 -122 85 -226 89 -232 4 -8 -1021 -10 -3577
-9 l-3583 3 -24 60 c-39 97 -215 560 -321 841 -54 143 -159 420 -233 615 -141
367 -457 1201 -674 1774 -69 182 -157 413 -195 513 -85 223 -87 237 -58 297
29 60 59 79 140 86 36 3 1573 6 3415 5 3150 -1 3353 -2 3401 -18z m9664 -5193
l0 -545 -8615 0 -8615 0 0 545 0 545 8615 0 8615 0 0 -545z"/>
<path d="M12556 13355 c-53 -19 -106 -63 -130 -111 -19 -35 -21 -60 -24 -254
-4 -251 0 -285 37 -339 43 -66 94 -95 173 -99 86 -5 131 10 184 63 64 65 74
109 74 340 0 227 -10 274 -72 341 -61 67 -156 90 -242 59z"/>
<path d="M14777 13356 c-65 -24 -119 -80 -142 -148 -14 -39 -16 -86 -13 -270
3 -206 5 -226 25 -263 45 -84 114 -125 210 -125 74 0 129 25 174 79 53 61 59
93 59 328 0 165 -3 219 -16 256 -40 117 -180 184 -297 143z"/>
<path d="M5910 5514 c-220 -59 -389 -231 -446 -454 -26 -102 -16 -251 25 -360
110 -292 293 -493 564 -620 136 -64 230 -84 387 -84 120 0 143 3 207 26 102
36 157 71 232 147 152 152 213 371 161 577 -28 111 -125 302 -203 399 -153
189 -404 337 -637 374 -90 15 -224 12 -290 -5z m292 -478 c96 -34 154 -70 224
-140 197 -198 195 -436 -4 -436 -144 0 -328 111 -422 253 -97 148 -99 292 -5
333 47 21 132 16 207 -10z"/>
<path d="M5225 14553 c-222 -18 -505 -79 -690 -147 -299 -111 -627 -317 -861
-543 -393 -378 -654 -883 -739 -1433 -26 -163 -31 -468 -11 -625 51 -399 197
-848 397 -1223 298 -557 659 -1065 1163 -1632 146 -163 644 -664 740 -743 85
-69 144 -87 226 -67 72 17 146 80 430 362 598 594 1063 1171 1410 1753 532
889 701 1639 534 2370 -104 452 -303 819 -644 1185 -175 187 -502 417 -752
527 -377 167 -829 248 -1203 216z m495 -492 c326 -57 615 -180 875 -373 402
-299 681 -737 779 -1228 84 -418 36 -817 -156 -1306 -42 -109 -179 -392 -259
-534 -203 -367 -534 -821 -914 -1255 -119 -136 -503 -543 -604 -640 l-41 -39
-42 39 c-72 66 -334 333 -452 460 -837 905 -1376 1817 -1501 2545 -110 633
105 1303 564 1760 324 322 730 525 1156 579 50 6 104 13 120 15 73 10 366 -4
475 -23z"/>
<path d="M5260 13424 c-312 -40 -575 -168 -787 -383 -137 -139 -245 -316 -308
-504 -85 -254 -88 -536 -9 -791 37 -119 124 -289 197 -386 348 -461 934 -639
1475 -449 453 160 773 546 848 1022 22 136 14 366 -15 487 -126 507 -516 886
-1015 986 -72 14 -322 26 -386 18z m380 -503 c138 -44 238 -107 345 -215 170
-172 245 -374 232 -624 -19 -359 -246 -641 -604 -748 -113 -34 -297 -39 -408
-10 -96 24 -258 104 -330 163 -127 103 -231 259 -275 413 -33 114 -38 289 -11
408 62 280 274 517 543 608 107 36 160 43 293 39 100 -3 136 -9 215 -34z"/>
</g>
</svg>
