<?xml version="1.0" standalone="no"?>
<!DOCTYPE svg PUBLIC "-//W3C//DTD SVG 20010904//EN"
 "http://www.w3.org/TR/2001/REC-SVG-20010904/DTD/svg10.dtd">
<svg version="1.0" xmlns="http://www.w3.org/2000/svg"
 width="1132.002020pt" height="1999.976661pt" viewBox="0 0 1132.002020 1999.976661"
 preserveAspectRatio="xMidYMid meet">
<metadata>
Created by potrace 1.12, written by Peter Selinger 2001-2015
</metadata>
<g transform="translate(-433.497980,1999.976661) scale(0.100000,-0.100000)"
fill="#000000" stroke="none">
<path d="M6120 19970 c-487 -100 -836 -283 -1160 -609 -335 -335 -541 -757
-607 -1241 -17 -129 -18 -315 -18 -4355 0 -4532 -3 -4300 51 -4563 83 -407
290 -780 600 -1082 198 -192 388 -324 609 -422 272 -121 488 -172 794 -188
104 -5 812 -10 1604 -10 l1417 0 0 -3165 0 -3165 -1132 -2 -1133 -3 -62 -22
c-236 -86 -387 -284 -400 -528 -7 -113 19 -218 79 -320 76 -129 188 -215 350
-271 l72 -24 2813 0 2814 0 77 26 c212 70 333 188 404 394 100 290 -83 627
-397 731 -32 11 -271 15 -1175 19 l-1135 5 0 73 c0 39 2 1462 3 3162 l2 3089
1543 4 c1689 4 1618 1 1882 64 622 147 1141 561 1428 1138 85 173 159 408 194
620 17 105 18 313 18 4425 0 4118 -1 4320 -18 4425 -101 615 -432 1131 -942
1471 -243 161 -491 258 -850 330 l-120 24 -3735 -1 -3735 -1 -135 -28z m7610
-1162 c187 -48 324 -125 468 -262 157 -151 256 -354 282 -583 6 -58 10 -1497
10 -4223 0 -4502 3 -4232 -55 -4406 -109 -324 -366 -552 -725 -642 -59 -15
-373 -17 -3635 -20 -2337 -2 -3605 1 -3670 7 -238 24 -431 112 -601 273 -134
127 -230 299 -272 486 -16 72 -17 347 -17 4317 0 3951 1 4245 17 4312 91 388
421 696 803 752 33 5 1674 8 3695 7 3345 -2 3640 -3 3700 -18z"/>
<path d="M7940 17649 c-623 -36 -1153 -532 -1245 -1164 -22 -151 -22 -4895 0
-5000 24 -113 77 -208 164 -295 129 -128 243 -170 469 -170 l132 0 0 -323 c0
-290 2 -332 20 -401 29 -113 73 -190 160 -276 120 -121 236 -170 400 -170 228
0 420 115 521 311 61 121 62 126 68 504 l6 350 1365 0 1365 0 2 -285 c1 -157
4 -317 7 -356 6 -79 37 -175 81 -249 64 -111 209 -219 344 -259 69 -20 217
-21 291 -1 200 53 354 198 417 392 25 75 26 89 32 418 l6 340 140 6 c79 4 168
14 205 23 198 52 341 197 407 411 17 58 18 161 18 2520 0 2320 -1 2465 -18
2555 -53 279 -184 528 -381 725 -213 212 -471 343 -756 386 -83 12 -4014 19
-4220 8z m4085 -1177 c41 -18 73 -50 98 -97 22 -40 22 -40 25 -942 l2 -903
-2150 0 -2151 0 3 908 c3 1010 -2 935 73 1000 36 32 53 39 115 45 19 2 917 4
1995 3 1597 -1 1966 -3 1990 -14z m125 -3696 l0 -583 -932 -5 c-513 -3 -1481
-3 -2150 0 l-1218 5 0 583 0 584 2150 0 2150 0 0 -584z"/>
</g>
</svg>
