<?xml version="1.0" standalone="no"?>
<!DOCTYPE svg PUBLIC "-//W3C//DTD SVG 20010904//EN"
 "http://www.w3.org/TR/2001/REC-SVG-20010904/DTD/svg10.dtd">
<svg version="1.0" xmlns="http://www.w3.org/2000/svg"
 width="906.499149pt" height="1023.931101pt" viewBox="0 0 906.499149 1023.931101"
 preserveAspectRatio="xMidYMid meet">
<metadata>
Created by potrace 1.12, written by Peter Selinger 2001-2015
</metadata>
<g transform="translate(-58.500000,1023.922802) scale(0.100000,-0.100000)"
fill="#000000" stroke="none">
<path d="M3095 10221 c-33 -9 -85 -30 -115 -46 -74 -40 -188 -155 -227 -231
-59 -112 -63 -139 -63 -545 l-1 -369 -1002 -2 -1002 -3 -33 -23 c-18 -13 -40
-38 -50 -55 -16 -30 -17 -275 -17 -4432 0 -4198 1 -4401 18 -4433 10 -17 35
-43 57 -57 l40 -25 3559 2 3560 3 28 21 c15 12 37 36 48 55 20 34 20 52 20
3405 l0 3371 -29 37 c-69 91 -199 82 -254 -17 -16 -30 -17 -213 -19 -3162 -1
-1722 -2 -3194 -3 -3272 l0 -143 -150 0 -150 0 0 4001 c0 3671 -1 4004 -16
4035 -9 19 -31 44 -48 57 l-31 22 -2954 3 -2953 2 -39 -22 c-25 -14 -46 -37
-59 -63 -20 -41 -20 -62 -20 -1545 0 -1487 0 -1504 20 -1544 30 -60 64 -81
130 -81 66 1 109 26 134 79 14 31 16 138 16 1115 l0 1081 1305 0 1305 0 0
-3570 0 -3570 -1305 0 -1305 0 -2 2182 c-3 2165 -3 2183 -23 2210 -11 15 -39
37 -63 49 -69 34 -134 15 -186 -55 l-21 -27 -3 -2180 -2 -2179 -155 0 -155 0
3 3843 c1 2113 3 4010 5 4215 l2 372 3361 -2 3361 -3 1 -625 c2 -572 3 -628
19 -657 36 -66 107 -96 177 -75 59 18 90 59 102 133 6 39 9 328 7 739 -3 654
-4 676 -23 709 -11 19 -33 43 -48 55 -28 21 -30 21 -1032 24 l-1004 2 -1 373
c-1 400 -3 426 -55 528 -74 148 -202 251 -368 295 -43 11 -248 14 -1142 13
-1001 0 -1095 -2 -1150 -18z m2280 -308 c52 -28 89 -68 114 -123 19 -43 21
-64 21 -402 l0 -358 -1260 0 -1260 0 0 359 0 359 28 52 c30 59 81 105 138 125
33 12 216 14 1109 12 l1070 -2 40 -22z m1635 -1988 l0 -195 -2760 0 -2760 0 0
195 0 195 2760 0 2760 0 0 -195z m-2 -4057 l2 -3568 -1305 0 -1305 0 0 3563
c0 1960 3 3567 7 3570 3 4 589 6 1302 4 l1296 -2 3 -3567z"/>
<path d="M3439 9606 c-90 -62 -83 -201 13 -253 29 -16 60 -18 253 -18 245 0
267 5 305 68 31 51 34 89 12 141 -37 82 -51 86 -317 86 -228 0 -231 0 -266
-24z"/>
<path d="M4529 9606 c-64 -44 -82 -131 -40 -199 42 -68 58 -72 306 -72 245 0
267 5 305 68 31 51 34 89 12 141 -37 82 -51 86 -317 86 -228 0 -231 0 -266
-24z"/>
<path d="M8859 6717 c-20 -4 -50 -23 -66 -40 -38 -41 -621 -1015 -642 -1073
-14 -40 -14 -46 5 -91 12 -30 32 -56 54 -70 l34 -23 663 2 663 3 37 38 c36 35
38 41 38 100 l-1 62 -316 525 c-173 289 -327 533 -340 543 -34 25 -86 35 -129
24z m210 -720 c89 -148 161 -270 161 -272 0 -8 -331 -13 -486 -7 l-181 7 166
277 c91 152 169 274 173 270 4 -4 79 -128 167 -275z"/>
<path d="M8245 4815 c-79 -28 -121 -111 -93 -184 16 -40 584 -994 625 -1049
13 -17 38 -39 55 -48 40 -21 116 -14 154 13 19 14 136 200 330 525 166 276
309 518 319 537 28 55 16 124 -27 168 -20 20 -51 38 -74 43 -21 5 -311 9 -644
9 -494 0 -612 -2 -645 -14z m983 -307 c-8 -13 -86 -141 -172 -286 l-158 -264
-169 282 c-93 155 -169 283 -169 286 0 2 154 4 341 4 l341 0 -14 -22z"/>
</g>
</svg>
