<?xml version="1.0" standalone="no"?>
<!DOCTYPE svg PUBLIC "-//W3C//DTD SVG 20010904//EN"
 "http://www.w3.org/TR/2001/REC-SVG-20010904/DTD/svg10.dtd">
<svg version="1.0" xmlns="http://www.w3.org/2000/svg"
 width="1999.944351pt" height="1016.937127pt" viewBox="0 0 1999.944351 1016.937127"
 preserveAspectRatio="xMidYMid meet">
<metadata>
Created by potrace 1.12, written by Peter Selinger 2001-2015
</metadata>
<g transform="translate(0.000000,1508.900612) scale(0.100000,-0.100000)"
fill="#000000" stroke="none">
<path d="M1470 15079 c-274 -25 -556 -131 -790 -297 -120 -85 -286 -251 -373
-372 -132 -185 -229 -416 -281 -670 l-26 -125 0 -2907 c0 -2891 0 -2906 21
-3009 38 -196 83 -327 166 -491 77 -152 160 -265 293 -398 282 -282 611 -436
1005 -469 71 -7 481 -11 1006 -11 l886 0 12 -56 c41 -181 148 -433 247 -579
246 -365 614 -622 1039 -728 138 -35 245 -47 404 -47 456 1 881 169 1200 475
235 226 387 477 479 795 l40 135 3147 0 3147 0 39 -136 c88 -313 235 -558 475
-790 170 -164 336 -270 570 -364 475 -192 1065 -142 1518 129 126 75 196 128
303 229 250 238 412 519 499 864 l18 72 865 4 c853 3 867 4 949 25 96 25 209
75 279 123 154 106 282 286 335 474 l23 80 3 1940 c3 1764 0 2143 -21 2370 -2
18 5 20 70 23 70 2 73 1 87 -26 8 -15 74 -167 146 -337 139 -325 171 -384 233
-434 83 -65 225 -80 329 -33 58 25 123 91 162 161 25 47 28 60 24 129 -3 67
-11 94 -60 207 -32 72 -112 261 -179 420 -67 160 -135 316 -151 349 -43 84
-108 151 -177 178 -52 21 -74 22 -337 26 l-281 4 -57 172 c-169 511 -426 971
-775 1391 -186 222 -484 503 -725 682 -239 178 -535 352 -790 465 -368 162
-784 279 -1171 328 -319 41 -159 40 -7105 39 -3644 -1 -6668 -6 -6720 -10z
m13535 -649 c471 -34 874 -142 1300 -350 267 -130 492 -274 707 -454 l96 -81
-8206 -3 c-4514 -1 -8218 0 -8230 3 -22 5 -23 9 -17 58 10 76 70 252 110 325
102 184 257 331 446 422 132 63 218 81 414 89 305 11 13214 3 13380 -9z
m-11835 -2545 l0 -1015 -1250 -1 c-687 -1 -1255 -2 -1262 -3 -8 -1 -12 247
-15 1007 -2 554 -1 1012 2 1017 4 6 472 10 1266 10 l1259 0 0 -1015z m3720 0
l0 -1015 -1535 0 -1535 0 0 1015 0 1015 1535 0 1535 0 0 -1015z m3720 0 l0
-1015 -1535 0 -1535 0 0 1015 0 1015 1535 0 1535 0 0 -1015z m3720 0 l0 -1015
-1535 0 -1535 0 0 1015 0 1015 1535 0 1535 0 0 -1015z m3363 1003 c26 -21 172
-270 257 -438 193 -385 308 -786 357 -1239 14 -136 16 -285 14 -1166 l-1
-1010 -23 3 c-75 10 -821 123 -861 131 -54 10 -30 -11 -406 357 -218 213 -974
950 -1150 1120 -118 115 -181 169 -219 188 -56 29 -137 36 -406 36 l-275 0 0
1015 0 1015 1348 0 c1063 0 1352 -3 1365 -12z m-3764 -2667 l1464 -1 171 -168
c94 -92 236 -230 316 -306 207 -199 439 -426 795 -776 171 -168 334 -325 363
-348 30 -23 76 -48 105 -57 29 -8 178 -33 332 -55 154 -23 406 -60 560 -83
l280 -42 8 -265 c4 -146 6 -430 3 -632 -5 -344 -6 -370 -26 -407 -26 -52 -73
-87 -134 -101 -54 -12 -1624 -14 -1643 -2 -6 4 -25 57 -42 119 -55 201 -127
357 -237 520 -77 114 -98 139 -208 252 -391 402 -947 584 -1515 495 -628 -98
-1171 -565 -1366 -1175 -20 -63 -44 -136 -54 -164 l-16 -50 -3144 0 -3143 0
-33 115 c-62 217 -127 357 -243 531 -202 301 -478 521 -817 651 -702 270
-1491 57 -1971 -532 -155 -190 -257 -396 -344 -697 l-21 -73 -872 0 c-502 0
-912 5 -966 10 -131 14 -201 34 -317 90 -267 129 -439 327 -529 610 -39 125
-45 307 -44 1507 l0 1033 182 2 c155 3 8464 2 13106 -1z m-8632 -2500 c438
-86 780 -433 859 -871 32 -177 10 -421 -52 -586 -137 -368 -478 -638 -878
-693 -577 -80 -1134 336 -1220 911 -18 122 -6 350 24 458 51 180 159 358 298
492 130 125 239 194 401 252 161 58 387 72 568 37z m9722 0 c215 -42 390 -138
556 -305 193 -195 288 -399 316 -678 30 -308 -105 -662 -335 -875 -544 -503
-1399 -353 -1730 304 -166 330 -150 724 42 1043 59 98 69 111 160 204 160 164
360 272 575 311 111 20 299 18 416 -4z"/>
</g>
</svg>
