<?xml version="1.0" standalone="no"?>
<!DOCTYPE svg PUBLIC "-//W3C//DTD SVG 20010904//EN"
 "http://www.w3.org/TR/2001/REC-SVG-20010904/DTD/svg10.dtd">
<svg version="1.0" xmlns="http://www.w3.org/2000/svg"
 width="2000.007378pt" height="1115.633007pt" viewBox="0 0 2000.007378 1115.633007"
 preserveAspectRatio="xMidYMid meet">
<metadata>
Created by potrace 1.12, written by Peter Selinger 2001-2015
</metadata>
<g transform="translate(0.007378,1557.942150) scale(0.100000,-0.100000)"
fill="#000000" stroke="none">
<path d="M741 15569 c-169 -28 -332 -111 -459 -233 -122 -116 -202 -253 -252
-432 l-30 -108 0 -3965 1 -3966 25 -95 c26 -101 82 -230 136 -308 109 -160
295 -295 484 -351 122 -36 271 -41 1293 -41 542 0 988 -3 992 -7 4 -4 28 -80
53 -168 195 -676 748 -1218 1429 -1399 134 -36 199 -48 346 -61 167 -16 193
-16 351 -1 274 26 471 77 697 182 532 247 941 721 1098 1271 25 87 49 164 53
172 7 12 465 14 3253 12 1784 -1 3247 -5 3250 -9 3 -4 25 -77 48 -162 44 -156
139 -378 214 -495 147 -232 367 -464 580 -611 230 -160 465 -262 767 -332 47
-11 187 -27 330 -37 95 -7 351 15 475 40 504 104 947 387 1246 795 147 200
249 408 313 635 20 72 41 140 46 153 l10 22 747 0 c789 0 968 7 1098 40 159
41 302 125 412 244 116 123 182 248 227 425 l26 104 0 3274 c0 3246 0 3276
-20 3391 -43 248 -118 496 -205 678 -63 135 -227 393 -310 489 -189 220 -409
410 -633 546 -274 168 -611 277 -952 309 -82 8 -1832 10 -6055 8 l-5940 -3
-68 -33 c-228 -112 -232 -424 -8 -546 27 -14 78 -30 117 -36 45 -6 2083 -10
5910 -10 3977 0 5882 -3 5970 -10 372 -31 738 -196 1015 -458 153 -145 244
-266 351 -462 39 -73 131 -307 124 -318 -6 -9 -6123 -16 -6253 -7 l-103 8 0
53 c0 186 -92 325 -240 364 -34 9 -627 12 -2482 11 -2662 -2 -2484 2 -2572
-61 -87 -63 -125 -142 -133 -275 l-6 -92 -425 -7 c-234 -4 -1463 -7 -2731 -5
-2473 3 -2340 5 -2421 -46 -53 -34 -86 -74 -117 -140 l-28 -60 -3 -1835 c-2
-1346 0 -1850 8 -1890 16 -74 65 -155 121 -196 94 -69 -126 -64 2881 -64
l2718 0 0 -1380 0 -1380 -260 0 c-143 0 -260 3 -260 7 0 35 -69 331 -97 413
-151 452 -454 834 -868 1095 -328 207 -679 305 -1084 305 -303 -1 -559 -53
-815 -166 -627 -278 -1073 -845 -1202 -1529 -9 -49 -20 -97 -24 -105 -7 -13
-131 -15 -1027 -15 -1156 0 -1073 -6 -1163 84 -64 65 -72 96 -77 309 l-5 182
154 0 c263 0 409 29 569 111 197 102 371 314 438 533 126 412 -73 868 -463
1061 -148 73 -215 86 -474 92 l-222 6 2 2831 3 2831 27 57 c26 55 75 103 138
131 18 9 562 13 2080 17 2258 6 2108 1 2200 65 96 67 153 199 131 306 -16 76
-63 153 -119 194 -95 70 76 65 -2221 64 -1182 -1 -2099 -5 -2130 -10z m9163
-2068 c3 -4 2 -773 -1 -1709 l-6 -1702 -878 0 -879 0 0 1704 c0 1360 2 1705
12 1709 21 9 1747 6 1752 -2z m2401 -33 c3 -24 5 -792 3 -1708 l-3 -1665 -882
-3 -883 -2 0 1703 c0 937 2 1706 5 1709 3 3 399 6 879 7 l875 2 6 -43z m-7677
-1885 l-3 -1488 -1107 -3 -1108 -2 0 1490 0 1490 1110 0 1110 0 -2 -1487z
m2852 -3 l0 -1490 -1110 0 -1110 0 0 1490 0 1490 1110 0 1110 0 0 -1490z
m7675 1468 c3 -13 4 -682 3 -1488 l-3 -1465 -1107 0 c-610 0 -1108 3 -1108 8
0 4 0 673 0 1487 l0 1480 1105 0 1105 0 5 -22z m4213 -58 c2 -41 1 -711 -3
-1487 l-7 -1413 -1012 -2 c-1004 -3 -1011 -3 -1057 -24 -95 -44 -157 -119
-184 -224 -13 -50 -14 -72 -6 -112 23 -105 88 -190 179 -235 l57 -28 1015 -5
1014 -5 -1 -47 c0 -27 -1 -111 -2 -187 l-1 -139 -367 -4 c-365 -5 -369 -5
-456 -31 -258 -79 -436 -229 -560 -472 -223 -437 -34 -984 416 -1203 160 -78
203 -85 616 -90 l363 -4 -5 -176 c-3 -98 -10 -195 -17 -217 -18 -60 -72 -120
-138 -152 l-57 -28 -810 -2 c-446 -1 -815 1 -820 5 -6 4 -23 70 -38 147 -64
315 -187 597 -361 829 -343 458 -833 749 -1379 821 -150 19 -403 19 -550 0
-489 -64 -958 -318 -1269 -687 -255 -303 -392 -582 -468 -955 -16 -79 -32
-148 -36 -154 -5 -8 -73 -10 -245 -8 l-239 4 0 1377 0 1378 1738 3 c1430 2
1745 5 1780 16 56 18 140 95 177 163 25 45 29 64 30 128 0 129 -66 234 -184
289 l-56 26 -317 3 -318 3 0 1490 0 1489 1788 -2 1787 -3 3 -75z m-7058 -4865
l0 -1335 -22 -4 c-13 -2 -950 -4 -2083 -3 l-2060 2 -2 1338 -3 1337 2085 0
2085 0 0 -1335z m7058 47 l-1 -263 -321 3 c-352 4 -355 4 -436 68 -78 62 -111
184 -78 292 15 50 78 122 132 151 39 21 55 22 366 27 211 3 328 1 332 -5 4 -5
7 -128 6 -273z m-18323 251 c194 -104 192 -384 -3 -480 -55 -27 -64 -28 -234
-31 l-178 -4 0 272 0 272 188 -4 c169 -3 191 -5 227 -25z m4063 -543 c53 -6
151 -26 218 -45 575 -161 985 -660 1035 -1261 10 -117 8 -146 -11 -280 -42
-293 -146 -527 -332 -747 -294 -345 -766 -533 -1218 -483 -579 63 -1064 472
-1220 1030 -122 438 -16 930 273 1273 188 223 388 361 652 449 199 66 390 86
603 64z m10542 -5 c547 -66 1014 -459 1175 -989 94 -312 84 -615 -32 -926 -64
-172 -211 -391 -349 -521 -81 -76 -214 -167 -329 -226 -162 -83 -318 -129
-503 -149 -128 -13 -159 -13 -285 0 -453 48 -853 307 -1079 698 -104 179 -150
318 -184 548 -44 301 52 684 239 960 100 146 278 317 423 406 285 173 593 239
924 199z"/>
<path d="M4820 7370 c-215 -27 -427 -144 -565 -312 -251 -304 -288 -699 -98
-1038 68 -120 225 -277 343 -341 165 -90 364 -131 538 -110 380 46 657 274
779 641 26 80 28 94 28 260 0 200 -10 245 -88 405 -112 230 -336 414 -579 475
-89 22 -265 32 -358 20z m206 -635 c147 -43 223 -189 183 -351 -26 -104 -147
-189 -267 -187 -245 3 -361 295 -186 470 76 77 166 99 270 68z"/>
<path d="M15345 7370 c-178 -20 -363 -110 -498 -243 -96 -95 -128 -139 -190
-263 -105 -208 -122 -452 -47 -676 159 -474 657 -730 1132 -582 178 55 322
154 439 299 309 386 252 945 -129 1264 -197 165 -430 231 -707 201z m237 -644
c54 -23 106 -72 136 -130 21 -41 26 -65 26 -126 1 -66 -3 -82 -30 -130 -143
-254 -514 -153 -514 140 0 113 84 226 194 260 41 13 142 5 188 -14z"/>
</g>
</svg>
