<?xml version="1.0" standalone="no"?>
<!DOCTYPE svg PUBLIC "-//W3C//DTD SVG 20010904//EN"
 "http://www.w3.org/TR/2001/REC-SVG-20010904/DTD/svg10.dtd">
<svg version="1.0" xmlns="http://www.w3.org/2000/svg"
 width="1123.247629pt" height="1999.618525pt" viewBox="0 0 1123.247629 1999.618525"
 preserveAspectRatio="xMidYMid meet">
<metadata>
Created by potrace 1.12, written by Peter Selinger 2001-2015
</metadata>
<g transform="translate(-438.184086,1999.864378) scale(0.100000,-0.100000)"
fill="#000000" stroke="none">
<path d="M9810 19966 c-184 -69 -342 -222 -411 -399 -11 -28 -26 -65 -34 -82
-7 -16 -49 -111 -93 -210 -44 -99 -119 -265 -167 -370 -48 -104 -105 -233
-126 -285 -21 -52 -75 -176 -119 -275 -185 -405 -264 -585 -305 -685 -23 -58
-62 -145 -85 -195 -64 -136 -212 -467 -305 -680 -46 -104 -147 -332 -225 -505
-78 -173 -155 -344 -170 -380 -185 -420 -301 -682 -360 -810 -40 -85 -89 -198
-110 -250 -21 -52 -75 -176 -120 -275 -126 -276 -297 -658 -304 -683 -4 -13
-35 -82 -68 -155 -118 -258 -281 -624 -338 -757 -32 -74 -124 -281 -205 -460
-81 -179 -166 -370 -190 -426 -62 -146 -230 -522 -285 -639 -26 -55 -73 -161
-105 -235 -90 -211 -235 -537 -330 -745 -48 -104 -104 -233 -125 -285 -21 -52
-68 -160 -105 -240 -92 -201 -268 -595 -320 -715 -47 -110 -278 -627 -344
-770 -98 -211 -105 -438 -20 -607 49 -96 182 -224 289 -276 47 -23 108 -47
135 -54 45 -10 1233 -15 4333 -18 l182 0 0 -3442 c0 -2100 4 -3466 10 -3503 5
-33 12 -79 15 -102 16 -113 165 -294 303 -366 182 -96 288 -107 477 -50 163
49 335 210 409 383 76 178 225 517 248 565 42 86 171 377 204 460 15 38 70
162 121 275 113 246 250 555 328 740 32 74 70 160 85 190 27 53 228 503 294
658 46 108 275 616 331 737 26 55 64 143 85 195 21 52 84 196 140 320 136 300
245 546 315 710 32 74 90 205 129 290 40 85 109 238 154 340 189 431 236 538
347 785 65 143 134 301 155 350 21 50 104 236 185 415 81 179 170 377 197 440
142 326 235 534 318 715 51 110 110 243 131 295 21 52 75 176 119 275 164 360
297 661 305 685 4 14 37 88 72 165 90 194 220 484 318 710 103 236 336 756
364 811 11 23 33 77 48 120 24 70 27 94 27 209 1 111 -3 140 -22 198 -44 125
-141 244 -269 327 -85 56 -139 76 -243 90 -47 6 -907 9 -2267 10 l-2193 0 -3
3498 c-2 3154 -4 3502 -18 3547 -70 221 -272 400 -496 440 -123 22 -195 18
-293 -19z"/>
</g>
</svg>
