<?xml version="1.0" standalone="no"?>
<!DOCTYPE svg PUBLIC "-//W3C//DTD SVG 20010904//EN"
 "http://www.w3.org/TR/2001/REC-SVG-20010904/DTD/svg10.dtd">
<svg version="1.0" xmlns="http://www.w3.org/2000/svg"
 width="1023.822249pt" height="942.858912pt" viewBox="0 0 1023.822249 942.858912"
 preserveAspectRatio="xMidYMid meet">
<metadata>
Created by potrace 1.12, written by Peter Selinger 2001-2015
</metadata>
<g transform="translate(-0.127207,983.567930) scale(0.100000,-0.100000)"
fill="#000000" stroke="none">
<path d="M3659 9826 c-341 -61 -626 -265 -789 -568 -94 -175 -135 -358 -127
-563 10 -242 83 -440 235 -637 l45 -57 -52 -57 c-98 -108 -172 -241 -213 -389
l-23 -80 -3 -1605 -2 -1606 -280 -279 -280 -280 -373 -6 c-332 -5 -383 -8
-475 -28 -624 -134 -1107 -592 -1266 -1201 -47 -179 -59 -277 -54 -458 13
-450 181 -830 509 -1147 242 -235 523 -377 869 -442 87 -16 164 -18 925 -15
457 2 877 7 935 13 167 14 307 61 437 145 39 25 778 756 2228 2205 l2170 2168
370 4 c401 5 446 10 647 73 488 154 884 540 1053 1024 89 256 117 549 76 788
-44 257 -131 480 -269 687 -85 127 -289 334 -422 427 -167 118 -388 215 -587
258 -160 35 -319 40 -1183 37 -812 -3 -837 -4 -911 -24 -106 -30 -192 -68
-274 -121 -51 -33 -236 -211 -697 -670 -560 -559 -627 -623 -632 -601 -64 274
-165 662 -187 721 -60 156 -170 309 -310 432 l-67 59 44 60 c61 82 139 243
168 349 76 265 51 529 -74 783 -148 302 -420 517 -750 591 -92 21 -317 26
-411 10z m301 -602 c240 -54 409 -306 371 -554 -40 -269 -295 -461 -558 -423
-104 15 -223 75 -289 145 -191 202 -193 490 -3 692 124 133 294 182 479 140z
m234 -1612 c85 -31 139 -66 200 -127 89 -89 103 -129 236 -670 66 -269 119
-497 118 -506 -3 -17 -1397 -1429 -1410 -1429 -5 0 -7 568 -6 1263 l3 1262 23
50 c40 87 117 152 209 175 21 5 157 8 303 6 243 -2 270 -4 324 -24z m4511 18
c364 -41 678 -268 835 -603 209 -447 73 -985 -325 -1280 -95 -71 -186 -118
-303 -157 -143 -48 -197 -52 -627 -55 -393 -2 -401 -2 -455 -25 -50 -21 -262
-230 -2270 -2235 -1477 -1475 -2227 -2218 -2252 -2229 -20 -9 -61 -21 -90 -26
-85 -14 -1576 -23 -1683 -10 -133 16 -227 44 -350 105 -284 140 -477 383 -557
702 -32 127 -32 350 1 478 62 242 199 451 390 596 84 64 263 152 366 180 75
20 110 22 525 28 l445 6 60 28 c55 25 246 214 2258 2232 1209 1212 2214 2214
2234 2226 76 47 82 48 918 48 473 1 826 -3 880 -9z"/>
<path d="M7642 3381 c-101 -35 -172 -116 -194 -224 -31 -149 66 -305 214 -344
37 -9 125 -13 303 -13 l250 0 -562 -562 c-611 -612 -601 -600 -610 -722 -16
-199 180 -357 373 -301 32 9 76 29 98 45 23 16 284 272 581 569 l540 541 5
-272 c5 -252 7 -277 26 -319 69 -148 248 -215 394 -148 70 32 116 79 149 149
l26 55 0 670 c0 664 0 670 -21 716 -26 57 -88 120 -146 151 l-43 23 -665 2
c-624 3 -668 2 -718 -16z"/>
</g>
</svg>
