<?xml version="1.0" standalone="no"?>
<!DOCTYPE svg PUBLIC "-//W3C//DTD SVG 20010904//EN"
 "http://www.w3.org/TR/2001/REC-SVG-20010904/DTD/svg10.dtd">
<svg version="1.0" xmlns="http://www.w3.org/2000/svg"
 width="2000.070624pt" height="2000.031978pt" viewBox="0 0 2000.070624 2000.031978"
 preserveAspectRatio="xMidYMid meet">
<metadata>
Created by potrace 1.12, written by Peter Selinger 2001-2015
</metadata>
<g transform="translate(0.070624,2000.013200) scale(0.100000,-0.100000)"
fill="#000000" stroke="none">
<path d="M3401 19972 c-61 -35 -113 -89 -142 -148 l-24 -49 0 -390 c0 -380 1
-391 22 -437 106 -228 406 -237 528 -17 l30 54 0 400 0 400 -27 50 c-31 59
-75 102 -142 138 -41 23 -60 27 -125 26 -62 -1 -84 -6 -120 -27z"/>
<path d="M8938 19980 c-381 -80 -674 -263 -891 -555 -74 -100 -163 -267 -206
-390 l-28 -79 -90 -46 c-119 -60 -202 -122 -294 -216 -131 -136 -223 -299
-274 -484 -33 -118 -44 -319 -25 -437 64 -403 353 -746 741 -881 182 -64 112
-62 2134 -62 1242 0 1859 3 1912 11 374 51 681 266 845 594 83 164 123 357
114 540 -20 404 -250 752 -622 939 -179 90 -328 116 -668 116 l-229 0 -70 66
c-183 173 -386 253 -642 254 -72 0 -143 -6 -175 -14 -30 -8 -58 -12 -62 -10
-5 3 -26 31 -47 62 -210 305 -533 511 -928 591 -134 28 -368 28 -495 1z m407
-582 c126 -21 255 -79 367 -164 73 -57 114 -104 203 -239 116 -176 199 -242
339 -271 83 -18 159 -12 256 19 42 14 91 21 140 21 109 0 166 -29 288 -147 97
-94 159 -134 242 -157 31 -9 144 -14 350 -15 333 -3 361 -6 470 -61 127 -63
230 -182 270 -312 37 -119 22 -274 -38 -386 -40 -75 -145 -177 -222 -214 -134
-66 -23 -63 -2038 -59 -2030 3 -1848 -4 -1985 69 -382 203 -369 731 22 914 42
20 99 47 126 60 115 54 186 148 239 313 19 58 43 127 55 153 71 164 221 318
396 405 169 85 317 105 520 71z"/>
<path d="M17695 19981 c-182 -65 -303 -169 -385 -330 -63 -126 -60 -25 -60
-2127 l0 -1914 -42 -26 c-51 -29 -189 -110 -623 -364 -380 -222 -657 -384
-930 -545 -110 -65 -245 -144 -300 -177 l-100 -58 -3 687 c-2 549 0 690 10
696 7 4 76 44 153 89 77 44 165 97 195 117 113 73 207 192 251 314 28 81 36
277 29 782 l-5 370 -33 67 c-110 226 -370 324 -595 224 -29 -12 -118 -61 -197
-108 -80 -47 -289 -169 -465 -273 -828 -486 -1427 -837 -1690 -990 -121 -71
-236 -138 -255 -150 -19 -12 -120 -72 -225 -132 -104 -61 -291 -170 -415 -243
-124 -73 -295 -173 -380 -223 -85 -49 -263 -154 -395 -232 -132 -78 -364 -214
-515 -302 -151 -88 -403 -236 -560 -328 -585 -343 -1184 -694 -1460 -855 -157
-92 -337 -197 -400 -235 -157 -93 -511 -300 -895 -525 -176 -103 -387 -227
-470 -275 -223 -132 -750 -440 -995 -583 -118 -69 -285 -166 -370 -217 -85
-51 -254 -150 -375 -220 -372 -216 -488 -288 -534 -330 -94 -86 -118 -214 -62
-330 53 -112 135 -164 257 -165 84 0 116 12 277 108 115 67 552 324 967 567
129 76 337 197 461 270 124 74 344 203 490 288 145 85 359 209 474 277 215
126 651 381 1245 730 184 108 522 306 750 440 228 134 530 311 670 393 140 83
298 175 350 205 263 153 362 211 815 477 270 158 544 319 610 358 131 76 628
367 985 577 124 73 342 201 485 285 143 83 393 230 555 325 541 317 804 472
895 525 50 29 164 96 254 149 90 53 165 96 167 96 2 0 3 -138 2 -307 l-3 -307
-225 -131 c-214 -125 -658 -385 -1280 -750 -157 -92 -456 -268 -665 -390 -209
-123 -546 -321 -750 -440 -203 -120 -494 -289 -645 -377 -151 -88 -351 -205
-444 -260 -151 -90 -323 -191 -1001 -587 -204 -120 -522 -306 -1135 -666 -190
-112 -532 -312 -760 -445 -228 -134 -489 -287 -580 -340 -154 -91 -862 -506
-1190 -698 -80 -47 -181 -106 -225 -132 -44 -26 -199 -117 -345 -202 -146 -86
-339 -199 -430 -253 -91 -53 -248 -146 -350 -205 -102 -59 -234 -136 -295
-172 -60 -35 -229 -134 -375 -220 -146 -85 -332 -195 -415 -243 -82 -49 -251
-148 -375 -220 -368 -216 -980 -575 -1055 -620 -38 -23 -99 -59 -135 -80 -36
-21 -118 -69 -182 -106 -64 -38 -122 -70 -129 -71 -9 -2 -12 69 -10 301 1 168
3 306 4 307 1 1 151 88 332 195 182 106 483 282 670 391 187 110 357 216 379
236 58 56 86 123 86 207 0 84 -21 135 -80 199 -59 64 -118 90 -205 91 -81 0
-134 -21 -312 -128 -142 -85 -562 -332 -893 -525 -146 -85 -286 -170 -312
-189 -75 -55 -145 -138 -188 -226 -69 -140 -71 -166 -68 -711 4 -533 3 -521
73 -631 80 -125 233 -215 365 -215 32 0 129 19 187 36 l23 6 0 -685 c0 -535
-3 -687 -12 -695 -7 -5 -105 -64 -218 -129 -113 -66 -353 -207 -535 -313 -181
-107 -472 -277 -645 -378 -550 -322 -694 -409 -745 -451 -72 -60 -145 -172
-183 -283 l-33 -94 3 -510 3 -511 42 -85 c119 -239 382 -325 623 -203 28 14
128 71 223 127 631 370 1090 638 1267 740 l205 118 3 -1267 c1 -698 0 -1273
-2 -1279 -2 -6 -35 -28 -73 -49 -76 -43 -249 -144 -583 -340 -555 -326 -755
-444 -1040 -610 -475 -278 -500 -296 -583 -436 -85 -145 -109 -306 -66 -459
59 -216 197 -360 419 -441 l65 -24 2068 -3 2069 -2 63 30 c227 108 231 417 7
527 l-57 28 -963 3 c-529 1 -962 6 -962 10 0 4 44 31 98 59 53 29 178 101 277
159 236 140 397 235 755 444 407 239 995 584 1300 763 140 83 379 222 530 310
151 88 280 163 285 167 6 4 183 109 395 233 447 261 1010 590 1430 837 162 96
446 262 630 370 941 551 1139 667 1425 835 605 354 963 564 1220 715 226 133
509 299 1100 645 167 97 674 395 1155 677 173 101 464 271 645 378 182 106
470 275 640 375 171 100 459 269 640 375 182 106 404 237 495 290 344 203 824
482 837 487 11 4 13 -89 11 -537 l-3 -542 -80 -27 c-316 -109 -586 -320 -786
-616 -31 -45 -316 -602 -665 -1300 l-611 -1220 -1204 -5 c-1197 -6 -1204 -6
-1286 -28 -278 -74 -482 -237 -614 -492 -19 -36 -277 -793 -584 -1710 l-550
-1645 -2160 -5 -2160 -5 -56 -26 c-232 -109 -236 -415 -6 -527 l67 -32 6929 0
6929 0 56 25 c65 29 128 90 162 157 l24 47 0 9633 0 9633 -24 66 c-75 206
-196 331 -397 409 l-78 30 -878 -1 c-816 0 -882 -2 -928 -18z m1654 -567 l61
-7 -2 -3585 -3 -3585 -782 -1 -783 -1 0 3586 c0 1972 3 3589 7 3592 8 9 1420
9 1502 1z m-4687 -4259 l-3 -304 -92 -52 c-51 -28 -177 -102 -282 -164 -104
-62 -283 -167 -397 -233 -114 -67 -227 -134 -250 -151 -104 -72 -199 -200
-239 -323 l-24 -73 0 -710 c0 -797 -4 -749 76 -893 151 -272 484 -387 775
-266 21 9 122 65 224 124 102 60 191 110 198 112 10 2 12 -76 12 -382 0 -355
-1 -386 -17 -398 -10 -7 -90 -55 -178 -106 -88 -51 -320 -186 -515 -301 -195
-114 -501 -293 -680 -398 -179 -104 -410 -240 -515 -302 -104 -61 -392 -230
-640 -375 -490 -287 -1049 -614 -1270 -745 -77 -45 -239 -140 -360 -210 -121
-71 -305 -179 -410 -240 -104 -62 -320 -189 -480 -282 -266 -156 -631 -370
-1215 -713 -124 -73 -231 -135 -237 -137 -10 -4 -13 235 -13 1173 0 759 -4
1202 -10 1244 -37 233 -211 426 -446 496 -41 12 -90 17 -164 17 -162 -2 -207
-20 -562 -229 -581 -341 -805 -472 -1073 -629 -523 -305 -556 -327 -651 -426
-128 -135 -208 -286 -251 -474 -15 -62 -17 -238 -20 -1560 l-4 -1490 -122 -69
c-126 -72 -709 -412 -1087 -636 -337 -199 -743 -436 -767 -449 l-23 -12 0 383
c0 211 4 388 8 395 4 7 179 112 387 234 209 121 423 249 476 284 199 132 341
334 401 571 23 88 23 98 23 704 0 569 -1 620 -18 675 -53 170 -168 310 -318
384 -137 68 -265 85 -404 56 -89 -19 -170 -58 -372 -178 -89 -54 -167 -97
-173 -97 -12 0 -14 587 -2 606 4 6 22 19 41 29 19 9 131 74 250 145 119 70
313 184 431 252 118 69 370 217 560 328 190 112 503 295 695 408 193 113 492
288 665 390 173 101 486 285 695 407 209 122 562 330 785 460 408 239 702 412
1300 762 474 278 881 516 1165 683 138 81 347 204 465 273 483 282 1638 959
2375 1392 171 100 420 247 555 325 135 79 358 210 495 290 138 81 453 265 700
409 248 145 464 271 480 281 17 10 35 19 40 19 7 1 9 -105 7 -304z m2588 -537
l-5 -302 -496 -291 c-426 -249 -748 -438 -1368 -802 -69 -40 -126 -71 -128
-69 -2 2 -4 138 -4 302 1 273 3 300 18 312 10 7 135 81 278 164 143 82 330
192 415 243 85 51 214 126 285 167 72 41 198 115 280 163 410 242 710 415 720
415 7 0 8 -95 5 -302z m-2607 -1716 c-22 -17 -574 -337 -626 -364 -75 -38 -70
-79 -65 607 3 339 7 617 9 619 2 2 130 77 284 167 154 89 309 179 345 200 l65
38 3 -627 c2 -591 2 -628 -15 -640z m2609 34 l-2 -695 -58 -6 c-107 -12 -167
-27 -232 -60 -160 -81 -278 -219 -336 -395 -16 -50 -18 -106 -22 -568 -3 -468
-5 -514 -20 -523 -9 -5 -82 -47 -162 -93 -164 -93 -692 -403 -968 -567 -179
-107 -220 -125 -208 -93 3 9 6 582 6 1274 l0 1259 73 42 c159 92 395 230 636
372 140 82 345 202 455 266 166 97 625 365 781 457 22 13 45 23 50 24 7 0 9
-236 7 -694z m2158 -3256 l0 -1970 -22 0 c-13 0 -511 0 -1108 0 l-1085 0 -3
1957 c-1 1077 0 1964 3 1971 3 9 235 12 1110 12 l1105 0 0 -1970z m-4750 481
l0 -599 -67 -38 c-65 -36 -406 -235 -993 -579 -151 -89 -450 -264 -665 -390
-214 -125 -541 -317 -725 -425 -184 -108 -445 -261 -580 -339 -135 -79 -319
-187 -410 -241 -91 -54 -284 -167 -430 -252 -267 -157 -598 -351 -875 -513
-82 -48 -278 -163 -435 -255 -561 -329 -878 -515 -1095 -644 -121 -72 -228
-134 -237 -138 -17 -7 -18 25 -18 595 l1 602 212 124 c117 69 313 184 437 256
403 235 782 456 940 550 85 51 396 233 690 405 294 172 582 341 640 375 58 34
227 133 375 220 256 150 383 224 1190 698 187 109 421 246 520 304 99 58 254
149 345 203 753 443 1161 680 1173 680 4 0 7 -270 7 -599z m1940 -446 l0 -306
-42 -25 c-24 -14 -203 -119 -398 -233 -380 -222 -889 -520 -1350 -791 -840
-493 -1007 -591 -1245 -730 -143 -84 -379 -222 -525 -308 -146 -85 -301 -176
-345 -202 -44 -25 -228 -133 -410 -240 -181 -106 -481 -282 -665 -390 -184
-108 -495 -290 -690 -404 -195 -115 -499 -293 -675 -396 -176 -103 -410 -240
-520 -305 -110 -65 -252 -148 -315 -185 -63 -37 -257 -150 -430 -252 -173
-102 -434 -255 -580 -340 -146 -85 -398 -233 -560 -328 -162 -95 -412 -242
-555 -325 -143 -83 -388 -227 -545 -320 -555 -326 -738 -434 -975 -572 -132
-77 -411 -241 -620 -363 -416 -244 -953 -559 -1305 -765 -124 -72 -340 -199
-480 -282 -140 -82 -430 -253 -645 -378 -214 -126 -529 -310 -700 -410 -170
-100 -346 -203 -391 -228 l-81 -47 -474 0 c-283 0 -480 4 -489 10 -31 20 -9
34 805 510 245 143 920 539 1345 788 173 102 509 298 745 437 237 138 563 329
725 425 162 95 441 258 620 362 178 105 399 234 490 288 465 274 711 419 970
570 279 163 725 424 1405 823 187 109 484 284 660 387 176 103 408 239 515
302 107 63 292 171 410 240 118 69 370 217 560 328 494 290 813 477 1240 727
605 354 895 524 1225 718 171 100 355 209 410 241 150 87 246 143 400 234 77
46 183 108 235 138 52 30 219 128 370 217 151 89 345 202 430 252 272 158 860
503 1000 586 74 44 236 139 360 212 124 72 401 234 615 360 450 264 469 275
473 275 1 0 2 -137 2 -305z m-9062 -2032 l-3 -2298 -95 -54 c-95 -54 -393
-227 -655 -381 -77 -46 -257 -151 -400 -235 -670 -393 -781 -458 -806 -476
-15 -10 -30 -19 -33 -19 -12 0 -7 4402 5 4465 14 77 47 140 101 192 42 41 99
76 748 456 179 104 377 220 440 257 530 311 667 389 683 390 16 0 17 -114 15
-2297z m-3880 -544 c-3 -508 -5 -558 -22 -601 -25 -66 -94 -139 -179 -191
-140 -86 -472 -282 -490 -289 -16 -7 -17 22 -17 612 0 341 3 627 6 635 3 8 40
34 83 57 42 23 103 58 136 78 139 86 408 242 438 255 17 7 36 10 40 6 4 -4 6
-257 5 -562z m15752 -3283 c0 -3100 -1 -3264 -17 -3267 -10 -2 -1940 -3 -4289
-1 l-4271 2 512 1533 c281 842 521 1551 533 1573 41 80 121 149 204 176 38 12
2907 20 3138 8 150 -7 192 -21 269 -86 28 -24 224 -310 602 -877 598 -900 622
-931 715 -957 142 -40 265 9 343 134 34 55 36 64 36 140 0 66 -5 89 -24 126
-13 24 -280 429 -594 899 -622 933 -637 952 -802 1059 -149 97 -288 137 -518
150 l-138 7 533 1065 c293 586 555 1099 583 1140 150 227 408 389 681 429 32
5 609 9 1282 10 l1222 1 0 -3264z m-17040 2045 c0 -227 -3 -301 -12 -309 -7
-5 -182 -109 -388 -229 -687 -402 -1084 -635 -1230 -723 l-145 -87 -5 296 c-3
163 -4 301 -2 307 1 5 33 27 70 48 37 22 218 127 402 236 299 175 943 553
1200 703 52 30 98 56 103 56 4 1 7 -133 7 -298z m2583 -1423 l-3 -603 -162
-96 c-90 -52 -296 -173 -458 -269 -162 -95 -412 -241 -555 -325 -143 -84 -383
-225 -533 -313 -151 -89 -278 -162 -283 -162 -11 0 -12 1180 -1 1196 7 10 132
84 782 464 157 92 492 289 745 437 253 149 462 271 465 272 3 1 4 -270 3 -601z"/>
<path d="M11930 13210 c-109 -19 -125 -27 -545 -275 -132 -78 -301 -177 -375
-220 -74 -43 -232 -135 -350 -205 -118 -70 -429 -252 -690 -405 -843 -492
-879 -515 -945 -580 -64 -62 -124 -159 -159 -255 -20 -53 -21 -80 -24 -741 -3
-768 -3 -769 65 -908 51 -104 167 -221 273 -273 136 -67 276 -84 414 -48 91
23 176 65 391 192 200 118 1010 593 1205 706 80 46 219 128 310 182 91 53 284
167 430 252 146 86 294 172 330 193 216 127 308 227 372 405 l23 65 0 710 c0
661 -1 714 -18 769 -95 308 -392 491 -707 436z m140 -1194 l0 -624 -122 -70
c-110 -62 -466 -271 -978 -572 -96 -56 -332 -195 -525 -308 -192 -113 -460
-270 -595 -350 -334 -197 -379 -222 -408 -222 l-25 0 5 615 c3 359 8 619 14
624 5 5 59 38 119 73 61 36 229 134 375 220 146 85 468 274 715 418 550 322
1051 616 1165 683 185 109 236 137 248 137 9 0 12 -131 12 -624z"/>
<path d="M1112 19019 c-70 -35 -105 -71 -140 -147 -20 -45 -24 -65 -20 -126 5
-110 32 -146 323 -436 284 -282 301 -294 420 -294 119 1 208 55 263 159 22 41
27 64 27 125 0 121 -11 137 -315 441 -243 244 -270 268 -323 288 -86 31 -159
28 -235 -10z"/>
<path d="M5718 19035 c-21 -7 -57 -27 -80 -43 -65 -45 -501 -491 -530 -542
-38 -66 -51 -135 -38 -194 33 -150 138 -238 285 -238 124 0 146 15 440 310
290 291 309 317 309 431 1 109 -53 199 -153 259 -54 31 -173 41 -233 17z"/>
<path d="M3350 18050 c-352 -44 -660 -188 -909 -425 -475 -454 -627 -1125
-391 -1728 137 -351 408 -653 740 -825 134 -70 256 -115 395 -148 111 -26 136
-28 330 -29 224 0 280 7 470 62 106 30 302 121 405 187 351 228 602 595 692
1012 20 95 23 137 23 319 0 167 -4 227 -19 295 -77 355 -258 671 -509 891
-217 189 -487 321 -757 371 -122 22 -360 31 -470 18z m443 -614 c171 -51 305
-127 428 -243 220 -208 339 -548 296 -844 -34 -229 -117 -404 -265 -560 -299
-315 -764 -404 -1149 -220 -289 139 -478 376 -554 699 -28 117 -23 336 10 457
51 182 145 339 284 471 104 99 216 170 336 214 138 50 200 60 371 56 132 -3
168 -7 243 -30z"/>
<path d="M249 16760 c-89 -16 -164 -72 -223 -167 -22 -36 -26 -54 -26 -118 0
-66 4 -82 31 -130 17 -30 51 -73 77 -95 78 -69 98 -72 529 -68 373 3 379 3
425 26 61 30 132 109 152 169 9 26 16 72 16 103 0 110 -83 226 -191 266 -37
14 -97 17 -394 20 -192 1 -371 -1 -396 -6z"/>
<path d="M6057 16759 c-134 -32 -229 -150 -231 -285 -1 -81 48 -182 112 -231
81 -61 109 -65 524 -61 l373 3 57 28 c136 67 199 237 139 373 -28 63 -90 126
-156 156 -49 23 -57 23 -415 25 -201 1 -382 -2 -403 -8z"/>
<path d="M5300 14926 c-194 -41 -291 -255 -194 -425 15 -25 140 -159 278 -298
214 -215 260 -256 310 -279 196 -89 411 47 411 261 0 116 -14 136 -304 428
-215 217 -266 263 -316 287 -75 36 -115 41 -185 26z"/>
<path d="M1605 14918 c-63 -24 -107 -62 -345 -301 -280 -282 -310 -323 -310
-430 0 -72 33 -153 83 -205 85 -89 216 -112 332 -58 51 23 98 65 312 279 219
219 256 260 282 317 22 47 31 80 31 117 0 108 -66 215 -162 264 -50 26 -175
35 -223 17z"/>
<path d="M3413 14151 c-61 -28 -127 -94 -154 -154 -24 -52 -24 -54 -24 -427 0
-425 2 -440 76 -524 140 -159 379 -122 485 74 18 33 19 62 19 440 0 401 0 405
-23 447 -59 112 -142 163 -261 163 -53 0 -89 -6 -118 -19z"/>
</g>
</svg>
