<?xml version="1.0" standalone="no"?>
<!DOCTYPE svg PUBLIC "-//W3C//DTD SVG 20010904//EN"
 "http://www.w3.org/TR/2001/REC-SVG-20010904/DTD/svg10.dtd">
<svg version="1.0" xmlns="http://www.w3.org/2000/svg"
 width="2000.000000pt" height="1434.200670pt" viewBox="0 0 2000.000000 1434.200670"
 preserveAspectRatio="xMidYMid meet">
<metadata>
Created by potrace 1.12, written by Peter Selinger 2001-2015
</metadata>
<g transform="translate(0.000000,1717.340048) scale(0.100000,-0.100000)"
fill="#000000" stroke="none">
<path d="M1735 17169 c-156 -7 -237 -19 -372 -55 -517 -137 -962 -511 -1187
-997 -62 -132 -100 -250 -141 -431 l-35 -158 0 -5521 0 -5522 25 -120 c40
-202 107 -403 178 -540 55 -106 173 -277 255 -369 307 -346 718 -562 1172
-616 70 -8 2304 -10 8420 -8 l8325 4 111 21 c382 75 755 274 994 531 264 281
406 562 489 965 l31 148 0 5504 0 5504 -26 126 c-82 407 -235 710 -492 977
-313 324 -757 534 -1177 554 -156 8 -16400 10 -16570 3z m16455 -1168 c241
-17 402 -111 531 -309 58 -88 85 -170 100 -296 7 -62 9 -1789 7 -5461 l-3
-5370 -21 -70 c-54 -185 -184 -344 -345 -423 -47 -23 -116 -50 -155 -59 -64
-15 -648 -16 -7514 -20 -4095 -2 -7814 0 -8265 5 -910 10 -855 6 -1000 80 -49
25 -95 61 -155 121 -95 96 -145 180 -176 296 -18 68 -19 233 -19 5495 0 4454
2 5437 13 5490 29 140 134 303 252 391 112 84 201 117 340 129 124 10 16261
11 16410 1z"/>
<path d="M3640 14658 c-77 -7 -130 -27 -224 -82 -197 -117 -311 -362 -272
-586 40 -224 208 -412 425 -472 63 -17 308 -18 6421 -18 5666 0 6362 2 6420
16 255 60 434 276 448 539 13 265 -161 507 -422 587 l-68 21 -6332 1 c-3482 0
-6360 -2 -6396 -6z"/>
<path d="M6071 12149 c-278 -21 -545 -96 -800 -224 -221 -110 -382 -227 -558
-403 -322 -322 -520 -704 -604 -1167 -30 -160 -36 -452 -15 -610 59 -423 214
-786 469 -1102 32 -39 57 -72 57 -75 0 -3 -27 -22 -61 -43 -157 -97 -415 -309
-555 -457 -383 -405 -642 -873 -774 -1398 -75 -298 -114 -732 -79 -876 42
-171 169 -329 324 -400 124 -57 -59 -54 2749 -54 2534 -1 2582 0 2657 19 201
51 340 178 418 379 24 64 26 76 25 247 -2 763 -332 1548 -887 2108 -155 157
-382 343 -539 442 -54 34 -57 44 -27 71 12 10 45 51 74 89 214 285 347 592
412 954 22 124 26 175 26 341 1 358 -65 642 -223 965 -111 226 -233 396 -417
577 -128 126 -190 177 -321 264 -391 260 -883 389 -1351 353z m329 -1180 c492
-74 865 -562 810 -1059 -38 -349 -233 -629 -544 -785 -137 -68 -236 -95 -386
-102 -625 -30 -1122 529 -1015 1142 35 197 127 375 270 520 238 242 524 336
865 284z m110 -3144 c627 -92 1184 -500 1452 -1062 41 -87 98 -229 98 -245 0
-10 -1760 -17 -2687 -11 l-971 6 20 56 c35 99 136 299 194 389 245 377 596
651 1007 787 297 98 585 124 887 80z"/>
<path d="M11790 11519 c-119 -17 -248 -85 -327 -172 -233 -254 -220 -601 30
-834 76 -71 180 -126 272 -143 44 -8 685 -10 2345 -8 l2285 3 55 21 c108 42
166 78 236 148 266 265 220 690 -96 899 -69 46 -150 75 -243 87 -89 12 -4479
11 -4557 -1z"/>
<path d="M11799 9008 c-131 -13 -281 -98 -369 -210 -73 -91 -113 -185 -129
-304 -33 -228 115 -488 334 -590 124 -57 -30 -54 2429 -54 1424 0 2280 3 2311
9 233 45 412 214 469 442 57 229 -43 480 -243 614 -119 78 -159 89 -356 92
-378 6 -4385 8 -4446 1z"/>
<path d="M11805 6499 c-276 -27 -504 -285 -508 -574 -1 -124 42 -250 126 -360
76 -101 184 -173 309 -206 69 -18 142 -19 1712 -19 1818 0 1698 -4 1845 66
219 106 358 386 306 620 -48 223 -213 402 -421 460 -53 14 -218 16 -1679 18
-891 1 -1651 -1 -1690 -5z"/>
</g>
</svg>
