<?xml version="1.0" standalone="no"?>
<!DOCTYPE svg PUBLIC "-//W3C//DTD SVG 20010904//EN"
 "http://www.w3.org/TR/2001/REC-SVG-20010904/DTD/svg10.dtd">
<svg version="1.0" xmlns="http://www.w3.org/2000/svg"
 width="1457.890056pt" height="1790.460103pt" viewBox="0 0 1457.890056 1790.460103"
 preserveAspectRatio="xMidYMid meet">
<metadata>
Created by potrace 1.12, written by Peter Selinger 2001-2015
</metadata>
<g transform="translate(-271.169949,1895.550719) scale(0.100000,-0.100000)"
fill="#000000" stroke="none">
<path d="M9875 18944 c-38 -8 -509 -180 -1045 -381 -536 -201 -1069 -401
-1185 -444 -1677 -624 -4585 -1722 -4631 -1749 -231 -137 -351 -425 -284 -685
53 -207 197 -362 410 -442 253 -96 723 -273 1085 -408 226 -84 525 -196 665
-250 140 -53 370 -139 510 -190 140 -52 341 -127 445 -168 l190 -73 6 -964 c6
-967 7 -1012 45 -1265 138 -936 593 -1771 1306 -2397 529 -465 1190 -786 1878
-914 228 -42 364 -55 645 -61 298 -6 470 6 752 53 1014 167 1939 743 2542
1582 368 513 609 1105 700 1717 40 268 43 360 48 1315 4 863 6 936 21 942 9 4
170 64 357 134 424 157 646 240 1040 389 371 140 635 237 653 239 15 1 15
-193 7 -1759 -7 -1120 5 -1994 28 -2073 95 -327 405 -516 732 -447 264 56 460
274 489 545 3 30 6 1111 6 2402 1 2615 7 2386 -68 2533 -46 89 -172 218 -257
262 -33 17 -114 50 -180 73 -66 23 -255 93 -420 155 -165 63 -489 184 -719
270 -231 86 -501 187 -600 225 -100 38 -478 179 -841 315 -363 136 -779 292
-925 347 -146 55 -542 203 -880 330 -338 126 -696 261 -795 298 -99 38 -295
111 -435 164 -140 52 -406 151 -590 221 -184 69 -366 135 -405 146 -98 27
-214 32 -300 13z m320 -1348 c110 -40 290 -108 400 -149 110 -42 299 -112 420
-157 121 -45 355 -133 520 -195 165 -63 500 -189 745 -280 691 -259 1278 -479
1720 -645 223 -83 497 -187 610 -230 113 -43 217 -82 233 -85 15 -4 29 -11 32
-15 6 -10 134 39 -1795 -684 -888 -332 -1682 -630 -1765 -662 -82 -31 -298
-112 -480 -179 -508 -189 -788 -295 -811 -306 -15 -8 -36 -4 -90 16 -149 57
-1571 592 -1774 667 -118 44 -404 151 -635 238 -231 87 -543 204 -694 259
-150 56 -373 139 -495 186 -121 46 -383 144 -581 218 -484 181 -635 240 -635
249 0 3 15 10 33 14 17 3 145 49 282 101 138 52 345 130 460 173 225 83 1960
734 2615 980 217 82 575 216 795 299 339 126 689 259 690 261 0 0 90 -33 200
-74z m-2825 -3941 c36 -13 409 -153 830 -311 421 -157 914 -342 1095 -411 570
-216 573 -217 695 -216 135 0 157 7 748 229 257 97 550 207 652 244 102 38
318 119 480 180 307 117 830 310 838 310 2 0 2 -318 0 -707 -4 -674 -6 -715
-27 -858 -66 -434 -229 -839 -480 -1190 -207 -290 -514 -572 -815 -749 -655
-385 -1415 -484 -2129 -280 -374 107 -752 313 -1037 565 -335 297 -574 631
-733 1029 -87 218 -129 370 -168 610 -21 128 -23 172 -26 858 -3 397 -1 722 4
722 4 0 37 -11 73 -25z"/>
<path d="M7376 8029 c-118 -12 -223 -37 -451 -110 -432 -138 -823 -298 -1220
-499 -380 -192 -598 -321 -905 -537 -363 -254 -628 -482 -927 -798 -582 -614
-971 -1350 -1103 -2087 -54 -300 -53 -283 -57 -1368 -3 -715 -1 -1034 7 -1080
6 -36 29 -103 52 -150 33 -70 56 -100 127 -170 140 -138 262 -186 456 -177
214 9 385 103 495 272 76 116 91 176 102 395 5 107 8 449 6 760 -5 712 3 1080
26 1215 85 483 290 918 642 1355 161 202 433 467 654 641 546 429 1214 774
1995 1028 230 76 250 79 301 53 36 -19 461 -440 1185 -1175 315 -320 394 -385
598 -486 500 -249 1108 -182 1557 172 29 23 371 363 760 755 446 449 722 721
747 734 53 26 67 24 338 -65 520 -171 993 -386 1421 -645 959 -580 1594 -1354
1794 -2187 58 -245 57 -217 64 -1310 5 -937 7 -1014 24 -1065 71 -215 248
-388 447 -435 82 -19 216 -19 299 1 218 51 387 214 457 440 17 56 18 117 18
1049 0 1053 -1 1087 -51 1394 -41 257 -101 471 -205 736 -166 423 -399 810
-723 1200 -130 157 -475 501 -646 645 -604 509 -1336 929 -2145 1232 -309 116
-593 210 -737 242 -323 74 -709 12 -997 -160 -169 -100 -240 -166 -948 -882
-505 -510 -715 -716 -746 -731 -56 -27 -126 -27 -179 0 -26 13 -207 189 -502
487 -1042 1055 -1028 1042 -1250 1158 -172 90 -332 136 -529 154 -124 11 -125
11 -251 -1z"/>
</g>
</svg>
