<?xml version="1.0" standalone="no"?>
<!DOCTYPE svg PUBLIC "-//W3C//DTD SVG 20010904//EN"
 "http://www.w3.org/TR/2001/REC-SVG-20010904/DTD/svg10.dtd">
<svg version="1.0" xmlns="http://www.w3.org/2000/svg"
 width="2000.177208pt" height="1497.313717pt" viewBox="0 0 2000.177208 1497.313717"
 preserveAspectRatio="xMidYMid meet">
<metadata>
Created by potrace 1.12, written by Peter Selinger 2001-2015
</metadata>
<g transform="translate(0.000000,1748.830794) scale(0.100000,-0.100000)"
fill="#000000" stroke="none">
<path d="M1605 17474 c-327 -44 -611 -160 -873 -357 -356 -267 -591 -644 -699
-1118 -24 -110 -28 -147 -31 -326 -2 -172 0 -216 18 -305 64 -316 162 -556
318 -778 86 -123 317 -354 442 -442 319 -225 741 -352 1115 -335 443 20 821
170 1163 459 91 76 241 249 319 367 225 340 334 777 293 1182 -80 786 -624
1422 -1382 1613 -208 53 -474 69 -683 40z m450 -1191 c314 -111 504 -436 441
-753 -20 -100 -76 -223 -135 -298 -114 -144 -335 -252 -511 -252 -272 2 -524
168 -627 415 -27 63 -53 190 -53 252 1 139 58 303 145 416 77 100 235 205 355
235 77 19 92 21 200 17 84 -3 121 -9 185 -32z"/>
<path d="M6675 17478 c-391 -33 -783 -213 -1076 -496 -232 -223 -382 -455
-478 -741 -162 -477 -128 -957 99 -1416 85 -171 172 -294 309 -437 291 -304
622 -480 1046 -555 95 -17 383 -18 5915 -18 4838 0 5830 2 5905 14 439 66 785
239 1084 544 256 261 412 569 495 980 52 254 31 545 -59 833 -91 292 -226 522
-430 733 -167 173 -306 276 -504 376 -188 94 -425 164 -612 180 -103 10
-11583 12 -11694 3z m11686 -1190 c151 -54 265 -140 348 -263 112 -167 142
-345 94 -545 -44 -182 -174 -338 -358 -430 -156 -77 422 -71 -5975 -68 -5545
3 -5737 4 -5790 21 -197 66 -343 195 -427 374 -157 338 3 741 355 895 112 49
-195 46 5932 45 l5745 -2 76 -27z"/>
<path d="M1589 11825 c-393 -54 -764 -240 -1049 -527 -269 -269 -424 -565
-509 -968 -28 -132 -31 -163 -31 -327 0 -187 10 -261 60 -458 44 -169 135
-385 215 -510 277 -434 710 -737 1195 -835 276 -55 531 -49 820 22 654 159
1175 682 1335 1340 114 470 36 985 -212 1391 -297 489 -805 815 -1365 876
-127 14 -339 12 -459 -4z m408 -1175 c127 -30 218 -81 312 -173 155 -152 229
-389 187 -597 -53 -260 -241 -460 -496 -527 -84 -22 -234 -22 -320 1 -143 36
-285 129 -367 239 -208 281 -183 637 62 882 168 168 390 231 622 175z"/>
<path d="M6695 11833 c-483 -39 -945 -286 -1261 -673 -303 -371 -460 -897
-403 -1350 73 -594 389 -1085 893 -1389 234 -142 502 -226 789 -250 177 -15
11412 -15 11582 0 456 39 844 215 1158 526 273 271 436 584 521 1006 37 181
37 405 1 594 -101 525 -369 942 -791 1230 -200 136 -447 239 -685 285 l-114
22 -5825 1 c-3204 1 -5843 0 -5865 -2z m11603 -1179 c123 -25 233 -85 322
-174 162 -162 232 -369 196 -580 -18 -108 -46 -183 -98 -260 -109 -164 -252
-258 -453 -298 -72 -14 -612 -16 -5755 -16 -5159 0 -5682 1 -5755 16 -111 22
-184 52 -271 110 -189 127 -307 367 -291 593 22 307 270 579 562 618 17 2
2603 5 5748 6 5182 1 5725 0 5795 -15z"/>
<path d="M1581 6175 c-598 -86 -1116 -460 -1386 -1004 -68 -137 -123 -298
-164 -484 -29 -128 -31 -154 -31 -325 0 -198 4 -232 56 -442 105 -425 324
-759 679 -1035 175 -136 406 -247 639 -309 325 -87 650 -81 992 18 489 141
908 496 1128 957 290 608 234 1311 -150 1859 -268 384 -678 651 -1144 746
-160 33 -456 42 -619 19z m414 -1170 c115 -29 221 -90 310 -179 142 -141 200
-280 199 -476 0 -97 -5 -128 -27 -195 -69 -208 -231 -370 -442 -440 -159 -53
-374 -32 -512 52 -143 86 -226 174 -289 308 -87 185 -83 381 12 575 84 171
250 306 434 354 74 20 240 20 315 1z"/>
<path d="M6643 6179 c-371 -43 -719 -200 -1004 -453 -284 -250 -489 -601 -573
-977 -114 -515 0 -1061 310 -1479 297 -400 724 -659 1214 -735 96 -15 597 -16
5905 -16 3865 0 5826 3 5877 10 219 29 432 93 611 183 456 228 797 636 937
1119 61 213 72 282 77 480 5 169 3 198 -21 325 -145 792 -706 1371 -1478 1526
l-113 23 -5835 1 c-3209 1 -5867 -2 -5907 -7z m11680 -1177 c123 -34 211 -86
303 -177 194 -193 252 -473 150 -726 -87 -212 -300 -377 -529 -408 -109 -15
-11347 -15 -11467 0 -246 30 -457 197 -544 427 -69 185 -60 349 30 532 79 159
215 278 391 342 48 17 92 22 253 28 107 3 2702 6 5765 5 l5570 -1 78 -22z"/>
</g>
</svg>
