<?xml version="1.0" encoding="UTF-8" standalone="no"?>
<!DOCTYPE svg PUBLIC "-//W3C//DTD SVG 1.1//EN" "http://www.w3.org/Graphics/SVG/1.1/DTD/svg11.dtd">
<svg width="100%" height="100%" viewBox="0 0 2000 2000" version="1.1" xmlns="http://www.w3.org/2000/svg" xmlns:xlink="http://www.w3.org/1999/xlink" xml:space="preserve" xmlns:serif="http://www.serif.com/" style="fill-rule:evenodd;clip-rule:evenodd;stroke-linejoin:round;stroke-miterlimit:2;">
    <g transform="matrix(1.07774,0,0,1.113293,0,-226.585411)">
        <path d="M1063.801,204.515C1070.945,204.156 1139.422,204.066 1144.525,204.515C1179.227,207.3 1232.209,214.037 1253.55,218.348C1271.365,222.031 1315.624,232.81 1324.531,235.684C1349.306,243.678 1389.575,257.96 1402.472,263.26C1430.03,274.578 1469.836,294.608 1496.651,310.687C1575.149,357.665 1642.326,415.96 1698.091,485.573C1714.05,505.514 1729.546,527.162 1745.505,552.043C1760.722,575.756 1782.713,616.806 1794.311,643.214C1803.59,664.412 1823.724,720.822 1828.271,738.517C1836.715,771.213 1841.725,793.579 1844.045,808.489C1851.004,853.132 1852.21,863.551 1853.973,892.025C1854.53,901.906 1855.179,910.17 1855.365,910.349C1855.55,910.529 1855.55,949.063 1855.272,949.063C1854.994,949.063 1854.808,950.411 1854.808,951.938C1854.808,957.866 1852.859,989.304 1851.932,998.916C1850.818,1010.682 1844.416,1054.966 1841.725,1069.427C1839.776,1080.206 1830.962,1116.225 1825.951,1134.1C1822.797,1145.238 1804.61,1196.078 1798.394,1211.079C1785.589,1241.619 1767.403,1276.92 1748.753,1307.011C1738.361,1323.897 1712.937,1360.007 1700.875,1375.187C1685.658,1394.229 1668.028,1414.17 1650.028,1432.764C1635.367,1447.854 1593.799,1485.311 1579.973,1495.82C1553.529,1516.03 1537.199,1527.977 1529.59,1532.737C1526.064,1534.983 1517.064,1540.642 1509.641,1545.313C1486.537,1559.864 1482.455,1562.2 1454.619,1576.482C1414.071,1597.321 1385.121,1609.357 1342.161,1623.28C1303.098,1635.855 1269.231,1644.029 1230.817,1650.047C1136.081,1664.778 1058.79,1663.431 959.415,1645.107C918.775,1637.651 856.886,1618.429 812.348,1599.387C786.368,1588.248 779.131,1584.835 749.624,1569.206C721.788,1554.565 719.098,1553.397 710.097,1553.487C696.458,1553.577 715.386,1536.33 498.265,1746.248C304.619,1933.441 287.175,1949.878 269.638,1961.286C260.267,1967.394 247.184,1975.119 241.71,1977.724C218.327,1989.042 188.079,1997.665 167.016,1999.102C161.635,1999.461 140.572,1999.91 132.685,1998.293C106.798,1992.994 89.261,1985.988 71.91,1974.131C61.239,1966.855 32.475,1938.65 25.331,1928.5C14.475,1913.051 6.866,1895.535 2.32,1875.145L0.186,1865.714C0.186,1865.714 0.557,1835.443 0.928,1832.479C2.041,1824.485 7.98,1800.412 10.578,1793.585C18.743,1771.848 27.094,1756.488 42.125,1735.2C50.476,1723.433 81.281,1692.983 258.968,1520.791C390.354,1393.421 456.233,1328.928 457.903,1326.053C459.944,1322.64 460.501,1320.215 460.872,1314.376C461.521,1304.765 460.965,1303.328 441.387,1268.117C427.376,1242.966 408.447,1203.803 401.488,1185.749C378.57,1126.016 367.065,1083.26 357.786,1022.719C353.239,993.346 351.291,964.064 351.291,924.811C351.198,888.971 351.848,876.935 355.466,844.868C356.858,832.832 364.188,788.459 366.508,778.399C377.735,729.445 391.375,688.126 410.21,645.729C421.902,619.501 424.407,614.381 435.541,594.26C451.222,566.055 453.913,561.654 470.151,537.402C487.502,511.443 497.244,498.598 523.689,466.711C530.091,459.076 533.06,455.752 556.164,431.769C616.661,368.713 691.262,315.448 772.45,277.093C803.162,262.631 821.998,255.355 874.516,237.93C888.155,233.439 931.765,222.57 954.498,217.989C979.179,213.049 1034.851,206.222 1063.801,204.515ZM1068.904,394.941C1040.047,396.558 1003.211,401.948 973.148,408.774C949.766,414.164 939.559,417.038 918.125,424.493C896.32,432.039 890.011,434.464 873.588,441.829C847.7,453.417 844.638,454.854 830.906,462.668C802.977,478.477 793.977,484.136 773.935,498.418C731.067,529.048 690.241,568.121 659.065,608.452C645.332,626.147 635.033,640.609 630.765,648.154C629.466,650.4 624.362,658.753 619.445,666.838C611.187,680.131 597.083,708.156 588.547,728.097C580.196,747.32 570.268,777.051 564.515,799.507C561.267,812.352 557.927,826.275 557.185,830.496C549.855,871.456 546.978,905.409 547.72,941.878C548.741,986.61 553.288,1020.473 563.865,1062.241C569.525,1084.787 572.587,1094.398 581.866,1119.1C588.639,1137.064 607.011,1176.766 613.692,1187.994C634.847,1223.564 639.487,1230.481 658.415,1254.913C694.138,1301.082 737.191,1340.874 792.399,1378.6C801.028,1384.439 838.421,1405.637 849.927,1411.206C892.145,1431.506 931.672,1445.519 973.797,1455.13C1017.5,1465.1 1057.027,1469.502 1103.699,1469.412C1150.371,1469.412 1187.485,1465.28 1232.209,1455.04C1258.189,1449.112 1259.952,1448.573 1287.417,1439.321C1320.449,1428.093 1352.182,1414.17 1378.069,1399.529C1409.617,1381.564 1412.679,1379.588 1443.299,1357.492C1460.835,1344.737 1491.177,1318.239 1506.208,1302.34C1530.704,1276.56 1535.807,1270.542 1558.911,1240.092C1568.375,1227.607 1590.273,1192.396 1597.789,1177.665C1613.191,1147.214 1618.48,1134.998 1628.594,1106.704C1639.821,1075.176 1647.429,1044.277 1652.904,1007.898C1663.11,939.632 1659.492,870.827 1641.955,801.483C1632.491,763.937 1620.429,732.499 1598.902,688.575C1586.84,664.053 1557.055,619.411 1535.25,593.362C1508.62,561.564 1472.434,527.611 1440.515,504.526C1415.184,486.202 1409.988,482.789 1389.946,471.202C1364.708,456.65 1359.976,454.225 1333.81,442.638C1303.469,429.164 1274.241,419.014 1247.054,412.367C1215.971,404.822 1205.208,402.846 1169.577,397.995C1144.896,394.672 1099.245,393.235 1068.904,394.941ZM1166.33,496.352C1183.032,497.43 1212.167,500.843 1227.569,503.628C1254.849,508.568 1305.51,523.389 1327.222,532.641C1364.801,548.719 1383.173,588.601 1370.183,626.327C1362.203,649.502 1342.532,667.197 1317.48,673.754C1297.159,678.964 1287.046,677.976 1256.24,667.466C1209.197,651.388 1179.135,646.088 1135.246,646.088C1105.833,646.088 1084.863,648.603 1056.842,655.34C970.55,676.179 897.712,728.097 851.226,801.753C848.35,806.424 841.576,818.55 836.38,828.7C823.668,853.222 817.823,861.845 808.544,869.57C801.121,875.678 789.523,881.965 780.801,884.66C778.296,885.468 771.801,886.726 766.419,887.444C745.82,890.229 726.613,885.019 709.448,871.815C683.931,852.234 674.096,819.987 684.303,789.806C685.509,786.213 691.169,774.087 696.829,762.679C739.882,676.718 807.152,606.656 892.145,559.139C950.786,526.443 1014.438,506.233 1084.678,498.149C1106.482,495.634 1141.463,494.915 1166.33,496.352Z"/>
    </g>
</svg>
