<?xml version="1.0" standalone="no"?>
<!DOCTYPE svg PUBLIC "-//W3C//DTD SVG 20010904//EN"
 "http://www.w3.org/TR/2001/REC-SVG-20010904/DTD/svg10.dtd">
<svg version="1.0" xmlns="http://www.w3.org/2000/svg"
 width="2000.066867pt" height="1984.566375pt" viewBox="0 0 2000.066867 1984.566375"
 preserveAspectRatio="xMidYMid meet">
<metadata>
Created by potrace 1.12, written by Peter Selinger 2001-2015
</metadata>
<g transform="translate(-0.006149,1992.641731) scale(0.100000,-0.100000)"
fill="#000000" stroke="none">
<path d="M3890 19919 c-989 -57 -1894 -460 -2600 -1158 -506 -501 -882 -1153
-1059 -1834 -135 -519 -165 -1054 -90 -1593 73 -530 257 -1046 540 -1512 305
-503 759 -970 1260 -1295 373 -241 810 -429 1239 -532 622 -149 1246 -146
1915 10 82 19 156 35 165 35 8 0 101 -87 205 -193 105 -105 550 -553 989 -994
439 -441 796 -807 794 -812 -3 -10 -349 -360 -1518 -1535 l-645 -648 -146 36
c-364 91 -653 128 -999 128 -448 1 -823 -60 -1250 -202 -584 -193 -1088 -508
-1546 -964 -566 -565 -939 -1289 -1083 -2106 -54 -301 -61 -381 -61 -658 0
-211 4 -300 21 -422 39 -303 80 -502 154 -748 74 -249 118 -351 419 -981 75
-157 136 -286 136 -288 0 -21 168 143 1041 1014 637 636 1040 1031 1076 1055
90 60 155 81 264 86 115 5 183 -8 275 -52 100 -48 168 -107 225 -193 116 -178
128 -378 33 -573 -35 -73 -69 -107 -1067 -1107 -650 -651 -1028 -1036 -1022
-1042 22 -21 868 -398 1024 -456 415 -155 880 -237 1346 -238 861 0 1676 267
2370 778 347 255 701 631 938 996 574 884 769 1945 550 3001 l-26 127 1113
1121 c612 616 1116 1120 1119 1120 6 0 1065 -1060 1804 -1805 l278 -281 -35
-139 c-44 -173 -79 -381 -101 -590 -22 -199 -16 -681 9 -865 109 -785 384
-1435 862 -2035 124 -155 462 -491 624 -619 592 -470 1250 -749 1990 -846 211
-28 625 -38 832 -21 645 54 1218 239 1766 567 132 80 165 102 321 217 414 306
788 720 1052 1165 305 512 467 996 546 1632 25 200 25 645 0 850 -74 611 -228
1083 -522 1595 -382 667 -996 1243 -1687 1583 -879 433 -1836 533 -2803 291
l-130 -32 -1027 1033 c-566 568 -1028 1034 -1028 1035 0 2 84 88 188 191 103
104 593 597 1088 1095 l901 906 109 -28 c154 -41 435 -95 599 -116 215 -27
684 -25 901 5 675 91 1213 293 1753 657 445 299 862 736 1128 1180 334 558
490 1026 578 1740 24 196 20 530 -10 765 -38 302 -102 592 -188 845 -72 211
-81 232 -459 1025 l-69 144 -1022 -1021 c-735 -734 -1040 -1033 -1085 -1062
-103 -65 -178 -86 -307 -85 -126 1 -185 18 -297 84 -116 69 -210 203 -244 346
-32 138 -2 313 75 430 25 38 398 420 1055 1078 559 560 1016 1021 1016 1025 0
4 -33 21 -72 38 -40 17 -183 81 -318 143 -421 192 -531 240 -657 286 -478 173
-1027 254 -1533 225 -600 -35 -1124 -175 -1630 -437 -424 -220 -784 -498
-1093 -842 -478 -533 -785 -1131 -931 -1812 -121 -568 -124 -1048 -10 -1633
l35 -177 -828 -833 c-456 -457 -956 -961 -1113 -1119 -156 -159 -289 -288
-295 -288 -6 0 -94 84 -195 188 -102 103 -553 556 -1003 1008 l-817 821 35
144 c86 350 120 672 112 1049 -10 431 -70 788 -194 1160 -262 786 -741 1457
-1403 1964 -469 360 -1051 622 -1630 735 -323 63 -698 89 -1020 70z m640
-1188 c151 -24 242 -43 360 -76 530 -149 1009 -451 1371 -863 461 -525 708
-1178 711 -1872 1 -438 -64 -745 -263 -1236 -38 -94 -69 -175 -69 -180 0 -6
48 -58 108 -116 59 -58 415 -416 792 -794 1098 -1105 3567 -3584 6075 -6103
l890 -893 40 15 c22 8 129 52 238 96 400 163 680 226 1057 238 571 17 1087
-117 1570 -407 727 -436 1213 -1162 1351 -2015 30 -188 37 -550 15 -740 -78
-652 -343 -1213 -790 -1674 -520 -535 -1219 -844 -1967 -868 -674 -22 -1347
208 -1886 645 -347 281 -642 672 -821 1092 -168 392 -252 876 -222 1275 29
391 82 608 254 1044 42 106 76 197 74 201 -2 5 -318 325 -702 712 -2598 2612
-4300 4324 -5206 5233 -575 578 -1248 1254 -1495 1503 -247 248 -456 452 -464
452 -8 0 -92 -32 -188 -71 -393 -160 -582 -215 -883 -254 -433 -57 -925 -3
-1335 147 -682 249 -1264 773 -1585 1423 -195 398 -292 817 -291 1265 1 586
165 1114 502 1610 284 419 719 784 1184 992 228 103 535 190 775 222 180 24
182 24 435 21 176 -3 273 -9 365 -24z m11784 19 c3 -3 -170 -181 -383 -395
-386 -388 -459 -471 -570 -649 -55 -88 -101 -188 -146 -317 -111 -318 -124
-665 -39 -1003 141 -560 578 -1024 1134 -1206 499 -163 1075 -86 1500 202 139
95 219 168 613 562 l391 391 9 -125 c52 -763 -192 -1493 -686 -2055 -134 -153
-354 -345 -528 -463 -376 -253 -824 -415 -1279 -462 -124 -13 -408 -13 -535 0
-315 32 -523 88 -900 242 -121 50 -231 95 -245 100 -24 9 -65 -31 -775 -744
-413 -414 -1024 -1027 -1358 -1363 l-608 -610 -540 544 c-296 299 -538 545
-537 547 6 6 1119 1125 1911 1920 455 457 827 836 827 841 0 6 -9 36 -21 69
-155 438 -198 597 -233 859 -73 547 31 1130 292 1640 326 634 909 1129 1592
1350 199 64 386 103 620 129 52 6 487 2 494 -4z m-7292 -10482 l140 -148 -913
-917 c-503 -505 -1117 -1123 -1366 -1373 -249 -250 -453 -461 -453 -469 0 -8
27 -91 60 -185 77 -223 115 -347 145 -476 142 -621 62 -1279 -225 -1865 -129
-262 -296 -492 -519 -715 -477 -476 -1105 -759 -1776 -801 -130 -8 -435 -4
-435 6 0 1 168 171 372 377 205 205 404 412 441 458 358 445 473 1030 312
1585 -133 457 -468 852 -900 1060 -225 108 -429 159 -680 171 -335 16 -671
-66 -955 -233 -161 -95 -263 -185 -675 -592 l-410 -406 -6 70 c-12 136 -9 426
7 568 36 332 120 618 274 932 213 434 531 797 940 1072 346 234 723 379 1150
444 208 32 562 32 770 0 289 -45 484 -103 835 -251 l219 -92 480 484 c264 265
874 878 1355 1361 l876 877 398 -397 c219 -219 461 -464 539 -545z"/>
<path d="M3945 17560 c-552 -63 -1034 -391 -1293 -880 -92 -174 -159 -387
-183 -584 -16 -130 -6 -381 20 -508 127 -623 580 -1111 1192 -1283 271 -76
571 -78 861 -4 532 135 966 536 1146 1061 67 193 86 312 87 538 0 230 -14 325
-80 527 -192 585 -690 1013 -1300 1118 -112 19 -343 27 -450 15z m277 -1171
c286 -60 460 -365 364 -639 -46 -134 -123 -222 -247 -284 -175 -88 -378 -64
-536 63 -216 174 -232 522 -32 721 128 127 282 174 451 139z"/>
<path d="M15845 5754 c-307 -21 -561 -104 -805 -262 -334 -216 -588 -556 -695
-930 -51 -180 -59 -244 -60 -467 0 -224 8 -282 62 -470 171 -596 682 -1051
1308 -1166 179 -33 403 -31 584 5 301 61 551 178 772 362 365 304 589 784 589
1258 -1 600 -306 1137 -823 1448 -159 95 -407 181 -597 207 -88 12 -264 20
-335 15z m210 -1180 c229 -59 375 -246 375 -479 0 -246 -176 -449 -422 -487
-237 -36 -473 117 -542 351 -22 77 -21 204 4 282 37 121 122 222 244 294 90
53 229 69 341 39z"/>
</g>
</svg>
