<?xml version="1.0" standalone="no"?>
<!DOCTYPE svg PUBLIC "-//W3C//DTD SVG 20010904//EN"
 "http://www.w3.org/TR/2001/REC-SVG-20010904/DTD/svg10.dtd">
<svg version="1.0" xmlns="http://www.w3.org/2000/svg"
 width="2000.000000pt" height="2000.000000pt" viewBox="0 0 2000.000000 2000.000000"
 preserveAspectRatio="xMidYMid meet">
<metadata>
Created by potrace 1.12, written by Peter Selinger 2001-2015
</metadata>
<g transform="translate(-0.000000,2000.000000) scale(0.100000,-0.100000)"
fill="#000000" stroke="none">
<path d="M13610 19984 c-356 -77 -634 -283 -803 -594 -168 -312 -172 -739 -8
-1060 144 -283 401 -496 706 -585 127 -37 260 -45 748 -45 l427 0 0 -943 0
-944 -172 -6 c-244 -8 -382 -41 -534 -128 -222 -127 -387 -329 -463 -564 -51
-160 -53 -184 -49 -945 3 -687 4 -707 25 -782 86 -304 273 -532 544 -662 153
-74 220 -88 469 -95 118 -3 888 -6 1710 -5 1382 1 1501 2 1580 18 216 45 383
131 526 273 125 124 221 290 265 461 33 127 41 349 36 972 -5 616 -6 630 -60
785 -106 306 -373 553 -686 635 -86 23 -251 40 -389 40 l-92 0 2 943 3 942
1003 5 c552 3 1006 3 1008 1 2 -2 4 -3042 4 -6754 l0 -6749 -2417 3 -2418 3
-52 -27 c-101 -52 -161 -138 -170 -245 -10 -112 58 -226 165 -279 l57 -28
2418 -3 2417 -2 0 -1515 c0 -1436 -1 -1515 -17 -1515 -10 0 -1488 0 -3286 0
l-3268 0 -4 477 c-3 263 -2 945 1 1516 l7 1037 306 0 c400 0 448 8 527 87 83
82 111 216 67 315 -30 65 -94 132 -156 159 l-52 24 -530 0 c-524 0 -531 0
-577 -22 -66 -30 -132 -102 -157 -169 -21 -55 -21 -61 -19 -1380 2 -728 0
-1324 -5 -1324 -6 0 -141 201 -311 465 -384 597 -552 857 -681 1055 -227 351
-417 651 -413 654 1 2 41 16 88 30 101 32 285 119 390 183 101 62 249 180 340
272 308 308 496 723 529 1167 15 189 15 8951 1 9144 -19 262 -72 461 -180 685
-220 456 -610 799 -1092 959 -239 79 -404 95 -984 96 l-371 0 -17 128 c-68
502 -82 562 -152 683 -46 78 -179 212 -257 258 -81 48 -173 79 -269 91 -106
13 -4777 14 -4893 1 -138 -16 -247 -62 -359 -151 -118 -93 -216 -241 -251
-376 -10 -41 -95 -601 -95 -630 0 -1 -213 -4 -472 -7 -513 -6 -576 -11 -789
-66 -126 -32 -230 -71 -342 -127 -109 -55 -312 -193 -402 -274 -282 -253 -493
-607 -579 -970 -45 -193 -46 -220 -46 -1357 0 -1213 -5 -1132 76 -1222 63 -70
125 -95 229 -89 120 6 189 52 248 162 l22 41 6 1105 c6 1206 3 1137 65 1326
141 432 491 751 944 860 72 18 252 19 4135 22 4511 3 4170 8 4377 -64 189 -66
335 -154 476 -289 149 -142 259 -316 326 -516 72 -218 67 186 64 -4894 l-3
-4570 -27 -105 c-124 -496 -473 -839 -975 -962 -86 -21 -106 -22 -1055 -25
l-967 -4 -6 23 c-3 13 -37 212 -75 443 -39 231 -81 463 -94 517 -40 160 -111
284 -230 404 -127 126 -294 210 -469 233 -104 14 -2483 15 -2582 1 -283 -41
-545 -244 -656 -510 -39 -91 -47 -131 -130 -615 -39 -231 -74 -436 -78 -455
l-6 -35 -960 0 c-955 0 -961 0 -1060 22 -449 100 -814 432 -950 863 -64 200
-58 -70 -64 3220 l-6 2995 -27 50 c-32 60 -77 105 -138 136 -66 35 -176 33
-246 -3 -60 -31 -119 -94 -146 -154 -18 -43 -19 -103 -18 -3012 0 -1831 4
-3000 10 -3052 38 -336 157 -635 361 -910 213 -287 550 -533 881 -641 74 -25
98 -36 96 -48 -2 -9 -30 -58 -63 -109 -33 -51 -154 -239 -270 -417 -115 -179
-228 -353 -249 -388 -22 -34 -77 -118 -121 -187 -45 -69 -168 -258 -272 -420
-311 -483 -523 -811 -568 -880 -244 -375 -372 -577 -408 -641 -32 -57 -37 -74
-37 -132 0 -115 63 -210 174 -263 l70 -34 1178 0 1178 0 64 30 c75 36 119 81
154 159 22 51 181 484 230 626 l20 60 914 8 c1039 9 5769 0 5779 -11 4 -4 33
-79 64 -167 106 -296 185 -506 205 -545 27 -54 73 -96 141 -130 l58 -30 4764
0 4765 0 56 25 c65 29 128 90 162 157 l24 47 0 9777 0 9777 -29 51 c-35 60
-67 92 -135 135 l-50 31 -3055 -1 c-2585 0 -3066 -3 -3121 -15z m5798 -1131
c2 -531 1 -563 -15 -563 -10 0 -1284 0 -2831 0 -2008 0 -2828 3 -2865 11 -154
33 -302 150 -377 299 -135 268 -21 619 246 753 70 35 146 54 239 60 28 2 1299
3 2825 3 l2775 -1 3 -562z m-2603 -2100 l0 -948 -770 1 -770 0 -3 946 c-2 880
-1 947 15 950 9 2 357 2 772 1 l756 -3 0 -947z m-7955 -173 c16 -11 35 -39 44
-63 15 -41 81 -485 73 -493 -4 -4 -5099 -6 -5102 -2 -2 2 1 30 6 63 5 33 16
112 25 175 32 238 58 322 102 333 9 3 1099 5 2420 6 2394 1 2404 1 2432 -19z
m8845 -1371 c154 -28 280 -148 320 -306 14 -53 15 -146 13 -710 -3 -630 -4
-649 -24 -703 -44 -118 -145 -218 -257 -257 -49 -17 -140 -18 -1717 -18
l-1665 0 -67 32 c-142 67 -231 188 -248 335 -13 111 -12 1193 0 1282 13 90 57
170 131 241 89 85 147 108 299 115 231 10 3150 0 3215 -11z m-10009 -10187
c28 -13 65 -38 82 -55 62 -64 62 -66 172 -709 22 -131 40 -242 40 -248 0 -7
-518 -10 -1566 -10 l-1566 0 6 33 c4 17 29 165 56 327 87 514 95 544 161 609
39 40 83 63 134 72 22 4 578 6 1235 5 l1195 -1 51 -23z m-4316 -1607 c0 -2
-36 -104 -81 -227 -44 -123 -123 -340 -174 -483 -52 -143 -130 -359 -175 -480
-96 -260 -97 -263 -190 -520 -59 -165 -147 -406 -388 -1063 -8 -24 -20 -46
-26 -48 -6 -2 -347 -3 -759 -2 l-747 3 40 56 c21 30 104 156 183 280 79 123
199 310 267 414 67 105 178 276 245 380 68 105 188 291 268 415 80 124 169
261 197 305 131 206 600 933 615 953 l16 22 354 0 c195 0 355 -2 355 -5z
m5469 -8 c6 -8 60 -153 120 -323 60 -170 118 -333 130 -361 l21 -53 -2690 0
c-1480 0 -2690 3 -2690 8 0 4 18 57 41 117 22 61 78 216 125 345 46 129 89
245 94 258 l10 22 2414 0 c2008 0 2415 -2 2425 -13z m1354 -9 c59 -93 234
-365 462 -718 147 -228 332 -514 410 -635 212 -329 634 -983 784 -1215 73
-112 137 -213 142 -222 9 -17 -26 -18 -744 -18 l-754 0 -33 88 c-38 104 -378
1037 -680 1867 -186 513 -289 792 -314 855 -6 13 38 15 353 18 l360 3 14 -23z
m-2296 -1315 l1432 -6 30 -86 c16 -47 63 -182 105 -300 42 -118 76 -215 76
-217 0 -2 -1407 -4 -3126 -4 -2497 0 -3125 3 -3121 13 8 23 208 572 212 584 3
10 188 13 857 16 469 1 1134 3 1478 5 344 1 1269 -1 2057 -5z"/>
<path d="M2158 15180 c-197 -36 -361 -148 -470 -320 -149 -238 -144 -519 13
-755 179 -267 501 -375 808 -270 106 36 177 80 257 159 169 169 244 404 200
626 -49 246 -240 463 -470 536 -90 28 -253 40 -338 24z m196 -608 c51 -54 44
-135 -16 -172 -59 -36 -123 -19 -154 41 -24 48 -18 87 20 125 28 28 41 34 78
34 36 0 50 -6 72 -28z"/>
<path d="M5168 15179 c-84 -12 -207 -63 -284 -118 -153 -107 -250 -250 -305
-451 -21 -76 -17 -253 9 -343 79 -278 300 -484 572 -533 114 -20 2406 -20
2512 0 267 51 477 237 565 501 24 71 27 96 28 215 0 114 -4 147 -23 210 -36
114 -90 208 -178 306 -43 47 -143 119 -210 151 -152 72 -46 67 -1404 69 -674
1 -1250 -2 -1282 -7z m2433 -589 c33 -14 76 -73 85 -117 9 -43 -25 -111 -71
-142 l-36 -24 -1160 1 c-1116 0 -1161 1 -1189 19 -98 62 -105 180 -16 248 41
31 7 31 1320 28 754 -1 1047 -5 1067 -13z"/>
<path d="M10445 15183 c-202 -27 -406 -176 -509 -372 -181 -345 -42 -768 309
-941 112 -56 190 -74 310 -73 119 0 200 19 310 72 144 69 252 179 321 328 136
290 54 642 -194 838 -151 120 -350 174 -547 148z m178 -604 c32 -24 51 -87 38
-121 -15 -40 -68 -78 -108 -78 -41 0 -97 49 -109 94 -22 88 105 164 179 105z"/>
<path d="M2395 13550 c-121 -22 -194 -47 -294 -101 -287 -154 -481 -416 -545
-734 -15 -72 -16 -217 -14 -1425 l3 -1345 23 -80 c111 -382 392 -661 767 -763
l100 -27 1400 0 c1139 0 1414 3 1475 14 462 84 791 416 865 875 22 137 22
2587 0 2724 -73 452 -423 799 -872 867 -83 13 -309 15 -1453 14 -1265 -1
-1362 -2 -1455 -19z m2875 -584 c158 -52 269 -165 317 -321 17 -57 18 -131 18
-1315 -1 -970 -4 -1267 -13 -1310 -40 -174 -188 -318 -361 -350 -34 -6 -532
-10 -1375 -10 -1444 0 -1379 -3 -1489 57 -106 58 -180 147 -220 266 -22 62
-22 66 -25 1246 -1 662 1 1236 6 1301 8 101 14 127 42 186 69 143 212 248 363
264 39 4 659 7 1377 6 1236 -1 1308 -2 1360 -20z"/>
<path d="M7515 13555 c-221 -38 -407 -138 -571 -307 -168 -174 -269 -387 -294
-619 -13 -127 -13 -2436 0 -2589 13 -141 38 -237 94 -356 61 -128 116 -206
215 -304 181 -179 383 -275 631 -301 71 -7 536 -9 1445 -7 1324 4 1341 4 1430
25 208 49 373 138 518 281 177 173 282 399 306 653 15 152 15 2398 1 2573 -35
425 -315 781 -722 916 -150 50 -156 50 -1613 49 -1086 -1 -1376 -4 -1440 -14z
m2770 -575 c213 -22 375 -169 415 -376 8 -43 10 -407 8 -1319 l-3 -1260 -21
-56 c-31 -79 -63 -127 -126 -184 -63 -58 -146 -101 -219 -115 -77 -15 -2672
-13 -2741 1 -156 33 -292 156 -344 309 -18 53 -19 112 -19 1345 l0 1290 22 57
c62 166 212 288 376 307 101 12 2541 13 2652 1z"/>
<path d="M4545 8271 c-185 -46 -282 -236 -204 -401 56 -118 125 -159 284 -171
154 -11 3444 -11 3588 1 98 7 125 13 162 34 54 32 91 76 123 145 21 45 24 64
20 125 -6 87 -30 136 -93 195 -91 84 108 76 -1985 78 -1026 0 -1878 -2 -1895
-6z"/>
<path d="M2555 7800 c-588 -87 -1032 -634 -1002 -1233 26 -540 419 -1001 947
-1114 103 -21 350 -24 453 -5 471 88 831 427 953 897 26 101 29 124 28 280 -1
156 -3 179 -31 287 -122 459 -491 804 -947 883 -92 16 -311 19 -401 5z m385
-603 c173 -61 320 -207 380 -380 30 -86 38 -238 16 -331 -70 -298 -369 -508
-664 -466 -210 30 -374 146 -466 331 -56 111 -70 177 -64 304 6 117 34 199
105 307 87 132 237 232 393 262 14 2 70 3 125 2 77 -2 117 -9 175 -29z"/>
<path d="M9898 7800 c-240 -38 -445 -141 -627 -315 -247 -236 -371 -527 -371
-872 0 -454 254 -859 664 -1058 197 -96 371 -132 581 -122 563 30 1017 427
1120 982 23 122 16 375 -14 488 -73 277 -229 509 -456 680 -103 77 -276 161
-401 193 -83 22 -126 27 -269 29 -93 2 -196 0 -227 -5z m330 -585 c117 -28
241 -105 324 -203 178 -209 193 -504 37 -732 -183 -268 -545 -344 -819 -172
-118 74 -217 201 -261 333 -35 106 -33 263 3 366 37 105 72 158 157 244 83 84
178 139 279 163 76 19 202 19 280 1z"/>
<path d="M4515 7398 c-123 -44 -216 -182 -202 -299 9 -74 44 -143 97 -193 88
-82 -78 -76 2005 -76 2044 0 1908 -4 1997 63 27 21 55 56 75 96 76 147 21 313
-131 394 l-41 22 -1885 2 c-1323 1 -1894 -2 -1915 -9z"/>
</g>
</svg>
