<?xml version="1.0" standalone="no"?>
<!DOCTYPE svg PUBLIC "-//W3C//DTD SVG 20010904//EN"
 "http://www.w3.org/TR/2001/REC-SVG-20010904/DTD/svg10.dtd">
<svg version="1.0" xmlns="http://www.w3.org/2000/svg"
 width="1882.761764pt" height="1591.323822pt" viewBox="0 0 1882.761764 1591.323822"
 preserveAspectRatio="xMidYMid meet">
<metadata>
Created by potrace 1.12, written by Peter Selinger 2001-2015
</metadata>
<g transform="translate(-58.095559,1795.884885) scale(0.100000,-0.100000)"
fill="#000000" stroke="none">
<path d="M12995 17936 c-65 -30 -111 -83 -131 -152 -19 -68 -9 -124 36 -188
16 -23 245 -257 509 -521 265 -264 481 -484 481 -490 0 -7 -576 -10 -1723 -10
l-1722 0 -47 -27 c-175 -104 -169 -313 12 -424 9 -5 725 -11 1753 -14 l1739
-5 -500 -501 c-299 -299 -508 -517 -520 -540 -33 -65 -36 -113 -12 -176 55
-149 225 -203 354 -114 81 56 1429 1413 1457 1466 34 66 33 150 -3 210 -15 25
-336 354 -740 757 -548 548 -723 717 -758 732 -60 27 -123 26 -185 -3z"/>
<path d="M6849 16566 c-20 -7 -52 -22 -70 -34 -19 -12 -352 -340 -741 -729
-752 -753 -747 -748 -748 -844 0 -94 1 -96 772 -866 l723 -721 59 -17 c51 -15
67 -16 114 -5 46 10 65 22 108 65 87 86 100 177 41 277 -14 23 -247 263 -516
533 -270 269 -491 493 -491 497 0 4 638 5 1418 3 779 -3 1561 -2 1737 3 l320
7 45 30 c24 17 58 52 75 79 26 42 30 59 30 115 -1 43 -7 77 -18 99 -27 50 -91
107 -135 120 -29 9 -464 12 -1733 12 -932 0 -1705 3 -1717 7 -21 5 30 60 476
507 344 344 507 515 522 545 43 86 22 187 -52 258 -59 57 -155 83 -219 59z"/>
<path d="M1805 11639 c-336 -6 -372 -12 -532 -75 -312 -123 -570 -417 -653
-744 -14 -56 -24 -143 -31 -255 -16 -272 -6 -6290 10 -6385 40 -234 147 -439
316 -605 151 -149 324 -243 545 -298 83 -20 110 -21 1220 -24 624 -2 1137 -7
1140 -11 4 -4 12 -35 19 -70 30 -156 113 -348 213 -494 80 -116 217 -261 327
-344 96 -72 306 -181 421 -218 179 -58 377 -81 544 -66 361 34 655 165 902
402 198 191 333 424 401 695 14 57 28 103 32 104 36 3 6635 3 6640 -1 4 -3 19
-51 34 -107 124 -480 462 -851 927 -1018 172 -61 400 -91 574 -75 530 50 960
336 1186 788 52 105 116 287 127 360 3 23 9 44 13 47 4 2 508 6 1121 8 993 3
1123 6 1199 21 429 85 750 370 865 770 14 49 30 130 36 180 7 62 9 849 7 2441
l-4 2350 -22 140 c-94 578 -333 1090 -705 1506 -535 599 -1254 943 -2039 975
-196 8 -14419 11 -14833 3z m-20 -1884 l0 -1420 24 -53 c25 -56 75 -106 127
-128 28 -12 971 -14 6073 -14 l6039 0 5 -427 c5 -459 8 -487 64 -653 74 -221
258 -453 458 -579 107 -67 246 -124 373 -153 96 -21 112 -21 1142 -25 575 -2
1051 -3 1058 -3 6 0 12 -10 12 -23 0 -13 16 -82 35 -153 66 -241 182 -440 358
-616 150 -148 286 -238 462 -307 208 -82 338 -101 675 -101 l250 0 0 -413 c0
-466 -4 -501 -76 -637 -84 -161 -275 -293 -460 -320 -42 -6 -485 -10 -1145
-10 l-1077 0 -18 73 c-81 333 -235 590 -475 793 -270 229 -580 343 -932 344
-412 0 -770 -153 -1054 -453 -167 -176 -292 -406 -356 -657 l-24 -95 -932 -3
-931 -2 -2 1147 -3 1148 -22 40 c-27 51 -68 90 -115 109 -33 14 -184 16 -1328
16 -1064 0 -1296 -2 -1323 -14 -42 -17 -92 -68 -117 -117 -19 -37 -20 -69 -22
-1181 l-3 -1143 -925 0 -925 0 -22 85 c-102 389 -301 674 -622 890 -79 53
-240 129 -346 165 -250 82 -585 87 -847 10 -242 -70 -428 -183 -618 -374 -196
-196 -307 -402 -392 -726 l-14 -50 -1109 0 c-1248 0 -1160 -5 -1316 76 -137
71 -257 210 -299 346 -24 77 -42 212 -38 278 l3 50 235 6 c242 6 311 16 430
60 249 92 443 314 512 585 23 89 23 90 20 813 -2 686 -3 729 -22 805 -62 247
-259 474 -495 568 -116 47 -142 50 -415 57 l-265 6 -3 1565 c-2 1026 1 1599 8
1663 17 162 65 268 173 378 131 135 296 200 492 195 l60 -1 0 -1420z m2413
137 l-3 -1287 -968 0 -969 0 -3 1280 c-2 704 -1 1283 1 1286 2 4 441 8 974 8
l970 0 -2 -1287z m2480 0 l-3 -1287 -1000 0 -1000 0 -3 1275 c-1 701 0 1280 2
1286 3 9 270 12 1005 12 l1001 1 -2 -1287z m2477 -2 l0 -1285 -1000 0 -1000 0
-3 1275 c-1 701 0 1280 2 1286 3 7 303 10 1002 10 l999 -1 0 -1285z m2480 0
l0 -1285 -1002 -3 -1003 -2 0 1289 0 1289 1003 -2 1002 -1 0 -1285z m2415 6
c0 -1187 -1 -1284 -17 -1290 -9 -4 -445 -6 -970 -5 l-953 1 0 1282 c0 706 2
1285 5 1288 3 3 439 5 970 6 l965 1 0 -1283z m2740 1259 c217 -27 430 -80 609
-152 469 -188 900 -547 1160 -965 142 -227 260 -503 315 -734 62 -261 59 -199
63 -1417 l4 -1117 -1933 2 c-2143 4 -1966 -2 -2113 67 -168 79 -303 242 -357
432 -9 34 -13 466 -15 1964 -2 1056 -1 1925 2 1932 4 11 208 12 1067 9 919 -3
1081 -6 1198 -21z m-15320 -4255 c36 -6 88 -22 117 -36 67 -32 145 -118 174
-192 23 -57 23 -58 27 -688 2 -389 0 -659 -7 -703 -19 -138 -90 -238 -209
-294 l-67 -32 -228 -3 -228 -3 1 974 c1 536 4 978 7 981 10 10 344 7 413 -4z
m17465 -966 l0 -369 -240 3 c-279 4 -349 12 -462 51 -278 96 -475 299 -582
602 l-28 79 636 2 c350 2 645 3 656 2 20 -1 20 -8 20 -370z m-9180 -1214 l0
-995 -380 0 -380 0 0 990 c-1 545 1 993 3 998 2 4 173 6 380 5 l377 -3 0 -995z
m1235 0 l0 -1000 -380 0 -380 0 0 1000 0 1000 380 0 380 0 0 -1000z m-5475
-294 c332 -100 582 -358 672 -693 23 -84 27 -119 27 -243 0 -128 -3 -157 -27
-243 -83 -303 -257 -509 -540 -642 -138 -65 -246 -89 -397 -89 -207 0 -368 48
-545 163 -195 127 -346 340 -406 567 -45 174 -35 391 26 561 118 330 377 559
720 638 42 10 109 13 220 11 139 -3 172 -7 250 -30z m9467 10 c303 -76 552
-286 664 -561 63 -153 77 -224 77 -385 0 -125 -4 -159 -27 -245 -77 -294 -259
-508 -540 -640 -361 -170 -778 -99 -1076 181 -123 117 -213 264 -266 440 -25
81 -28 103 -28 254 -1 142 2 177 22 250 94 342 354 608 684 699 101 28 106 28
258 30 112 1 151 -3 232 -23z"/>
</g>
</svg>
