<?xml version="1.0" standalone="no"?>
<!DOCTYPE svg PUBLIC "-//W3C//DTD SVG 20010904//EN"
 "http://www.w3.org/TR/2001/REC-SVG-20010904/DTD/svg10.dtd">
<svg version="1.0" xmlns="http://www.w3.org/2000/svg"
 width="1937.000000pt" height="1187.654016pt" viewBox="0 0 1937.000000 1187.654016"
 preserveAspectRatio="xMidYMid meet">
<metadata>
Created by potrace 1.12, written by Peter Selinger 2001-2015
</metadata>
<g transform="translate(-31.500000,1593.730253) scale(0.100000,-0.100000)"
fill="#000000" stroke="none">
<path d="M6165 15926 c-85 -27 -153 -83 -193 -160 -31 -59 -31 -70 -35 -701
l-2 -370 -1755 -5 -1755 -5 -46 -21 c-154 -72 -227 -244 -168 -399 28 -76 104
-154 174 -180 47 -18 89 -19 705 -21 l655 -1 3 -1090 2 -1091 -22 -6 c-13 -3
-97 -3 -188 0 -198 8 -424 -8 -540 -37 -288 -72 -555 -289 -694 -567 -48 -96
-91 -228 -106 -327 -9 -57 -12 -356 -12 -1090 -1 -555 -3 -1013 -5 -1017 -5
-10 -198 91 -431 224 -106 61 -234 128 -284 150 -245 106 -495 157 -781 160
-122 2 -136 0 -188 -24 -68 -31 -120 -81 -157 -151 l-27 -52 0 -2420 0 -2420
26 -55 c29 -62 85 -122 142 -151 21 -11 75 -24 120 -29 101 -12 18444 -12
18692 -1 140 7 178 12 215 29 60 28 113 84 147 157 l28 60 0 2095 0 2095 -26
55 c-37 79 -72 115 -143 150 -57 28 -77 32 -237 45 -330 26 -432 60 -794 270
-313 181 -479 252 -700 300 -283 61 -661 65 -950 9 -173 -33 -385 -108 -521
-186 -30 -17 -57 -29 -59 -26 -2 2 16 33 40 68 414 615 1452 2185 1476 2231
81 162 25 337 -135 419 l-69 35 -2688 0 -2687 0 -4 41 c-2 23 -2 514 0 1092
l2 1050 803 4 c718 4 807 7 854 22 81 26 132 71 176 155 42 83 48 147 21 227
-8 25 -158 332 -331 681 -341 684 -355 707 -457 761 l-51 27 -3500 2 c-2795 1
-3508 -1 -3540 -11z m6920 -918 c82 -167 151 -306 153 -310 2 -5 -1500 -8
-3337 -8 l-3341 0 0 310 0 310 3188 0 3188 0 149 -302z m-6695 -950 c0 -4 -11
-31 -24 -60 -13 -29 -75 -168 -138 -308 -64 -140 -137 -304 -163 -365 -26 -60
-125 -283 -220 -495 -95 -212 -227 -511 -295 -665 -68 -154 -124 -282 -126
-284 -2 -2 -239 -4 -526 -4 l-523 -1 -3 980 c-2 538 0 1030 3 1091 l7 113 736
2 c1105 4 1272 4 1272 -4z m3157 3 l141 -1 1 -1090 c1 -599 -2 -1091 -6 -1091
-29 -4 -3444 -6 -3505 -2 l-77 5 31 61 c32 64 98 212 358 797 497 1122 584
1315 591 1320 6 4 1843 5 2466 1z m2008 -1093 l0 -1093 -620 0 -620 1 -3 1089
c-1 646 2 1091 7 1094 5 3 285 5 623 4 l613 -1 0 -1094z m5355 -1723 c0 -9
-1644 -2471 -1659 -2484 -20 -16 -200 -9 -340 15 -190 32 -291 75 -624 266
-316 180 -465 242 -690 287 -167 33 -271 43 -477 42 -290 0 -510 -34 -730
-114 -122 -44 -196 -81 -460 -232 -242 -138 -367 -195 -505 -230 -246 -63
-611 -53 -846 21 -114 36 -212 84 -440 215 -231 134 -358 195 -499 242 -217
72 -404 99 -690 99 -265 0 -470 -30 -675 -97 -140 -46 -238 -93 -480 -232
-266 -153 -314 -176 -438 -218 -160 -54 -264 -68 -482 -68 -360 0 -498 41
-890 268 -382 221 -590 298 -910 335 -208 25 -537 13 -740 -26 -241 -47 -388
-108 -711 -295 -337 -194 -451 -239 -699 -274 -60 -8 -110 -15 -112 -15 -2 0
-3 460 -3 1023 1 1128 1 1128 61 1233 63 111 172 196 290 228 47 13 951 15
6902 15 3766 1 6847 -1 6847 -4z m-11880 -2510 c212 -28 346 -82 665 -265 229
-132 372 -200 510 -245 480 -155 1126 -118 1560 89 50 24 193 102 319 174 251
144 377 199 536 233 90 20 135 23 325 23 384 1 499 -34 935 -284 239 -137 297
-166 451 -221 360 -129 868 -144 1284 -39 184 46 315 105 617 278 231 133 301
167 421 207 151 50 309 69 520 62 338 -10 461 -50 868 -284 318 -181 461 -241
689 -288 369 -75 793 -56 1140 51 144 45 284 111 515 244 398 228 512 266 836
277 390 13 554 -34 984 -282 310 -180 465 -244 715 -295 l135 -27 3 -1727 2
-1726 -9060 0 -9060 0 0 38 c-2 509 1 3997 4 3999 2 2 58 -14 125 -36 140 -46
265 -107 506 -246 272 -158 437 -225 659 -270 329 -66 739 -57 1047 24 199 53
314 105 629 285 107 62 225 126 261 143 91 43 239 89 329 102 41 6 86 13 100
15 66 9 336 4 430 -9z"/>
</g>
</svg>
