<?xml version="1.0" encoding="UTF-8" standalone="no"?>
<!DOCTYPE svg PUBLIC "-//W3C//DTD SVG 1.1//EN" "http://www.w3.org/Graphics/SVG/1.1/DTD/svg11.dtd">
<svg width="100%" height="100%" viewBox="0 0 2000 2000" version="1.1" xmlns="http://www.w3.org/2000/svg" xmlns:xlink="http://www.w3.org/1999/xlink" xml:space="preserve" xmlns:serif="http://www.serif.com/" style="fill-rule:evenodd;clip-rule:evenodd;stroke-linejoin:round;stroke-miterlimit:2;">
    <g transform="matrix(0.1,0,0,-0.1,0,2000)">
        <g transform="matrix(10,0,0,-10,0,20000)">
            <path d="M0.525,916.901C0.905,916.4 1.703,914.046 2.5,911.3C7.5,894.3 19,879.9 33.5,872.7C49.9,864.6 65.2,864.7 95.2,873C135,884.1 154.1,889.2 154.4,888.9C154.5,888.7 156.2,884.4 158.2,879.5C160.2,874.5 164.9,863.3 168.5,854.5C172.1,845.7 179.4,827.9 184.7,815C190,802.1 197.6,783.4 201.7,773.5C210.2,753.1 218.1,733.9 226.4,713.5C237.3,687 246.3,672.6 262.9,655.7C289.4,628.5 324.3,610.2 358.3,605.5C368.3,604.1 1119.1,604.7 1126.6,606.3C1176.1,616.6 1222.9,652.5 1244,696.4C1246.6,702 1313.2,863.5 1318.6,876.7C1321.3,883.6 1324.1,889 1324.8,889C1325.5,889 1341.7,884.7 1360.7,879.4C1379.7,874.1 1398.9,869.1 1403.4,868.4C1419.1,865.6 1432.7,866.8 1443.5,871.9C1462.6,880.9 1474.8,897.8 1478,919.6C1478.8,925.1 1479.1,937.6 1478.7,957.6C1478.3,984.5 1478.1,988.2 1476.1,994.8C1471.6,1010.1 1464.5,1021.6 1453.3,1031.9C1439.8,1044.4 1422,1051.5 1401.2,1052.7C1394.3,1053.1 1391.1,1053.7 1391.4,1054.4C1412.2,1102.3 1425.9,1150 1433.9,1203C1440.1,1243.9 1439.5,1660.5 1439.5,1660.5L1437.2,1667.8C1430.7,1688.9 1416.3,1706.2 1397.6,1715.5C1379.4,1724.4 1240.9,1724 1227.1,1717.5C1202.6,1705.8 1186.6,1684.9 1182.1,1658.5C1181.5,1655 1180.8,1553.2 1180.8,1553.2L297.5,1552.5L297.3,1571.5C297.1,1581.9 296.9,1606.2 296.7,1625.5C296.4,1658.7 296.2,1660.9 294.1,1667.5C286.8,1689.8 272.7,1706.7 253.5,1716C236.3,1724.3 225.1,1725.3 156.2,1724.7C115,1724.4 104.3,1724 98.9,1722.7C84,1719.2 72.3,1712.5 61,1701C49.2,1689.1 43.2,1678.3 39.2,1662.2C37.7,1656.1 36.9,1245.9 44.6,1199C52.3,1152 63.7,1110.6 80.4,1068.6C83.5,1060.9 86,1054.3 86,1054C86,1053.6 81.6,1053 76.2,1052.7C47.3,1050.8 23.9,1036.4 10.5,1012.6C7.1,1006.6 1.6,992.6 0.7,987.8C0.654,987.503 0.593,959.667 0.525,916.901ZM1029.5,1233.9C1024.3,1234.8 1015.5,1239.6 1012.4,1243.3C1011,1245 1008.7,1248.6 1007.3,1251.4C1004.9,1256.1 1003.4,1371.7 1005,1378.8C1007.3,1388.9 1016,1398.1 1026.3,1401.2C1029.6,1402.2 1264.5,1402.5 1264.5,1402.5L1270.1,1399.9C1277.2,1396.6 1282.6,1391.2 1285.9,1384.1L1288.5,1378.5L1288.5,1257.5L1285.9,1252C1282.5,1244.7 1276.2,1238.6 1269.2,1235.8L1263.5,1233.5C1263.5,1233.5 1031.7,1233.5 1029.5,1233.9ZM408.9,667C397,667.9 388.8,670.5 374,678.1C364.9,682.8 360.3,686 352,693.4C340.9,703.3 335.5,710.1 329.7,721.6C327.7,725.5 318.5,747.3 309.2,770.1C299.8,792.9 287.4,823.2 281.5,837.5C275.6,851.8 261.7,885.8 250.5,913C239.3,940.2 226.7,970.8 222.4,981C209.8,1011.4 206.7,1021.1 206.7,1030.5C206.6,1049.3 218.6,1063.1 238.5,1067.2C243.3,1068.2 1235.8,1068.4 1241.9,1066.7C1261.1,1061.4 1271.1,1049 1271.1,1030.6C1271.1,1019.1 1270,1015.8 1254,977.5C1249.2,965.9 1241.3,946.8 1236.5,935C1231.7,923.2 1178.2,792.8 1168.8,770C1146.3,715.2 1144.1,711 1132.6,699.5C1127.6,694.5 1120.5,688.3 1116.9,685.7C1108.8,680 1092.3,672 1082,668.8L1074.5,666.5C1074.5,666.5 414.2,666.6 408.9,667ZM212.9,1234C203.5,1235.6 195.7,1241.3 190.9,1250.2L187.5,1256.5C187.5,1256.5 187.5,1379.6 189.6,1384C192.4,1390.1 196.3,1394.5 201.6,1397.6C211.1,1403.2 443.8,1402.6 446.7,1402C458.8,1399.2 467,1391.5 470.5,1379.7C471.9,1374.9 471.5,1256.5 471.5,1256.5L469,1251.5C465.7,1244.7 459.1,1238.6 452.2,1235.8L446.5,1233.5C446.5,1233.5 215.4,1233.6 212.9,1234Z"/>
        </g>
        <g transform="matrix(10,0,0,-10,0,20000)">
            <path d="M0.525,916.901C0.297,772.642 0,458.5 0,458.5C0,710.7 0.2,917 0.4,917C0.434,917 0.476,916.966 0.525,916.901Z"/>
        </g>
        <g transform="matrix(10,0,0,-10,0,20000)">
            <path d="M1998.5,356.5C1999.435,360.836 1999.9,757.5 1999.9,757.5L1996.4,769.5C1985.1,808.6 1960.1,832.3 1920.5,841.7C1914.4,843.1 1752,844.1 1752,844.1C1752,844.1 1751.7,1680.5 1750.9,1685C1748.4,1700.5 1737.4,1711.7 1721.6,1715C1703,1718.8 1685.9,1707.4 1680.2,1687.3C1678.6,1681.9 1678.5,844 1678.5,844C1678.5,844 1513.9,843.5 1500.5,839.3C1481,833.2 1462.5,819.9 1449.5,802.6C1440.7,790.7 1433.8,772.4 1432,756C1430.6,742.2 1430.7,373.4 1432.1,361.5C1434.7,339.9 1444.2,320.4 1459.6,304.8C1473.3,290.9 1488.2,282.4 1506.6,277.8L1515.5,275.6C1515.5,275.6 1913.9,275.6 1922,277.3C1932.8,279.6 1941.3,283 1951.6,289.1C1961.1,294.7 1974.3,306.7 1980.5,315.4C1988.5,326.7 1995.4,342.5 1998.5,356.5ZM1581.5,719.032L1581.5,720.6L1582.245,721.759C1584.943,729.404 1592.236,734.889 1600.799,734.889L1640.138,734.889C1650.993,734.889 1659.807,726.075 1659.807,715.22L1659.807,619.141C1660.595,618.016 1662.588,616.149 1664.4,615.1C1667.5,613.1 1669.2,613 1690.6,613C1724.9,613 1749.8,611.4 1763.5,608.5C1799.5,600.7 1823.2,584 1836.8,556.8C1845.3,539.8 1849.1,522.3 1849.1,499.3C1849.1,464.3 1840.7,439.7 1821.8,419.4C1805.2,401.7 1784.6,392.8 1749.5,388.5C1727.9,385.8 1635,384.2 1603,385.9C1591.2,386.6 1588,388 1583.8,394.8L1581.5,398.5L1581.5,596.755C1581.257,597.988 1581.13,599.263 1581.13,600.567L1581.13,715.22C1581.13,716.524 1581.257,717.799 1581.5,719.032ZM1723.5,451.1C1743.8,452.8 1752.2,455.6 1760.5,463.1C1770.2,472 1773.6,482.9 1772.8,502.7C1771.9,523.7 1765.3,534.9 1750.7,540C1737.8,544.5 1721.3,546.6 1691.3,547.6C1673.4,548.2 1670.6,548.1 1666.5,546.6C1663,545.2 1661.5,543.9 1660,540.9C1658.1,537.3 1658,534.9 1658,498.3C1658,461.6 1658.1,459.3 1660,456.3C1662.5,452.2 1665.2,450.7 1672,449.9C1678.7,449 1707.1,449.7 1723.5,451.1Z"/>
        </g>
    </g>
</svg>
