<?xml version="1.0" encoding="UTF-8" standalone="no"?>
<!DOCTYPE svg PUBLIC "-//W3C//DTD SVG 1.1//EN" "http://www.w3.org/Graphics/SVG/1.1/DTD/svg11.dtd">
<svg width="100%" height="100%" viewBox="0 0 853 849" version="1.1" xmlns="http://www.w3.org/2000/svg" xmlns:xlink="http://www.w3.org/1999/xlink" xml:space="preserve" xmlns:serif="http://www.serif.com/" style="fill-rule:evenodd;clip-rule:evenodd;stroke-linejoin:round;stroke-miterlimit:2;">
    <g transform="matrix(0.1,0,0,-0.1,-85.282942,936.657734)">
        <path d="M1924.111,3590.73C1918.924,4144.321 1918.353,6919.71 1918.353,6919.71C1918.353,6919.71 1209.889,6921.862 1152.213,6939.94C1068.282,6966.195 988.655,7023.44 932.701,7097.902C894.824,7149.122 865.126,7227.888 857.378,7298.476C851.352,7357.873 851.783,8945.247 857.809,8996.467C868.999,9089.436 909.889,9173.368 976.173,9240.512C1035.14,9300.34 1099.272,9336.926 1178.468,9356.725L1216.775,9366.194C1216.775,9366.194 2931.552,9366.194 2966.416,9358.877C3012.901,9348.977 3049.486,9334.343 3093.819,9308.088C3134.709,9283.984 3191.524,9232.334 3218.209,9194.888C3252.643,9146.251 3282.341,9078.246 3295.684,9017.987C3299.71,8999.323 3301.71,7292.02 3301.71,7292.02L3286.645,7240.37C3238.008,7072.077 3130.404,6970.069 2959.96,6929.61C2933.704,6923.584 2234.709,6919.28 2234.709,6919.28C2234.709,6919.28 2233.891,4202.706 2231.253,3616.083C2250.571,3616.99 2263.439,3617.098 2266,3616C2275,3613 2297,3610 2315,3610C2334,3610 2396,3601 2452,3589C2509,3578 2561,3568 2568,3567C2576,3566 2655,3731 2772,3990L2964,4415L2965,4675L2965,4935L2783,4940C2582,4946 2571,4949 2522,5021C2502,5049 2499,5065 2502,5110C2507,5174 2528,5209 2581,5239C2617,5260 2629,5260 3247,5260L3877,5260L3911,5237C4015,5167 4017,5041 3917,4966C3890,4946 3875,4945 3589,4942L3290,4939L3290,4560L5310,4560L5310,4723C5310,4919 5321,4997 5360,5098C5430,5279 5592,5424 5780,5476C5810,5484 5901,5493 5982,5497L6130,5503L6135,5539C6163,5713 6214,5817 6324,5926C6463,6063 6587,6110 6820,6110L6946,6110L6962,6193C6984,6308 7013,6378 7073,6462C7159,6581 7285,6669 7425,6705C7473,6718 7549,6721 7805,6722C8168,6723 8202,6719 8329,6658C8443,6603 8558,6490 8613,6379C8758,6083 8657,5726 8379,5558C8267,5490 8133,5460 7943,5460C7864,5460 7860,5459 7860,5438C7859,5381 7827,5268 7789,5191C7731,5073 7635,4977 7519,4922C7405,4868 7319,4850 7166,4850L7040,4850L7040,4817C7040,4762 7003,4633 6968,4567C6919,4473 6794,4352 6700,4307C6584,4251 6521,4240 6315,4240C6109,4240 6082,4247 6042,4316C6013,4365 6016,4446 6047,4488C6091,4547 6119,4555 6315,4560C6479,4565 6499,4567 6544,4589C6775,4703 6778,5025 6548,5139L6487,5170C6487,5170 5861,5168 5824,5151C5760,5122 5700,5062 5668,4995L5640,4935L5640,4422L6106,3373C6476,2540 6572,2317 6572,2284C6572,2144 6399,2071 6303,2170C6278,2196 6107,2567 5894,3058C5880,3092 5862,3120 5855,3120C5848,3120 5819,3102 5792,3080C5612,2938 5484,2740 5428,2513C5395,2380 5397,2172 5434,2035C5509,1750 5704,1509 5965,1380C6355,1186 6811,1260 7124,1567C7528,1966 7522,2621 7112,3012C6984,3134 6852,3209 6678,3260C6563,3293 6533,3311 6508,3361C6471,3433 6494,3523 6562,3567C6596,3590 6607,3592 6668,3588C6788,3579 7028,3483 7155,3393C7371,3239 7514,3071 7621,2845C7709,2657 7744,2495 7743,2275C7743,2193 7738,2103 7732,2075C7726,2048 7724,2023 7726,2021C7735,2011 7878,2119 7949,2189C8074,2314 8152,2446 8206,2627C8243,2752 8251,2963 8222,3100C8144,3480 7873,3767 7490,3876C7385,3906 7360,3919 7334,3958C7292,4022 7299,4102 7353,4157C7414,4221 7470,4223 7648,4164C8113,4012 8465,3608 8544,3134C8569,2982 8572,2875 8556,2751C8547,2688 8542,2635 8544,2633C8552,2624 8704,2742 8770,2809C8897,2937 8982,3085 9032,3268C9050,3332 9054,3374 9054,3510C9055,3703 9038,3783 8966,3936C8881,4115 8763,4253 8608,4354C8506,4421 8434,4453 8306,4490C8194,4523 8147,4558 8129,4622C8111,4691 8148,4773 8213,4806C8308,4856 8634,4741 8840,4586C9095,4394 9273,4126 9346,3824C9483,3257 9232,2664 8729,2366C8640,2313 8478,2244 8419,2234C8395,2230 8379,2220 8372,2206C8352,2163 8237,2016 8173,1953C8017,1799 7805,1674 7621,1627C7573,1615 7567,1609 7513,1530C7451,1439 7303,1283 7231,1231L7187,1200L9206,1200L9250,1178C9309,1148 9340,1101 9340,1042C9340,983 9303,918 9256,896C9225,881 8889,880 5092,880L963,880L929,903C880,935 846,1008 855,1061C864,1114 919,1176 968,1190C989,1195 1405,1200 1405,1200L1360,1237C1180,1383 1025,1595 940,1809C881,1960 844,2195 855,2350C877,2660 983,2922 1181,3156C1354,3360 1628,3527 1879,3581L1924.111,3590.73ZM2884,3011C2840,3052 2791,3096 2773,3108L2741,3131L2727,3098C2719,3080 2440,2451 2440,2447C2440,2443 3180,2442 3180,2453C3180,2493 3135,2634 3095,2717C3038,2839 2982,2916 2884,3011ZM5167,4178L5202,4240C5202,4240 3400,4237 3400,4234C3400,4232 3410,4213 3423,4192C3436,4172 4295,2630 4299,2630C4302,2631 4339,2692 4381,2768C4423,2843 5148,4143 5167,4178ZM7356,5762C7307,5784 7295,5785 7015,5787C6856,5788 6712,5785 6695,5781C6600,5757 6513,5682 6481,5595C6453,5520 6453,5490 6483,5490C6527,5490 6656,5448 6717,5414C6794,5371 6880,5293 6929,5222L6966,5167L7116,5169C7198,5170 7283,5176 7305,5181C7395,5204 7473,5270 7512,5355C7544,5425 7544,5535 7512,5605C7482,5670 7420,5733 7356,5762ZM8181,6374C8138,6394 8118,6395 7825,6397C7473,6399 7463,6398 7379,6322C7329,6277 7297,6222 7282,6153L7272,6110L7309,6104C7378,6093 7455,6068 7518,6037C7592,6001 7715,5891 7757,5824L7785,5778L7945,5783C8072,5787 8117,5793 8158,5809C8260,5847 8314,5907 8346,6015C8386,6153 8312,6313 8181,6374ZM2358,3278C2244,3296 2152,3299 2071,3289C1684,3242 1361,2980 1232,2609C1190,2490 1176,2384 1183,2232C1193,1978 1282,1771 1461,1586C1596,1445 1754,1353 1957,1298C2072,1267 2291,1267 2413,1298C2720,1375 2978,1584 3101,1857C3131,1921 3180,2079 3180,2109C3180,2124 3135,2125 2662,2125C2163,2125 2144,2126 2111,2145C2062,2174 2038,2212 2032,2268C2028,2315 2439,3254 2436,3259C2433,3263 2398,3272 2358,3278ZM4020,2449C4020,2453 3149,4024 3147,4026C3145,4028 3135,4013 3126,3992C3086,3909 2880,3440 2880,3432C2880,3427 2912,3402 2951,3375C3227,3186 3426,2879 3498,2530L3515,2445C3515,2445 4020,2445 4020,2449ZM5727,3425C5729,3426 5465,4019 5460,4023C5456,4028 5440,4007 5425,3978C5400,3931 5188,3550 4805,2865C4737,2744 4621,2537 4548,2405C4438,2208 4408,2162 4380,2145C4347,2126 3513,2119 3513,2119L3500,2047C3471,1881 3389,1682 3287,1530C3238,1457 3056,1265 2995,1222L2965,1201L4300,1200L5635,1200L5600,1227C5528,1283 5406,1408 5344,1490C5265,1594 5169,1784 5135,1905C5044,2223 5068,2552 5206,2848C5294,3039 5483,3264 5650,3375C5691,3402 5726,3425 5727,3425ZM1500.85,7457.592L1500.85,7450.843L1504.057,7445.854C1515.669,7412.948 1547.058,7389.341 1583.917,7389.341L1753.235,7389.341C1799.96,7389.341 1837.894,7427.276 1837.894,7474L1837.894,7887.54C1841.288,7892.382 1849.868,7900.418 1857.665,7904.932C1871.008,7913.54 1878.325,7913.971 1970.434,7913.971C2118.066,7913.971 2225.24,7920.857 2284.207,7933.339C2439.157,7966.912 2541.165,8038.791 2599.702,8155.864C2636.287,8229.035 2652.643,8304.358 2652.643,8403.354C2652.643,8553.999 2616.488,8659.881 2535.139,8747.256C2463.69,8823.439 2375.025,8861.746 2223.949,8880.254C2130.979,8891.876 1731.122,8898.762 1593.389,8891.445C1542.6,8888.432 1528.827,8882.406 1510.75,8853.138L1500.85,8837.213L1500.85,7983.892C1499.806,7978.583 1499.258,7973.097 1499.258,7967.484L1499.258,7474C1499.258,7468.387 1499.806,7462.901 1500.85,7457.592ZM2112.041,8610.814C2199.415,8603.497 2235.57,8591.445 2271.294,8559.164C2313.045,8520.857 2327.679,8473.942 2324.236,8388.719C2320.362,8298.332 2291.954,8250.125 2229.114,8228.174C2173.59,8208.806 2102.571,8199.767 1973.447,8195.463C1896.402,8192.88 1884.351,8193.311 1866.703,8199.767C1851.639,8205.793 1845.183,8211.388 1838.726,8224.301C1830.549,8239.795 1830.118,8250.125 1830.118,8407.658C1830.118,8565.62 1830.549,8575.52 1838.726,8588.432C1849.487,8606.079 1861.108,8612.536 1890.376,8615.979C1919.214,8619.853 2041.452,8616.84 2112.041,8610.814Z"/>
    </g>
</svg>
