<?xml version="1.0" standalone="no"?>
<!DOCTYPE svg PUBLIC "-//W3C//DTD SVG 20010904//EN"
 "http://www.w3.org/TR/2001/REC-SVG-20010904/DTD/svg10.dtd">
<svg version="1.0" xmlns="http://www.w3.org/2000/svg"
 width="2000.173903pt" height="1995.699280pt" viewBox="0 0 2000.173903 1995.699280"
 preserveAspectRatio="xMidYMid meet">
<metadata>
Created by potrace 1.12, written by Peter Selinger 2001-2015
</metadata>
<g transform="translate(0.173903,1995.627210) scale(0.100000,-0.100000)"
fill="#000000" stroke="none">
<path d="M7435 19946 c-209 -48 -705 -215 -1030 -346 -662 -267 -1219 -559
-1808 -946 -201 -133 -490 -338 -597 -424 -25 -20 -99 -79 -165 -131 -557
-438 -1169 -1056 -1638 -1651 -691 -879 -1242 -1873 -1600 -2888 -326 -924
-476 -1630 -577 -2724 -29 -317 -29 -1057 0 -1391 33 -373 68 -658 126 -1025
40 -253 157 -779 226 -1015 272 -939 589 -1670 1076 -2490 462 -776 1079
-1540 1751 -2169 669 -625 1300 -1087 2082 -1524 353 -197 878 -441 1259 -585
742 -280 1442 -461 2195 -567 83 -11 221 -32 307 -46 l158 -25 1012 4 1013 3
260 42 c521 84 724 122 1033 193 488 113 1105 314 1572 511 1017 431 1953
1010 2750 1703 1233 1071 2156 2355 2772 3855 116 281 190 493 303 858 78 251
85 281 85 357 0 261 -194 514 -446 580 -74 19 -233 19 -307 0 -119 -31 -174
-68 -412 -275 -397 -346 -900 -690 -1396 -956 -985 -527 -2053 -831 -3174
-903 -717 -47 -1456 9 -2170 165 -472 103 -1026 286 -1480 488 -298 134 -782
392 -963 515 -32 21 -95 62 -142 91 -122 76 -331 225 -515 369 -806 628 -1487
1414 -1991 2299 -501 880 -831 1872 -954 2867 -33 266 -50 510 -57 820 -26
1236 238 2438 782 3552 298 610 646 1141 1085 1653 182 213 197 233 234 306
166 326 3 719 -347 834 -81 27 -231 35 -312 16z"/>
<path d="M17270 19118 c-184 -26 -355 -156 -439 -331 -22 -45 -44 -106 -50
-135 -7 -32 -11 -185 -11 -387 l0 -333 -362 -4 c-344 -4 -366 -6 -423 -26
-202 -75 -345 -231 -396 -433 -76 -301 101 -609 408 -710 64 -22 88 -23 420
-27 l352 -4 3 -361 c4 -343 5 -365 26 -420 72 -195 230 -343 418 -392 68 -18
200 -20 276 -4 29 6 94 30 144 54 73 35 103 57 155 112 71 75 130 179 153 267
11 41 17 148 22 400 l7 344 341 5 c374 5 395 7 525 70 89 42 204 157 253 252
68 132 88 287 53 419 -51 194 -212 364 -405 428 -60 20 -90 22 -420 26 l-355
4 -1 336 c0 235 -4 354 -13 392 -45 195 -219 382 -408 440 -74 22 -190 30
-273 18z"/>
<path d="M12402 15540 c-124 -33 -230 -103 -306 -204 -21 -28 -198 -370 -393
-761 -195 -390 -362 -718 -371 -728 -8 -9 -328 -173 -711 -364 -383 -190 -724
-363 -758 -385 -121 -76 -220 -214 -259 -358 -24 -94 -22 -228 6 -310 45 -134
120 -241 218 -313 26 -20 371 -197 767 -395 396 -198 728 -368 737 -378 9 -11
173 -334 365 -719 192 -385 362 -720 377 -744 72 -112 199 -210 326 -251 56
-18 97 -24 169 -24 177 -1 311 54 433 175 l76 77 370 738 c203 407 378 746
388 756 11 9 339 176 730 370 392 195 735 371 763 392 104 77 193 207 226 332
20 76 20 222 0 298 -35 134 -132 269 -248 346 -34 23 -377 199 -762 392 -385
192 -708 357 -717 366 -9 9 -179 342 -378 740 l-361 723 -72 73 c-81 82 -175
136 -279 161 -89 21 -246 18 -336 -5z"/>
</g>
</svg>
