<?xml version="1.0" standalone="no"?>
<!DOCTYPE svg PUBLIC "-//W3C//DTD SVG 20010904//EN"
 "http://www.w3.org/TR/2001/REC-SVG-20010904/DTD/svg10.dtd">
<svg version="1.0" xmlns="http://www.w3.org/2000/svg"
 width="1580.777902pt" height="1999.846025pt" viewBox="0 0 1580.777902 1999.846025"
 preserveAspectRatio="xMidYMid meet">
<metadata>
Created by potrace 1.12, written by Peter Selinger 2001-2015
</metadata>
<g transform="translate(-219.047694,1999.938531) scale(0.100000,-0.100000)"
fill="#000000" stroke="none">
<path d="M7380 19975 c-504 -106 -887 -359 -1159 -767 -247 -370 -338 -859
-245 -1318 39 -192 142 -440 244 -592 398 -590 1058 -881 1750 -772 778 122
1336 684 1444 1454 33 237 28 401 -19 631 -126 617 -592 1132 -1185 1309 -214
63 -327 80 -530 79 -155 0 -203 -4 -300 -24z"/>
<path d="M7445 16239 c-230 -27 -497 -130 -720 -277 -126 -84 -351 -306 -447
-442 -168 -237 -280 -527 -322 -829 -25 -174 -24 -201 29 -1076 8 -137 33
-563 55 -945 70 -1203 169 -2898 180 -3067 5 -90 15 -238 21 -330 23 -376 69
-560 205 -823 96 -186 227 -349 399 -498 273 -234 581 -372 975 -434 56 -9
824 -13 3004 -17 l2930 -6 54 -95 c30 -52 131 -228 225 -390 94 -162 243 -421
332 -575 89 -154 255 -442 369 -640 115 -198 238 -412 276 -475 37 -63 111
-191 165 -285 54 -93 190 -330 303 -525 621 -1077 590 -1026 688 -1130 148
-156 330 -263 559 -327 124 -34 349 -43 480 -18 91 17 225 59 286 90 104 53
249 187 329 305 217 320 237 698 55 1060 -24 47 -132 238 -240 425 -109 187
-241 414 -293 505 -141 247 -441 764 -647 1120 -101 173 -375 648 -610 1055
-235 407 -517 893 -625 1080 -109 187 -284 491 -390 675 -217 378 -255 435
-353 537 -165 171 -370 271 -602 292 -58 6 -796 7 -1829 4 -952 -3 -1941 -2
-2197 2 l-466 7 -7 142 c-9 213 -45 1039 -49 1138 l-3 87 1615 4 c1498 3 1621
5 1690 21 209 49 383 157 486 301 152 213 185 465 93 695 -118 293 -430 512
-773 541 -62 5 -777 9 -1635 9 -839 0 -1530 0 -1536 0 -7 0 -14 40 -18 108 -4
59 -15 213 -26 342 -11 129 -29 348 -40 485 -64 785 -79 874 -177 1105 -163
381 -474 707 -848 886 -314 151 -661 217 -950 183z"/>
<path d="M5285 12180 c-3 -5 -63 -49 -133 -97 -413 -283 -696 -516 -1017 -838
-1013 -1012 -1665 -2285 -1875 -3660 -85 -560 -93 -1222 -19 -1800 79 -625
224 -1173 466 -1755 352 -846 919 -1654 1603 -2281 767 -704 1660 -1205 2655
-1488 341 -98 670 -161 1150 -222 230 -29 280 -32 620 -37 394 -5 497 1 825
44 856 113 1527 316 2225 673 602 309 1104 668 1583 1136 504 491 870 977
1217 1614 107 196 226 458 218 479 -4 9 -72 130 -151 267 -80 138 -173 300
-207 360 -34 61 -110 191 -167 290 -198 340 -335 580 -362 633 -14 28 -30 52
-34 52 -5 0 -17 -35 -26 -77 -89 -379 -256 -842 -426 -1183 -279 -560 -613
-1017 -1061 -1455 -368 -359 -774 -653 -1224 -886 -996 -515 -2093 -683 -3230
-493 -652 109 -1305 357 -1874 712 -352 219 -607 420 -909 717 -582 571 -983
1192 -1257 1950 -160 442 -250 857 -297 1365 -16 174 -15 664 1 850 107 1232
617 2352 1451 3190 91 92 205 202 254 246 l90 80 -13 299 c-6 165 -21 530 -31
810 -11 281 -20 511 -20 513 0 6 -20 1 -25 -8z"/>
</g>
</svg>
