<?xml version="1.0" standalone="no"?>
<!DOCTYPE svg PUBLIC "-//W3C//DTD SVG 20010904//EN"
 "http://www.w3.org/TR/2001/REC-SVG-20010904/DTD/svg10.dtd">
<svg version="1.0" xmlns="http://www.w3.org/2000/svg"
 width="1999.918282pt" height="1883.564260pt" viewBox="0 0 1999.918282 1883.564260"
 preserveAspectRatio="xMidYMid meet">
<metadata>
Created by potrace 1.12, written by Peter Selinger 2001-2015
</metadata>
<g transform="translate(-0.021201,1941.567958) scale(0.100000,-0.100000)"
fill="#000000" stroke="none">
<path d="M9740 19409 c-111 -10 -355 -50 -455 -75 -97 -24 -315 -94 -380 -121
-207 -87 -458 -226 -626 -347 -204 -148 -471 -414 -608 -606 -106 -149 -205
-299 -241 -365 -18 -33 -66 -123 -108 -200 -41 -77 -140 -259 -220 -405 -80
-146 -174 -319 -210 -385 -91 -170 -598 -1101 -697 -1280 -45 -82 -104 -190
-130 -240 -27 -49 -98 -180 -158 -290 -60 -110 -182 -335 -272 -500 -89 -165
-200 -367 -245 -450 -95 -173 -120 -220 -220 -405 -40 -74 -108 -198 -150
-275 -43 -77 -152 -277 -243 -445 -90 -168 -175 -323 -187 -345 -20 -36 -165
-302 -245 -450 -18 -33 -74 -136 -125 -230 -51 -93 -106 -195 -123 -225 -16
-30 -37 -68 -47 -85 -10 -16 -54 -97 -98 -180 -43 -82 -91 -170 -104 -195 -14
-25 -39 -70 -55 -100 -17 -30 -71 -129 -120 -220 -50 -91 -134 -246 -188 -345
-54 -99 -109 -200 -123 -225 -13 -25 -83 -153 -155 -285 -233 -429 -303 -557
-389 -715 -47 -85 -106 -195 -133 -245 -26 -49 -83 -153 -125 -230 -43 -77
-150 -273 -237 -435 -88 -162 -212 -389 -275 -505 -63 -115 -162 -298 -220
-405 -58 -107 -116 -213 -128 -235 -20 -36 -161 -295 -245 -450 -18 -33 -74
-136 -125 -230 -51 -93 -106 -195 -123 -225 -16 -30 -40 -73 -52 -95 -13 -22
-54 -98 -92 -170 -39 -71 -151 -278 -250 -460 -99 -181 -213 -391 -253 -465
-40 -74 -91 -166 -112 -205 -161 -291 -258 -517 -347 -815 -18 -58 -60 -276
-81 -414 -34 -222 -23 -584 26 -811 8 -38 21 -101 28 -140 39 -198 128 -449
237 -672 74 -152 226 -396 316 -508 179 -224 401 -435 613 -584 161 -113 177
-123 350 -214 236 -124 474 -208 740 -261 349 -71 -190 -66 7662 -66 4484 0
7118 4 7213 10 481 31 860 133 1228 330 243 131 416 253 615 436 446 409 762
975 886 1584 85 419 87 722 6 1115 -73 358 -178 625 -420 1065 -32 58 -154
283 -272 500 -392 720 -708 1301 -866 1590 -85 157 -216 398 -290 535 -74 138
-156 288 -182 335 -26 47 -106 193 -178 325 -71 132 -197 364 -279 515 -83
151 -169 311 -193 355 -24 44 -68 125 -98 180 -30 55 -111 204 -180 330 -68
127 -207 381 -307 565 -100 184 -294 540 -430 790 -136 250 -290 534 -343 630
-52 96 -164 301 -247 455 -83 154 -208 384 -277 510 -69 127 -224 410 -343
630 -387 713 -645 1185 -773 1420 -69 127 -194 356 -277 510 -84 154 -206 379
-272 500 -66 121 -140 256 -163 300 -24 44 -121 222 -215 395 -94 173 -191
351 -215 395 -24 44 -109 202 -190 350 -81 149 -205 376 -275 505 -121 222
-283 478 -382 600 -95 117 -281 305 -402 406 -426 356 -924 573 -1491 650
-140 19 -496 26 -640 13z m585 -1189 c384 -76 723 -265 974 -543 107 -120 218
-294 401 -632 152 -280 243 -446 802 -1475 118 -217 329 -604 468 -860 139
-256 306 -562 370 -680 65 -118 177 -325 250 -460 73 -135 143 -264 155 -286
43 -77 552 -1013 895 -1644 139 -256 308 -566 375 -690 246 -450 490 -899 586
-1076 53 -99 164 -304 247 -455 82 -151 182 -335 222 -409 40 -74 82 -153 95
-175 57 -104 284 -519 485 -890 123 -225 318 -585 435 -800 117 -214 234 -430
260 -480 27 -49 78 -144 115 -210 37 -66 116 -210 175 -320 116 -215 144 -267
225 -415 29 -52 126 -232 217 -400 91 -168 204 -375 251 -460 353 -640 412
-771 463 -1026 100 -501 -52 -1070 -392 -1466 -277 -322 -641 -524 -1069 -594
-191 -32 -1030 -35 -7772 -31 -5026 3 -6707 7 -6778 16 -420 52 -735 188
-1023 444 -214 191 -408 491 -496 768 -144 454 -108 894 107 1324 52 104 173
329 1040 1920 200 369 433 796 517 950 84 154 319 586 522 960 204 374 565
1038 803 1475 238 437 488 896 555 1020 107 197 682 1252 763 1400 16 30 140
258 274 505 313 575 1233 2266 1633 3000 117 215 297 545 400 735 694 1276
681 1253 836 1423 288 312 645 497 1079 557 114 15 411 5 535 -20z"/>
<path d="M9820 14626 c-155 -18 -212 -31 -360 -78 -247 -80 -483 -220 -683
-407 -80 -75 -234 -278 -300 -397 -85 -154 -96 -180 -152 -352 -84 -264 -78
-76 -82 -2767 -4 -2136 -2 -2399 12 -2564 24 -271 81 -464 203 -691 117 -218
245 -374 434 -527 261 -212 551 -339 883 -387 85 -13 158 -26 162 -29 3 -4
-25 -7 -63 -7 -124 0 -230 -18 -386 -65 -438 -132 -807 -435 -1026 -842 -182
-337 -247 -690 -198 -1073 15 -118 73 -330 121 -445 37 -87 150 -284 204 -354
208 -275 522 -509 815 -607 201 -66 239 -75 414 -93 163 -16 183 -16 340 0
287 29 507 101 765 251 167 97 380 297 509 478 126 177 258 495 294 705 31
191 29 453 -7 645 -31 165 -124 401 -230 581 -85 146 -239 318 -403 448 -268
214 -609 354 -898 368 -71 3 -128 9 -128 13 0 4 46 12 103 19 163 21 243 38
377 82 359 119 663 342 892 654 78 108 177 307 228 462 93 282 84 14 88 2808
3 2457 2 2616 -29 2770 -38 189 -158 476 -265 635 -75 111 -224 276 -333 366
-128 106 -176 137 -344 223 -288 146 -645 212 -957 177z m353 -1186 c168 -52
323 -201 376 -362 11 -35 25 -106 31 -158 8 -66 10 -818 8 -2445 -4 -2244 -5
-2353 -22 -2420 -58 -222 -229 -383 -457 -431 -185 -39 -398 29 -533 171 -71
74 -112 147 -138 245 l-23 85 0 2400 c0 1974 2 2413 14 2473 31 170 156 330
321 410 47 23 110 46 140 51 75 13 208 4 283 -19z m-28 -8195 c161 -42 299
-154 373 -302 22 -45 46 -108 52 -140 17 -82 8 -233 -20 -313 -61 -180 -221
-326 -411 -375 -90 -24 -251 -16 -334 15 -133 50 -261 161 -323 279 -91 172
-81 413 25 580 71 114 183 202 310 246 84 29 236 34 328 10z"/>
</g>
</svg>
