<?xml version="1.0" standalone="no"?>
<!DOCTYPE svg PUBLIC "-//W3C//DTD SVG 20010904//EN"
 "http://www.w3.org/TR/2001/REC-SVG-20010904/DTD/svg10.dtd">
<svg version="1.0" xmlns="http://www.w3.org/2000/svg"
 width="512.004903pt" height="386.000000pt" viewBox="0 0 512.004903 386.000000"
 preserveAspectRatio="xMidYMid meet">
<metadata>
Created by potrace 1.12, written by Peter Selinger 2001-2015
</metadata>
<g transform="translate(0.000000,449.000000) scale(0.100000,-0.100000)"
fill="#000000" stroke="none">
<path d="M82 4408 l3 -83 615 -3 615 -2 527 -528 c296 -295 528 -535 528 -544
0 -17 -39 -18 -694 -18 -686 0 -694 0 -720 -21 -34 -27 -34 -71 -1 -199 14
-52 25 -98 25 -101 0 -4 -84 -9 -187 -12 -206 -5 -241 -13 -319 -69 -47 -34
-103 -110 -122 -167 -8 -22 -12 -129 -12 -316 l0 -282 -51 -5 c-67 -7 -97 -31
-138 -111 -30 -58 -34 -76 -34 -141 0 -64 4 -84 31 -138 43 -88 69 -110 137
-116 l55 -4 0 -58 0 -57 -109 -72 c-60 -40 -117 -81 -127 -92 -13 -14 -19 -42
-22 -104 -5 -103 2 -149 30 -175 21 -19 36 -20 379 -20 l356 0 20 -48 c11 -27
35 -65 53 -85 l32 -37 -476 0 -476 0 0 -85 0 -85 2560 0 2560 0 0 85 0 85
-266 0 -266 0 36 41 c19 23 41 60 49 83 l14 41 197 5 c245 6 236 0 236 156 0
57 -5 114 -11 127 -6 13 -62 58 -125 101 l-114 77 0 58 0 58 52 5 c44 5 57 11
88 45 54 57 83 142 77 223 -5 79 -37 156 -81 199 -25 24 -45 33 -83 38 l-51 6
-4 286 -3 286 -29 62 c-31 68 -89 129 -154 162 -53 27 -145 41 -269 41 -76 0
-103 3 -103 13 0 6 11 55 25 107 32 122 32 154 0 185 l-24 25 -735 0 -734 0
-27 45 c-32 55 -88 98 -150 115 -38 11 -60 11 -113 1 l-66 -12 -470 470 -471
471 1788 0 1787 0 0 85 0 85 -2520 0 -2521 0 3 -82z m2570 -1198 c31 -24 39
-59 22 -99 -21 -51 -92 -59 -131 -15 -67 74 31 176 109 114z m-264 -190 c26
-45 77 -90 124 -107 26 -9 -115 -12 -663 -12 l-695 -1 -17 73 c-10 39 -17 75
-17 80 0 4 280 7 623 7 l622 0 23 -40z m1782 33 c0 -5 -9 -39 -18 -78 l-18
-70 -735 -2 c-719 -3 -733 -2 -694 16 42 19 125 104 125 127 0 12 112 14 670
14 369 0 670 -3 670 -7z m410 -333 c57 -16 120 -93 120 -146 0 -12 -282 -14
-2099 -14 l-2099 0 8 37 c12 51 39 84 90 111 l44 22 1951 0 c1249 0 1963 -4
1985 -10z m-3490 -580 l0 -250 -295 0 -295 0 0 250 0 250 295 0 295 0 0 -250z
m500 0 l0 -250 -55 0 -55 0 50 100 c27 55 50 103 50 108 0 8 -124 72 -140 72
-5 0 -41 -63 -80 -140 -43 -86 -76 -140 -85 -140 -13 0 -15 35 -15 250 l0 250
165 0 165 0 0 -250z m590 -380 l0 -630 -210 0 -210 0 0 630 0 630 210 0 210 0
0 -630z m1010 380 l0 -250 -100 0 -100 0 50 100 c27 55 50 103 50 108 0 8
-123 72 -138 72 -4 0 -39 -63 -77 -140 l-69 -140 -118 0 -118 0 50 100 c27 55
50 103 50 108 0 8 -123 72 -138 72 -4 0 -39 -63 -77 -140 -50 -101 -74 -140
-87 -140 -17 0 -18 17 -18 250 l0 250 420 0 420 0 0 -250z m588 -377 l-3 -628
-207 -3 -208 -2 0 630 0 630 210 0 210 0 -2 -627z m922 377 l0 -250 -55 0
c-30 0 -55 2 -55 5 0 3 23 51 51 106 27 56 49 102 47 104 -2 1 -35 18 -73 38
l-70 35 -75 -144 -75 -144 -112 0 c-62 0 -113 2 -113 5 0 3 23 51 51 106 27
56 49 102 47 104 -2 1 -35 19 -74 38 l-70 35 -72 -144 c-45 -90 -78 -144 -87
-144 -13 0 -15 34 -15 250 l0 250 375 0 375 0 0 -250z m-4362 -338 c3 -76 1
-82 -17 -82 -15 0 -23 10 -30 38 -13 46 -13 48 0 95 7 28 15 37 27 35 14 -3
18 -18 20 -86z m4570 63 c23 -51 7 -145 -25 -145 -10 0 -13 21 -13 85 0 64 3
85 13 85 8 0 19 -11 25 -25z m-3318 -440 l0 -295 -542 2 -543 3 -3 293 -2 292
545 0 545 0 0 -295z m1600 0 l0 -295 -420 0 -420 0 0 295 0 295 420 0 420 0 0
-295z m1510 0 l0 -295 -375 0 -375 0 0 295 0 295 375 0 375 0 0 -295z m-4362
-247 c-3 -43 -3 -43 -45 -46 -37 -3 -43 -1 -43 17 0 18 61 71 83 71 4 0 7 -19
5 -42z m4577 20 c23 -15 35 -31 35 -45 0 -20 -5 -23 -40 -23 l-40 0 0 45 c0
25 2 45 5 45 3 0 21 -10 40 -22z m-3605 -238 c0 -29 -87 -80 -135 -80 -48 0
-135 51 -135 80 0 6 48 10 135 10 87 0 135 -4 135 -10z m2744 -33 c9 -24 32
-63 52 -85 l36 -42 -1372 0 -1372 0 32 37 c18 20 42 58 53 85 l20 48 1267 0
1267 0 17 -43z m446 33 c0 -29 -87 -80 -135 -80 -48 0 -135 51 -135 80 0 6 48
10 135 10 87 0 135 -4 135 -10z"/>
</g>
</svg>
