<?xml version="1.0" standalone="no"?>
<!DOCTYPE svg PUBLIC "-//W3C//DTD SVG 20010904//EN"
 "http://www.w3.org/TR/2001/REC-SVG-20010904/DTD/svg10.dtd">
<svg version="1.0" xmlns="http://www.w3.org/2000/svg"
 width="2000.000000pt" height="1154.457065pt" viewBox="0 0 2000.000000 1154.457065"
 preserveAspectRatio="xMidYMid meet">
<metadata>
Created by potrace 1.12, written by Peter Selinger 2001-2015
</metadata>
<g transform="translate(0.000000,1577.536017) scale(0.100000,-0.100000)"
fill="#000000" stroke="none">
<path d="M4019 15771 c-111 -16 -207 -91 -243 -190 -49 -137 8 -286 136 -356
l53 -29 265 -7 c382 -10 403 -17 860 -269 233 -129 820 -452 1390 -765 228
-126 570 -314 760 -418 190 -104 372 -204 405 -222 33 -18 186 -103 340 -188
154 -85 375 -206 490 -269 423 -231 979 -539 1242 -686 35 -20 61 -38 58 -40
-2 -3 -1747 -6 -3877 -7 l-3873 -2 -80 -21 c-321 -83 -575 -338 -666 -667 -18
-69 -22 -114 -26 -317 l-5 -236 -377 -4 c-417 -5 -425 -7 -551 -75 -140 -76
-234 -191 -296 -363 l-24 -67 0 -2611 0 -2612 25 -66 c75 -199 218 -342 400
-400 l75 -24 1852 -1 c1019 0 1860 -4 1869 -7 10 -4 41 -43 70 -86 58 -88 194
-231 279 -294 253 -187 606 -276 901 -227 120 20 262 63 368 111 176 81 363
241 477 409 33 48 67 88 79 91 11 2 1712 3 3780 2 l3759 -3 64 -92 c110 -159
291 -317 460 -402 93 -47 253 -97 371 -117 351 -57 759 72 1024 325 79 76 191
215 208 258 5 13 10 24 11 25 2 2 779 5 1728 8 l1725 5 66 26 c189 73 306 197
384 403 l25 66 0 2156 0 2156 -25 123 c-28 140 -90 325 -145 436 -201 400
-612 718 -1047 810 -160 33 -352 39 -1393 39 -558 0 -1045 0 -1081 0 l-67 0
-5 243 c-4 207 -8 254 -27 322 -25 94 -95 238 -153 315 -122 164 -307 288
-510 342 l-82 23 -2230 5 -2230 5 -305 169 c-168 93 -332 183 -365 201 -33 18
-148 81 -255 140 -107 60 -352 195 -545 300 -935 513 -1075 590 -1135 625 -36
20 -175 97 -310 170 -135 73 -299 163 -365 200 -66 37 -241 134 -390 215 -148
81 -331 181 -405 223 -74 41 -252 139 -395 217 -143 78 -327 179 -410 225 -82
46 -247 136 -365 200 -118 65 -294 161 -390 215 -411 230 -547 285 -795 320
-120 16 -478 27 -556 16z m11425 -4050 c72 -29 148 -100 179 -169 20 -43 22
-66 25 -263 l3 -216 -5558 -2 c-3057 -1 -6165 1 -6906 5 l-1348 7 3 206 c3
235 12 268 91 349 66 68 116 93 205 102 42 4 3040 7 6662 6 l6585 -1 59 -24z
m3116 -1237 c138 -10 302 -72 434 -164 87 -60 211 -186 262 -266 41 -64 104
-197 104 -220 0 -12 -1012 -14 -7847 -14 -7692 0 -7849 -1 -7890 -19 -105 -48
-174 -152 -177 -267 -1 -52 4 -72 34 -130 23 -45 49 -79 78 -101 78 -59 108
-63 484 -63 l338 0 -2 -647 -3 -648 -42 0 c-24 1 -594 2 -1268 3 l-1225 2 0
645 0 644 353 4 c245 2 363 7 389 15 64 22 120 72 157 142 30 56 35 74 34 130
0 111 -61 211 -158 263 -39 21 -52 22 -439 25 -267 2 -416 -1 -453 -8 -97 -20
-210 -85 -290 -166 -85 -85 -155 -217 -173 -324 -8 -45 -10 -286 -8 -765 3
-691 4 -701 25 -765 69 -202 256 -374 450 -415 58 -13 484 -15 2926 -15 l2857
0 0 -960 0 -960 -487 2 -488 3 -6 92 c-22 311 -140 574 -354 789 -234 235
-542 364 -869 364 -357 0 -673 -139 -915 -404 -179 -195 -298 -471 -318 -739
l-8 -102 -1740 0 -1740 0 0 70 c0 39 1 1174 3 2522 l2 2453 7773 3 c7861 2
10079 1 10197 -9z m-11052 -1891 l-3 -648 -210 1 c-115 0 -686 1 -1267 2
l-1058 2 0 645 0 645 1270 0 1270 0 -2 -647z m1260 -873 c2 -833 1 -1687 -3
-1897 l-7 -383 -329 0 -329 0 0 1900 0 1900 333 -2 332 -3 3 -1515z m1250
-377 l-3 -1898 -332 -3 -333 -2 0 1900 0 1900 335 0 335 0 -2 -1897z m2816
1254 c-1 -351 -4 -640 -7 -643 -3 -3 -279 -5 -614 -5 -334 0 -638 -3 -674 -8
-82 -11 -124 -30 -178 -83 -59 -56 -84 -116 -85 -203 -1 -114 59 -212 164
-267 l45 -23 2082 -3 2082 -2 3 -423 c2 -232 3 -423 2 -425 0 -1 -43 19 -95
46 -180 91 -351 132 -550 132 -469 0 -888 -259 -1098 -679 -73 -144 -115 -300
-137 -509 l-7 -62 -1578 2 c-869 2 -1579 6 -1579 11 0 4 0 858 0 1897 l0 1890
1112 -2 1113 -3 -1 -638z m2816 -2 l0 -645 -25 -6 c-14 -3 -58 -4 -98 0 -39 3
-530 6 -1090 6 l-1018 0 1 645 1 645 1115 0 1114 0 0 -645z m1255 -1255 l0
-1895 -332 -3 -333 -2 0 1900 0 1900 333 -2 332 -3 0 -1895z m1253 -2 l2
-1898 -335 0 -335 0 0 1893 c0 1042 3 1897 7 1900 4 4 153 6 332 5 l326 -3 3
-1897z m1252 627 l0 -1275 -332 2 -331 3 -1 70 c0 39 0 611 2 1273 l2 1202
330 0 330 0 0 -1275z m-13910 -1892 c149 -49 251 -127 339 -259 76 -113 105
-210 105 -354 0 -97 -5 -127 -27 -195 -124 -376 -548 -555 -902 -380 -218 107
-355 329 -355 571 0 150 43 278 135 402 68 93 197 183 320 222 110 36 267 33
385 -7z m9680 10 c228 -65 395 -237 455 -468 20 -77 20 -232 0 -310 -73 -285
-329 -486 -620 -486 -123 -1 -202 18 -308 73 -145 76 -256 208 -313 373 -23
68 -27 97 -28 190 0 127 15 189 75 306 93 179 271 308 473 340 68 10 198 2
266 -18z m4230 -308 l0 -335 -332 2 -332 3 -1 75 c0 41 1 191 3 333 l2 257
330 0 330 0 0 -335z"/>
</g>
</svg>
