<?xml version="1.0" encoding="UTF-8" standalone="no"?>
<!DOCTYPE svg PUBLIC "-//W3C//DTD SVG 1.1//EN" "http://www.w3.org/Graphics/SVG/1.1/DTD/svg11.dtd">
<svg width="100%" height="100%" viewBox="0 0 2000 2000" version="1.1" xmlns="http://www.w3.org/2000/svg" xmlns:xlink="http://www.w3.org/1999/xlink" xml:space="preserve" xmlns:serif="http://www.serif.com/" style="fill-rule:evenodd;clip-rule:evenodd;stroke-linejoin:round;stroke-miterlimit:2;">
    <g>
        <path d="M1.6,1171.4C0.4,1160.4 0.2,1110.2 2,1095C10.2,1025.6 28.1,971.4 60.9,916.7C90,868.1 125.8,828.3 171,794.4C234.8,746.6 303.7,719.8 386,710.9C402.8,709.1 445,709.3 466.2,711.3C492.4,713.8 526.7,720.7 552.2,728.6C579.4,737 581.6,737.9 606.4,749.6L627.2,759.4L629.1,757C630.8,754.8 706.2,638 706.2,638C706.2,638 640.3,508.9 639.7,508.2C639,507.3 630.4,507 603.1,507C564.6,507 559.9,506.5 552.2,501.6C543.9,496.4 537.3,485.7 536.3,475.7C535.2,464.8 540.9,452.7 550.3,445.7C560.6,438 552.4,438.5 683.5,438.8C812.4,439.2 806.3,438.9 815.2,445.4C837.1,461.7 832.4,494.6 806.7,504.8C803.1,506.2 714.905,508.005 714.905,508.005L766.5,605L1262.1,605L1257.7,596.7C1255.3,592.2 1248.8,579.7 1243.3,569C1237.8,558.3 1228.4,540 1222.5,528.5C1216.5,516.9 1209.3,502.8 1206.3,497.1C1203.4,491.3 1200.2,484.2 1199.3,481.1C1194.9,466 1203.7,448.6 1219.3,441.4L1225.5,438.5C1225.5,438.5 1466.2,439.3 1469.5,439.6C1490.5,441.6 1511,451.4 1528.1,467.7C1567.6,505.4 1569.7,568.1 1532.8,608.5C1516.8,626.1 1494,637.9 1470.1,640.9C1456.8,642.6 1419.7,642.3 1412.5,640.5C1403.7,638.2 1396.4,632.2 1392,623.6C1388.8,617.2 1388.5,616 1388.5,607.6C1388.5,596.9 1390.8,591.2 1397.6,584.3C1406.6,575.4 1411.8,574.1 1442.6,573.1C1466.5,572.4 1466.7,572.4 1472.4,569.5C1483.3,564 1489,554.9 1489.8,542C1490.7,525.2 1481,512.6 1464,508.6C1458.4,507.3 1289,507.4 1289.2,508C1289.4,508.5 1294.8,519.2 1301.4,531.7C1312.4,553 1330.5,588.1 1356.7,639C1395.9,715.5 1409.3,741 1410.4,741C1411,741 1415.1,739.6 1419.5,737.9C1454.3,724.5 1488.9,716.2 1529.7,711.4C1549.3,709 1596.2,709 1616.8,711.3C1682.2,718.7 1739.2,737.7 1793.1,770.2C1811.1,781 1840.9,802.8 1854.5,815C1888.2,845.4 1916.3,878.8 1937.3,913.6C1954.6,942.3 1971.9,980.5 1980.9,1010C1988,1033 1995.9,1074.1 1998.4,1100.9C1999.5,1112.2 1999.6,1155.5 1998.4,1167.8C1993.2,1222.3 1980.7,1269.8 1959.6,1315C1951,1333.3 1950.6,1334.1 1937.8,1355.6C1921.7,1382.6 1898.1,1412.9 1875.5,1435.5C1863.6,1447.3 1842.4,1465.5 1828,1476.2C1804.7,1493.4 1782.7,1506.8 1760,1517.7C1706.2,1543.6 1655.5,1556.5 1593.5,1560.1C1526.7,1564 1457.4,1550.3 1393.5,1520.8C1374.8,1512.2 1367.6,1508.2 1348.7,1496.3C1310.1,1472 1270.4,1437.1 1242.8,1403C1218.2,1372.7 1194.3,1332.3 1179.5,1296C1155.3,1236.7 1144.7,1172.6 1148.9,1110.5C1150.8,1082.5 1151.7,1075.3 1157,1049.1C1161.2,1028.2 1163.4,1020.1 1170.1,1000.3C1183.3,961.5 1196.8,934.3 1219.6,900C1252.4,850.6 1286.7,816.2 1340.3,779C1344.5,776.1 1348,773.3 1348,772.8C1348,772.3 1342.7,761.7 1336.3,749.2C1318.9,715.4 1316.3,710.6 1315.3,710.3C1314.8,710.1 1311.8,714.1 1308.5,719.2C1305.2,724.3 1030.6,1149 1029.4,1152C1028.1,1155 985.1,1294.2 984.9,1295C984.6,1296.3 987.2,1296.6 1002.5,1297.1C1012.4,1297.5 1022,1298.2 1023.8,1298.8C1035.7,1302.6 1043.9,1311.9 1047,1324.8C1050.1,1337.9 1042.3,1354.3 1030.1,1360.5C1021.4,1364.8 1018.1,1365 950.7,1365C876.2,1365 877.7,1365.1 867.8,1356.2C854,1343.7 852.3,1322.9 864.1,1309.6C872.4,1300 881,1297 899.7,1297C906.9,1297 912.1,1296.6 912.5,1296C913.3,1294.6 952,1169 952,1169C952,1169 851,1169.4 851,1169.9C851,1173.3 845.5,1210.3 843.9,1218C834.5,1262.4 819.1,1304.4 799.2,1340.5C762,1407.5 707.1,1463.6 640.4,1502.8C570.4,1543.9 484.5,1564.7 403.7,1560.1C384.8,1559.1 376,1558.1 349,1554C335.6,1552 302.9,1543 283.3,1535.9C241.6,1520.9 210.9,1504.6 175,1478.5C155.4,1464.2 145.7,1455.8 124.4,1434.6C98.3,1408.5 79.1,1384.2 61.7,1354.9C27.6,1297.8 8.7,1240.4 1.6,1171.4ZM1535.3,779.5C1504.3,783 1477,789.8 1442.2,802.5C1441.2,802.9 1441.5,804 1443.3,807.2C1444.6,809.6 1608.6,1129.9 1607.6,1138.3C1606.2,1149.5 1597.8,1160.9 1587.3,1166.1C1583.3,1168.1 1581,1168.5 1573.5,1168.4C1562.7,1168.4 1557,1166.1 1550,1159C1544.8,1153.8 1380.9,834.9 1380.9,834.9L1377.7,836.9C1359.5,848.3 1332.4,871.2 1314,890.6C1285,921.3 1258.1,962.9 1242.4,1001.9C1224,1047.3 1214.2,1105.9 1217,1153.5C1220.6,1215.1 1238.4,1272 1270,1322.8C1305.9,1380.9 1359,1428.4 1420.2,1457.4C1454.4,1473.6 1485.7,1483 1524.2,1488.5C1545.3,1491.6 1577.8,1492.7 1599,1491.2C1764.7,1479.1 1900.8,1354.2 1926.5,1190.5C1935.3,1134.6 1930.3,1074.4 1912.7,1022.5C1903.8,996.4 1890.2,967.5 1876.8,946.2C1861.3,921.6 1848.3,905.3 1826.5,883.4C1810.8,867.6 1803.1,860.8 1790.3,851.3C1759.5,828.3 1727.9,811.1 1694.6,799C1677,792.6 1648.7,784.9 1635.9,783.1C1631.8,782.5 1624.5,781.3 1619.5,780.5C1606.3,778.3 1551.4,777.6 1535.3,779.5ZM801.9,675.4C802.6,676.2 1001.8,1065.7 1002.7,1064.7C1003.3,1064 1206.8,750 1246.6,688.5C1251.2,681.3 1255,675.2 1255,674.7C1255,674.3 800.9,674.2 801.9,675.4ZM742.1,710.2C741.6,710 686,796.8 686.6,797.7C687.1,798.4 694.3,804.6 702.5,811.5C744.2,846.5 782.5,895.8 808.1,947.5C828.9,989.6 841.3,1030.2 848,1078.1C849.6,1089.9 851,1099.8 851,1100.2C851,1100.7 942.1,1101 942.1,1101C942.1,1101 742.7,710.4 742.1,710.2ZM388,779.5C289.3,790.6 200.1,841.6 140.2,921.3C109.2,962.6 86.5,1012.9 76,1063.5C70.9,1088.3 69.6,1103 69.6,1135.5C69.6,1163.6 69.9,1168.2 72.3,1185C84.2,1267.6 124.4,1343.2 186.2,1399.2C212.1,1422.7 238,1440.2 270.5,1456.1C294,1467.6 313.5,1474.8 337.8,1480.9C371.8,1489.4 401.5,1492.6 437,1491.7C504.5,1489.9 566.9,1469.9 624.5,1431.7C644.2,1418.6 656.9,1408.2 675.8,1389.6C703.2,1362.7 720.6,1340.1 738.2,1308.5C759,1270.9 771.6,1234.5 778.5,1191.5C779.9,1182.7 781.3,1174 781.6,1172.3L782.1,1169L417.5,1168.5L412,1165.9C405,1162.6 398.8,1156.4 395.3,1149.2C391.6,1141.6 391.3,1129.1 394.7,1121.7C396.8,1117.2 589.5,817.8 588.7,817.1C588,816.6 579.3,812.5 569.2,808.1C533,792 491.6,781.6 454.2,779C434,777.7 402.4,777.9 388,779.5ZM648,854.9C648,854.9 490,1099.6 490,1100.1C490,1101 780.2,1101.5 781.1,1100.5C782.2,1099.4 776.4,1065.8 772,1047.4C755.1,977.9 714.8,912.6 658.8,864.2L648,854.9Z"/>
    </g>
</svg>
