<svg xmlns="http://www.w3.org/2000/svg" viewBox="0 0 83.503 28" data-ligne-id="BUS128" class=""><g><g><path fill="rgb(226,0,26)" class="picto-outline" d="M3.6,0S0,5.4,0,14s3.6,14,3.6,14h31.4V0H3.6Z" device-cmyk="0.00, 1.00, 1.00, 0.00"/><path d="M3.578,8.213h4.135c2.483,0,3.331,1.271,3.331,2.802,0,1.364-.772,2.119-1.544,2.408,1.059.212,2.089,1.091,2.089,2.817,0,2.166-1.681,3.559-3.997,3.559H3.578v-11.585ZM7.121,13.089c1.121,0,2.06-.484,2.06-1.681,0-.894-.575-1.605-1.923-1.605h-1.696v3.286h1.559ZM7.394,18.223c1.03,0,2.166-.484,2.166-1.893,0-1.211-.607-1.802-1.834-1.802h-2.165v3.695h1.832Z" fill="#fff"/><path d="M13.995,8.213h1.984v7.603c0,1.484.818,2.408,2.362,2.408s2.363-.924,2.363-2.408v-7.603h1.984v8.041c0,2.5-1.878,3.771-4.347,3.771s-4.346-1.271-4.346-3.771v-8.041Z" fill="#fff"/><path d="M25.593,17.496c.772.318,1.635.681,2.878.681,1.635,0,1.954-.939,1.954-1.575,0-.803-.455-1.303-1.546-1.741l-1.287-.516c-1.515-.605-2.589-1.271-2.589-3.028,0-1.832,1.408-3.331,4.179-3.331,1.529,0,2.484.317,3.135.635l-.682,1.773c-.65-.379-1.453-.681-2.559-.681-1.014,0-1.817.514-1.817,1.362,0,.621.303,1.015,1.273,1.408l1.56.637c1.696.696,2.483,1.59,2.483,3.21,0,3.044-2.286,3.696-3.982,3.696-1.636,0-2.878-.455-3.726-.984l.727-1.546Z" fill="#fff"/></g><g transform="translate(0,0)"><path class="picto-outline" fill="rgb(128,104,46)" d="M39.333,0h44.1697v28h-44.1697V0.7z"/><path fill="rgb(255,255,255)" d="M43.04 23.30L54.78 23.30L54.78 20.72L51.02 20.72L51.02 4.52L48.27 4.52L42.21 7.83L43.39 10.12L47.73 7.66L47.73 20.72L43.04 20.72ZM55.73 23.30L67.74 23.30L67.74 20.55L59.36 20.55C59.41 19.76 59.56 19.13 61.06 18.00L63.78 15.96C66.19 14.14 67.44 12.69 67.44 9.62C67.44 6.19 64.84 4.30 61.11 4.30C59.44 4.30 57.28 4.89 55.56 5.92L56.64 8.25C57.55 7.76 59.29 7.07 60.86 7.07C62.53 7.07 64.00 7.78 64.00 10.07C64.00 11.71 63.07 12.72 61.45 13.92L59.19 15.62C56.76 17.46 55.73 18.98 55.73 20.89ZM68.64 18.32C68.64 20.99 70.36 23.50 74.38 23.50C78.63 23.50 80.79 20.72 80.79 17.75C80.79 15.49 79.57 13.92 77.26 12.89C78.66 12.23 80.03 10.93 80.03 8.76C80.03 6.06 78.14 4.30 74.88 4.30C71.73 4.30 69.18 6.24 69.18 9.50C69.18 10.95 69.67 12.37 71.68 13.60C70.09 14.49 68.64 15.86 68.64 18.32ZM74.73 12.01C73.03 11.29 72.74 10.34 72.74 9.35C72.74 7.54 73.72 6.90 74.83 6.90C76.15 6.90 76.64 7.78 76.64 9.04C76.64 10.36 76.08 11.34 74.73 12.01ZM72.15 18.22C72.15 16.82 72.74 15.54 73.89 14.85C76.03 15.62 77.31 16.28 77.31 18.24C77.31 19.86 76.42 21.04 74.75 21.04C73.30 21.04 72.15 20.16 72.15 18.22Z"/></g></g></svg>