<svg xmlns="http://www.w3.org/2000/svg" viewBox="0 0 83.503 28" data-ligne-id="BUS152" class=""><g><g><path fill="rgb(226,0,26)" class="picto-outline" d="M3.6,0S0,5.4,0,14s3.6,14,3.6,14h31.4V0H3.6Z" device-cmyk="0.00, 1.00, 1.00, 0.00"/><path d="M3.578,8.213h4.135c2.483,0,3.331,1.271,3.331,2.802,0,1.364-.772,2.119-1.544,2.408,1.059.212,2.089,1.091,2.089,2.817,0,2.166-1.681,3.559-3.997,3.559H3.578v-11.585ZM7.121,13.089c1.121,0,2.06-.484,2.06-1.681,0-.894-.575-1.605-1.923-1.605h-1.696v3.286h1.559ZM7.394,18.223c1.03,0,2.166-.484,2.166-1.893,0-1.211-.607-1.802-1.834-1.802h-2.165v3.695h1.832Z" fill="#fff"/><path d="M13.995,8.213h1.984v7.603c0,1.484.818,2.408,2.362,2.408s2.363-.924,2.363-2.408v-7.603h1.984v8.041c0,2.5-1.878,3.771-4.347,3.771s-4.346-1.271-4.346-3.771v-8.041Z" fill="#fff"/><path d="M25.593,17.496c.772.318,1.635.681,2.878.681,1.635,0,1.954-.939,1.954-1.575,0-.803-.455-1.303-1.546-1.741l-1.287-.516c-1.515-.605-2.589-1.271-2.589-3.028,0-1.832,1.408-3.331,4.179-3.331,1.529,0,2.484.317,3.135.635l-.682,1.773c-.65-.379-1.453-.681-2.559-.681-1.014,0-1.817.514-1.817,1.362,0,.621.303,1.015,1.273,1.408l1.56.637c1.696.696,2.483,1.59,2.483,3.21,0,3.044-2.286,3.696-3.982,3.696-1.636,0-2.878-.455-3.726-.984l.727-1.546Z" fill="#fff"/></g><g transform="translate(0,0)"><path class="picto-outline" fill="rgb(0,117,191)" d="M39.333,0h44.1697v28h-44.1697V0.7z"/><path fill="rgb(255,255,255)" d="M43.26 23.30L54.98 23.30L54.98 20.73L51.23 20.73L51.23 4.54L48.48 4.54L42.43 7.85L43.61 10.13L47.95 7.68L47.95 20.73L43.26 20.73ZM56.01 22.29C57.11 22.81 59.05 23.52 61.30 23.52C65.84 23.52 67.97 20.68 67.97 17.02C67.97 13.39 65.89 11.51 62.31 11.51L59.91 11.51L60.08 7.24L67.58 7.24L67.58 4.54L56.89 4.54L56.57 14.23L61.21 14.23C63.46 14.23 64.64 15.04 64.64 17.22C64.64 19.47 63.39 20.77 60.91 20.77C59.59 20.77 57.85 20.41 56.67 19.99ZM68.58 23.30L80.57 23.30L80.57 20.55L72.21 20.55C72.26 19.77 72.41 19.13 73.90 18.00L76.62 15.97C79.03 14.15 80.28 12.71 80.28 9.64C80.28 6.21 77.68 4.32 73.95 4.32C72.28 4.32 70.13 4.91 68.41 5.94L69.49 8.27C70.40 7.78 72.14 7.09 73.71 7.09C75.37 7.09 76.84 7.80 76.84 10.08C76.84 11.73 75.91 12.73 74.29 13.93L72.04 15.62C69.61 17.46 68.58 18.98 68.58 20.90Z"/></g></g></svg>