<svg xmlns="http://www.w3.org/2000/svg" viewBox="0 0 83.503 28" data-ligne-id="BUS153" class=""><g><g><path fill="rgb(226,0,26)" class="picto-outline" d="M3.6,0S0,5.4,0,14s3.6,14,3.6,14h31.4V0H3.6Z" device-cmyk="0.00, 1.00, 1.00, 0.00"/><path d="M3.578,8.213h4.135c2.483,0,3.331,1.271,3.331,2.802,0,1.364-.772,2.119-1.544,2.408,1.059.212,2.089,1.091,2.089,2.817,0,2.166-1.681,3.559-3.997,3.559H3.578v-11.585ZM7.121,13.089c1.121,0,2.06-.484,2.06-1.681,0-.894-.575-1.605-1.923-1.605h-1.696v3.286h1.559ZM7.394,18.223c1.03,0,2.166-.484,2.166-1.893,0-1.211-.607-1.802-1.834-1.802h-2.165v3.695h1.832Z" fill="#fff"/><path d="M13.995,8.213h1.984v7.603c0,1.484.818,2.408,2.362,2.408s2.363-.924,2.363-2.408v-7.603h1.984v8.041c0,2.5-1.878,3.771-4.347,3.771s-4.346-1.271-4.346-3.771v-8.041Z" fill="#fff"/><path d="M25.593,17.496c.772.318,1.635.681,2.878.681,1.635,0,1.954-.939,1.954-1.575,0-.803-.455-1.303-1.546-1.741l-1.287-.516c-1.515-.605-2.589-1.271-2.589-3.028,0-1.832,1.408-3.331,4.179-3.331,1.529,0,2.484.317,3.135.635l-.682,1.773c-.65-.379-1.453-.681-2.559-.681-1.014,0-1.817.514-1.817,1.362,0,.621.303,1.015,1.273,1.408l1.56.637c1.696.696,2.483,1.59,2.483,3.21,0,3.044-2.286,3.696-3.982,3.696-1.636,0-2.878-.455-3.726-.984l.727-1.546Z" fill="#fff"/></g><g transform="translate(0,0)"><path class="picto-outline" fill="rgb(0,158,61)" d="M39.333,0h44.1697v28h-44.1697V0.7z"/><path fill="rgb(255,255,255)" d="M43.48 23.30L55.20 23.30L55.20 20.73L51.45 20.73L51.45 4.54L48.71 4.54L42.65 7.85L43.83 10.13L48.17 7.68L48.17 20.73L43.48 20.73ZM56.23 22.29C57.33 22.81 59.27 23.52 61.52 23.52C66.06 23.52 68.19 20.68 68.19 17.02C68.19 13.39 66.11 11.51 62.53 11.51L60.13 11.51L60.30 7.24L67.80 7.24L67.80 4.54L57.11 4.54L56.79 14.23L61.43 14.23C63.68 14.23 64.86 15.04 64.86 17.22C64.86 19.47 63.61 20.77 61.13 20.77C59.81 20.77 58.07 20.41 56.89 19.99ZM68.34 22.05C69.27 22.59 71.18 23.50 73.71 23.50C78.05 23.50 80.35 20.82 80.35 17.59C80.35 15.31 79.22 13.71 77.36 13.07C78.88 12.36 80.13 11.21 80.13 8.96C80.13 6.26 78.37 4.32 74.64 4.32C72.38 4.32 70.00 5.03 68.26 6.01L69.39 8.54C70.54 7.83 72.19 7.17 73.98 7.17C75.94 7.17 76.75 7.95 76.75 9.47C76.75 11.53 75.08 12.29 73.14 12.29L71.47 12.29L71.47 14.99L73.61 14.99C75.50 14.99 77.04 15.58 77.04 17.56C77.04 19.28 75.91 20.58 73.49 20.58C71.65 20.58 69.98 19.87 69.27 19.50Z"/></g></g></svg>