<svg xmlns="http://www.w3.org/2000/svg" viewBox="0 0 83.503 28" data-ligne-id="BUS156" class=""><g><g><path fill="rgb(226,0,26)" class="picto-outline" d="M3.6,0S0,5.4,0,14s3.6,14,3.6,14h31.4V0H3.6Z" device-cmyk="0.00, 1.00, 1.00, 0.00"/><path d="M3.578,8.213h4.135c2.483,0,3.331,1.271,3.331,2.802,0,1.364-.772,2.119-1.544,2.408,1.059.212,2.089,1.091,2.089,2.817,0,2.166-1.681,3.559-3.997,3.559H3.578v-11.585ZM7.121,13.089c1.121,0,2.06-.484,2.06-1.681,0-.894-.575-1.605-1.923-1.605h-1.696v3.286h1.559ZM7.394,18.223c1.03,0,2.166-.484,2.166-1.893,0-1.211-.607-1.802-1.834-1.802h-2.165v3.695h1.832Z" fill="#fff"/><path d="M13.995,8.213h1.984v7.603c0,1.484.818,2.408,2.362,2.408s2.363-.924,2.363-2.408v-7.603h1.984v8.041c0,2.5-1.878,3.771-4.347,3.771s-4.346-1.271-4.346-3.771v-8.041Z" fill="#fff"/><path d="M25.593,17.496c.772.318,1.635.681,2.878.681,1.635,0,1.954-.939,1.954-1.575,0-.803-.455-1.303-1.546-1.741l-1.287-.516c-1.515-.605-2.589-1.271-2.589-3.028,0-1.832,1.408-3.331,4.179-3.331,1.529,0,2.484.317,3.135.635l-.682,1.773c-.65-.379-1.453-.681-2.559-.681-1.014,0-1.817.514-1.817,1.362,0,.621.303,1.015,1.273,1.408l1.56.637c1.696.696,2.483,1.59,2.483,3.21,0,3.044-2.286,3.696-3.982,3.696-1.636,0-2.878-.455-3.726-.984l.727-1.546Z" fill="#fff"/></g><g transform="translate(0,0)"><path class="picto-outline" fill="rgb(107,162,48)" d="M39.333,0h44.1697v28h-44.1697V0.7z"/><path fill="rgb(255,255,255)" d="M43.11 23.30L54.84 23.30L54.84 20.73L51.08 20.73L51.08 4.54L48.34 4.54L42.28 7.85L43.46 10.13L47.80 7.68L47.80 20.73L43.11 20.73ZM55.86 22.29C56.96 22.81 58.90 23.52 61.16 23.52C65.69 23.52 67.83 20.68 67.83 17.02C67.83 13.39 65.74 11.51 62.16 11.51L59.76 11.51L59.93 7.24L67.43 7.24L67.43 4.54L56.74 4.54L56.42 14.23L61.06 14.23C63.31 14.23 64.49 15.04 64.49 17.22C64.49 19.47 63.24 20.77 60.76 20.77C59.44 20.77 57.70 20.41 56.52 19.99ZM74.61 23.52C78.34 23.52 80.72 20.87 80.72 17.10C80.72 13.05 77.97 12.09 75.99 12.09C74.22 12.09 72.60 12.85 71.94 13.27C72.23 9.03 74.15 7.07 76.89 7.07C77.90 7.07 78.59 7.34 79.13 7.61L79.98 5.06C79.13 4.64 77.75 4.32 76.38 4.32C71.16 4.32 68.53 8.86 68.53 14.99C68.53 20.04 70.32 23.52 74.61 23.52ZM74.83 20.92C72.75 20.92 71.94 19.20 71.94 15.77C72.92 15.23 74.07 14.96 75.01 14.96C76.65 14.96 77.36 15.80 77.36 17.68C77.36 19.55 76.67 20.92 74.83 20.92Z"/></g></g></svg>