<svg xmlns="http://www.w3.org/2000/svg" viewBox="0 0 83.503 28" data-ligne-id="BUS164" class=""><g><g><path fill="rgb(226,0,26)" class="picto-outline" d="M3.6,0S0,5.4,0,14s3.6,14,3.6,14h31.4V0H3.6Z" device-cmyk="0.00, 1.00, 1.00, 0.00"/><path d="M3.578,8.213h4.135c2.483,0,3.331,1.271,3.331,2.802,0,1.364-.772,2.119-1.544,2.408,1.059.212,2.089,1.091,2.089,2.817,0,2.166-1.681,3.559-3.997,3.559H3.578v-11.585ZM7.121,13.089c1.121,0,2.06-.484,2.06-1.681,0-.894-.575-1.605-1.923-1.605h-1.696v3.286h1.559ZM7.394,18.223c1.03,0,2.166-.484,2.166-1.893,0-1.211-.607-1.802-1.834-1.802h-2.165v3.695h1.832Z" fill="#fff"/><path d="M13.995,8.213h1.984v7.603c0,1.484.818,2.408,2.362,2.408s2.363-.924,2.363-2.408v-7.603h1.984v8.041c0,2.5-1.878,3.771-4.347,3.771s-4.346-1.271-4.346-3.771v-8.041Z" fill="#fff"/><path d="M25.593,17.496c.772.318,1.635.681,2.878.681,1.635,0,1.954-.939,1.954-1.575,0-.803-.455-1.303-1.546-1.741l-1.287-.516c-1.515-.605-2.589-1.271-2.589-3.028,0-1.832,1.408-3.331,4.179-3.331,1.529,0,2.484.317,3.135.635l-.682,1.773c-.65-.379-1.453-.681-2.559-.681-1.014,0-1.817.514-1.817,1.362,0,.621.303,1.015,1.273,1.408l1.56.637c1.696.696,2.483,1.59,2.483,3.21,0,3.044-2.286,3.696-3.982,3.696-1.636,0-2.878-.455-3.726-.984l.727-1.546Z" fill="#fff"/></g><g transform="translate(0,0)"><path class="picto-outline" fill="rgb(110,137,151)" d="M39.333,0h44.1697v28h-44.1697V0.7z"/><path fill="rgb(255,255,255)" d="M42.80 23.30L54.52 23.30L54.52 20.73L50.77 20.73L50.77 4.54L48.02 4.54L41.96 7.85L43.14 10.13L47.48 7.68L47.48 20.73L42.80 20.73ZM61.65 23.52C65.37 23.52 67.75 20.87 67.75 17.10C67.75 13.05 65.01 12.09 63.02 12.09C61.25 12.09 59.64 12.85 58.97 13.27C59.27 9.03 61.18 7.07 63.93 7.07C64.93 7.07 65.62 7.34 66.16 7.61L67.02 5.06C66.16 4.64 64.79 4.32 63.41 4.32C58.19 4.32 55.57 8.86 55.57 14.99C55.57 20.04 57.36 23.52 61.65 23.52ZM61.87 20.92C59.78 20.92 58.97 19.20 58.97 15.77C59.96 15.23 61.11 14.96 62.04 14.96C63.68 14.96 64.39 15.80 64.39 17.68C64.39 19.55 63.71 20.92 61.87 20.92ZM67.77 19.97L75.57 19.97L75.57 23.30L78.66 23.30L78.66 19.97L81.04 19.97L81.04 17.24L78.66 17.24L78.66 4.54L74.27 4.54L67.77 17.12ZM70.59 17.24L74.29 10.01C74.96 8.73 75.40 7.75 75.57 7.09L75.57 17.24Z"/></g></g></svg>