<svg xmlns="http://www.w3.org/2000/svg" viewBox="0 0 83.503 28" data-ligne-id="BUS217" class=""><g><g><path fill="rgb(226,0,26)" class="picto-outline" d="M3.6,0S0,5.4,0,14s3.6,14,3.6,14h31.4V0H3.6Z" device-cmyk="0.00, 1.00, 1.00, 0.00"/><path d="M3.578,8.213h4.135c2.483,0,3.331,1.271,3.331,2.802,0,1.364-.772,2.119-1.544,2.408,1.059.212,2.089,1.091,2.089,2.817,0,2.166-1.681,3.559-3.997,3.559H3.578v-11.585ZM7.121,13.089c1.121,0,2.06-.484,2.06-1.681,0-.894-.575-1.605-1.923-1.605h-1.696v3.286h1.559ZM7.394,18.223c1.03,0,2.166-.484,2.166-1.893,0-1.211-.607-1.802-1.834-1.802h-2.165v3.695h1.832Z" fill="#fff"/><path d="M13.995,8.213h1.984v7.603c0,1.484.818,2.408,2.362,2.408s2.363-.924,2.363-2.408v-7.603h1.984v8.041c0,2.5-1.878,3.771-4.347,3.771s-4.346-1.271-4.346-3.771v-8.041Z" fill="#fff"/><path d="M25.593,17.496c.772.318,1.635.681,2.878.681,1.635,0,1.954-.939,1.954-1.575,0-.803-.455-1.303-1.546-1.741l-1.287-.516c-1.515-.605-2.589-1.271-2.589-3.028,0-1.832,1.408-3.331,4.179-3.331,1.529,0,2.484.317,3.135.635l-.682,1.773c-.65-.379-1.453-.681-2.559-.681-1.014,0-1.817.514-1.817,1.362,0,.621.303,1.015,1.273,1.408l1.56.637c1.696.696,2.483,1.59,2.483,3.21,0,3.044-2.286,3.696-3.982,3.696-1.636,0-2.878-.455-3.726-.984l.727-1.546Z" fill="#fff"/></g><g transform="translate(0,0)"><path class="picto-outline" fill="rgb(211,216,0)" d="M39.333,0h44.1697v28h-44.1697V0.7z"/><path fill="rgb(0,0,0)" d="M42.38 23.30L54.51 23.30L54.51 20.52L46.05 20.52C46.10 19.73 46.25 19.08 47.76 17.94L50.52 15.88C52.95 14.05 54.21 12.58 54.21 9.48C54.21 6.01 51.58 4.10 47.81 4.10C46.13 4.10 43.94 4.70 42.21 5.74L43.30 8.09C44.22 7.60 45.98 6.90 47.56 6.90C49.25 6.90 50.74 7.62 50.74 9.93C50.74 11.59 49.80 12.61 48.16 13.82L45.88 15.54C43.42 17.40 42.38 18.93 42.38 20.87ZM55.94 23.30L67.80 23.30L67.80 20.70L64.01 20.70L64.01 4.32L61.23 4.32L55.10 7.67L56.29 9.98L60.68 7.50L60.68 20.70L55.94 20.70ZM71.14 23.30L74.62 23.30C74.62 19.50 74.69 18.29 76.08 16.23L77.77 13.72C80.45 9.76 80.79 8.64 80.79 6.41C80.79 5.61 80.72 4.89 80.64 4.32L68.59 4.32L68.59 7.13L77.37 7.13C77.37 7.35 77.35 7.57 77.32 7.80C77.17 8.69 76.70 9.56 75.34 11.59L73.92 13.70C71.62 17.12 71.14 18.81 71.14 23.30Z"/></g></g></svg>