<svg xmlns="http://www.w3.org/2000/svg" viewBox="0 0 83.503 28" data-ligne-id="BUS237" class=""><g><g><path fill="rgb(226,0,26)" class="picto-outline" d="M3.6,0S0,5.4,0,14s3.6,14,3.6,14h31.4V0H3.6Z" device-cmyk="0.00, 1.00, 1.00, 0.00"/><path d="M3.578,8.213h4.135c2.483,0,3.331,1.271,3.331,2.802,0,1.364-.772,2.119-1.544,2.408,1.059.212,2.089,1.091,2.089,2.817,0,2.166-1.681,3.559-3.997,3.559H3.578v-11.585ZM7.121,13.089c1.121,0,2.06-.484,2.06-1.681,0-.894-.575-1.605-1.923-1.605h-1.696v3.286h1.559ZM7.394,18.223c1.03,0,2.166-.484,2.166-1.893,0-1.211-.607-1.802-1.834-1.802h-2.165v3.695h1.832Z" fill="#fff"/><path d="M13.995,8.213h1.984v7.603c0,1.484.818,2.408,2.362,2.408s2.363-.924,2.363-2.408v-7.603h1.984v8.041c0,2.5-1.878,3.771-4.347,3.771s-4.346-1.271-4.346-3.771v-8.041Z" fill="#fff"/><path d="M25.593,17.496c.772.318,1.635.681,2.878.681,1.635,0,1.954-.939,1.954-1.575,0-.803-.455-1.303-1.546-1.741l-1.287-.516c-1.515-.605-2.589-1.271-2.589-3.028,0-1.832,1.408-3.331,4.179-3.331,1.529,0,2.484.317,3.135.635l-.682,1.773c-.65-.379-1.453-.681-2.559-.681-1.014,0-1.817.514-1.817,1.362,0,.621.303,1.015,1.273,1.408l1.56.637c1.696.696,2.483,1.59,2.483,3.21,0,3.044-2.286,3.696-3.982,3.696-1.636,0-2.878-.455-3.726-.984l.727-1.546Z" fill="#fff"/></g><g transform="translate(0,0)"><path class="picto-outline" fill="rgb(38,153,214)" d="M39.333,0h44.1697v28h-44.1697V0.7z"/><path fill="rgb(255,255,255)" d="M42.81 23.30L54.81 23.30L54.81 20.55L46.44 20.55C46.49 19.76 46.64 19.13 48.14 18.00L50.86 15.96C53.27 14.14 54.52 12.69 54.52 9.62C54.52 6.19 51.92 4.30 48.19 4.30C46.52 4.30 44.36 4.89 42.64 5.92L43.72 8.25C44.63 7.76 46.37 7.07 47.94 7.07C49.61 7.07 51.08 7.78 51.08 10.07C51.08 11.71 50.15 12.72 48.53 13.92L46.27 15.62C43.84 17.46 42.81 18.98 42.81 20.89ZM55.20 22.05C56.14 22.59 58.05 23.50 60.58 23.50C64.93 23.50 67.23 20.82 67.23 17.58C67.23 15.30 66.10 13.70 64.24 13.06C65.76 12.35 67.01 11.20 67.01 8.94C67.01 6.24 65.24 4.30 61.51 4.30C59.25 4.30 56.87 5.01 55.13 5.99L56.26 8.52C57.41 7.81 59.06 7.14 60.85 7.14C62.81 7.14 63.62 7.93 63.62 9.45C63.62 11.51 61.95 12.28 60.01 12.28L58.35 12.28L58.35 14.98L60.48 14.98C62.37 14.98 63.92 15.57 63.92 17.55C63.92 19.27 62.79 20.57 60.36 20.57C58.52 20.57 56.85 19.86 56.14 19.49ZM70.81 23.30L74.25 23.30C74.25 19.54 74.32 18.34 75.70 16.30L77.37 13.82C80.02 9.89 80.36 8.79 80.36 6.58C80.36 5.79 80.29 5.08 80.22 4.52L68.28 4.52L68.28 7.29L76.97 7.29C76.97 7.51 76.95 7.73 76.93 7.95C76.78 8.84 76.31 9.70 74.96 11.71L73.56 13.80C71.28 17.19 70.81 18.86 70.81 23.30Z"/></g></g></svg>