<?xml version="1.0" encoding="iso-8859-1"?>
<!-- Generator: Adobe Illustrator 30.0.0, SVG Export Plug-In . SVG Version: 9.03 Build 0)  -->
<svg version="1.1" id="Calque_14" xmlns="http://www.w3.org/2000/svg" xmlns:xlink="http://www.w3.org/1999/xlink" x="0px" y="0px"
	 viewBox="0 0 76.546 25.512" style="enable-background:new 0 0 76.546 25.512;" xml:space="preserve">
<symbol  id="_x36_0" viewBox="-20.197 -12.756 40.394 25.512">
	<rect x="-20.197" y="-12.756" style="fill:#F59C00;" width="40.394" height="25.512"/>
	<path d="M-10.893-0.87c0,5.002,2.141,8.702,6.401,8.702c1.121,0,2.241-0.26,2.941-0.6l-0.7-2.081
		c-0.441,0.22-1.001,0.441-1.82,0.441c-2.24,0-3.801-1.6-4.041-5.061c0.54,0.341,1.86,0.961,3.301,0.961
		c1.62,0,3.861-0.78,3.861-4.081c0-3.081-1.941-5.241-4.981-5.241C-9.433-7.832-10.893-4.991-10.893-0.87 M-3.691-3.071
		c0,1.54-0.581,2.221-1.92,2.221c-0.76,0-1.701-0.22-2.501-0.66c0-2.801,0.66-4.202,2.361-4.202
		C-4.251-5.712-3.691-4.591-3.691-3.071"/>
	<path d="M0.151-0.03c0,3.922,1.06,7.863,5.361,7.863c4.321,0,5.382-3.941,5.382-7.863c0-4.121-0.761-7.801-5.382-7.801
		C0.912-7.832,0.151-4.151,0.151-0.03 M8.094-0.25c0,3.221-0.5,5.641-2.581,5.641c-2.06,0-2.561-2.421-2.561-5.641
		c0-3.781,0.861-5.242,2.561-5.242C7.233-5.491,8.094-4.031,8.094-0.25"/>
</symbol>
<symbol  id="A" viewBox="-12.756 -12.756 25.512 25.512">
	<g id="Calque_1_00000158725969811504327620000014881898020166697151_">
		<rect x="-12.756" y="-12.756" style="fill:#E8308A;" width="25.512" height="25.512"/>
		<path style="fill:#FFFFFF;" d="M-2.063,8.483h4.014L7.163-8.483H3.97l-1.13,3.991h-5.7l-1.153-3.991h-3.15L-2.063,8.483z
			 M2.195-2.162L0.333,4.38c-0.244,0.843-0.2,0.887-0.288,1.597h-0.067c-0.067-0.554-0.023-0.732-0.332-1.774l-1.863-6.366H2.195z"
			/>
	</g>
</symbol>
<symbol  id="B" viewBox="-12.756 -12.756 25.512 25.512">
	<g id="Calque_1_00000083781533897479573120000000688101361671975088_">
		<rect x="-12.756" y="-12.756" style="fill:#0075BF;" width="25.512" height="25.512"/>
		<path style="fill:#FFFFFF;" d="M-5.866,8.482h6.054c3.637,0,4.879-1.863,4.879-4.102c0-1.996-1.131-3.105-2.262-3.526
			c1.552-0.31,3.06-1.597,3.06-4.125c0-3.172-2.462-5.211-5.854-5.211h-5.877V8.482z M-0.676,1.342c1.641,0,3.016,0.71,3.016,2.461
			c0,1.309-0.842,2.351-2.816,2.351H-2.96V1.342H-0.676z M-0.277-6.176c1.508,0,3.172,0.71,3.172,2.772
			c0,1.774-0.887,2.639-2.684,2.639H-2.96v-5.411H-0.277z"/>
	</g>
</symbol>
<symbol  id="C" viewBox="-12.756 -12.756 25.512 25.512">
	<g id="Calque_1_00000091728206173711227540000018296265496321648513_">
		<rect x="-12.756" y="-12.756" style="fill:#EC6608;" width="25.512" height="25.512"/>
		<path style="fill:#FFFFFF;" d="M2.251,8.483c1.899,0,2.988-0.342,4.012-0.661L5.452,5.282C4.577,5.623,3.489,6.007,1.995,6.007
			c-3.051,0-5.378-2.07-5.378-6.082c0-4.524,2.71-5.954,5.463-5.954c1.622,0,2.475,0.256,3.542,0.598L6.37-7.138
			c-1.28-0.811-3.158-1.345-5.164-1.345c-3.799,0-7.576,2.284-7.576,8.237C-6.37,4.983-3.19,8.483,2.251,8.483"/>
	</g>
</symbol>
<symbol  id="C204" viewBox="-20.197 -12.755 40.394 25.511">
	<rect x="-20.197" y="-12.755" style="fill:#2699D6;" width="40.394" height="25.511"/>
	<path style="fill:#FFFFFF;" d="M-16.615-5.691c0,1.561,0.84,2.801,2.821,4.301l1.841,1.38c1.32,0.98,2.08,1.801,2.08,3.141
		c0,1.86-1.2,2.441-2.561,2.441c-1.28,0-2.7-0.561-3.441-0.961l-0.879,1.901c1.401,0.841,3.161,1.32,4.521,1.32
		c3.04,0,5.161-1.54,5.161-4.341c0-2.501-1.02-3.681-2.98-5.161l-2.221-1.66c-1.22-0.921-1.34-1.44-1.38-2.081h6.822v-2.24h-9.783
		V-5.691z"/>
	<path style="fill:#FFFFFF;" d="M-5.491-0.029c0,3.921,1.06,7.862,5.361,7.862c4.321,0,5.382-3.941,5.382-7.862
		c0-4.121-0.761-7.802-5.382-7.802C-4.731-7.832-5.491-4.15-5.491-0.029 M2.451-0.249c0,3.221-0.5,5.641-2.581,5.641
		c-2.06,0-2.56-2.42-2.56-5.641c0-3.781,0.861-5.242,2.56-5.242C1.591-5.491,2.451-4.03,2.451-0.249"/>
	<path style="fill:#FFFFFF;" d="M5.934-2.61l5.301,10.262h3.581V-2.71h1.94v-2.22h-1.94v-2.721h-2.521v2.721H5.934V-2.61z
		 M12.295-2.71v8.282c-0.14-0.54-0.5-1.341-1.04-2.381L8.234-2.71H12.295z"/>
</symbol>
<symbol  id="CONTOUR_x5F_BLANC_x5F_DIR" viewBox="-28.249 -12.756 56.498 25.512">
	<path style="fill:#FFFFFF;" d="M-24.604,12.756l-0.54-0.817c-0.127-0.192-3.105-4.779-3.105-11.939
		c0-7.165,2.979-11.747,3.105-11.939l0.54-0.817h52.853v25.511L-24.604,12.756z"/>
</symbol>
<symbol  id="CONTOUR_x5F_BLANC_x5F_JALONS" viewBox="-19.26 -9.219 38.52 18.438">
	<path style="fill:#FFFFFF;" d="M-17.064-8.236C-17.154-8.096-19.26-4.77-19.26,0c0,4.77,2.106,8.097,2.196,8.236l0.629,0.983H19.26
		V-9.219l-35.694,0L-17.064-8.236z"/>
</symbol>
<symbol  id="D" viewBox="-12.756 -12.756 25.512 25.512">
	<g id="Calque_1_00000036930469899030240440000005679166690285022107_">
		<rect x="-12.756" y="-12.756" style="fill:#009E3D;" width="25.512" height="25.512"/>
		<path style="fill:#FFFFFF;" d="M-7.153,8.482h6.099c4.28,0,8.205-1.951,8.205-8.072c0-6.321-3.969-8.893-9.092-8.893h-5.212V8.482
			z M-2.14-6.043c3.482,0,6.32,1.463,6.32,6.099c0,3.925-1.907,5.966-5.478,5.966h-2.95V-6.043H-2.14z"/>
	</g>
</symbol>
<symbol  id="F1" viewBox="-12.756 -12.756 25.512 25.512">
	<g id="Calque_1_00000083786040168785672920000003344507815433241473_">
		<rect x="-12.756" y="-12.756" style="fill:#992358;" width="25.512" height="25.512"/>
		<polygon style="fill:#FFFFFF;" points="-4.924,-6.154 -0.689,-6.154 -0.689,5.645 -4.614,3.427 -5.677,5.49 -0.2,8.483 
			2.284,8.483 2.284,-6.154 5.677,-6.154 5.677,-8.483 -4.924,-8.483 		"/>
	</g>
</symbol>
<symbol  id="F2" viewBox="-12.756 -12.756 25.512 25.512">
	<g id="Calque_1_00000041993135430033670610000012196855718481631113_">
		<rect x="-12.756" y="-12.756" style="fill:#006F9E;" width="25.512" height="25.512"/>
		<path style="fill:#FFFFFF;" d="M-5.282-6.335c0,1.71,0.921,3.069,3.09,4.713l2.016,1.512c1.448,1.074,2.279,1.973,2.279,3.441
			c0,2.039-1.314,2.674-2.806,2.674c-1.403,0-2.959-0.614-3.769-1.052l-0.964,2.082c1.533,0.921,3.462,1.446,4.953,1.446
			c3.332,0,5.656-1.687,5.656-4.757c0-2.74-1.117-4.032-3.266-5.655l-2.433-1.819c-1.337-1.008-1.469-1.579-1.513-2.28h7.475v-2.455
			H-5.282V-6.335z"/>
	</g>
</symbol>
<symbol  id="Mode_x5F_Chronobus" viewBox="-15.949 -12.756 31.899 25.512">
	<g id="Mode_Bus_00000147193251677067530740000001353217016770213517_">
	</g>
	<g id="Mode_x5F_Tramway_00000063623289279138206850000010369882909605591958_">
	</g>
	<g id="Calque_1_00000037668088488732419650000015568654804761713319_">
		<path style="fill:#E30613;" d="M-12.677,12.756c0,0-3.272-4.945-3.272-12.756c0-7.818,3.272-12.756,3.272-12.756h28.627v25.512
			H-12.677z"/>
		<path style="fill:#FFFFFF;" d="M3.889,8.824c1.909,0,3.418-0.4,4.44-0.799L7.395,4.983C6.396,5.471,5.288,5.715,3.934,5.715
			c-2.775,0-5.439-1.863-5.439-5.903c0-4.53,2.975-5.705,5.417-5.705c1.665,0,2.463,0.4,3.574,0.799l0.909-2.33
			c-1.554-0.911-3.373-1.4-5.394-1.4c-3.906,0-8.123,2.176-8.123,8.591C-5.123,5.227-1.706,8.824,3.889,8.824"/>
	</g>
</symbol>
<symbol  id="Mode_x5F_TB" viewBox="-15.95 -12.756 31.899 25.512">
	<g id="Mode_Bus_00000163040498212230237770000010190000719442625956_">
	</g>
	<g id="Mode_x5F_Tramway_00000091731036192803945210000011303131431970850440_">
	</g>
	<g id="Mode_x5F_Bus_00000121992495412953178610000012796628706800309949_">
	</g>
	<g id="Calque_1_00000023257970876027067420000006172322112164316827_">
		<g>
			<path style="fill:#E30613;" d="M-12.68,12.756c0,0-3.27-4.946-3.27-12.757c0-7.815,3.27-12.755,3.27-12.755H15.95v25.512H-12.68z
				"/>
			<polygon style="fill:#FFFFFF;" points="-2.657,5.957 -7.122,5.957 -7.122,8.455 4.703,8.455 4.703,5.957 0.238,5.957 
				0.238,-8.455 -2.657,-8.455 			"/>
			<path style="fill:#FFFFFF;" d="M3.308,1.789h3.656c2.196,0,2.946-1.124,2.946-2.477c0-1.205-0.684-1.875-1.367-2.129
				c0.938-0.187,1.848-0.964,1.848-2.491c0-1.914-1.487-3.147-3.535-3.147H3.308V1.789z M6.441-2.522
				c0.991,0,1.821,0.429,1.821,1.487c0,0.79-0.508,1.419-1.7,1.419H5.061v-2.906H6.441z M6.682-7.062
				c0.911,0,1.915,0.428,1.915,1.674c0,1.071-0.535,1.594-1.621,1.594H5.061v-3.268H6.682z"/>
		</g>
	</g>
</symbol>
<symbol  id="Mode_x5F_Tramway" viewBox="-15.95 -12.756 31.899 25.512">
	<g id="Mode_Bus_00000018212062362273960660000007766882576741317001_">
	</g>
	<g id="Calque_1_00000136409070200790557830000013637793800163927230_">
		<g>
			<path style="fill:#E30613;" d="M-12.68,12.756c0,0-3.27-4.946-3.27-12.757c0-7.815,3.27-12.755,3.27-12.755H15.95v25.512H-12.68z
				"/>
			<polygon style="fill:#FFFFFF;" points="-0.057,5.365 -5.457,5.365 -5.457,8.533 8.731,8.533 8.731,5.365 3.333,5.365 
				3.333,-8.533 -0.057,-8.533 			"/>
		</g>
	</g>
</symbol>
<symbol  id="RX" viewBox="-12.757 -12.756 25.513 25.512">
	<g id="Mode_Isolation_00000163761669885392327640000004105207971259903927_">
	</g>
	<g id="Calque_1_00000086665025559727126320000007568499573254998160_">
		<rect x="-12.757" y="-12.756" style="fill:#E30613;" width="25.513" height="25.512"/>
		<path style="fill:#FFFFFF;" d="M1.43-1.653l7.684-2.351v1.05L1.43,3.06v4.586c0,0.6-0.621,1.926-1.385,1.926
			c-0.759,0-1.38-1.326-1.38-1.926V3.129l-7.778-6.084v-1.05l7.789,2.384v-2.613c0-0.774,0.011-1.464,0.106-2.017L-4.71-8.613
			v-0.959l4.712,1.625l4.712-1.625v0.959L1.313-6.309C1.408-5.745,1.43-5.029,1.43-4.234V-1.653z"/>
	</g>
</symbol>
<symbol  id="RX_x5F_jalon" viewBox="-19.26 -9.219 38.52 18.438">
	
		<use xlink:href="#CONTOUR_x5F_BLANC_x5F_JALONS"  width="38.52" height="18.438" x="-19.26" y="-9.219" style="overflow:visible;"/>
	<g>
		
			<use xlink:href="#Mode_x5F_Tramway"  width="31.899" height="25.512" x="-15.95" y="-12.756" transform="matrix(0.5556 0 0 0.5556 -8.2668 0)" style="overflow:visible;"/>
		
			<use xlink:href="#RX"  width="25.513" height="25.512" x="-12.757" y="-12.756" transform="matrix(0.5556 0 0 0.5556 10.0407 2.882192e-04)" style="overflow:visible;"/>
	</g>
</symbol>
<symbol  id="Relais_x5F_Bus" viewBox="-20.243 -12.756 40.394 25.512">
	<rect x="-20.243" y="-12.756" style="fill:#FDC300;" width="40.394" height="25.512"/>
	<path d="M-16.639,9.509h3.557c1.558,0,2.76-0.785,2.76-2.49c0-1.018-0.417-1.987-1.581-2.514l2.109-4.378h-1.901l-1.815,4.059
		h-1.509V0.127h-1.62V9.509z M-13.695,5.498c1.079,0,1.705,0.392,1.705,1.399c0,0.968-0.626,1.324-1.508,1.324h-1.51V5.498H-13.695z
		"/>
	<path d="M-6.029,6.492c1.57,0,2.661-0.981,2.661-2.71c0-0.282-0.012-0.539-0.037-0.81h-3.998c0-1.128,0.711-1.644,1.84-1.644
		c0.674,0,1.215,0.16,1.644,0.357l0.441-0.846c-0.711-0.54-1.582-0.822-2.587-0.822c-1.89,0-2.969,1.178-2.969,3.165
		C-9.034,5.142-7.857,6.492-6.029,6.492 M-4.95,4.064c-0.049,0.613-0.283,1.287-1.116,1.287c-0.663,0-1.19-0.466-1.288-1.287H-4.95z
		"/>
	<path d="M-1.81,9.509h1.545V2.15c0-0.674,0.356-0.773,0.859-0.735V0.212C0.337,0.127,0.004,0.015-0.473,0.015
		c-0.81,0-1.337,0.368-1.337,1.742V9.509z"/>
	<path d="M3.255,3.377l1.547,0.356v0.429c0,0.761-0.295,1.031-0.884,1.031c-0.528,0-1.202-0.209-1.631-0.418L1.893,5.866
		c0.65,0.393,1.423,0.626,2.208,0.626c1.472,0,2.33-0.711,2.33-2.073V1.843c0-0.441,0.11-0.589,0.601-0.515V0.262
		c-0.27-0.086-0.625-0.197-1.104-0.197c-0.601,0-0.834,0.27-1.005,0.539c-0.442-0.368-0.92-0.589-1.559-0.589
		c-0.967,0-1.766,0.491-1.766,1.558C1.599,2.578,2.102,3.107,3.255,3.377 M3.991,0.984c0.331,0,0.576,0.086,0.81,0.209v1.631
		L3.93,2.567C3.451,2.42,3.144,2.248,3.144,1.734C3.144,1.206,3.538,0.984,3.991,0.984"/>
	<path d="M8.075,8.528c0,0.589,0.492,1.079,1.117,1.079c0.65,0,1.128-0.491,1.128-1.079c0-0.565-0.478-1.044-1.128-1.044
		C8.567,7.485,8.075,7.963,8.075,8.528 M8.383,6.333h1.631V0.127H8.383V6.333z"/>
	<path d="M11.866,1.671c0.367-0.196,1.005-0.503,1.729-0.503c0.466,0,0.896,0.173,0.896,0.627c0,0.405-0.259,0.552-0.835,0.785
		l-0.76,0.307c-0.687,0.282-1.337,0.698-1.337,1.644c0,1.581,1.398,1.961,2.379,1.961c0.944,0,1.471-0.184,1.864-0.355l-0.466-1.251
		c-0.381,0.246-0.883,0.417-1.35,0.417c-0.453,0-0.944-0.135-0.944-0.589c0-0.344,0.232-0.467,0.725-0.663l0.747-0.307
		c0.809-0.33,1.349-0.821,1.349-1.717c0-1.57-1.349-2.012-2.306-2.012c-0.969,0-1.557,0.246-2.085,0.527L11.866,1.671z"/>
	<path d="M-17.034-3.459h2.225c1.337,0,1.793-0.684,1.793-1.508c0-0.734-0.416-1.141-0.832-1.296
		c0.571-0.114,1.125-0.587,1.125-1.516c0-1.165-0.905-1.915-2.151-1.915h-2.16V-3.459z M-15.127-6.083
		c0.603,0,1.108,0.26,1.108,0.905c0,0.481-0.31,0.864-1.035,0.864h-0.913v-1.768H-15.127z M-14.98-8.846
		c0.554,0,1.165,0.261,1.165,1.019c0,0.652-0.325,0.97-0.986,0.97h-1.165v-1.989H-14.98z"/>
	<path d="M-11.615-5.57h1.068v-2.543c0-0.432,0.114-0.766,0.587-0.766c0.252,0,0.481,0.13,0.619,0.335
		c0.106,0.147,0.163,0.334,0.163,0.546v2.429h1.084v-4.124h-1.027l-0.041,0.53c-0.245-0.359-0.627-0.603-1.174-0.603
		c-0.823,0-1.279,0.595-1.279,1.491V-5.57z"/>
	<path d="M-6.896-8.667c0.245-0.13,0.668-0.334,1.149-0.334c0.31,0,0.595,0.114,0.595,0.415c0,0.269-0.171,0.367-0.554,0.522
		L-6.212-7.86c-0.456,0.187-0.888,0.465-0.888,1.092c0,1.051,0.929,1.304,1.581,1.304c0.627,0,0.978-0.122,1.239-0.237l-0.31-0.831
		c-0.253,0.163-0.587,0.277-0.897,0.277c-0.302,0-0.627-0.089-0.627-0.391c0-0.228,0.155-0.31,0.481-0.44l0.497-0.204
		c0.538-0.22,0.897-0.546,0.897-1.141c0-1.043-0.897-1.336-1.532-1.336c-0.644,0-1.035,0.163-1.385,0.35L-6.896-8.667z"/>
</symbol>
<symbol  id="Relais_x5F_Funiculaire" viewBox="-20.205 -12.756 40.394 25.512">
	<g>
		<rect x="-20.205" y="-12.756" style="fill:#FDC300;" width="40.394" height="25.512"/>
		<path d="M-16.639,9.509h3.557c1.558,0,2.76-0.785,2.76-2.49c0-1.018-0.417-1.987-1.582-2.515l2.109-4.378h-1.901l-1.815,4.059
			h-1.508V0.127h-1.62V9.509z M-13.695,5.499c1.08,0,1.705,0.392,1.705,1.398c0,0.969-0.625,1.325-1.508,1.325h-1.509V5.499H-13.695
			z"/>
		<path d="M-6.029,6.492c1.57,0,2.662-0.981,2.662-2.71c0-0.282-0.012-0.539-0.037-0.81h-3.998c0-1.128,0.711-1.644,1.84-1.644
			c0.675,0,1.215,0.16,1.644,0.357l0.441-0.846C-4.19,0.298-5.06,0.015-6.065,0.015c-1.89,0-2.969,1.178-2.969,3.166
			C-9.034,5.143-7.857,6.492-6.029,6.492 M-4.95,4.064c-0.049,0.613-0.283,1.287-1.116,1.287c-0.663,0-1.19-0.466-1.288-1.287H-4.95
			z"/>
		<path d="M-1.81,9.51h1.545V2.15c0-0.675,0.356-0.773,0.859-0.735V0.212C0.337,0.127,0.005,0.015-0.473,0.015
			c-0.81,0-1.337,0.368-1.337,1.742V9.51z"/>
		<path d="M3.255,3.377l1.546,0.356v0.429c0,0.761-0.295,1.031-0.884,1.031c-0.528,0-1.202-0.208-1.631-0.418L1.894,5.866
			c0.65,0.393,1.423,0.626,2.208,0.626c1.472,0,2.33-0.711,2.33-2.073V1.843c0-0.441,0.11-0.589,0.601-0.515V0.262
			c-0.27-0.086-0.625-0.197-1.104-0.197c-0.601,0-0.834,0.27-1.005,0.539c-0.442-0.368-0.92-0.589-1.559-0.589
			c-0.968,0-1.766,0.491-1.766,1.558C1.599,2.579,2.102,3.107,3.255,3.377 M3.991,0.985c0.331,0,0.576,0.086,0.81,0.208v1.632
			L3.93,2.567C3.451,2.421,3.145,2.249,3.145,1.734C3.145,1.206,3.538,0.985,3.991,0.985"/>
		<path d="M8.076,8.529c0,0.589,0.491,1.079,1.117,1.079c0.65,0,1.128-0.49,1.128-1.079c0-0.565-0.478-1.044-1.128-1.044
			C8.567,7.485,8.076,7.963,8.076,8.529 M8.383,6.333h1.631V0.127H8.383V6.333z"/>
		<path d="M11.866,1.672c0.367-0.196,1.005-0.504,1.729-0.504c0.466,0,0.895,0.173,0.895,0.627c0,0.405-0.259,0.552-0.835,0.785
			l-0.76,0.307c-0.687,0.282-1.337,0.698-1.337,1.644c0,1.581,1.398,1.962,2.379,1.962c0.944,0,1.472-0.184,1.865-0.355
			l-0.466-1.252c-0.381,0.246-0.883,0.417-1.35,0.417c-0.454,0-0.944-0.135-0.944-0.589c0-0.343,0.233-0.467,0.725-0.662
			l0.747-0.307c0.81-0.331,1.35-0.822,1.35-1.717c0-1.57-1.35-2.011-2.306-2.011c-0.969,0-1.557,0.246-2.085,0.527L11.866,1.672z"/>
	</g>
	<g>
		<polygon points="-16.598,-3.896 -13.713,-3.896 -13.713,-4.678 -15.692,-4.678 -15.692,-6.124 -13.823,-6.124 -13.823,-6.885 
			-15.692,-6.885 -15.692,-9.189 -16.598,-9.189 		"/>
		<path d="M-13.136-5.688h0.906v-2.159c0-0.367,0.097-0.651,0.498-0.651c0.215,0,0.408,0.111,0.526,0.284
			c0.09,0.125,0.139,0.284,0.139,0.464v2.061h0.921v-3.501h-0.872l-0.035,0.45c-0.207-0.304-0.533-0.512-0.996-0.512
			c-0.699,0-1.086,0.505-1.086,1.266V-5.688z"/>
		<path d="M-9.135-5.688h0.872l0.035-0.429c0.284,0.353,0.643,0.519,1.072,0.519c0.699,0,1.134-0.477,1.134-1.225v-2.366h-0.92
			v2.075c0,0.457-0.117,0.761-0.54,0.761c-0.187,0-0.353-0.076-0.484-0.194c-0.152-0.138-0.249-0.346-0.249-0.54v-2.103h-0.92
			V-5.688z"/>
		<path d="M-5.237-4.449c0,0.332,0.277,0.608,0.63,0.608c0.367,0,0.637-0.277,0.637-0.608c0-0.319-0.27-0.588-0.637-0.588
			C-4.96-5.037-5.237-4.768-5.237-4.449 M-5.064-5.688h0.92v-3.501h-0.92V-5.688z"/>
		<path d="M-1.52-5.598c0.381,0,0.713-0.083,0.879-0.152l-0.187-0.789c-0.166,0.097-0.38,0.187-0.657,0.187
			c-0.463,0-0.962-0.284-0.962-1.156c0-0.768,0.36-0.996,0.996-0.996c0.298,0,0.512,0.069,0.72,0.145l0.18-0.499
			c-0.291-0.186-0.657-0.394-1.225-0.394c-0.844,0-1.591,0.499-1.591,1.778C-3.367-6.214-2.538-5.598-1.52-5.598"/>
		<path d="M0.198-5.688h0.906v-2.159c0-0.367,0.097-0.651,0.498-0.651c0.215,0,0.408,0.111,0.526,0.284
			c0.09,0.125,0.138,0.284,0.138,0.464v2.061h0.921v-3.501H2.315L2.28-8.74C2.073-9.044,1.747-9.252,1.284-9.252
			c-0.699,0-1.086,0.505-1.086,1.266V-5.688z"/>
		<path d="M4.199-3.896h0.872v-4.152c0-0.38,0.2-0.436,0.484-0.415v-0.678C5.41-9.189,5.223-9.252,4.953-9.252
			c-0.457,0-0.754,0.208-0.754,0.983V-3.896z"/>
		<path d="M7.058-7.355l0.872,0.2v0.243c0,0.429-0.166,0.581-0.499,0.581c-0.297,0-0.678-0.118-0.92-0.235L6.29-5.951
			c0.366,0.221,0.802,0.353,1.245,0.353c0.83,0,1.315-0.401,1.315-1.17V-8.22c0-0.249,0.062-0.332,0.339-0.29v-0.603
			c-0.152-0.048-0.353-0.11-0.622-0.11c-0.339,0-0.471,0.152-0.567,0.304C7.75-9.127,7.48-9.252,7.12-9.252
			c-0.547,0-0.997,0.277-0.997,0.879C6.123-7.805,6.407-7.508,7.058-7.355 M7.473-8.705c0.187,0,0.325,0.049,0.457,0.117v0.921
			L7.438-7.812c-0.27-0.083-0.443-0.18-0.443-0.47C6.996-8.58,7.217-8.705,7.473-8.705"/>
		<path d="M9.779-4.449c0,0.332,0.277,0.608,0.63,0.608c0.367,0,0.637-0.277,0.637-0.608c0-0.319-0.27-0.588-0.637-0.588
			C10.056-5.037,9.779-4.768,9.779-4.449 M9.952-5.688h0.92v-3.501h-0.92V-5.688z"/>
		<path d="M11.911-5.688h0.872l0.035-0.463c0.352,0.429,0.754,0.553,1.1,0.553c0.221,0,0.353-0.048,0.471-0.103l-0.284-0.796
			c-0.111,0.076-0.228,0.145-0.443,0.145c-0.47,0-0.83-0.408-0.83-0.796v-2.041h-0.92V-5.688z"/>
		<path d="M15.981-5.598c0.886,0,1.502-0.554,1.502-1.529c0-0.159-0.007-0.305-0.021-0.457h-2.256c0-0.637,0.401-0.927,1.038-0.927
			c0.381,0,0.685,0.09,0.927,0.201l0.249-0.478c-0.401-0.304-0.892-0.464-1.46-0.464c-1.066,0-1.674,0.665-1.674,1.786
			C14.286-6.359,14.95-5.598,15.981-5.598 M16.59-6.968c-0.027,0.346-0.159,0.727-0.63,0.727c-0.374,0-0.671-0.263-0.727-0.727
			H16.59z"/>
	</g>
</symbol>
<symbol  id="Relais_x5F_M&#xE9;tro" viewBox="-20.205 -12.756 40.394 25.512">
	<rect x="-20.205" y="-12.756" style="fill:#FDC300;" width="40.394" height="25.512"/>
	<path d="M-16.639,9.509h3.557c1.558,0,2.76-0.785,2.76-2.49c0-1.018-0.417-1.987-1.582-2.515l2.109-4.378h-1.901l-1.815,4.059
		h-1.508V0.127h-1.62V9.509z M-13.695,5.499c1.08,0,1.705,0.392,1.705,1.398c0,0.969-0.625,1.325-1.508,1.325h-1.509V5.499H-13.695z
		"/>
	<path d="M-6.029,6.492c1.57,0,2.662-0.981,2.662-2.71c0-0.282-0.012-0.539-0.037-0.81h-3.998c0-1.128,0.711-1.644,1.84-1.644
		c0.675,0,1.215,0.16,1.644,0.357l0.441-0.846C-4.19,0.298-5.06,0.015-6.065,0.015c-1.89,0-2.969,1.178-2.969,3.166
		C-9.034,5.143-7.857,6.492-6.029,6.492 M-4.95,4.064c-0.049,0.613-0.283,1.287-1.116,1.287c-0.663,0-1.19-0.466-1.288-1.287H-4.95z
		"/>
	<path d="M-1.81,9.51h1.545V2.15c0-0.675,0.356-0.773,0.859-0.735V0.212C0.337,0.127,0.005,0.015-0.473,0.015
		c-0.81,0-1.337,0.368-1.337,1.742V9.51z"/>
	<path d="M3.255,3.377l1.546,0.356v0.429c0,0.761-0.295,1.031-0.884,1.031c-0.528,0-1.202-0.208-1.631-0.418L1.894,5.866
		c0.65,0.393,1.423,0.626,2.208,0.626c1.472,0,2.33-0.711,2.33-2.073V1.843c0-0.441,0.11-0.589,0.601-0.515V0.262
		c-0.27-0.086-0.625-0.197-1.104-0.197c-0.601,0-0.834,0.27-1.005,0.539c-0.442-0.368-0.92-0.589-1.559-0.589
		c-0.968,0-1.766,0.491-1.766,1.558C1.599,2.579,2.102,3.107,3.255,3.377 M3.991,0.985c0.331,0,0.576,0.086,0.81,0.208v1.632
		L3.93,2.567C3.451,2.421,3.145,2.249,3.145,1.734C3.145,1.206,3.538,0.985,3.991,0.985"/>
	<path d="M8.076,8.529c0,0.589,0.491,1.079,1.117,1.079c0.65,0,1.128-0.49,1.128-1.079c0-0.565-0.478-1.044-1.128-1.044
		C8.567,7.485,8.076,7.963,8.076,8.529 M8.383,6.333h1.631V0.127H8.383V6.333z"/>
	<path d="M11.866,1.672c0.367-0.196,1.005-0.504,1.729-0.504c0.466,0,0.895,0.173,0.895,0.627c0,0.405-0.259,0.552-0.835,0.785
		l-0.76,0.307c-0.687,0.282-1.337,0.698-1.337,1.644c0,1.581,1.398,1.962,2.379,1.962c0.944,0,1.472-0.184,1.865-0.355l-0.466-1.252
		c-0.381,0.246-0.883,0.417-1.35,0.417c-0.454,0-0.944-0.135-0.944-0.589c0-0.343,0.233-0.467,0.725-0.662l0.747-0.307
		c0.81-0.331,1.35-0.822,1.35-1.717c0-1.57-1.35-2.011-2.306-2.011c-0.969,0-1.557,0.246-2.085,0.527L11.866,1.672z"/>
	<path d="M-16.819-3.459h1.476l1.345-4.328c0.082-0.264,0.115-0.446,0.123-0.661h0.026c0.015,0.214,0.032,0.372,0.123,0.661
		l1.345,4.328h1.476l0.214-6.307h-1.178l-0.042,4.527l-0.206-0.684l-1.154-3.843h-1.179l-1.178,3.933l-0.183,0.594l-0.04-4.527
		h-1.18L-16.819-3.459z"/>
	<path d="M-7.636-5.487c1.056,0,1.789-0.661,1.789-1.823c0-0.189-0.008-0.363-0.024-0.544h-2.688c0-0.758,0.477-1.105,1.237-1.105
		c0.453,0,0.815,0.107,1.104,0.239l0.297-0.568C-6.399-9.651-6.984-9.84-7.66-9.84c-1.269,0-1.995,0.791-1.995,2.127
		C-9.656-6.395-8.864-5.487-7.636-5.487 M-6.91-7.12c-0.032,0.412-0.189,0.866-0.75,0.866c-0.446,0-0.8-0.314-0.866-0.866H-6.91z
		 M-7.265-3.459h1.269l-1.211-1.402h-0.932L-7.265-3.459z"/>
	<path d="M-4.487-6.395h-0.857v0.619l0.873,0.189l0.289,1.26h0.792v-1.269h1.368v-0.8h-1.368v-1.682
		c0-0.766,0.346-0.898,0.684-0.898c0.288,0,0.585,0.074,0.701,0.116v-0.693C-2.211-9.685-2.54-9.841-3.027-9.841
		c-0.874,0-1.459,0.502-1.459,1.467V-6.395z"/>
	<path d="M-1.107-5.595h1.039l0.041-0.552c0.42,0.511,0.899,0.659,1.311,0.659c0.263,0,0.42-0.058,0.561-0.123L1.507-6.559
		C1.375-6.469,1.235-6.386,0.98-6.386c-0.561,0-0.99-0.487-0.99-0.949v-2.431h-1.097V-5.595z"/>
	<path d="M3.98-5.488C5.176-5.488,6-6.313,6-7.639c0-1.468-0.922-2.201-2.02-2.201c-1.088,0-2.012,0.717-2.012,2.201
		C1.968-6.313,2.793-5.488,3.98-5.488 M4.92-7.639c0,0.799-0.337,1.336-0.94,1.336c-0.601,0-0.931-0.536-0.931-1.336
		c0-0.94,0.428-1.377,0.931-1.377C4.516-9.016,4.92-8.579,4.92-7.639"/>
</symbol>
<symbol  id="Relais_x5F_Tramway" viewBox="-20.243 -12.756 40.394 25.512">
	<rect x="-20.243" y="-12.756" style="fill:#FDC300;" width="40.394" height="25.512"/>
	<path d="M-16.636,9.507h3.556c1.557,0,2.759-0.784,2.759-2.489c0-1.018-0.417-1.987-1.582-2.514l2.109-4.378h-1.9l-1.815,4.059
		h-1.508V0.127h-1.619V9.507z M-13.692,5.498c1.08,0,1.705,0.392,1.705,1.398c0,0.968-0.625,1.325-1.508,1.325h-1.509V5.498H-13.692
		z"/>
	<path d="M-6.028,6.491c1.57,0,2.661-0.981,2.661-2.71c0-0.282-0.012-0.539-0.037-0.81h-3.997c0-1.128,0.711-1.643,1.84-1.643
		c0.675,0,1.215,0.16,1.644,0.356l0.441-0.846c-0.711-0.539-1.581-0.822-2.587-0.822c-1.89,0-2.968,1.178-2.968,3.164
		C-9.032,5.142-7.855,6.491-6.028,6.491 M-4.949,4.064c-0.049,0.613-0.283,1.287-1.116,1.287c-0.662,0-1.19-0.466-1.288-1.287
		H-4.949z"/>
	<path d="M-1.81,9.508h1.545V2.15c0-0.674,0.356-0.772,0.858-0.735V0.213C0.337,0.127,0.005,0.016-0.473,0.016
		c-0.809,0-1.337,0.368-1.337,1.742V9.508z"/>
	<path d="M3.255,3.377l1.546,0.355v0.429c0,0.76-0.295,1.03-0.883,1.03c-0.528,0-1.202-0.208-1.631-0.418L1.894,5.866
		c0.65,0.392,1.423,0.625,2.207,0.625c1.472,0,2.33-0.711,2.33-2.073V1.843c0-0.441,0.11-0.589,0.601-0.515V0.261
		c-0.27-0.086-0.625-0.196-1.103-0.196c-0.601,0-0.834,0.27-1.005,0.539c-0.442-0.368-0.92-0.589-1.558-0.589
		c-0.967,0-1.766,0.49-1.766,1.558C1.599,2.58,2.102,3.106,3.255,3.377 M3.991,0.985c0.331,0,0.576,0.086,0.81,0.208v1.631
		L3.929,2.567C3.451,2.42,3.144,2.248,3.144,1.733C3.144,1.206,3.537,0.985,3.991,0.985"/>
	<path d="M8.074,8.527c0,0.589,0.491,1.079,1.117,1.079c0.649,0,1.127-0.49,1.127-1.079c0-0.564-0.478-1.042-1.127-1.042
		C8.565,7.485,8.074,7.963,8.074,8.527 M8.381,6.332h1.63V0.127h-1.63V6.332z"/>
	<path d="M11.863,1.672c0.367-0.196,1.005-0.502,1.729-0.502c0.466,0,0.896,0.172,0.896,0.625c0,0.405-0.259,0.552-0.834,0.785
		l-0.76,0.306c-0.687,0.283-1.337,0.7-1.337,1.644c0,1.581,1.398,1.962,2.379,1.962c0.944,0,1.471-0.184,1.864-0.355l-0.466-1.251
		c-0.381,0.245-0.883,0.417-1.35,0.417c-0.454,0-0.944-0.135-0.944-0.588c0-0.343,0.232-0.467,0.724-0.662l0.747-0.307
		c0.809-0.331,1.349-0.821,1.349-1.716c0-1.57-1.349-2.012-2.305-2.012c-0.969,0-1.557,0.246-2.084,0.527L11.863,1.672z"/>
	<polygon points="-15.942,-4.39 -17.607,-4.39 -17.607,-3.458 -13.197,-3.458 -13.197,-4.39 -14.862,-4.39 -14.862,-9.764 
		-15.942,-9.764 	"/>
	<path d="M-12.481-5.594h1.038l0.041-0.552c0.42,0.511,0.899,0.659,1.312,0.659c0.263,0,0.42-0.058,0.56-0.123l-0.338-0.949
		c-0.131,0.09-0.272,0.174-0.527,0.174c-0.561,0-0.99-0.487-0.99-0.949v-2.431h-1.096V-5.594z"/>
	<path d="M-8.17-7.58l1.039,0.239v0.289c0,0.51-0.198,0.692-0.593,0.692c-0.355,0-0.808-0.14-1.096-0.279l-0.264,0.733
		c0.437,0.263,0.956,0.42,1.484,0.42c0.99,0,1.566-0.478,1.566-1.392V-8.61c0-0.297,0.074-0.395,0.404-0.346v-0.717
		c-0.181-0.058-0.421-0.132-0.742-0.132c-0.405,0-0.561,0.181-0.676,0.363C-7.345-9.69-7.666-9.838-8.095-9.838
		c-0.651,0-1.188,0.329-1.188,1.047C-9.283-8.115-8.944-7.761-8.17-7.58 M-7.675-9.187c0.222,0,0.387,0.058,0.544,0.14v1.096
		l-0.585-0.173c-0.321-0.099-0.527-0.214-0.527-0.561C-8.244-9.039-7.98-9.187-7.675-9.187"/>
	<path d="M-4.725-5.594h1.039l0.041-0.511c0.28,0.379,0.659,0.618,1.146,0.618c0.469,0,0.906-0.182,1.17-0.709
		c0.272,0.396,0.642,0.709,1.219,0.709c0.611,0,1.244-0.379,1.244-1.22v-3.058H0.056v2.712c0,0.404-0.115,0.668-0.495,0.668
		c-0.23,0-0.437-0.116-0.585-0.297c-0.139-0.164-0.223-0.379-0.223-0.585v-2.498h-1.08v2.696c0,0.396-0.107,0.684-0.486,0.684
		c-0.263,0-0.486-0.149-0.627-0.338c-0.123-0.165-0.188-0.354-0.188-0.527v-2.515h-1.097V-5.594z"/>
	<polygon points="1.836,-5.594 3.031,-5.594 3.633,-8.75 4.276,-5.594 5.586,-5.594 6.238,-8.75 6.857,-5.594 7.944,-5.594 
		6.864,-9.764 5.586,-9.764 4.903,-6.69 4.202,-9.764 2.916,-9.764 	"/>
	<path d="M9.641-7.58l1.039,0.239v0.289c0,0.51-0.197,0.692-0.593,0.692c-0.356,0-0.808-0.14-1.097-0.279L8.727-5.906
		c0.436,0.263,0.956,0.42,1.484,0.42c0.99,0,1.566-0.478,1.566-1.392V-8.61c0-0.297,0.074-0.395,0.404-0.346v-0.717
		c-0.182-0.058-0.421-0.132-0.742-0.132c-0.404,0-0.56,0.181-0.675,0.363c-0.297-0.248-0.619-0.396-1.047-0.396
		c-0.652,0-1.188,0.329-1.188,1.047C8.529-8.115,8.866-7.761,9.641-7.58 M10.136-9.187c0.222,0,0.387,0.058,0.544,0.14v1.096
		l-0.585-0.173C9.774-8.222,9.568-8.338,9.568-8.685C9.568-9.039,9.831-9.187,10.136-9.187"/>
	<path d="M12.931-10.621c0.693,0,1.005,0.256,1.22,0.857l-1.576,4.17h1.188l0.841-2.777l0.717,2.777h1.153l-1.433-4.244
		c-0.388-1.138-1.006-1.525-1.814-1.525c-0.312,0-0.42,0.008-0.585,0.033v0.725C12.75-10.613,12.839-10.621,12.931-10.621"/>
</symbol>
<symbol  id="T1" viewBox="-12.756 -12.755 25.511 25.511">
	<rect x="-12.756" y="-12.755" style="fill:#004F9F;" width="25.511" height="25.511"/>
	<polygon style="fill:#FFFFFF;" points="-4.442,-5.553 -0.621,-5.553 -0.621,5.092 -4.162,3.091 -5.123,4.953 -0.18,7.654 
		2.061,7.654 2.061,-5.553 5.123,-5.553 5.123,-7.654 -4.442,-7.654 	"/>
</symbol>
<symbol  id="T10" viewBox="-12.756 -12.756 25.512 25.512">
	<rect x="-12.756" y="-12.756" style="fill:#D3D800;" width="25.512" height="25.512"/>
	<polygon points="-10.181,-5.552 -6.359,-5.552 -6.359,5.092 -9.901,3.092 -10.861,4.953 -5.919,7.654 -3.678,7.654 -3.678,-5.552 
		-0.617,-5.552 -0.617,-7.653 -10.181,-7.653 	"/>
	<path d="M0.339-0.029c0,3.867,1.045,7.754,5.287,7.754c4.261,0,5.307-3.887,5.307-7.754c0-4.064-0.75-7.695-5.307-7.695
		C1.089-7.724,0.339-4.093,0.339-0.029 M8.171-0.246c0,3.176-0.494,5.564-2.545,5.564C3.593,5.318,3.1,2.93,3.1-0.246
		c0-3.729,0.849-5.169,2.526-5.169C7.323-5.415,8.171-3.975,8.171-0.246"/>
</symbol>
<symbol  id="T1_x5F_jalon" viewBox="-19.26 -9.219 38.52 18.438">
	
		<use xlink:href="#CONTOUR_x5F_BLANC_x5F_JALONS"  width="38.52" height="18.438" x="-19.26" y="-9.219" style="overflow:visible;"/>
	<g>
		
			<use xlink:href="#Mode_x5F_Tramway"  width="31.899" height="25.512" x="-15.95" y="-12.756" transform="matrix(0.5556 0 0 0.5556 -8.2665 0)" style="overflow:visible;"/>
		
			<use xlink:href="#T1"  width="25.511" height="25.511" x="-12.756" y="-12.755" transform="matrix(0.5556 0 0 0.5556 10.041 2.882192e-04)" style="overflow:visible;"/>
	</g>
</symbol>
<symbol  id="T2" viewBox="-12.756 -12.756 25.511 25.512">
	<rect x="-12.756" y="-12.756" style="fill:#6BA230;" width="25.511" height="25.512"/>
	<path style="fill:#FFFFFF;" d="M-4.781-5.71c0,1.548,0.833,2.778,2.798,4.266l1.825,1.369C1.151,0.897,1.905,1.71,1.905,3.04
		c0,1.845-1.19,2.42-2.539,2.42c-1.27,0-2.679-0.555-3.413-0.952l-0.873,1.885c1.389,0.833,3.135,1.309,4.484,1.309
		c3.016,0,5.119-1.527,5.119-4.305c0-2.48-1.012-3.651-2.956-5.119l-2.203-1.647c-1.21-0.912-1.329-1.428-1.368-2.064h6.765v-2.221
		h-9.702V-5.71z"/>
	<g id="T1_00000154391956980064184820000012687332469475700925_">
	</g>
</symbol>
<symbol  id="T2_x5F_jalon" viewBox="-19.26 -9.219 38.52 18.438">
	
		<use xlink:href="#CONTOUR_x5F_BLANC_x5F_JALONS"  width="38.52" height="18.438" id="XMLID_00000155111319358514861280000005467858961780067474_" x="-19.26" y="-9.219" style="overflow:visible;"/>
	<g>
		
			<use xlink:href="#Mode_x5F_Tramway"  width="31.899" height="25.512" x="-15.95" y="-12.756" transform="matrix(0.5556 0 0 0.5556 -8.2665 0)" style="overflow:visible;"/>
		
			<use xlink:href="#T2"  width="25.511" height="25.512" x="-12.756" y="-12.756" transform="matrix(0.5556 0 0 0.5556 10.041 2.882192e-04)" style="overflow:visible;"/>
	</g>
</symbol>
<symbol  id="T3" viewBox="-12.756 -12.755 25.511 25.511">
	<rect x="-12.756" y="-12.755" style="fill:#00A3A6;" width="25.511" height="25.511"/>
	<path style="fill:#FFFFFF;" d="M-4.087-4.546c0.577-0.299,1.929-0.877,3.42-0.877c1.969,0,2.883,1.057,2.883,2.452
		c0,1.615-1.253,2.093-2.784,2.093h-1.73v2.194h1.352c1.57,0,2.922,0.618,2.922,2.292c0,1.235-0.656,1.874-2.246,1.874
		c-1.452,0-2.784-0.538-3.72-1.116L-4.902,6.42c1.412,0.797,3.341,1.375,5.171,1.375c3.022,0,4.454-1.575,4.454-3.768
		c0-1.834-1.015-2.771-2.247-3.349C3.987,0.16,4.902-1.136,4.902-2.99c0-2.632-1.87-4.805-5.39-4.805
		c-2.048,0-3.599,0.738-4.355,1.176L-4.087-4.546z"/>
	<g id="T1_00000111881926142243161110000003110551882262205057_">
	</g>
</symbol>
<symbol  id="T3_x5F_jalon" viewBox="-19.26 -9.219 38.52 18.438">
	
		<use xlink:href="#CONTOUR_x5F_BLANC_x5F_JALONS"  width="38.52" height="18.438" x="-19.26" y="-9.219" style="overflow:visible;"/>
	<g>
		
			<use xlink:href="#Mode_x5F_Tramway"  width="31.899" height="25.512" x="-15.95" y="-12.756" transform="matrix(0.5556 0 0 0.5556 -8.2665 0)" style="overflow:visible;"/>
		
			<use xlink:href="#T3"  width="25.511" height="25.511" x="-12.756" y="-12.755" transform="matrix(0.5556 0 0 0.5556 10.041 2.882192e-04)" style="overflow:visible;"/>
	</g>
</symbol>
<symbol  id="T4" viewBox="-12.756 -12.756 25.511 25.512">
	<rect x="-12.756" y="-12.756" style="fill:#662483;" width="25.511" height="25.512"/>
	<path style="fill:#FFFFFF;" d="M-5.412-2.611l5.301,10.265h3.582V-2.711h1.941v-2.221H3.471v-2.722H0.95v2.722h-6.362V-2.611z
		 M0.95-2.711v8.283c-0.14-0.541-0.5-1.34-1.041-2.381l-3.02-5.902H0.95z"/>
	<g id="T1_00000183946175785329807190000005197201508851406500_">
	</g>
</symbol>
<symbol  id="T4_x5F_jalon" viewBox="-19.26 -9.219 38.52 18.438">
	
		<use xlink:href="#CONTOUR_x5F_BLANC_x5F_JALONS"  width="38.52" height="18.438" x="-19.26" y="-9.219" style="overflow:visible;"/>
	<g>
		
			<use xlink:href="#Mode_x5F_Tramway"  width="31.899" height="25.512" x="-15.95" y="-12.756" transform="matrix(0.5556 0 0 0.5556 -8.2665 0)" style="overflow:visible;"/>
		
			<use xlink:href="#T4"  width="25.511" height="25.512" x="-12.756" y="-12.756" transform="matrix(0.5556 0 0 0.5556 10.041 2.882192e-04)" style="overflow:visible;"/>
	</g>
</symbol>
<symbol  id="T5" viewBox="-12.756 -12.756 25.511 25.512">
	<rect x="-12.756" y="-12.756" style="fill:#EC6608;" width="25.511" height="25.512"/>
	<path style="fill:#FFFFFF;" d="M-4.225-4.96c0.953-0.337,2.361-0.635,3.433-0.635c2.003,0,3.015,1.052,3.015,2.877
		c0,1.766-0.952,2.421-2.778,2.421h-3.75l0.258,7.836h8.652V5.358h-6.072l-0.139-3.453h1.945c2.896,0,4.583-1.528,4.583-4.464
		c0-2.957-1.726-5.258-5.397-5.258c-1.826,0-3.393,0.575-4.286,0.992L-4.225-4.96z"/>
</symbol>
<symbol  id="T5_x5F_jalon" viewBox="-19.26 -9.219 38.52 18.438">
	
		<use xlink:href="#CONTOUR_x5F_BLANC_x5F_JALONS"  width="38.52" height="18.438" x="-19.26" y="-9.219" style="overflow:visible;"/>
	<g>
		
			<use xlink:href="#Mode_x5F_Tramway"  width="31.899" height="25.512" x="-15.95" y="-12.756" transform="matrix(0.5556 0 0 0.5556 -8.2665 0)" style="overflow:visible;"/>
		
			<use xlink:href="#T5"  width="25.511" height="25.512" x="-12.756" y="-12.756" transform="matrix(0.5556 0 0 0.5556 10.041 2.882192e-04)" style="overflow:visible;"/>
	</g>
</symbol>
<symbol  id="T6" viewBox="-12.756 -12.755 25.511 25.511">
	<rect x="-12.756" y="-12.755" style="fill:#F191A3;" width="25.511" height="25.511"/>
	<path d="M-4.74-1.003c0,4.96,2.122,8.632,6.348,8.632c1.111,0,2.223-0.258,2.917-0.596L3.831,4.97
		C3.394,5.188,2.838,5.406,2.025,5.406c-2.222,0-3.77-1.587-4.008-5.019c0.536,0.337,1.845,0.952,3.274,0.952
		c1.607,0,3.829-0.774,3.829-4.048c0-3.055-1.924-5.198-4.94-5.198C-3.292-7.907-4.74-5.089-4.74-1.003 M2.402-3.185
		c0,1.528-0.575,2.202-1.904,2.202c-0.755,0-1.687-0.217-2.481-0.654c0-2.778,0.655-4.167,2.341-4.167
		C1.846-5.804,2.402-4.693,2.402-3.185"/>
</symbol>
<symbol  id="T6_x5F_jalon" viewBox="-19.26 -9.219 38.52 18.438">
	
		<use xlink:href="#CONTOUR_x5F_BLANC_x5F_JALONS"  width="38.52" height="18.438" x="-19.26" y="-9.219" style="overflow:visible;"/>
	<g>
		
			<use xlink:href="#Mode_x5F_Tramway"  width="31.899" height="25.512" x="-15.95" y="-12.756" transform="matrix(0.5556 0 0 0.5556 -8.2665 0)" style="overflow:visible;"/>
		
			<use xlink:href="#T6"  width="25.511" height="25.511" x="-12.756" y="-12.755" transform="matrix(0.5556 0 0 0.5556 10.041 2.882192e-04)" style="overflow:visible;"/>
	</g>
</symbol>
<symbol  id="T7" viewBox="-12.756 -12.755 25.512 25.511">
	<rect x="-12.756" y="-12.755" style="fill:#992358;" width="25.512" height="25.511"/>
	<path style="fill:#FFFFFF;" d="M-0.834,0.091l1.141,1.7c1.101,1.64,1.48,2.341,1.601,3.061c0.02,0.18,0.04,0.36,0.04,0.54h-7.083
		v2.261h9.725c0.06-0.46,0.12-1.04,0.12-1.681c0-1.8-0.28-2.701-2.441-5.903L0.906-1.95c-1.119-1.661-1.18-2.641-1.18-5.703h-2.801
		C-3.075-4.031-2.695-2.671-0.834,0.091"/>
</symbol>
<symbol  id="T7_x5F_jalon" viewBox="-19.26 -9.219 38.52 18.438">
	
		<use xlink:href="#CONTOUR_x5F_BLANC_x5F_JALONS"  width="38.52" height="18.438" x="-19.26" y="-9.219" style="overflow:visible;"/>
	<g>
		
			<use xlink:href="#Mode_x5F_Tramway"  width="31.899" height="25.512" x="-15.95" y="-12.756" transform="matrix(0.5556 0 0 0.5556 -8.2666 0)" style="overflow:visible;"/>
		
			<use xlink:href="#T7"  width="25.512" height="25.511" x="-12.756" y="-12.755" transform="matrix(0.5556 0 0 0.5556 10.0408 2.882192e-04)" style="overflow:visible;"/>
	</g>
</symbol>
<symbol  id="T9" viewBox="-12.756 -12.756 25.512 25.512">
	<rect x="-12.756" y="-12.756" style="fill:#BCA3CE;" width="25.512" height="25.512"/>
	<path d="M-4.08-4.789c0.608-0.255,1.57-0.648,3.022-0.648c2.219,0,3.161,1.747,3.161,4.809c-0.53-0.334-1.571-1.001-3.062-1.001
		c-1.63,0-4.024,1.06-4.024,4.18c0,3.101,1.924,5.123,4.769,5.123c3.671,0,5.006-2.807,5.006-7.439c0-4.671-1.649-7.909-5.771-7.909
		c-1.217,0-2.846,0.294-3.807,0.805L-4.08-4.789z M2.024,1.472c0,2.179-0.529,4.121-2.198,4.121c-1.609,0-2.12-1.216-2.12-2.61
		c0-1.315,0.727-2.159,2.159-2.159C0.886,0.824,1.396,1.06,2.024,1.472"/>
</symbol>
<symbol  id="TB11" viewBox="-12.76 -12.755 25.521 25.511">
	<rect x="-12.76" y="-12.755" style="fill:#FDC300;" width="25.521" height="25.511"/>
	<g>
		<path d="M-10.282-5.553h3.822V5.092l-3.542-2.001l-0.96,1.861l4.942,2.701h2.242V-5.553h3.061v-2.101h-9.565V-5.553z"/>
		<path d="M1.221-5.553h3.822V5.092L1.501,3.092l-0.96,1.861l4.942,2.701h2.242V-5.553h3.061v-2.101H1.221V-5.553z"/>
	</g>
</symbol>
<symbol  id="TB11_x5F_jalon" viewBox="-19.26 -9.219 38.52 18.438">
	
		<use xlink:href="#CONTOUR_x5F_BLANC_x5F_JALONS"  width="38.52" height="18.438" x="-19.26" y="-9.219" style="overflow:visible;"/>
	
		<use xlink:href="#Mode_x5F_TB"  width="31.899" height="25.512" x="-15.95" y="-12.756" transform="matrix(0.5556 0 0 0.5556 -8.2569 0)" style="overflow:visible;"/>
	
		<use xlink:href="#TB11"  width="25.521" height="25.511" x="-12.76" y="-12.755" transform="matrix(0.5556 0 0 0.5556 10.0444 2.882192e-04)" style="overflow:visible;"/>
</symbol>
<symbol  id="TB12" viewBox="-12.76 -12.756 25.521 25.512">
	<rect x="-12.76" y="-12.756" style="fill:#80682E;" width="25.521" height="25.512"/>
	<path style="fill:#FFFFFF;" d="M-10.228-5.553h3.822V5.092l-3.542-2.001l-0.96,1.861l4.942,2.701h2.242V-5.553h3.061v-2.101h-9.565
		V-5.553z"/>
	<path style="fill:#FFFFFF;" d="M0.749-5.709c0,1.547,0.834,2.777,2.797,4.265l1.825,1.369c1.31,0.972,2.063,1.785,2.063,3.115
		c0,1.845-1.19,2.42-2.539,2.42c-1.27,0-2.678-0.555-3.412-0.952L0.61,6.392c1.389,0.833,3.135,1.31,4.483,1.31
		c3.015,0,5.119-1.528,5.119-4.305c0-2.48-1.012-3.651-2.956-5.118L5.054-3.369c-1.21-0.912-1.329-1.428-1.369-2.063h6.765v-2.222
		H0.749V-5.709z"/>
</symbol>
<symbol  id="TB12_x5F_jalon" viewBox="-19.26 -9.219 38.52 18.438">
	
		<use xlink:href="#CONTOUR_x5F_BLANC_x5F_JALONS"  width="38.52" height="18.438" x="-19.26" y="-9.219" style="overflow:visible;"/>
	
		<use xlink:href="#Mode_x5F_TB"  width="31.899" height="25.512" x="-15.95" y="-12.756" transform="matrix(0.5556 0 0 0.5556 -8.2569 0)" style="overflow:visible;"/>
	
		<use xlink:href="#TB12"  width="25.521" height="25.512" x="-12.76" y="-12.756" transform="matrix(0.5556 0 0 0.5556 10.0542 2.882192e-04)" style="overflow:visible;"/>
</symbol>
<symbol  id="esc_x5F_mecanique" viewBox="-10.205 -10.205 20.409 20.409">
	<g id="esc_x5F_mecanique_00000133493828712817105110000008433198185276004240_">
		<rect x="-10.205" y="-10.205" style="fill:none;" width="20.409" height="20.409"/>
		<rect x="-9.587" y="-9.588" style="fill:#FFFFFF;" width="19.175" height="19.175"/>
		<rect x="-10.205" y="-10.205" width="20.409" height="20.409"/>
		<path style="fill:#FFFFFF;" d="M-7.207,3.783h0.047c0.198,0,1.006,0,1.439,0h0.091c0.735,0,1.149-0.424,1.348-0.629l0.028-0.028
			c0.16-0.162,4.677-5.64,7.373-8.913c0.631-0.625,0.96-0.732,1.613-0.732l2.12-0.001l0.023,0.004l0.074-0.004
			c0.572,0.01,1.035,0.479,1.035,1.054v0.549c0,0.581-0.473,1.054-1.054,1.054H5.598c-0.941,0-1.301,0.355-1.799,0.847
			C3.418-2.64-2.3,4.358-3.511,5.841C-3.965,6.289-4.28,6.439-5.178,6.439H-7.21c-0.577-0.002-1.049-0.475-1.049-1.054V4.837
			C-8.258,4.257-7.787,3.785-7.207,3.783"/>
		<path style="fill:#FFFFFF;" d="M-9.588-9.588H9.588V9.588H-9.588V-9.588z M-2.411-7.421l-3.624-0.297l-0.872,0.872l3.216,0.111
			l-3.142,3.142l0.612,0.612l3.142-3.142l0.111,3.217l0.872-0.872L-2.411-7.421z M1.638,8.504c0.627-0.055,0.948-0.587,0.906-1.267
			c-0.04-0.686-0.338-1.279-0.95-1.095C1.046,6.308,0.613,6.899,0.561,7.523C0.508,8.162,1.068,8.554,1.638,8.504 M0.413,5.231
			c0.342,0.605,0.936,0.657,1.49,0.176c0.781-0.678,0.79-3.831,0.781-4.95L0.249,3.569C0.249,3.569,0.207,4.867,0.413,5.231
			 M-8.987,5.385c0,0.983,0.796,1.78,1.777,1.782v0.001h2.032c1.069,0,1.572-0.202,2.207-0.836c0,0,6.907-8.459,7.27-8.818
			c0.468-0.461,0.652-0.648,1.299-0.648h1.326H6.93c0.984,0,1.782-0.798,1.782-1.783v-0.549c0-0.985-0.798-1.783-1.782-1.783
			c-0.002,0-0.004,0.001-0.006,0.001v-0.001L4.732-7.247c-0.898,0-1.397,0.213-2.153,0.97c0,0-7.19,8.728-7.352,8.892
			C-4.945,2.788-5.176,3.054-5.63,3.054h-1.58v0c-0.982,0.003-1.777,0.8-1.777,1.783V5.385z"/>
		<path d="M1.595,6.143c0.612-0.184,0.91,0.408,0.95,1.094c0.041,0.68-0.28,1.212-0.906,1.267c-0.57,0.05-1.13-0.342-1.077-0.981
			C0.613,6.899,1.046,6.308,1.595,6.143"/>
		<path d="M2.684,0.458c0.009,1.119,0,4.272-0.781,4.95c-0.554,0.481-1.148,0.429-1.49-0.176C0.207,4.867,0.249,3.569,0.249,3.569
			L2.684,0.458z"/>
		<path d="M-7.21,3.054L-7.21,3.054l1.58,0c0.454,0,0.686-0.266,0.857-0.439c0.162-0.164,7.352-8.892,7.352-8.892
			c0.756-0.756,1.255-0.97,2.153-0.97l2.192-0.001v0.001c0.002,0,0.004-0.001,0.006-0.001c0.984,0,1.782,0.798,1.782,1.783v0.549
			c0,0.984-0.798,1.783-1.782,1.783H6.924H5.598c-0.647,0-0.831,0.186-1.299,0.648C3.936-2.127-2.97,6.332-2.97,6.332
			c-0.635,0.635-1.138,0.836-2.207,0.836H-7.21V7.167c-0.982-0.002-1.777-0.8-1.777-1.782V4.837
			C-8.987,3.854-8.192,3.057-7.21,3.054 M-8.259,5.385c0,0.579,0.472,1.052,1.049,1.054h2.032c0.897,0,1.213-0.15,1.667-0.598
			C-2.3,4.358,3.418-2.64,3.799-3.016c0.498-0.492,0.858-0.847,1.799-0.847H6.93c0.581,0,1.053-0.473,1.053-1.054v-0.549
			c0-0.575-0.463-1.044-1.035-1.054L6.875-6.515L6.851-6.519l-2.12,0.001c-0.653,0-0.982,0.106-1.613,0.732
			C0.423-2.514-4.094,2.964-4.254,3.126l-0.028,0.028C-4.481,3.358-4.895,3.783-5.63,3.783h-0.091c-0.433,0-1.241,0-1.439,0h-0.047
			c-0.579,0.002-1.051,0.475-1.051,1.054V5.385z"/>
		<polygon points="-3.079,-6.122 -6.221,-2.98 -6.833,-3.592 -3.691,-6.734 -6.907,-6.845 -6.035,-7.717 -2.411,-7.421 
			-2.095,-3.778 -2.967,-2.905 		"/>
	</g>
	<g id="esc_x5F_mecanique_00000147905221431910709090000002169516226255847334_">
	</g>
</symbol>
<g>
	
		<use xlink:href="#Mode_x5F_Chronobus"  width="31.899" height="25.512" x="-15.949" y="-12.756" transform="matrix(1 0 0 -1 15.9494 12.7559)" style="overflow:visible;"/>
	
		<use xlink:href="#C204"  width="40.394" height="25.511" x="-20.197" y="-12.755" transform="matrix(1 0 0 -1 56.3482 12.7559)" style="overflow:visible;"/>
</g>
</svg>
