<svg xmlns="http://www.w3.org/2000/svg" viewBox="0 0 83.503 28" data-ligne-id="BUS212" class=""><g><g><path fill="rgb(226,0,26)" class="picto-outline" d="M3.6,0S0,5.4,0,14s3.6,14,3.6,14h31.4V0H3.6Z" device-cmyk="0.00, 1.00, 1.00, 0.00"/><path d="M3.578,8.213h4.135c2.483,0,3.331,1.271,3.331,2.802,0,1.364-.772,2.119-1.544,2.408,1.059.212,2.089,1.091,2.089,2.817,0,2.166-1.681,3.559-3.997,3.559H3.578v-11.585ZM7.121,13.089c1.121,0,2.06-.484,2.06-1.681,0-.894-.575-1.605-1.923-1.605h-1.696v3.286h1.559ZM7.394,18.223c1.03,0,2.166-.484,2.166-1.893,0-1.211-.607-1.802-1.834-1.802h-2.165v3.695h1.832Z" fill="#fff"/><path d="M13.995,8.213h1.984v7.603c0,1.484.818,2.408,2.362,2.408s2.363-.924,2.363-2.408v-7.603h1.984v8.041c0,2.5-1.878,3.771-4.347,3.771s-4.346-1.271-4.346-3.771v-8.041Z" fill="#fff"/><path d="M25.593,17.496c.772.318,1.635.681,2.878.681,1.635,0,1.954-.939,1.954-1.575,0-.803-.455-1.303-1.546-1.741l-1.287-.516c-1.515-.605-2.589-1.271-2.589-3.028,0-1.832,1.408-3.331,4.179-3.331,1.529,0,2.484.317,3.135.635l-.682,1.773c-.65-.379-1.453-.681-2.559-.681-1.014,0-1.817.514-1.817,1.362,0,.621.303,1.015,1.273,1.408l1.56.637c1.696.696,2.483,1.59,2.483,3.21,0,3.044-2.286,3.696-3.982,3.696-1.636,0-2.878-.455-3.726-.984l.727-1.546Z" fill="#fff"/></g><g transform="translate(0,0)"><path class="picto-outline" fill="rgb(38,153,214)" d="M39.333,0h44.1697v28h-44.1697V0.7z"/><path fill="rgb(255,255,255)" d="M42.33 23.30L54.46 23.30L54.46 20.52L46.00 20.52C46.05 19.73 46.20 19.08 47.71 17.94L50.47 15.88C52.90 14.05 54.16 12.58 54.16 9.48C54.16 6.01 51.53 4.10 47.76 4.10C46.08 4.10 43.89 4.70 42.16 5.74L43.25 8.09C44.17 7.60 45.93 6.90 47.51 6.90C49.20 6.90 50.69 7.62 50.69 9.93C50.69 11.59 49.75 12.61 48.11 13.82L45.83 15.54C43.37 17.40 42.33 18.93 42.33 20.87ZM55.89 23.30L67.75 23.30L67.75 20.70L63.96 20.70L63.96 4.32L61.18 4.32L55.05 7.67L56.24 9.98L60.63 7.50L60.63 20.70L55.89 20.70ZM68.71 23.30L80.84 23.30L80.84 20.52L72.38 20.52C72.43 19.73 72.58 19.08 74.10 17.94L76.85 15.88C79.28 14.05 80.55 12.58 80.55 9.48C80.55 6.01 77.92 4.10 74.15 4.10C72.46 4.10 70.28 4.70 68.54 5.74L69.63 8.09C70.55 7.60 72.31 6.90 73.90 6.90C75.58 6.90 77.07 7.62 77.07 9.93C77.07 11.59 76.13 12.61 74.49 13.82L72.21 15.54C69.75 17.40 68.71 18.93 68.71 20.87Z"/></g></g></svg>