<svg xmlns="http://www.w3.org/2000/svg" viewBox="0 0 83.503 28" data-ligne-id="BUS213" class=""><g><g><path fill="rgb(226,0,26)" class="picto-outline" d="M3.6,0S0,5.4,0,14s3.6,14,3.6,14h31.4V0H3.6Z" device-cmyk="0.00, 1.00, 1.00, 0.00"/><path d="M3.578,8.213h4.135c2.483,0,3.331,1.271,3.331,2.802,0,1.364-.772,2.119-1.544,2.408,1.059.212,2.089,1.091,2.089,2.817,0,2.166-1.681,3.559-3.997,3.559H3.578v-11.585ZM7.121,13.089c1.121,0,2.06-.484,2.06-1.681,0-.894-.575-1.605-1.923-1.605h-1.696v3.286h1.559ZM7.394,18.223c1.03,0,2.166-.484,2.166-1.893,0-1.211-.607-1.802-1.834-1.802h-2.165v3.695h1.832Z" fill="#fff"/><path d="M13.995,8.213h1.984v7.603c0,1.484.818,2.408,2.362,2.408s2.363-.924,2.363-2.408v-7.603h1.984v8.041c0,2.5-1.878,3.771-4.347,3.771s-4.346-1.271-4.346-3.771v-8.041Z" fill="#fff"/><path d="M25.593,17.496c.772.318,1.635.681,2.878.681,1.635,0,1.954-.939,1.954-1.575,0-.803-.455-1.303-1.546-1.741l-1.287-.516c-1.515-.605-2.589-1.271-2.589-3.028,0-1.832,1.408-3.331,4.179-3.331,1.529,0,2.484.317,3.135.635l-.682,1.773c-.65-.379-1.453-.681-2.559-.681-1.014,0-1.817.514-1.817,1.362,0,.621.303,1.015,1.273,1.408l1.56.637c1.696.696,2.483,1.59,2.483,3.21,0,3.044-2.286,3.696-3.982,3.696-1.636,0-2.878-.455-3.726-.984l.727-1.546Z" fill="#fff"/></g><g transform="translate(0,0)"><path class="picto-outline" fill="rgb(107,162,48)" d="M39.333,0h44.1697v28h-44.1697V0.7z"/><path fill="rgb(255,255,255)" d="M42.75 23.30L54.75 23.30L54.75 20.55L46.38 20.55C46.43 19.76 46.58 19.13 48.08 18.00L50.80 15.96C53.21 14.14 54.46 12.69 54.46 9.62C54.46 6.19 51.86 4.30 48.12 4.30C46.45 4.30 44.29 4.89 42.58 5.92L43.66 8.25C44.56 7.76 46.31 7.07 47.88 7.07C49.55 7.07 51.02 7.78 51.02 10.07C51.02 11.71 50.09 12.72 48.47 13.92L46.21 15.62C43.78 17.46 42.75 18.98 42.75 20.89ZM56.17 23.30L67.91 23.30L67.91 20.72L64.15 20.72L64.15 4.52L61.40 4.52L55.34 7.83L56.52 10.12L60.86 7.66L60.86 20.72L56.17 20.72ZM68.39 22.05C69.33 22.59 71.24 23.50 73.77 23.50C78.12 23.50 80.42 20.82 80.42 17.58C80.42 15.30 79.30 13.70 77.43 13.06C78.95 12.35 80.20 11.20 80.20 8.94C80.20 6.24 78.44 4.30 74.70 4.30C72.44 4.30 70.06 5.01 68.32 5.99L69.45 8.52C70.60 7.81 72.25 7.14 74.04 7.14C76.01 7.14 76.82 7.93 76.82 9.45C76.82 11.51 75.15 12.28 73.21 12.28L71.54 12.28L71.54 14.98L73.67 14.98C75.56 14.98 77.11 15.57 77.11 17.55C77.11 19.27 75.98 20.57 73.55 20.57C71.71 20.57 70.04 19.86 69.33 19.49Z"/></g></g></svg>