<svg xmlns="http://www.w3.org/2000/svg" viewBox="0 0 83.503 28" data-ligne-id="BUS216" class=""><g><g><path fill="rgb(226,0,26)" class="picto-outline" d="M3.6,0S0,5.4,0,14s3.6,14,3.6,14h31.4V0H3.6Z" device-cmyk="0.00, 1.00, 1.00, 0.00"/><path d="M3.578,8.213h4.135c2.483,0,3.331,1.271,3.331,2.802,0,1.364-.772,2.119-1.544,2.408,1.059.212,2.089,1.091,2.089,2.817,0,2.166-1.681,3.559-3.997,3.559H3.578v-11.585ZM7.121,13.089c1.121,0,2.06-.484,2.06-1.681,0-.894-.575-1.605-1.923-1.605h-1.696v3.286h1.559ZM7.394,18.223c1.03,0,2.166-.484,2.166-1.893,0-1.211-.607-1.802-1.834-1.802h-2.165v3.695h1.832Z" fill="#fff"/><path d="M13.995,8.213h1.984v7.603c0,1.484.818,2.408,2.362,2.408s2.363-.924,2.363-2.408v-7.603h1.984v8.041c0,2.5-1.878,3.771-4.347,3.771s-4.346-1.271-4.346-3.771v-8.041Z" fill="#fff"/><path d="M25.593,17.496c.772.318,1.635.681,2.878.681,1.635,0,1.954-.939,1.954-1.575,0-.803-.455-1.303-1.546-1.741l-1.287-.516c-1.515-.605-2.589-1.271-2.589-3.028,0-1.832,1.408-3.331,4.179-3.331,1.529,0,2.484.317,3.135.635l-.682,1.773c-.65-.379-1.453-.681-2.559-.681-1.014,0-1.817.514-1.817,1.362,0,.621.303,1.015,1.273,1.408l1.56.637c1.696.696,2.483,1.59,2.483,3.21,0,3.044-2.286,3.696-3.982,3.696-1.636,0-2.878-.455-3.726-.984l.727-1.546Z" fill="#fff"/></g><g transform="translate(0,0)"><path class="picto-outline" fill="rgb(153,35,88)" d="M39.333,0h44.1697v28h-44.1697V0.7z"/><path fill="rgb(255,255,255)" d="M42.40 23.30L54.39 23.30L54.39 20.55L46.03 20.55C46.08 19.77 46.23 19.13 47.72 18.00L50.45 15.97C52.85 14.15 54.10 12.71 54.10 9.64C54.10 6.21 51.50 4.32 47.77 4.32C46.11 4.32 43.95 4.91 42.23 5.94L43.31 8.27C44.22 7.78 45.96 7.09 47.53 7.09C49.20 7.09 50.67 7.80 50.67 10.08C50.67 11.73 49.74 12.73 48.12 13.93L45.86 15.62C43.43 17.46 42.40 18.98 42.40 20.90ZM55.81 23.30L67.53 23.30L67.53 20.73L63.78 20.73L63.78 4.54L61.03 4.54L54.98 7.85L56.15 10.13L60.49 7.68L60.49 20.73L55.81 20.73ZM74.66 23.52C78.39 23.52 80.77 20.87 80.77 17.10C80.77 13.05 78.02 12.09 76.04 12.09C74.27 12.09 72.65 12.85 71.99 13.27C72.28 9.03 74.20 7.07 76.94 7.07C77.95 7.07 78.63 7.34 79.17 7.61L80.03 5.06C79.17 4.64 77.80 4.32 76.43 4.32C71.20 4.32 68.58 8.86 68.58 14.99C68.58 20.04 70.37 23.52 74.66 23.52ZM74.88 20.92C72.80 20.92 71.99 19.20 71.99 15.77C72.97 15.23 74.12 14.96 75.05 14.96C76.70 14.96 77.41 15.80 77.41 17.68C77.41 19.55 76.72 20.92 74.88 20.92Z"/></g></g></svg>