<svg xmlns="http://www.w3.org/2000/svg" viewBox="0 0 83.503 28" data-ligne-id="BUS231" class=""><g><g><path fill="rgb(226,0,26)" class="picto-outline" d="M3.6,0S0,5.4,0,14s3.6,14,3.6,14h31.4V0H3.6Z" device-cmyk="0.00, 1.00, 1.00, 0.00"/><path d="M3.578,8.213h4.135c2.483,0,3.331,1.271,3.331,2.802,0,1.364-.772,2.119-1.544,2.408,1.059.212,2.089,1.091,2.089,2.817,0,2.166-1.681,3.559-3.997,3.559H3.578v-11.585ZM7.121,13.089c1.121,0,2.06-.484,2.06-1.681,0-.894-.575-1.605-1.923-1.605h-1.696v3.286h1.559ZM7.394,18.223c1.03,0,2.166-.484,2.166-1.893,0-1.211-.607-1.802-1.834-1.802h-2.165v3.695h1.832Z" fill="#fff"/><path d="M13.995,8.213h1.984v7.603c0,1.484.818,2.408,2.362,2.408s2.363-.924,2.363-2.408v-7.603h1.984v8.041c0,2.5-1.878,3.771-4.347,3.771s-4.346-1.271-4.346-3.771v-8.041Z" fill="#fff"/><path d="M25.593,17.496c.772.318,1.635.681,2.878.681,1.635,0,1.954-.939,1.954-1.575,0-.803-.455-1.303-1.546-1.741l-1.287-.516c-1.515-.605-2.589-1.271-2.589-3.028,0-1.832,1.408-3.331,4.179-3.331,1.529,0,2.484.317,3.135.635l-.682,1.773c-.65-.379-1.453-.681-2.559-.681-1.014,0-1.817.514-1.817,1.362,0,.621.303,1.015,1.273,1.408l1.56.637c1.696.696,2.483,1.59,2.483,3.21,0,3.044-2.286,3.696-3.982,3.696-1.636,0-2.878-.455-3.726-.984l.727-1.546Z" fill="#fff"/></g><g transform="translate(0,0)"><path class="picto-outline" fill="rgb(253,195,0)" d="M39.333,0h44.1697v28h-44.1697V0.7z"/><path fill="rgb(0,0,0)" d="M42.61 23.30L54.62 23.30L54.62 20.55L46.25 20.55C46.30 19.76 46.44 19.13 47.94 18.00L50.67 15.96C53.07 14.14 54.32 12.69 54.32 9.62C54.32 6.19 51.72 4.30 47.99 4.30C46.32 4.30 44.16 4.89 42.44 5.92L43.52 8.25C44.43 7.76 46.17 7.07 47.74 7.07C49.41 7.07 50.89 7.78 50.89 10.07C50.89 11.71 49.95 12.72 48.33 13.92L46.07 15.62C43.64 17.46 42.61 18.98 42.61 20.89ZM55.01 22.05C55.94 22.59 57.85 23.50 60.38 23.50C64.73 23.50 67.04 20.82 67.04 17.58C67.04 15.30 65.91 13.70 64.04 13.06C65.56 12.35 66.82 11.20 66.82 8.94C66.82 6.24 65.05 4.30 61.32 4.30C59.06 4.30 56.68 5.01 54.93 5.99L56.06 8.52C57.22 7.81 58.86 7.14 60.65 7.14C62.62 7.14 63.43 7.93 63.43 9.45C63.43 11.51 61.76 12.28 59.82 12.28L58.15 12.28L58.15 14.98L60.28 14.98C62.18 14.98 63.72 15.57 63.72 17.55C63.72 19.27 62.59 20.57 60.16 20.57C58.32 20.57 56.65 19.86 55.94 19.49ZM68.82 23.30L80.56 23.30L80.56 20.72L76.80 20.72L76.80 4.52L74.05 4.52L67.99 7.83L69.17 10.12L73.51 7.66L73.51 20.72L68.82 20.72Z"/></g></g></svg>