<svg xmlns="http://www.w3.org/2000/svg" viewBox="0 0 83.503 28" data-ligne-id="BUS238" class=""><g><g><path fill="rgb(226,0,26)" class="picto-outline" d="M3.6,0S0,5.4,0,14s3.6,14,3.6,14h31.4V0H3.6Z" device-cmyk="0.00, 1.00, 1.00, 0.00"/><path d="M3.578,8.213h4.135c2.483,0,3.331,1.271,3.331,2.802,0,1.364-.772,2.119-1.544,2.408,1.059.212,2.089,1.091,2.089,2.817,0,2.166-1.681,3.559-3.997,3.559H3.578v-11.585ZM7.121,13.089c1.121,0,2.06-.484,2.06-1.681,0-.894-.575-1.605-1.923-1.605h-1.696v3.286h1.559ZM7.394,18.223c1.03,0,2.166-.484,2.166-1.893,0-1.211-.607-1.802-1.834-1.802h-2.165v3.695h1.832Z" fill="#fff"/><path d="M13.995,8.213h1.984v7.603c0,1.484.818,2.408,2.362,2.408s2.363-.924,2.363-2.408v-7.603h1.984v8.041c0,2.5-1.878,3.771-4.347,3.771s-4.346-1.271-4.346-3.771v-8.041Z" fill="#fff"/><path d="M25.593,17.496c.772.318,1.635.681,2.878.681,1.635,0,1.954-.939,1.954-1.575,0-.803-.455-1.303-1.546-1.741l-1.287-.516c-1.515-.605-2.589-1.271-2.589-3.028,0-1.832,1.408-3.331,4.179-3.331,1.529,0,2.484.317,3.135.635l-.682,1.773c-.65-.379-1.453-.681-2.559-.681-1.014,0-1.817.514-1.817,1.362,0,.621.303,1.015,1.273,1.408l1.56.637c1.696.696,2.483,1.59,2.483,3.21,0,3.044-2.286,3.696-3.982,3.696-1.636,0-2.878-.455-3.726-.984l.727-1.546Z" fill="#fff"/></g><g transform="translate(0,0)"><path class="picto-outline" fill="rgb(241,145,163)" d="M39.333,0h44.1697v28h-44.1697V0.7z"/><path fill="rgb(0,0,0)" d="M42.66 23.30L54.67 23.30L54.67 20.55L46.30 20.55C46.34 19.76 46.49 19.13 47.99 18.00L50.71 15.96C53.12 14.14 54.37 12.69 54.37 9.62C54.37 6.19 51.77 4.30 48.04 4.30C46.37 4.30 44.21 4.89 42.49 5.92L43.57 8.25C44.48 7.76 46.22 7.07 47.79 7.07C49.46 7.07 50.94 7.78 50.94 10.07C50.94 11.71 50.00 12.72 48.38 13.92L46.12 15.62C43.69 17.46 42.66 18.98 42.66 20.89ZM55.05 22.05C55.99 22.59 57.90 23.50 60.43 23.50C64.78 23.50 67.09 20.82 67.09 17.58C67.09 15.30 65.96 13.70 64.09 13.06C65.61 12.35 66.86 11.20 66.86 8.94C66.86 6.24 65.10 4.30 61.36 4.30C59.11 4.30 56.72 5.01 54.98 5.99L56.11 8.52C57.26 7.81 58.91 7.14 60.70 7.14C62.67 7.14 63.48 7.93 63.48 9.45C63.48 11.51 61.81 12.28 59.87 12.28L58.20 12.28L58.20 14.98L60.33 14.98C62.22 14.98 63.77 15.57 63.77 17.55C63.77 19.27 62.64 20.57 60.21 20.57C58.37 20.57 56.70 19.86 55.99 19.49ZM68.36 18.32C68.36 20.99 70.08 23.50 74.10 23.50C78.35 23.50 80.51 20.72 80.51 17.75C80.51 15.49 79.28 13.92 76.97 12.89C78.37 12.23 79.75 10.93 79.75 8.76C79.75 6.06 77.86 4.30 74.59 4.30C71.45 4.30 68.90 6.24 68.90 9.50C68.90 10.95 69.39 12.37 71.40 13.60C69.81 14.49 68.36 15.86 68.36 18.32ZM74.45 12.01C72.75 11.29 72.46 10.34 72.46 9.35C72.46 7.54 73.44 6.90 74.54 6.90C75.87 6.90 76.36 7.78 76.36 9.04C76.36 10.36 75.80 11.34 74.45 12.01ZM71.87 18.22C71.87 16.82 72.46 15.54 73.61 14.85C75.75 15.62 77.02 16.28 77.02 18.24C77.02 19.86 76.14 21.04 74.47 21.04C73.02 21.04 71.87 20.16 71.87 18.22Z"/></g></g></svg>