<svg xmlns="http://www.w3.org/2000/svg" viewBox="0 0 83.503 28" data-ligne-id="BUS239" class=""><g><g><path fill="rgb(226,0,26)" class="picto-outline" d="M3.6,0S0,5.4,0,14s3.6,14,3.6,14h31.4V0H3.6Z" device-cmyk="0.00, 1.00, 1.00, 0.00"/><path d="M3.578,8.213h4.135c2.483,0,3.331,1.271,3.331,2.802,0,1.364-.772,2.119-1.544,2.408,1.059.212,2.089,1.091,2.089,2.817,0,2.166-1.681,3.559-3.997,3.559H3.578v-11.585ZM7.121,13.089c1.121,0,2.06-.484,2.06-1.681,0-.894-.575-1.605-1.923-1.605h-1.696v3.286h1.559ZM7.394,18.223c1.03,0,2.166-.484,2.166-1.893,0-1.211-.607-1.802-1.834-1.802h-2.165v3.695h1.832Z" fill="#fff"/><path d="M13.995,8.213h1.984v7.603c0,1.484.818,2.408,2.362,2.408s2.363-.924,2.363-2.408v-7.603h1.984v8.041c0,2.5-1.878,3.771-4.347,3.771s-4.346-1.271-4.346-3.771v-8.041Z" fill="#fff"/><path d="M25.593,17.496c.772.318,1.635.681,2.878.681,1.635,0,1.954-.939,1.954-1.575,0-.803-.455-1.303-1.546-1.741l-1.287-.516c-1.515-.605-2.589-1.271-2.589-3.028,0-1.832,1.408-3.331,4.179-3.331,1.529,0,2.484.317,3.135.635l-.682,1.773c-.65-.379-1.453-.681-2.559-.681-1.014,0-1.817.514-1.817,1.362,0,.621.303,1.015,1.273,1.408l1.56.637c1.696.696,2.483,1.59,2.483,3.21,0,3.044-2.286,3.696-3.982,3.696-1.636,0-2.878-.455-3.726-.984l.727-1.546Z" fill="#fff"/></g><g transform="translate(0,0)"><path class="picto-outline" fill="rgb(236,102,8)" d="M39.333,0h44.1697v28h-44.1697V0.7z"/><path fill="rgb(255,255,255)" d="M42.70 23.30L54.70 23.30L54.70 20.55L46.33 20.55C46.38 19.76 46.53 19.13 48.03 18.00L50.75 15.96C53.16 14.14 54.41 12.69 54.41 9.62C54.41 6.19 51.81 4.30 48.08 4.30C46.41 4.30 44.25 4.89 42.53 5.92L43.61 8.25C44.52 7.76 46.26 7.07 47.83 7.07C49.50 7.07 50.97 7.78 50.97 10.07C50.97 11.71 50.04 12.72 48.42 13.92L46.16 15.62C43.73 17.46 42.70 18.98 42.70 20.89ZM55.09 22.05C56.02 22.59 57.94 23.50 60.47 23.50C64.81 23.50 67.12 20.82 67.12 17.58C67.12 15.30 65.99 13.70 64.13 13.06C65.65 12.35 66.90 11.20 66.90 8.94C66.90 6.24 65.13 4.30 61.40 4.30C59.14 4.30 56.76 5.01 55.02 5.99L56.15 8.52C57.30 7.81 58.95 7.14 60.74 7.14C62.70 7.14 63.51 7.93 63.51 9.45C63.51 11.51 61.84 12.28 59.90 12.28L58.23 12.28L58.23 14.98L60.37 14.98C62.26 14.98 63.81 15.57 63.81 17.55C63.81 19.27 62.68 20.57 60.25 20.57C58.41 20.57 56.74 19.86 56.02 19.49ZM68.49 22.49C69.70 23.13 71.73 23.50 73.26 23.50C78.41 23.50 80.47 19.45 80.47 13.60C80.47 7.81 78.80 4.30 74.21 4.30C70.65 4.30 68.25 6.83 68.25 10.70C68.25 14.61 71.24 15.93 73.28 15.93C75.15 15.93 76.45 15.10 77.11 14.68C77.11 18.51 75.93 20.70 73.16 20.70C71.34 20.70 70.14 20.21 69.38 19.89ZM74.31 12.87C72.52 12.87 71.61 11.81 71.61 10.16C71.61 8.42 72.25 6.90 74.26 6.90C76.35 6.90 77.01 9.33 77.01 12.05C76.23 12.57 75.59 12.87 74.31 12.87Z"/></g></g></svg>