<svg xmlns="http://www.w3.org/2000/svg" viewBox="0 0 83.503 28" data-ligne-id="BUS243" class=""><g><g><path fill="rgb(226,0,26)" class="picto-outline" d="M3.6,0S0,5.4,0,14s3.6,14,3.6,14h31.4V0H3.6Z" device-cmyk="0.00, 1.00, 1.00, 0.00"/><path d="M3.578,8.213h4.135c2.483,0,3.331,1.271,3.331,2.802,0,1.364-.772,2.119-1.544,2.408,1.059.212,2.089,1.091,2.089,2.817,0,2.166-1.681,3.559-3.997,3.559H3.578v-11.585ZM7.121,13.089c1.121,0,2.06-.484,2.06-1.681,0-.894-.575-1.605-1.923-1.605h-1.696v3.286h1.559ZM7.394,18.223c1.03,0,2.166-.484,2.166-1.893,0-1.211-.607-1.802-1.834-1.802h-2.165v3.695h1.832Z" fill="#fff"/><path d="M13.995,8.213h1.984v7.603c0,1.484.818,2.408,2.362,2.408s2.363-.924,2.363-2.408v-7.603h1.984v8.041c0,2.5-1.878,3.771-4.347,3.771s-4.346-1.271-4.346-3.771v-8.041Z" fill="#fff"/><path d="M25.593,17.496c.772.318,1.635.681,2.878.681,1.635,0,1.954-.939,1.954-1.575,0-.803-.455-1.303-1.546-1.741l-1.287-.516c-1.515-.605-2.589-1.271-2.589-3.028,0-1.832,1.408-3.331,4.179-3.331,1.529,0,2.484.317,3.135.635l-.682,1.773c-.65-.379-1.453-.681-2.559-.681-1.014,0-1.817.514-1.817,1.362,0,.621.303,1.015,1.273,1.408l1.56.637c1.696.696,2.483,1.59,2.483,3.21,0,3.044-2.286,3.696-3.982,3.696-1.636,0-2.878-.455-3.726-.984l.727-1.546Z" fill="#fff"/></g><g transform="translate(0,0)"><path class="picto-outline" fill="rgb(0,79,159)" d="M39.333,0h44.1697v28h-44.1697V0.7z"/><path fill="rgb(255,255,255)" d="M42.39 23.30L54.40 23.30L54.40 20.55L46.03 20.55C46.07 19.76 46.22 19.13 47.72 18.00L50.44 15.96C52.85 14.14 54.10 12.69 54.10 9.62C54.10 6.19 51.50 4.30 47.77 4.30C46.10 4.30 43.94 4.89 42.22 5.92L43.30 8.25C44.21 7.76 45.95 7.07 47.52 7.07C49.19 7.07 50.67 7.78 50.67 10.07C50.67 11.71 49.73 12.72 48.11 13.92L45.85 15.62C43.42 17.46 42.39 18.98 42.39 20.89ZM54.69 19.96L62.49 19.96L62.49 23.30L65.59 23.30L65.59 19.96L67.97 19.96L67.97 17.24L65.59 17.24L65.59 4.52L61.19 4.52L54.69 17.11ZM57.51 17.24L61.22 9.99C61.88 8.72 62.32 7.73 62.49 7.07L62.49 17.24ZM68.75 22.05C69.68 22.59 71.60 23.50 74.13 23.50C78.47 23.50 80.78 20.82 80.78 17.58C80.78 15.30 79.65 13.70 77.79 13.06C79.31 12.35 80.56 11.20 80.56 8.94C80.56 6.24 78.79 4.30 75.06 4.30C72.80 4.30 70.42 5.01 68.68 5.99L69.81 8.52C70.96 7.81 72.60 7.14 74.40 7.14C76.36 7.14 77.17 7.93 77.17 9.45C77.17 11.51 75.50 12.28 73.56 12.28L71.89 12.28L71.89 14.98L74.03 14.98C75.92 14.98 77.47 15.57 77.47 17.55C77.47 19.27 76.34 20.57 73.91 20.57C72.06 20.57 70.39 19.86 69.68 19.49Z"/></g></g></svg>