<svg xmlns="http://www.w3.org/2000/svg" viewBox="0 0 83.503 28" data-ligne-id="BUS245" class=""><g><g><path fill="rgb(226,0,26)" class="picto-outline" d="M3.6,0S0,5.4,0,14s3.6,14,3.6,14h31.4V0H3.6Z" device-cmyk="0.00, 1.00, 1.00, 0.00"/><path d="M3.578,8.213h4.135c2.483,0,3.331,1.271,3.331,2.802,0,1.364-.772,2.119-1.544,2.408,1.059.212,2.089,1.091,2.089,2.817,0,2.166-1.681,3.559-3.997,3.559H3.578v-11.585ZM7.121,13.089c1.121,0,2.06-.484,2.06-1.681,0-.894-.575-1.605-1.923-1.605h-1.696v3.286h1.559ZM7.394,18.223c1.03,0,2.166-.484,2.166-1.893,0-1.211-.607-1.802-1.834-1.802h-2.165v3.695h1.832Z" fill="#fff"/><path d="M13.995,8.213h1.984v7.603c0,1.484.818,2.408,2.362,2.408s2.363-.924,2.363-2.408v-7.603h1.984v8.041c0,2.5-1.878,3.771-4.347,3.771s-4.346-1.271-4.346-3.771v-8.041Z" fill="#fff"/><path d="M25.593,17.496c.772.318,1.635.681,2.878.681,1.635,0,1.954-.939,1.954-1.575,0-.803-.455-1.303-1.546-1.741l-1.287-.516c-1.515-.605-2.589-1.271-2.589-3.028,0-1.832,1.408-3.331,4.179-3.331,1.529,0,2.484.317,3.135.635l-.682,1.773c-.65-.379-1.453-.681-2.559-.681-1.014,0-1.817.514-1.817,1.362,0,.621.303,1.015,1.273,1.408l1.56.637c1.696.696,2.483,1.59,2.483,3.21,0,3.044-2.286,3.696-3.982,3.696-1.636,0-2.878-.455-3.726-.984l.727-1.546Z" fill="#fff"/></g><g transform="translate(0,0)"><path class="picto-outline" fill="rgb(0,158,61)" d="M39.333,0h44.1697v28h-44.1697V0.7z"/><path fill="rgb(255,255,255)" d="M42.17 23.30L54.16 23.30L54.16 20.55L45.80 20.55C45.85 19.77 46.00 19.13 47.49 18.00L50.21 15.97C52.62 14.15 53.87 12.71 53.87 9.64C53.87 6.21 51.27 4.32 47.54 4.32C45.87 4.32 43.72 4.91 42.00 5.94L43.08 8.27C43.99 7.78 45.73 7.09 47.30 7.09C48.96 7.09 50.43 7.80 50.43 10.08C50.43 11.73 49.50 12.73 47.88 13.93L45.63 15.62C43.20 17.46 42.17 18.98 42.17 20.90ZM54.45 19.97L62.25 19.97L62.25 23.30L65.34 23.30L65.34 19.97L67.72 19.97L67.72 17.24L65.34 17.24L65.34 4.54L60.95 4.54L54.45 17.12ZM57.27 17.24L60.97 10.01C61.63 8.73 62.08 7.75 62.25 7.09L62.25 17.24ZM69.03 22.29C70.14 22.81 72.08 23.52 74.33 23.52C78.87 23.52 81.00 20.68 81.00 17.02C81.00 13.39 78.92 11.51 75.34 11.51L72.93 11.51L73.11 7.24L80.61 7.24L80.61 4.54L69.92 4.54L69.60 14.23L74.23 14.23C76.49 14.23 77.67 15.04 77.67 17.22C77.67 19.47 76.42 20.77 73.94 20.77C72.61 20.77 70.87 20.41 69.70 19.99Z"/></g></g></svg>