<svg xmlns="http://www.w3.org/2000/svg" viewBox="0 0 83.503 28" data-ligne-id="BUS247" class=""><g><g><path fill="rgb(226,0,26)" class="picto-outline" d="M3.6,0S0,5.4,0,14s3.6,14,3.6,14h31.4V0H3.6Z" device-cmyk="0.00, 1.00, 1.00, 0.00"/><path d="M3.578,8.213h4.135c2.483,0,3.331,1.271,3.331,2.802,0,1.364-.772,2.119-1.544,2.408,1.059.212,2.089,1.091,2.089,2.817,0,2.166-1.681,3.559-3.997,3.559H3.578v-11.585ZM7.121,13.089c1.121,0,2.06-.484,2.06-1.681,0-.894-.575-1.605-1.923-1.605h-1.696v3.286h1.559ZM7.394,18.223c1.03,0,2.166-.484,2.166-1.893,0-1.211-.607-1.802-1.834-1.802h-2.165v3.695h1.832Z" fill="#fff"/><path d="M13.995,8.213h1.984v7.603c0,1.484.818,2.408,2.362,2.408s2.363-.924,2.363-2.408v-7.603h1.984v8.041c0,2.5-1.878,3.771-4.347,3.771s-4.346-1.271-4.346-3.771v-8.041Z" fill="#fff"/><path d="M25.593,17.496c.772.318,1.635.681,2.878.681,1.635,0,1.954-.939,1.954-1.575,0-.803-.455-1.303-1.546-1.741l-1.287-.516c-1.515-.605-2.589-1.271-2.589-3.028,0-1.832,1.408-3.331,4.179-3.331,1.529,0,2.484.317,3.135.635l-.682,1.773c-.65-.379-1.453-.681-2.559-.681-1.014,0-1.817.514-1.817,1.362,0,.621.303,1.015,1.273,1.408l1.56.637c1.696.696,2.483,1.59,2.483,3.21,0,3.044-2.286,3.696-3.982,3.696-1.636,0-2.878-.455-3.726-.984l.727-1.546Z" fill="#fff"/></g><g transform="translate(0,0)"><path class="picto-outline" fill="rgb(253,195,0)" d="M39.333,0h44.1697v28h-44.1697V0.7z"/><path fill="rgb(0,0,0)" d="M42.02 23.30L54.15 23.30L54.15 20.52L45.69 20.52C45.74 19.73 45.89 19.08 47.40 17.94L50.16 15.88C52.59 14.05 53.85 12.58 53.85 9.48C53.85 6.01 51.22 4.10 47.45 4.10C45.77 4.10 43.58 4.70 41.85 5.74L42.94 8.09C43.86 7.60 45.62 6.90 47.20 6.90C48.89 6.90 50.38 7.62 50.38 9.93C50.38 11.59 49.44 12.61 47.80 13.82L45.52 15.54C43.06 17.40 42.02 18.93 42.02 20.87ZM54.44 19.93L62.33 19.93L62.33 23.30L65.46 23.30L65.46 19.93L67.86 19.93L67.86 17.17L65.46 17.17L65.46 4.32L61.02 4.32L54.44 17.05ZM57.30 17.17L61.04 9.86C61.71 8.57 62.16 7.57 62.33 6.90L62.33 17.17ZM71.50 23.30L74.98 23.30C74.98 19.50 75.05 18.29 76.44 16.23L78.13 13.72C80.81 9.76 81.15 8.64 81.15 6.41C81.15 5.61 81.08 4.89 81.00 4.32L68.95 4.32L68.95 7.13L77.73 7.13C77.73 7.35 77.71 7.57 77.68 7.80C77.53 8.69 77.06 9.56 75.70 11.59L74.28 13.70C71.98 17.12 71.50 18.81 71.50 23.30Z"/></g></g></svg>