<svg xmlns="http://www.w3.org/2000/svg" viewBox="0 0 83.503 28" data-ligne-id="BUS265" class=""><g><g><path fill="rgb(226,0,26)" class="picto-outline" d="M3.6,0S0,5.4,0,14s3.6,14,3.6,14h31.4V0H3.6Z" device-cmyk="0.00, 1.00, 1.00, 0.00"/><path d="M3.578,8.213h4.135c2.483,0,3.331,1.271,3.331,2.802,0,1.364-.772,2.119-1.544,2.408,1.059.212,2.089,1.091,2.089,2.817,0,2.166-1.681,3.559-3.997,3.559H3.578v-11.585ZM7.121,13.089c1.121,0,2.06-.484,2.06-1.681,0-.894-.575-1.605-1.923-1.605h-1.696v3.286h1.559ZM7.394,18.223c1.03,0,2.166-.484,2.166-1.893,0-1.211-.607-1.802-1.834-1.802h-2.165v3.695h1.832Z" fill="#fff"/><path d="M13.995,8.213h1.984v7.603c0,1.484.818,2.408,2.362,2.408s2.363-.924,2.363-2.408v-7.603h1.984v8.041c0,2.5-1.878,3.771-4.347,3.771s-4.346-1.271-4.346-3.771v-8.041Z" fill="#fff"/><path d="M25.593,17.496c.772.318,1.635.681,2.878.681,1.635,0,1.954-.939,1.954-1.575,0-.803-.455-1.303-1.546-1.741l-1.287-.516c-1.515-.605-2.589-1.271-2.589-3.028,0-1.832,1.408-3.331,4.179-3.331,1.529,0,2.484.317,3.135.635l-.682,1.773c-.65-.379-1.453-.681-2.559-.681-1.014,0-1.817.514-1.817,1.362,0,.621.303,1.015,1.273,1.408l1.56.637c1.696.696,2.483,1.59,2.483,3.21,0,3.044-2.286,3.696-3.982,3.696-1.636,0-2.878-.455-3.726-.984l.727-1.546Z" fill="#fff"/></g><g transform="translate(0,0)"><path class="picto-outline" fill="rgb(229,0,105)" d="M39.333,0h44.1697v28h-44.1697V0.7z"/><path fill="rgb(255,255,255)" d="M42.71 23.30L54.70 23.30L54.70 20.55L46.34 20.55C46.39 19.77 46.54 19.13 48.03 18.00L50.75 15.97C53.16 14.15 54.41 12.71 54.41 9.64C54.41 6.21 51.81 4.32 48.08 4.32C46.41 4.32 44.25 4.91 42.54 5.94L43.62 8.27C44.52 7.78 46.27 7.09 47.83 7.09C49.50 7.09 50.97 7.80 50.97 10.08C50.97 11.73 50.04 12.73 48.42 13.93L46.17 15.62C43.74 17.46 42.71 18.98 42.71 20.90ZM61.73 23.52C65.46 23.52 67.84 20.87 67.84 17.10C67.84 13.05 65.09 12.09 63.11 12.09C61.34 12.09 59.72 12.85 59.06 13.27C59.35 9.03 61.27 7.07 64.01 7.07C65.02 7.07 65.71 7.34 66.24 7.61L67.10 5.06C66.24 4.64 64.87 4.32 63.50 4.32C58.28 4.32 55.65 8.86 55.65 14.99C55.65 20.04 57.44 23.52 61.73 23.52ZM61.95 20.92C59.87 20.92 59.06 19.20 59.06 15.77C60.04 15.23 61.19 14.96 62.13 14.96C63.77 14.96 64.48 15.80 64.48 17.68C64.48 19.55 63.79 20.92 61.95 20.92ZM68.50 22.29C69.60 22.81 71.54 23.52 73.79 23.52C78.33 23.52 80.46 20.68 80.46 17.02C80.46 13.39 78.38 11.51 74.80 11.51L72.39 11.51L72.57 7.24L80.07 7.24L80.07 4.54L69.38 4.54L69.06 14.23L73.69 14.23C75.95 14.23 77.13 15.04 77.13 17.22C77.13 19.47 75.88 20.77 73.40 20.77C72.08 20.77 70.33 20.41 69.16 19.99Z"/></g></g></svg>