<svg xmlns="http://www.w3.org/2000/svg" viewBox="0 0 83.503 28" data-ligne-id="BUS211" class=""><g><g><path fill="rgb(226,0,26)" class="picto-outline" d="M3.6,0S0,5.4,0,14s3.6,14,3.6,14h31.4V0H3.6Z" device-cmyk="0.00, 1.00, 1.00, 0.00"/><path d="M3.578,8.213h4.135c2.483,0,3.331,1.271,3.331,2.802,0,1.364-.772,2.119-1.544,2.408,1.059.212,2.089,1.091,2.089,2.817,0,2.166-1.681,3.559-3.997,3.559H3.578v-11.585ZM7.121,13.089c1.121,0,2.06-.484,2.06-1.681,0-.894-.575-1.605-1.923-1.605h-1.696v3.286h1.559ZM7.394,18.223c1.03,0,2.166-.484,2.166-1.893,0-1.211-.607-1.802-1.834-1.802h-2.165v3.695h1.832Z" fill="#fff"/><path d="M13.995,8.213h1.984v7.603c0,1.484.818,2.408,2.362,2.408s2.363-.924,2.363-2.408v-7.603h1.984v8.041c0,2.5-1.878,3.771-4.347,3.771s-4.346-1.271-4.346-3.771v-8.041Z" fill="#fff"/><path d="M25.593,17.496c.772.318,1.635.681,2.878.681,1.635,0,1.954-.939,1.954-1.575,0-.803-.455-1.303-1.546-1.741l-1.287-.516c-1.515-.605-2.589-1.271-2.589-3.028,0-1.832,1.408-3.331,4.179-3.331,1.529,0,2.484.317,3.135.635l-.682,1.773c-.65-.379-1.453-.681-2.559-.681-1.014,0-1.817.514-1.817,1.362,0,.621.303,1.015,1.273,1.408l1.56.637c1.696.696,2.483,1.59,2.483,3.21,0,3.044-2.286,3.696-3.982,3.696-1.636,0-2.878-.455-3.726-.984l.727-1.546Z" fill="#fff"/></g><g transform="translate(0,0)"><path class="picto-outline" fill="rgb(236,102,8)" d="M39.333,0h44.1697v28h-44.1697V0.7z"/><path fill="rgb(255,255,255)" d="M42.18 23.30L54.31 23.30L54.31 20.52L45.85 20.52C45.90 19.73 46.05 19.08 47.56 17.94L50.32 15.88C52.75 14.05 54.01 12.58 54.01 9.48C54.01 6.01 51.38 4.10 47.61 4.10C45.93 4.10 43.74 4.70 42.01 5.74L43.10 8.09C44.02 7.60 45.78 6.90 47.37 6.90C49.05 6.90 50.54 7.62 50.54 9.93C50.54 11.59 49.60 12.61 47.96 13.82L45.68 15.54C43.22 17.40 42.18 18.93 42.18 20.87ZM55.74 23.30L67.60 23.30L67.60 20.70L63.81 20.70L63.81 4.32L61.03 4.32L54.90 7.67L56.09 9.98L60.48 7.50L60.48 20.70L55.74 20.70ZM69.13 23.30L80.99 23.30L80.99 20.70L77.20 20.70L77.20 4.32L74.42 4.32L68.29 7.67L69.48 9.98L73.87 7.50L73.87 20.70L69.13 20.70Z"/></g></g></svg>