<svg xmlns="http://www.w3.org/2000/svg" viewBox="0 0 83.503 28" data-ligne-id="BUS214" class=""><g><g><path fill="rgb(226,0,26)" class="picto-outline" d="M3.6,0S0,5.4,0,14s3.6,14,3.6,14h31.4V0H3.6Z" device-cmyk="0.00, 1.00, 1.00, 0.00"/><path d="M3.578,8.213h4.135c2.483,0,3.331,1.271,3.331,2.802,0,1.364-.772,2.119-1.544,2.408,1.059.212,2.089,1.091,2.089,2.817,0,2.166-1.681,3.559-3.997,3.559H3.578v-11.585ZM7.121,13.089c1.121,0,2.06-.484,2.06-1.681,0-.894-.575-1.605-1.923-1.605h-1.696v3.286h1.559ZM7.394,18.223c1.03,0,2.166-.484,2.166-1.893,0-1.211-.607-1.802-1.834-1.802h-2.165v3.695h1.832Z" fill="#fff"/><path d="M13.995,8.213h1.984v7.603c0,1.484.818,2.408,2.362,2.408s2.363-.924,2.363-2.408v-7.603h1.984v8.041c0,2.5-1.878,3.771-4.347,3.771s-4.346-1.271-4.346-3.771v-8.041Z" fill="#fff"/><path d="M25.593,17.496c.772.318,1.635.681,2.878.681,1.635,0,1.954-.939,1.954-1.575,0-.803-.455-1.303-1.546-1.741l-1.287-.516c-1.515-.605-2.589-1.271-2.589-3.028,0-1.832,1.408-3.331,4.179-3.331,1.529,0,2.484.317,3.135.635l-.682,1.773c-.65-.379-1.453-.681-2.559-.681-1.014,0-1.817.514-1.817,1.362,0,.621.303,1.015,1.273,1.408l1.56.637c1.696.696,2.483,1.59,2.483,3.21,0,3.044-2.286,3.696-3.982,3.696-1.636,0-2.878-.455-3.726-.984l.727-1.546Z" fill="#fff"/></g><g transform="translate(0,0)"><path class="picto-outline" fill="rgb(38,153,214)" d="M39.333,0h44.1697v28h-44.1697V0.7z"/><path fill="rgb(255,255,255)" d="M41.97 23.30L54.10 23.30L54.10 20.52L45.64 20.52C45.69 19.73 45.84 19.08 47.35 17.94L50.11 15.88C52.54 14.05 53.80 12.58 53.80 9.48C53.80 6.01 51.17 4.10 47.40 4.10C45.72 4.10 43.53 4.70 41.80 5.74L42.89 8.09C43.81 7.60 45.57 6.90 47.16 6.90C48.84 6.90 50.33 7.62 50.33 9.93C50.33 11.59 49.39 12.61 47.75 13.82L45.47 15.54C43.01 17.40 41.97 18.93 41.97 20.87ZM55.53 23.30L67.39 23.30L67.39 20.70L63.60 20.70L63.60 4.32L60.82 4.32L54.69 7.67L55.88 9.98L60.27 7.50L60.27 20.70L55.53 20.70ZM67.78 19.93L75.67 19.93L75.67 23.30L78.80 23.30L78.80 19.93L81.20 19.93L81.20 17.17L78.80 17.17L78.80 4.32L74.36 4.32L67.78 17.05ZM70.64 17.17L74.38 9.86C75.05 8.57 75.50 7.57 75.67 6.90L75.67 17.17Z"/></g></g></svg>