<svg xmlns="http://www.w3.org/2000/svg" viewBox="0 0 83.503 28" data-ligne-id="BUS165" class=""><g><g><path fill="rgb(226,0,26)" class="picto-outline" d="M3.6,0S0,5.4,0,14s3.6,14,3.6,14h31.4V0H3.6Z" device-cmyk="0.00, 1.00, 1.00, 0.00"/><path d="M3.578,8.213h4.135c2.483,0,3.331,1.271,3.331,2.802,0,1.364-.772,2.119-1.544,2.408,1.059.212,2.089,1.091,2.089,2.817,0,2.166-1.681,3.559-3.997,3.559H3.578v-11.585ZM7.121,13.089c1.121,0,2.06-.484,2.06-1.681,0-.894-.575-1.605-1.923-1.605h-1.696v3.286h1.559ZM7.394,18.223c1.03,0,2.166-.484,2.166-1.893,0-1.211-.607-1.802-1.834-1.802h-2.165v3.695h1.832Z" fill="#fff"/><path d="M13.995,8.213h1.984v7.603c0,1.484.818,2.408,2.362,2.408s2.363-.924,2.363-2.408v-7.603h1.984v8.041c0,2.5-1.878,3.771-4.347,3.771s-4.346-1.271-4.346-3.771v-8.041Z" fill="#fff"/><path d="M25.593,17.496c.772.318,1.635.681,2.878.681,1.635,0,1.954-.939,1.954-1.575,0-.803-.455-1.303-1.546-1.741l-1.287-.516c-1.515-.605-2.589-1.271-2.589-3.028,0-1.832,1.408-3.331,4.179-3.331,1.529,0,2.484.317,3.135.635l-.682,1.773c-.65-.379-1.453-.681-2.559-.681-1.014,0-1.817.514-1.817,1.362,0,.621.303,1.015,1.273,1.408l1.56.637c1.696.696,2.483,1.59,2.483,3.21,0,3.044-2.286,3.696-3.982,3.696-1.636,0-2.878-.455-3.726-.984l.727-1.546Z" fill="#fff"/></g><g transform="translate(0,0)"><path class="picto-outline" fill="rgb(229,0,105)" d="M39.333,0h44.1697v28h-44.1697V0.7z"/><path fill="rgb(255,255,255)" d="M43.13 23.30L54.85 23.30L54.85 20.73L51.10 20.73L51.10 4.54L48.35 4.54L42.29 7.85L43.47 10.13L47.81 7.68L47.81 20.73L43.13 20.73ZM61.98 23.52C65.71 23.52 68.08 20.87 68.08 17.10C68.08 13.05 65.34 12.09 63.35 12.09C61.59 12.09 59.97 12.85 59.31 13.27C59.60 9.03 61.51 7.07 64.26 7.07C65.26 7.07 65.95 7.34 66.49 7.61L67.35 5.06C66.49 4.64 65.12 4.32 63.74 4.32C58.52 4.32 55.90 8.86 55.90 14.99C55.90 20.04 57.69 23.52 61.98 23.52ZM62.20 20.92C60.11 20.92 59.31 19.20 59.31 15.77C60.29 15.23 61.44 14.96 62.37 14.96C64.01 14.96 64.72 15.80 64.72 17.68C64.72 19.55 64.04 20.92 62.20 20.92ZM68.74 22.29C69.84 22.81 71.78 23.52 74.04 23.52C78.57 23.52 80.71 20.68 80.71 17.02C80.71 13.39 78.62 11.51 75.04 11.51L72.64 11.51L72.81 7.24L80.31 7.24L80.31 4.54L69.62 4.54L69.30 14.23L73.94 14.23C76.19 14.23 77.37 15.04 77.37 17.22C77.37 19.47 76.12 20.77 73.64 20.77C72.32 20.77 70.58 20.41 69.40 19.99Z"/></g></g></svg>