<svg xmlns="http://www.w3.org/2000/svg" viewBox="0 0 83.503 28" data-ligne-id="BUS220" class=""><g><g><path fill="rgb(226,0,26)" class="picto-outline" d="M3.6,0S0,5.4,0,14s3.6,14,3.6,14h31.4V0H3.6Z" device-cmyk="0.00, 1.00, 1.00, 0.00"/><path d="M3.578,8.213h4.135c2.483,0,3.331,1.271,3.331,2.802,0,1.364-.772,2.119-1.544,2.408,1.059.212,2.089,1.091,2.089,2.817,0,2.166-1.681,3.559-3.997,3.559H3.578v-11.585ZM7.121,13.089c1.121,0,2.06-.484,2.06-1.681,0-.894-.575-1.605-1.923-1.605h-1.696v3.286h1.559ZM7.394,18.223c1.03,0,2.166-.484,2.166-1.893,0-1.211-.607-1.802-1.834-1.802h-2.165v3.695h1.832Z" fill="#fff"/><path d="M13.995,8.213h1.984v7.603c0,1.484.818,2.408,2.362,2.408s2.363-.924,2.363-2.408v-7.603h1.984v8.041c0,2.5-1.878,3.771-4.347,3.771s-4.346-1.271-4.346-3.771v-8.041Z" fill="#fff"/><path d="M25.593,17.496c.772.318,1.635.681,2.878.681,1.635,0,1.954-.939,1.954-1.575,0-.803-.455-1.303-1.546-1.741l-1.287-.516c-1.515-.605-2.589-1.271-2.589-3.028,0-1.832,1.408-3.331,4.179-3.331,1.529,0,2.484.317,3.135.635l-.682,1.773c-.65-.379-1.453-.681-2.559-.681-1.014,0-1.817.514-1.817,1.362,0,.621.303,1.015,1.273,1.408l1.56.637c1.696.696,2.483,1.59,2.483,3.21,0,3.044-2.286,3.696-3.982,3.696-1.636,0-2.878-.455-3.726-.984l.727-1.546Z" fill="#fff"/></g><g transform="translate(0,0)"><path class="picto-outline" fill="rgb(211,216,0)" d="M39.333,0h44.1697v28h-44.1697V0.7z"/><path fill="rgb(0,0,0)" d="M42.39 23.30L54.38 23.30L54.38 20.55L46.02 20.55C46.07 19.77 46.22 19.13 47.71 18.00L50.43 15.97C52.84 14.15 54.09 12.71 54.09 9.64C54.09 6.21 51.49 4.32 47.76 4.32C46.09 4.32 43.94 4.91 42.22 5.94L43.30 8.27C44.21 7.78 45.95 7.09 47.52 7.09C49.18 7.09 50.65 7.80 50.65 10.08C50.65 11.73 49.72 12.73 48.10 13.93L45.85 15.62C43.42 17.46 42.39 18.98 42.39 20.90ZM55.23 23.30L67.23 23.30L67.23 20.55L58.86 20.55C58.91 19.77 59.06 19.13 60.56 18.00L63.28 15.97C65.68 14.15 66.93 12.71 66.93 9.64C66.93 6.21 64.33 4.32 60.60 4.32C58.94 4.32 56.78 4.91 55.06 5.94L56.14 8.27C57.05 7.78 58.79 7.09 60.36 7.09C62.03 7.09 63.50 7.80 63.50 10.08C63.50 11.73 62.57 12.73 60.95 13.93L58.69 15.62C56.26 17.46 55.23 18.98 55.23 20.90ZM74.18 23.52C79.85 23.52 80.78 19.01 80.78 13.96C80.78 9.15 79.48 4.32 74.18 4.32C68.91 4.32 67.61 9.15 67.61 13.96C67.61 19.01 68.54 23.52 74.18 23.52ZM74.18 20.65C72.10 20.65 71.05 18.86 71.05 14.23C71.05 10.28 71.66 7.31 74.18 7.31C76.73 7.31 77.35 10.28 77.35 14.23C77.35 18.86 76.29 20.65 74.18 20.65Z"/></g></g></svg>