<svg xmlns="http://www.w3.org/2000/svg" viewBox="0 0 83.503 28" data-ligne-id="Chrono205" class=""><g><g><path fill="rgb(226,0,26)" class="picto-outline" device-cmyk="0.00, 1.00, 1.00, 0.00" d="M3.6,0S0,5.4,0,14s3.6,14,3.6,14h31.4V0H3.6Z"/><path d="M20.3705,4.3c2.0987,0,3.7564.4389,4.8784.8768l-1.0241,3.3449c-1.0967-.5368-2.3197-.8052-3.807-.8052-3.0512,0-5.9783,2.0492-5.9783,6.4909,0,4.9784,3.2702,6.2709,5.953,6.2709,1.8314,0,2.7102-.44,3.9301-.8746l.9999,2.5608c-1.7072.9988-3.7091,1.5356-5.9309,1.5356-4.2953,0-8.9296-2.3903-8.9296-9.4421,0-6.0036,3.7564-9.9579,9.9084-9.9579" fill="#FFFFFF"/></g><path class="picto-outline" fill="rgb(236,102,8)" d="M39.333,0h44.1697v28h-44.1697V0.7z"/><path fill="rgb(255,255,255)" d="M42.22 23.30L54.21 23.30L54.21 20.55L45.85 20.55C45.90 19.77 46.04 19.13 47.54 18.00L50.26 15.97C52.67 14.15 53.92 12.71 53.92 9.64C53.92 6.21 51.32 4.32 47.59 4.32C45.92 4.32 43.76 4.91 42.05 5.94L43.13 8.27C44.03 7.78 45.78 7.09 47.34 7.09C49.01 7.09 50.48 7.80 50.48 10.08C50.48 11.73 49.55 12.73 47.93 13.93L45.68 15.62C43.25 17.46 42.22 18.98 42.22 20.90ZM61.17 23.52C66.83 23.52 67.77 19.01 67.77 13.96C67.77 9.15 66.47 4.32 61.17 4.32C55.90 4.32 54.60 9.15 54.60 13.96C54.60 19.01 55.53 23.52 61.17 23.52ZM61.17 20.65C59.08 20.65 58.03 18.86 58.03 14.23C58.03 10.28 58.64 7.31 61.17 7.31C63.72 7.31 64.33 10.28 64.33 14.23C64.33 18.86 63.28 20.65 61.17 20.65ZM68.99 22.29C70.09 22.81 72.03 23.52 74.28 23.52C78.82 23.52 80.95 20.68 80.95 17.02C80.95 13.39 78.87 11.51 75.29 11.51L72.88 11.51L73.06 7.24L80.56 7.24L80.56 4.54L69.87 4.54L69.55 14.23L74.18 14.23C76.44 14.23 77.62 15.04 77.62 17.22C77.62 19.47 76.37 20.77 73.89 20.77C72.57 20.77 70.82 20.41 69.65 19.99Z"/></g></svg>