<svg xmlns="http://www.w3.org/2000/svg" viewBox="0 0 83.503 28" data-ligne-id="BUS31" class=""><g><g><path fill="rgb(226,0,26)" class="picto-outline" d="M3.6,0S0,5.4,0,14s3.6,14,3.6,14h31.4V0H3.6Z" device-cmyk="0.00, 1.00, 1.00, 0.00"/><path d="M3.578,8.213h4.135c2.483,0,3.331,1.271,3.331,2.802,0,1.364-.772,2.119-1.544,2.408,1.059.212,2.089,1.091,2.089,2.817,0,2.166-1.681,3.559-3.997,3.559H3.578v-11.585ZM7.121,13.089c1.121,0,2.06-.484,2.06-1.681,0-.894-.575-1.605-1.923-1.605h-1.696v3.286h1.559ZM7.394,18.223c1.03,0,2.166-.484,2.166-1.893,0-1.211-.607-1.802-1.834-1.802h-2.165v3.695h1.832Z" fill="#fff"/><path d="M13.995,8.213h1.984v7.603c0,1.484.818,2.408,2.362,2.408s2.363-.924,2.363-2.408v-7.603h1.984v8.041c0,2.5-1.878,3.771-4.347,3.771s-4.346-1.271-4.346-3.771v-8.041Z" fill="#fff"/><path d="M25.593,17.496c.772.318,1.635.681,2.878.681,1.635,0,1.954-.939,1.954-1.575,0-.803-.455-1.303-1.546-1.741l-1.287-.516c-1.515-.605-2.589-1.271-2.589-3.028,0-1.832,1.408-3.331,4.179-3.331,1.529,0,2.484.317,3.135.635l-.682,1.773c-.65-.379-1.453-.681-2.559-.681-1.014,0-1.817.514-1.817,1.362,0,.621.303,1.015,1.273,1.408l1.56.637c1.696.696,2.483,1.59,2.483,3.21,0,3.044-2.286,3.696-3.982,3.696-1.636,0-2.878-.455-3.726-.984l.727-1.546Z" fill="#fff"/></g><g transform="translate(0,0)"><path class="picto-outline" fill="rgb(102,36,131)" d="M39.333,0h44.1697v28h-44.1697V0.7z"/><path fill="rgb(255,255,255)" d="M48.09 22.05C49.03 22.59 50.94 23.50 53.47 23.50C57.82 23.50 60.13 20.82 60.13 17.58C60.13 15.30 59.00 13.70 57.13 13.06C58.65 12.35 59.90 11.20 59.90 8.94C59.90 6.24 58.14 4.30 54.40 4.30C52.15 4.30 49.76 5.01 48.02 5.99L49.15 8.52C50.30 7.81 51.95 7.14 53.74 7.14C55.71 7.14 56.52 7.93 56.52 9.45C56.52 11.51 54.85 12.28 52.91 12.28L51.24 12.28L51.24 14.98L53.37 14.98C55.26 14.98 56.81 15.57 56.81 17.55C56.81 19.27 55.68 20.57 53.25 20.57C51.41 20.57 49.74 19.86 49.03 19.49ZM63.24 23.30L74.98 23.30L74.98 20.72L71.22 20.72L71.22 4.52L68.47 4.52L62.41 7.83L63.59 10.12L67.93 7.66L67.93 20.72L63.24 20.72Z"/></g></g></svg>