<svg xmlns="http://www.w3.org/2000/svg" viewBox="0 0 83.503 28" data-ligne-id="BUS32" class=""><g><g><path fill="rgb(226,0,26)" class="picto-outline" device-cmyk="0.00, 1.00, 1.00, 0.00" d="M3.6,0S0,5.4,0,14s3.6,14,3.6,14h31.4V0H3.6Z"/><path d="M3.578,8.213h4.135c2.483,0,3.331,1.271,3.331,2.802,0,1.364-.772,2.119-1.544,2.408,1.059.212,2.089,1.091,2.089,2.817,0,2.166-1.681,3.559-3.997,3.559H3.578v-11.585ZM7.121,13.089c1.121,0,2.06-.484,2.06-1.681,0-.894-.575-1.605-1.923-1.605h-1.696v3.286h1.559ZM7.394,18.223c1.03,0,2.166-.484,2.166-1.893,0-1.211-.607-1.802-1.834-1.802h-2.165v3.695h1.832Z" fill="#fff"/><path d="M13.995,8.213h1.984v7.603c0,1.484.818,2.408,2.362,2.408s2.363-.924,2.363-2.408v-7.603h1.984v8.041c0,2.5-1.878,3.771-4.347,3.771s-4.346-1.271-4.346-3.771v-8.041Z" fill="#fff"/><path d="M25.593,17.496c.772.318,1.635.681,2.878.681,1.635,0,1.954-.939,1.954-1.575,0-.803-.455-1.303-1.546-1.741l-1.287-.516c-1.515-.605-2.589-1.271-2.589-3.028,0-1.832,1.408-3.331,4.179-3.331,1.529,0,2.484.317,3.135.635l-.682,1.773c-.65-.379-1.453-.681-2.559-.681-1.014,0-1.817.514-1.817,1.362,0,.621.303,1.015,1.273,1.408l1.56.637c1.696.696,2.483,1.59,2.483,3.21,0,3.044-2.286,3.696-3.982,3.696-1.636,0-2.878-.455-3.726-.984l.727-1.546Z" fill="#fff"/></g><g transform="translate(0,0)"><path class="picto-outline" fill="rgb(107,162,48)" d="M39.333,0h44.1697v28h-44.1697V0.7z"/><path fill="rgb(255,255,255)" d="M48.24 22.05C49.17 22.59 51.09 23.50 53.62 23.50C57.96 23.50 60.27 20.82 60.27 17.58C60.27 15.30 59.14 13.70 57.28 13.06C58.80 12.35 60.05 11.20 60.05 8.94C60.05 6.24 58.28 4.30 54.55 4.30C52.29 4.30 49.91 5.01 48.17 5.99L49.30 8.52C50.45 7.81 52.10 7.14 53.89 7.14C55.85 7.14 56.66 7.93 56.66 9.45C56.66 11.51 54.99 12.28 53.05 12.28L51.38 12.28L51.38 14.98L53.52 14.98C55.41 14.98 56.96 15.57 56.96 17.55C56.96 19.27 55.83 20.57 53.40 20.57C51.56 20.57 49.89 19.86 49.17 19.49ZM62.83 23.30L74.83 23.30L74.83 20.55L66.46 20.55C66.51 19.76 66.66 19.13 68.15 18.00L70.88 15.96C73.29 14.14 74.54 12.69 74.54 9.62C74.54 6.19 71.93 4.30 68.20 4.30C66.53 4.30 64.37 4.89 62.65 5.92L63.73 8.25C64.64 7.76 66.39 7.07 67.96 7.07C69.63 7.07 71.10 7.78 71.10 10.07C71.10 11.71 70.17 12.72 68.55 13.92L66.29 15.62C63.86 17.46 62.83 18.98 62.83 20.89Z"/></g></g></svg>