<svg xmlns="http://www.w3.org/2000/svg" viewBox="0 0 83.503 28" data-ligne-id="BUS33" class=""><g><g><path fill="rgb(226,0,26)" class="picto-outline" d="M3.6,0S0,5.4,0,14s3.6,14,3.6,14h31.4V0H3.6Z" device-cmyk="0.00, 1.00, 1.00, 0.00"/><path d="M3.578,8.213h4.135c2.483,0,3.331,1.271,3.331,2.802,0,1.364-.772,2.119-1.544,2.408,1.059.212,2.089,1.091,2.089,2.817,0,2.166-1.681,3.559-3.997,3.559H3.578v-11.585ZM7.121,13.089c1.121,0,2.06-.484,2.06-1.681,0-.894-.575-1.605-1.923-1.605h-1.696v3.286h1.559ZM7.394,18.223c1.03,0,2.166-.484,2.166-1.893,0-1.211-.607-1.802-1.834-1.802h-2.165v3.695h1.832Z" fill="#fff"/><path d="M13.995,8.213h1.984v7.603c0,1.484.818,2.408,2.362,2.408s2.363-.924,2.363-2.408v-7.603h1.984v8.041c0,2.5-1.878,3.771-4.347,3.771s-4.346-1.271-4.346-3.771v-8.041Z" fill="#fff"/><path d="M25.593,17.496c.772.318,1.635.681,2.878.681,1.635,0,1.954-.939,1.954-1.575,0-.803-.455-1.303-1.546-1.741l-1.287-.516c-1.515-.605-2.589-1.271-2.589-3.028,0-1.832,1.408-3.331,4.179-3.331,1.529,0,2.484.317,3.135.635l-.682,1.773c-.65-.379-1.453-.681-2.559-.681-1.014,0-1.817.514-1.817,1.362,0,.621.303,1.015,1.273,1.408l1.56.637c1.696.696,2.483,1.59,2.483,3.21,0,3.044-2.286,3.696-3.982,3.696-1.636,0-2.878-.455-3.726-.984l.727-1.546Z" fill="#fff"/></g><g transform="translate(0,0)"><path class="picto-outline" fill="rgb(49,39,131)" d="M39.333,0h44.1697v28h-44.1697V0.7z"/><path fill="rgb(255,255,255)" d="M48.46 22.05C49.40 22.59 51.31 23.50 53.84 23.50C58.19 23.50 60.49 20.82 60.49 17.58C60.49 15.30 59.36 13.70 57.50 13.06C59.02 12.35 60.27 11.20 60.27 8.94C60.27 6.24 58.50 4.30 54.77 4.30C52.51 4.30 50.13 5.01 48.39 5.99L49.52 8.52C50.67 7.81 52.32 7.14 54.11 7.14C56.07 7.14 56.88 7.93 56.88 9.45C56.88 11.51 55.21 12.28 53.27 12.28L51.61 12.28L51.61 14.98L53.74 14.98C55.63 14.98 57.18 15.57 57.18 17.55C57.18 19.27 56.05 20.57 53.62 20.57C51.78 20.57 50.11 19.86 49.40 19.49ZM62.58 22.05C63.51 22.59 65.43 23.50 67.96 23.50C72.30 23.50 74.61 20.82 74.61 17.58C74.61 15.30 73.48 13.70 71.62 13.06C73.14 12.35 74.39 11.20 74.39 8.94C74.39 6.24 72.62 4.30 68.89 4.30C66.63 4.30 64.25 5.01 62.51 5.99L63.64 8.52C64.79 7.81 66.44 7.14 68.23 7.14C70.19 7.14 71.00 7.93 71.00 9.45C71.00 11.51 69.33 12.28 67.39 12.28L65.72 12.28L65.72 14.98L67.86 14.98C69.75 14.98 71.30 15.57 71.30 17.55C71.30 19.27 70.17 20.57 67.74 20.57C65.89 20.57 64.23 19.86 63.51 19.49Z"/></g></g></svg>