<svg xmlns="http://www.w3.org/2000/svg" viewBox="0 0 83.503 28" data-ligne-id="BUS34" class=""><g><g><path fill="rgb(226,0,26)" class="picto-outline" d="M3.6,0S0,5.4,0,14s3.6,14,3.6,14h31.4V0H3.6Z" device-cmyk="0.00, 1.00, 1.00, 0.00"/><path d="M3.578,8.213h4.135c2.483,0,3.331,1.271,3.331,2.802,0,1.364-.772,2.119-1.544,2.408,1.059.212,2.089,1.091,2.089,2.817,0,2.166-1.681,3.559-3.997,3.559H3.578v-11.585ZM7.121,13.089c1.121,0,2.06-.484,2.06-1.681,0-.894-.575-1.605-1.923-1.605h-1.696v3.286h1.559ZM7.394,18.223c1.03,0,2.166-.484,2.166-1.893,0-1.211-.607-1.802-1.834-1.802h-2.165v3.695h1.832Z" fill="#fff"/><path d="M13.995,8.213h1.984v7.603c0,1.484.818,2.408,2.362,2.408s2.363-.924,2.363-2.408v-7.603h1.984v8.041c0,2.5-1.878,3.771-4.347,3.771s-4.346-1.271-4.346-3.771v-8.041Z" fill="#fff"/><path d="M25.593,17.496c.772.318,1.635.681,2.878.681,1.635,0,1.954-.939,1.954-1.575,0-.803-.455-1.303-1.546-1.741l-1.287-.516c-1.515-.605-2.589-1.271-2.589-3.028,0-1.832,1.408-3.331,4.179-3.331,1.529,0,2.484.317,3.135.635l-.682,1.773c-.65-.379-1.453-.681-2.559-.681-1.014,0-1.817.514-1.817,1.362,0,.621.303,1.015,1.273,1.408l1.56.637c1.696.696,2.483,1.59,2.483,3.21,0,3.044-2.286,3.696-3.982,3.696-1.636,0-2.878-.455-3.726-.984l.727-1.546Z" fill="#fff"/></g><g transform="translate(0,0)"><path class="picto-outline" fill="rgb(107,162,48)" d="M39.333,0h44.1697v28h-44.1697V0.7z"/><path fill="rgb(255,255,255)" d="M47.89 22.05C48.82 22.59 50.73 23.50 53.26 23.50C57.61 23.50 59.92 20.82 59.92 17.58C59.92 15.30 58.79 13.70 56.92 13.06C58.44 12.35 59.70 11.20 59.70 8.94C59.70 6.24 57.93 4.30 54.20 4.30C51.94 4.30 49.56 5.01 47.81 5.99L48.94 8.52C50.10 7.81 51.74 7.14 53.53 7.14C55.50 7.14 56.31 7.93 56.31 9.45C56.31 11.51 54.64 12.28 52.70 12.28L51.03 12.28L51.03 14.98L53.16 14.98C55.05 14.98 56.60 15.57 56.60 17.55C56.60 19.27 55.47 20.57 53.04 20.57C51.20 20.57 49.53 19.86 48.82 19.49ZM61.91 19.96L69.71 19.96L69.71 23.30L72.81 23.30L72.81 19.96L75.19 19.96L75.19 17.24L72.81 17.24L72.81 4.52L68.41 4.52L61.91 17.11ZM64.73 17.24L68.44 9.99C69.10 8.72 69.54 7.73 69.71 7.07L69.71 17.24Z"/></g></g></svg>