<svg xmlns="http://www.w3.org/2000/svg" viewBox="0 0 83.503 28" data-ligne-id="BUS35" class=""><g><g><path fill="rgb(226,0,26)" class="picto-outline" d="M3.6,0S0,5.4,0,14s3.6,14,3.6,14h31.4V0H3.6Z" device-cmyk="0.00, 1.00, 1.00, 0.00"/><path d="M3.578,8.213h4.135c2.483,0,3.331,1.271,3.331,2.802,0,1.364-.772,2.119-1.544,2.408,1.059.212,2.089,1.091,2.089,2.817,0,2.166-1.681,3.559-3.997,3.559H3.578v-11.585ZM7.121,13.089c1.121,0,2.06-.484,2.06-1.681,0-.894-.575-1.605-1.923-1.605h-1.696v3.286h1.559ZM7.394,18.223c1.03,0,2.166-.484,2.166-1.893,0-1.211-.607-1.802-1.834-1.802h-2.165v3.695h1.832Z" fill="#fff"/><path d="M13.995,8.213h1.984v7.603c0,1.484.818,2.408,2.362,2.408s2.363-.924,2.363-2.408v-7.603h1.984v8.041c0,2.5-1.878,3.771-4.347,3.771s-4.346-1.271-4.346-3.771v-8.041Z" fill="#fff"/><path d="M25.593,17.496c.772.318,1.635.681,2.878.681,1.635,0,1.954-.939,1.954-1.575,0-.803-.455-1.303-1.546-1.741l-1.287-.516c-1.515-.605-2.589-1.271-2.589-3.028,0-1.832,1.408-3.331,4.179-3.331,1.529,0,2.484.317,3.135.635l-.682,1.773c-.65-.379-1.453-.681-2.559-.681-1.014,0-1.817.514-1.817,1.362,0,.621.303,1.015,1.273,1.408l1.56.637c1.696.696,2.483,1.59,2.483,3.21,0,3.044-2.286,3.696-3.982,3.696-1.636,0-2.878-.455-3.726-.984l.727-1.546Z" fill="#fff"/></g><g transform="translate(0,0)"><path class="picto-outline" fill="rgb(188,163,206)" d="M39.333,0h44.1697v28h-44.1697V0.7z"/><path fill="rgb(0,0,0)" d="M48.23 22.05C49.17 22.59 51.08 23.50 53.60 23.50C57.94 23.50 60.25 20.82 60.25 17.59C60.25 15.31 59.12 13.71 57.26 13.07C58.78 12.36 60.03 11.21 60.03 8.96C60.03 6.26 58.26 4.32 54.54 4.32C52.28 4.32 49.90 5.03 48.16 6.01L49.29 8.54C50.44 7.83 52.08 7.17 53.87 7.17C55.84 7.17 56.64 7.95 56.64 9.47C56.64 11.53 54.98 12.29 53.04 12.29L51.37 12.29L51.37 14.99L53.51 14.99C55.39 14.99 56.94 15.58 56.94 17.56C56.94 19.28 55.81 20.58 53.38 20.58C51.54 20.58 49.88 19.87 49.17 19.50ZM62.87 22.29C63.98 22.81 65.91 23.52 68.17 23.52C72.71 23.52 74.84 20.68 74.84 17.02C74.84 13.39 72.76 11.51 69.18 11.51L66.77 11.51L66.94 7.24L74.45 7.24L74.45 4.54L63.76 4.54L63.44 14.23L68.07 14.23C70.33 14.23 71.50 15.04 71.50 17.22C71.50 19.47 70.25 20.77 67.78 20.77C66.45 20.77 64.71 20.41 63.54 19.99Z"/></g></g></svg>