<svg xmlns="http://www.w3.org/2000/svg" viewBox="0 0 83.503 28" data-ligne-id="BUS37" class=""><g><g><path fill="rgb(226,0,26)" class="picto-outline" d="M3.6,0S0,5.4,0,14s3.6,14,3.6,14h31.4V0H3.6Z" device-cmyk="0.00, 1.00, 1.00, 0.00"/><path d="M3.578,8.213h4.135c2.483,0,3.331,1.271,3.331,2.802,0,1.364-.772,2.119-1.544,2.408,1.059.212,2.089,1.091,2.089,2.817,0,2.166-1.681,3.559-3.997,3.559H3.578v-11.585ZM7.121,13.089c1.121,0,2.06-.484,2.06-1.681,0-.894-.575-1.605-1.923-1.605h-1.696v3.286h1.559ZM7.394,18.223c1.03,0,2.166-.484,2.166-1.893,0-1.211-.607-1.802-1.834-1.802h-2.165v3.695h1.832Z" fill="#fff"/><path d="M13.995,8.213h1.984v7.603c0,1.484.818,2.408,2.362,2.408s2.363-.924,2.363-2.408v-7.603h1.984v8.041c0,2.5-1.878,3.771-4.347,3.771s-4.346-1.271-4.346-3.771v-8.041Z" fill="#fff"/><path d="M25.593,17.496c.772.318,1.635.681,2.878.681,1.635,0,1.954-.939,1.954-1.575,0-.803-.455-1.303-1.546-1.741l-1.287-.516c-1.515-.605-2.589-1.271-2.589-3.028,0-1.832,1.408-3.331,4.179-3.331,1.529,0,2.484.317,3.135.635l-.682,1.773c-.65-.379-1.453-.681-2.559-.681-1.014,0-1.817.514-1.817,1.362,0,.621.303,1.015,1.273,1.408l1.56.637c1.696.696,2.483,1.59,2.483,3.21,0,3.044-2.286,3.696-3.982,3.696-1.636,0-2.878-.455-3.726-.984l.727-1.546Z" fill="#fff"/></g><g transform="translate(0,0)"><path class="picto-outline" fill="rgb(0,117,191)" d="M39.333,0h44.1697v28h-44.1697V0.7z"/><path fill="rgb(255,255,255)" d="M48.29 22.05C49.22 22.59 51.14 23.50 53.67 23.50C58.01 23.50 60.32 20.82 60.32 17.58C60.32 15.30 59.19 13.70 57.33 13.06C58.85 12.35 60.10 11.20 60.10 8.94C60.10 6.24 58.33 4.30 54.60 4.30C52.34 4.30 49.96 5.01 48.22 5.99L49.35 8.52C50.50 7.81 52.15 7.14 53.94 7.14C55.90 7.14 56.71 7.93 56.71 9.45C56.71 11.51 55.04 12.28 53.10 12.28L51.43 12.28L51.43 14.98L53.57 14.98C55.46 14.98 57.01 15.57 57.01 17.55C57.01 19.27 55.88 20.57 53.45 20.57C51.61 20.57 49.94 19.86 49.22 19.49ZM65.23 23.30L68.67 23.30C68.67 19.54 68.74 18.34 70.12 16.30L71.79 13.82C74.44 9.89 74.78 8.79 74.78 6.58C74.78 5.79 74.71 5.08 74.64 4.52L62.70 4.52L62.70 7.29L71.39 7.29C71.39 7.51 71.37 7.73 71.35 7.95C71.20 8.84 70.73 9.70 69.38 11.71L67.98 13.80C65.70 17.19 65.23 18.86 65.23 23.30Z"/></g></g></svg>