<svg xmlns="http://www.w3.org/2000/svg" viewBox="0 0 83.503 28" data-ligne-id="BUS38" class=""><g><g><path fill="rgb(226,0,26)" class="picto-outline" d="M3.6,0S0,5.4,0,14s3.6,14,3.6,14h31.4V0H3.6Z" device-cmyk="0.00, 1.00, 1.00, 0.00"/><path d="M3.578,8.213h4.135c2.483,0,3.331,1.271,3.331,2.802,0,1.364-.772,2.119-1.544,2.408,1.059.212,2.089,1.091,2.089,2.817,0,2.166-1.681,3.559-3.997,3.559H3.578v-11.585ZM7.121,13.089c1.121,0,2.06-.484,2.06-1.681,0-.894-.575-1.605-1.923-1.605h-1.696v3.286h1.559ZM7.394,18.223c1.03,0,2.166-.484,2.166-1.893,0-1.211-.607-1.802-1.834-1.802h-2.165v3.695h1.832Z" fill="#fff"/><path d="M13.995,8.213h1.984v7.603c0,1.484.818,2.408,2.362,2.408s2.363-.924,2.363-2.408v-7.603h1.984v8.041c0,2.5-1.878,3.771-4.347,3.771s-4.346-1.271-4.346-3.771v-8.041Z" fill="#fff"/><path d="M25.593,17.496c.772.318,1.635.681,2.878.681,1.635,0,1.954-.939,1.954-1.575,0-.803-.455-1.303-1.546-1.741l-1.287-.516c-1.515-.605-2.589-1.271-2.589-3.028,0-1.832,1.408-3.331,4.179-3.331,1.529,0,2.484.317,3.135.635l-.682,1.773c-.65-.379-1.453-.681-2.559-.681-1.014,0-1.817.514-1.817,1.362,0,.621.303,1.015,1.273,1.408l1.56.637c1.696.696,2.483,1.59,2.483,3.21,0,3.044-2.286,3.696-3.982,3.696-1.636,0-2.878-.455-3.726-.984l.727-1.546Z" fill="#fff"/></g><g transform="translate(0,0)"><path class="picto-outline" fill="rgb(131,196,145)" d="M39.333,0h44.1697v28h-44.1697V0.7z"/><path fill="rgb(0,0,0)" d="M48.14 22.05C49.08 22.59 50.99 23.50 53.52 23.50C57.87 23.50 60.17 20.82 60.17 17.58C60.17 15.30 59.04 13.70 57.18 13.06C58.70 12.35 59.95 11.20 59.95 8.94C59.95 6.24 58.19 4.30 54.45 4.30C52.19 4.30 49.81 5.01 48.07 5.99L49.20 8.52C50.35 7.81 52.00 7.14 53.79 7.14C55.75 7.14 56.56 7.93 56.56 9.45C56.56 11.51 54.90 12.28 52.96 12.28L51.29 12.28L51.29 14.98L53.42 14.98C55.31 14.98 56.86 15.57 56.86 17.55C56.86 19.27 55.73 20.57 53.30 20.57C51.46 20.57 49.79 19.86 49.08 19.49ZM62.78 18.32C62.78 20.99 64.50 23.50 68.52 23.50C72.77 23.50 74.93 20.72 74.93 17.75C74.93 15.49 73.70 13.92 71.39 12.89C72.79 12.23 74.17 10.93 74.17 8.76C74.17 6.06 72.28 4.30 69.01 4.30C65.87 4.30 63.32 6.24 63.32 9.50C63.32 10.95 63.81 12.37 65.82 13.60C64.23 14.49 62.78 15.86 62.78 18.32ZM68.87 12.01C67.17 11.29 66.88 10.34 66.88 9.35C66.88 7.54 67.86 6.90 68.96 6.90C70.29 6.90 70.78 7.78 70.78 9.04C70.78 10.36 70.22 11.34 68.87 12.01ZM66.29 18.22C66.29 16.82 66.88 15.54 68.03 14.85C70.17 15.62 71.44 16.28 71.44 18.24C71.44 19.86 70.56 21.04 68.89 21.04C67.44 21.04 66.29 20.16 66.29 18.22Z"/></g></g></svg>