<svg xmlns="http://www.w3.org/2000/svg" viewBox="0 0 83.503 28" data-ligne-id="BUS39" class=""><g><g><path fill="rgb(226,0,26)" class="picto-outline" d="M3.6,0S0,5.4,0,14s3.6,14,3.6,14h31.4V0H3.6Z" device-cmyk="0.00, 1.00, 1.00, 0.00"/><path d="M3.578,8.213h4.135c2.483,0,3.331,1.271,3.331,2.802,0,1.364-.772,2.119-1.544,2.408,1.059.212,2.089,1.091,2.089,2.817,0,2.166-1.681,3.559-3.997,3.559H3.578v-11.585ZM7.121,13.089c1.121,0,2.06-.484,2.06-1.681,0-.894-.575-1.605-1.923-1.605h-1.696v3.286h1.559ZM7.394,18.223c1.03,0,2.166-.484,2.166-1.893,0-1.211-.607-1.802-1.834-1.802h-2.165v3.695h1.832Z" fill="#fff"/><path d="M13.995,8.213h1.984v7.603c0,1.484.818,2.408,2.362,2.408s2.363-.924,2.363-2.408v-7.603h1.984v8.041c0,2.5-1.878,3.771-4.347,3.771s-4.346-1.271-4.346-3.771v-8.041Z" fill="#fff"/><path d="M25.593,17.496c.772.318,1.635.681,2.878.681,1.635,0,1.954-.939,1.954-1.575,0-.803-.455-1.303-1.546-1.741l-1.287-.516c-1.515-.605-2.589-1.271-2.589-3.028,0-1.832,1.408-3.331,4.179-3.331,1.529,0,2.484.317,3.135.635l-.682,1.773c-.65-.379-1.453-.681-2.559-.681-1.014,0-1.817.514-1.817,1.362,0,.621.303,1.015,1.273,1.408l1.56.637c1.696.696,2.483,1.59,2.483,3.21,0,3.044-2.286,3.696-3.982,3.696-1.636,0-2.878-.455-3.726-.984l.727-1.546Z" fill="#fff"/></g><g transform="translate(0,0)"><path class="picto-outline" fill="rgb(0,79,159)" d="M39.333,0h44.1697v28h-44.1697V0.7z"/><path fill="rgb(255,255,255)" d="M48.18 22.05C49.11 22.59 51.03 23.50 53.56 23.50C57.90 23.50 60.21 20.82 60.21 17.58C60.21 15.30 59.08 13.70 57.22 13.06C58.74 12.35 59.99 11.20 59.99 8.94C59.99 6.24 58.22 4.30 54.49 4.30C52.23 4.30 49.85 5.01 48.11 5.99L49.24 8.52C50.39 7.81 52.04 7.14 53.83 7.14C55.79 7.14 56.60 7.93 56.60 9.45C56.60 11.51 54.93 12.28 52.99 12.28L51.32 12.28L51.32 14.98L53.46 14.98C55.35 14.98 56.90 15.57 56.90 17.55C56.90 19.27 55.77 20.57 53.34 20.57C51.49 20.57 49.83 19.86 49.11 19.49ZM62.91 22.49C64.11 23.13 66.15 23.50 67.67 23.50C72.83 23.50 74.89 19.45 74.89 13.60C74.89 7.81 73.22 4.30 68.63 4.30C65.07 4.30 62.67 6.83 62.67 10.70C62.67 14.61 65.66 15.93 67.70 15.93C69.57 15.93 70.87 15.10 71.53 14.68C71.53 18.51 70.35 20.70 67.58 20.70C65.76 20.70 64.56 20.21 63.80 19.89ZM68.73 12.87C66.94 12.87 66.03 11.81 66.03 10.16C66.03 8.42 66.67 6.90 68.68 6.90C70.77 6.90 71.43 9.33 71.43 12.05C70.65 12.57 70.01 12.87 68.73 12.87Z"/></g></g></svg>