<svg xmlns="http://www.w3.org/2000/svg" viewBox="0 0 83.503 28" data-ligne-id="BUS40" class=""><g><g><path fill="rgb(226,0,26)" class="picto-outline" d="M3.6,0S0,5.4,0,14s3.6,14,3.6,14h31.4V0H3.6Z" device-cmyk="0.00, 1.00, 1.00, 0.00"/><path d="M3.578,8.213h4.135c2.483,0,3.331,1.271,3.331,2.802,0,1.364-.772,2.119-1.544,2.408,1.059.212,2.089,1.091,2.089,2.817,0,2.166-1.681,3.559-3.997,3.559H3.578v-11.585ZM7.121,13.089c1.121,0,2.06-.484,2.06-1.681,0-.894-.575-1.605-1.923-1.605h-1.696v3.286h1.559ZM7.394,18.223c1.03,0,2.166-.484,2.166-1.893,0-1.211-.607-1.802-1.834-1.802h-2.165v3.695h1.832Z" fill="#fff"/><path d="M13.995,8.213h1.984v7.603c0,1.484.818,2.408,2.362,2.408s2.363-.924,2.363-2.408v-7.603h1.984v8.041c0,2.5-1.878,3.771-4.347,3.771s-4.346-1.271-4.346-3.771v-8.041Z" fill="#fff"/><path d="M25.593,17.496c.772.318,1.635.681,2.878.681,1.635,0,1.954-.939,1.954-1.575,0-.803-.455-1.303-1.546-1.741l-1.287-.516c-1.515-.605-2.589-1.271-2.589-3.028,0-1.832,1.408-3.331,4.179-3.331,1.529,0,2.484.317,3.135.635l-.682,1.773c-.65-.379-1.453-.681-2.559-.681-1.014,0-1.817.514-1.817,1.362,0,.621.303,1.015,1.273,1.408l1.56.637c1.696.696,2.483,1.59,2.483,3.21,0,3.044-2.286,3.696-3.982,3.696-1.636,0-2.878-.455-3.726-.984l.727-1.546Z" fill="#fff"/></g><g transform="translate(0,0)"><path class="picto-outline" fill="rgb(236,102,8)" d="M39.333,0h44.1697v28h-44.1697V0.7z"/><path fill="rgb(255,255,255)" d="M47.82 19.97L55.61 19.97L55.61 23.30L58.70 23.30L58.70 19.97L61.08 19.97L61.08 17.24L58.70 17.24L58.70 4.54L54.32 4.54L47.82 17.12ZM50.64 17.24L54.34 10.01C55.00 8.73 55.44 7.75 55.61 7.09L55.61 17.24ZM68.59 23.52C74.25 23.52 75.18 19.01 75.18 13.96C75.18 9.15 73.88 4.32 68.59 4.32C63.31 4.32 62.01 9.15 62.01 13.96C62.01 19.01 62.95 23.52 68.59 23.52ZM68.59 20.65C66.50 20.65 65.45 18.86 65.45 14.23C65.45 10.28 66.06 7.31 68.59 7.31C71.14 7.31 71.75 10.28 71.75 14.23C71.75 18.86 70.70 20.65 68.59 20.65Z"/></g></g></svg>