<svg xmlns="http://www.w3.org/2000/svg" viewBox="0 0 83.503 28" data-ligne-id="BUS222" class=""><g><g><path fill="rgb(226,0,26)" class="picto-outline" d="M3.6,0S0,5.4,0,14s3.6,14,3.6,14h31.4V0H3.6Z" device-cmyk="0.00, 1.00, 1.00, 0.00"/><path d="M3.578,8.213h4.135c2.483,0,3.331,1.271,3.331,2.802,0,1.364-.772,2.119-1.544,2.408,1.059.212,2.089,1.091,2.089,2.817,0,2.166-1.681,3.559-3.997,3.559H3.578v-11.585ZM7.121,13.089c1.121,0,2.06-.484,2.06-1.681,0-.894-.575-1.605-1.923-1.605h-1.696v3.286h1.559ZM7.394,18.223c1.03,0,2.166-.484,2.166-1.893,0-1.211-.607-1.802-1.834-1.802h-2.165v3.695h1.832Z" fill="#fff"/><path d="M13.995,8.213h1.984v7.603c0,1.484.818,2.408,2.362,2.408s2.363-.924,2.363-2.408v-7.603h1.984v8.041c0,2.5-1.878,3.771-4.347,3.771s-4.346-1.271-4.346-3.771v-8.041Z" fill="#fff"/><path d="M25.593,17.496c.772.318,1.635.681,2.878.681,1.635,0,1.954-.939,1.954-1.575,0-.803-.455-1.303-1.546-1.741l-1.287-.516c-1.515-.605-2.589-1.271-2.589-3.028,0-1.832,1.408-3.331,4.179-3.331,1.529,0,2.484.317,3.135.635l-.682,1.773c-.65-.379-1.453-.681-2.559-.681-1.014,0-1.817.514-1.817,1.362,0,.621.303,1.015,1.273,1.408l1.56.637c1.696.696,2.483,1.59,2.483,3.21,0,3.044-2.286,3.696-3.982,3.696-1.636,0-2.878-.455-3.726-.984l.727-1.546Z" fill="#fff"/></g><g transform="translate(0,0)"><path class="picto-outline" fill="rgb(110,137,151)" d="M39.333,0h44.1697v28h-44.1697V0.7z"/><path fill="rgb(255,255,255)" d="M42.53 23.30L54.66 23.30L54.66 20.52L46.20 20.52C46.25 19.73 46.40 19.08 47.91 17.94L50.67 15.88C53.10 14.05 54.36 12.58 54.36 9.48C54.36 6.01 51.73 4.10 47.96 4.10C46.27 4.10 44.09 4.70 42.36 5.74L43.45 8.09C44.36 7.60 46.13 6.90 47.71 6.90C49.40 6.90 50.89 7.62 50.89 9.93C50.89 11.59 49.95 12.61 48.31 13.82L46.03 15.54C43.57 17.40 42.53 18.93 42.53 20.87ZM55.52 23.30L67.65 23.30L67.65 20.52L59.19 20.52C59.24 19.73 59.39 19.08 60.90 17.94L63.66 15.88C66.09 14.05 67.35 12.58 67.35 9.48C67.35 6.01 64.72 4.10 60.95 4.10C59.27 4.10 57.08 4.70 55.35 5.74L56.44 8.09C57.36 7.60 59.12 6.90 60.71 6.90C62.39 6.90 63.88 7.62 63.88 9.93C63.88 11.59 62.94 12.61 61.30 13.82L59.02 15.54C56.56 17.40 55.52 18.93 55.52 20.87ZM68.51 23.30L80.64 23.30L80.64 20.52L72.19 20.52C72.24 19.73 72.38 19.08 73.90 17.94L76.65 15.88C79.08 14.05 80.35 12.58 80.35 9.48C80.35 6.01 77.72 4.10 73.95 4.10C72.26 4.10 70.08 4.70 68.34 5.74L69.43 8.09C70.35 7.60 72.11 6.90 73.70 6.90C75.39 6.90 76.87 7.62 76.87 9.93C76.87 11.59 75.93 12.61 74.29 13.82L72.01 15.54C69.56 17.40 68.51 18.93 68.51 20.87Z"/></g></g></svg>