<svg xmlns="http://www.w3.org/2000/svg" viewBox="0 0 83.503 28" data-ligne-id="BUS285" class=""><g><g><path fill="rgb(226,0,26)" class="picto-outline" d="M3.6,0S0,5.4,0,14s3.6,14,3.6,14h31.4V0H3.6Z" device-cmyk="0.00, 1.00, 1.00, 0.00"/><path d="M3.578,8.213h4.135c2.483,0,3.331,1.271,3.331,2.802,0,1.364-.772,2.119-1.544,2.408,1.059.212,2.089,1.091,2.089,2.817,0,2.166-1.681,3.559-3.997,3.559H3.578v-11.585ZM7.121,13.089c1.121,0,2.06-.484,2.06-1.681,0-.894-.575-1.605-1.923-1.605h-1.696v3.286h1.559ZM7.394,18.223c1.03,0,2.166-.484,2.166-1.893,0-1.211-.607-1.802-1.834-1.802h-2.165v3.695h1.832Z" fill="#fff"/><path d="M13.995,8.213h1.984v7.603c0,1.484.818,2.408,2.362,2.408s2.363-.924,2.363-2.408v-7.603h1.984v8.041c0,2.5-1.878,3.771-4.347,3.771s-4.346-1.271-4.346-3.771v-8.041Z" fill="#fff"/><path d="M25.593,17.496c.772.318,1.635.681,2.878.681,1.635,0,1.954-.939,1.954-1.575,0-.803-.455-1.303-1.546-1.741l-1.287-.516c-1.515-.605-2.589-1.271-2.589-3.028,0-1.832,1.408-3.331,4.179-3.331,1.529,0,2.484.317,3.135.635l-.682,1.773c-.65-.379-1.453-.681-2.559-.681-1.014,0-1.817.514-1.817,1.362,0,.621.303,1.015,1.273,1.408l1.56.637c1.696.696,2.483,1.59,2.483,3.21,0,3.044-2.286,3.696-3.982,3.696-1.636,0-2.878-.455-3.726-.984l.727-1.546Z" fill="#fff"/></g><g transform="translate(0,0)"><path class="picto-outline" fill="rgb(38,153,214)" d="M39.333,0h44.1697v28h-44.1697V0.7z"/><path fill="rgb(255,255,255)" d="M42.73 23.30L54.73 23.30L54.73 20.55L46.36 20.55C46.41 19.77 46.56 19.13 48.06 18.00L50.78 15.97C53.18 14.15 54.43 12.71 54.43 9.64C54.43 6.21 51.83 4.32 48.10 4.32C46.44 4.32 44.28 4.91 42.56 5.94L43.64 8.27C44.55 7.78 46.29 7.09 47.86 7.09C49.53 7.09 51.00 7.80 51.00 10.08C51.00 11.73 50.07 12.73 48.45 13.93L46.19 15.62C43.76 17.46 42.73 18.98 42.73 20.90ZM55.63 18.32C55.63 21.00 57.34 23.50 61.37 23.50C65.61 23.50 67.77 20.73 67.77 17.76C67.77 15.50 66.54 13.93 64.23 12.90C65.63 12.24 67.00 10.94 67.00 8.78C67.00 6.09 65.12 4.32 61.86 4.32C58.72 4.32 56.17 6.26 56.17 9.52C56.17 10.97 56.66 12.39 58.67 13.61C57.07 14.50 55.63 15.87 55.63 18.32ZM61.71 12.02C60.02 11.31 59.72 10.35 59.72 9.37C59.72 7.56 60.70 6.92 61.81 6.92C63.13 6.92 63.62 7.80 63.62 9.05C63.62 10.38 63.06 11.36 61.71 12.02ZM59.13 18.22C59.13 16.83 59.72 15.55 60.87 14.86C63.01 15.62 64.28 16.29 64.28 18.25C64.28 19.87 63.40 21.04 61.73 21.04C60.29 21.04 59.13 20.16 59.13 18.22ZM68.47 22.29C69.57 22.81 71.51 23.52 73.77 23.52C78.30 23.52 80.44 20.68 80.44 17.02C80.44 13.39 78.35 11.51 74.77 11.51L72.37 11.51L72.54 7.24L80.04 7.24L80.04 4.54L69.35 4.54L69.03 14.23L73.67 14.23C75.93 14.23 77.10 15.04 77.10 17.22C77.10 19.47 75.85 20.77 73.38 20.77C72.05 20.77 70.31 20.41 69.13 19.99Z"/></g></g></svg>