<svg xmlns="http://www.w3.org/2000/svg" viewBox="0 0 83.503 28" data-ligne-id="Chrono202" class=""><g><g><path fill="rgb(226,0,26)" class="picto-outline" device-cmyk="0.00, 1.00, 1.00, 0.00" d="M3.6,0S0,5.4,0,14s3.6,14,3.6,14h31.4V0H3.6Z"/><path d="M20.3705,4.3c2.0987,0,3.7564.4389,4.8784.8768l-1.0241,3.3449c-1.0967-.5368-2.3197-.8052-3.807-.8052-3.0512,0-5.9783,2.0492-5.9783,6.4909,0,4.9784,3.2702,6.2709,5.953,6.2709,1.8314,0,2.7102-.44,3.9301-.8746l.9999,2.5608c-1.7072.9988-3.7091,1.5356-5.9309,1.5356-4.2953,0-8.9296-2.3903-8.9296-9.4421,0-6.0036,3.7564-9.9579,9.9084-9.9579" fill="#FFFFFF"/></g><path class="picto-outline" fill="rgb(131,196,145)" d="M39.333,0h44.1697v28h-44.1697V0.7z"/><path fill="rgb(0,0,0)" d="M42.24 23.30L54.23 23.30L54.23 20.55L45.87 20.55C45.92 19.77 46.07 19.13 47.57 18.00L50.29 15.97C52.69 14.15 53.94 12.71 53.94 9.64C53.94 6.21 51.34 4.32 47.61 4.32C45.95 4.32 43.79 4.91 42.07 5.94L43.15 8.27C44.06 7.78 45.80 7.09 47.37 7.09C49.04 7.09 50.51 7.80 50.51 10.08C50.51 11.73 49.58 12.73 47.96 13.93L45.70 15.62C43.27 17.46 42.24 18.98 42.24 20.90ZM61.19 23.52C66.86 23.52 67.79 19.01 67.79 13.96C67.79 9.15 66.49 4.32 61.19 4.32C55.92 4.32 54.62 9.15 54.62 13.96C54.62 19.01 55.55 23.52 61.19 23.52ZM61.19 20.65C59.11 20.65 58.05 18.86 58.05 14.23C58.05 10.28 58.67 7.31 61.19 7.31C63.74 7.31 64.36 10.28 64.36 14.23C64.36 18.86 63.30 20.65 61.19 20.65ZM68.94 23.30L80.93 23.30L80.93 20.55L72.57 20.55C72.61 19.77 72.76 19.13 74.26 18.00L76.98 15.97C79.38 14.15 80.63 12.71 80.63 9.64C80.63 6.21 78.03 4.32 74.31 4.32C72.64 4.32 70.48 4.91 68.77 5.94L69.84 8.27C70.75 7.78 72.49 7.09 74.06 7.09C75.73 7.09 77.20 7.80 77.20 10.08C77.20 11.73 76.27 12.73 74.65 13.93L72.39 15.62C69.97 17.46 68.94 18.98 68.94 20.90Z"/></g></svg>