<svg xmlns="http://www.w3.org/2000/svg" viewBox="0 0 83.503 28" data-ligne-id="BUS43" class=""><g><g><path fill="rgb(226,0,26)" class="picto-outline" d="M3.6,0S0,5.4,0,14s3.6,14,3.6,14h31.4V0H3.6Z" device-cmyk="0.00, 1.00, 1.00, 0.00"/><path d="M3.578,8.213h4.135c2.483,0,3.331,1.271,3.331,2.802,0,1.364-.772,2.119-1.544,2.408,1.059.212,2.089,1.091,2.089,2.817,0,2.166-1.681,3.559-3.997,3.559H3.578v-11.585ZM7.121,13.089c1.121,0,2.06-.484,2.06-1.681,0-.894-.575-1.605-1.923-1.605h-1.696v3.286h1.559ZM7.394,18.223c1.03,0,2.166-.484,2.166-1.893,0-1.211-.607-1.802-1.834-1.802h-2.165v3.695h1.832Z" fill="#fff"/><path d="M13.995,8.213h1.984v7.603c0,1.484.818,2.408,2.362,2.408s2.363-.924,2.363-2.408v-7.603h1.984v8.041c0,2.5-1.878,3.771-4.347,3.771s-4.346-1.271-4.346-3.771v-8.041Z" fill="#fff"/><path d="M25.593,17.496c.772.318,1.635.681,2.878.681,1.635,0,1.954-.939,1.954-1.575,0-.803-.455-1.303-1.546-1.741l-1.287-.516c-1.515-.605-2.589-1.271-2.589-3.028,0-1.832,1.408-3.331,4.179-3.331,1.529,0,2.484.317,3.135.635l-.682,1.773c-.65-.379-1.453-.681-2.559-.681-1.014,0-1.817.514-1.817,1.362,0,.621.303,1.015,1.273,1.408l1.56.637c1.696.696,2.483,1.59,2.483,3.21,0,3.044-2.286,3.696-3.982,3.696-1.636,0-2.878-.455-3.726-.984l.727-1.546Z" fill="#fff"/></g><g transform="translate(0,0)"><path class="picto-outline" fill="rgb(214,130,181)" d="M39.333,0h44.1697v28h-44.1697V0.7z"/><path fill="rgb(0,0,0)" d="M48.38 19.96L56.18 19.96L56.18 23.30L59.28 23.30L59.28 19.96L61.66 19.96L61.66 17.24L59.28 17.24L59.28 4.52L54.88 4.52L48.38 17.11ZM51.20 17.24L54.91 9.99C55.57 8.72 56.01 7.73 56.18 7.07L56.18 17.24ZM62.59 22.05C63.53 22.59 65.44 23.50 67.97 23.50C72.32 23.50 74.62 20.82 74.62 17.58C74.62 15.30 73.49 13.70 71.63 13.06C73.15 12.35 74.40 11.20 74.40 8.94C74.40 6.24 72.63 4.30 68.90 4.30C66.64 4.30 64.26 5.01 62.52 5.99L63.65 8.52C64.80 7.81 66.45 7.14 68.24 7.14C70.20 7.14 71.01 7.93 71.01 9.45C71.01 11.51 69.34 12.28 67.40 12.28L65.74 12.28L65.74 14.98L67.87 14.98C69.76 14.98 71.31 15.57 71.31 17.55C71.31 19.27 70.18 20.57 67.75 20.57C65.91 20.57 64.24 19.86 63.53 19.49Z"/></g></g></svg>