<svg xmlns="http://www.w3.org/2000/svg" viewBox="0 0 83.503 28" data-ligne-id="BUS49" class=""><g><g><path fill="rgb(226,0,26)" class="picto-outline" d="M3.6,0S0,5.4,0,14s3.6,14,3.6,14h31.4V0H3.6Z" device-cmyk="0.00, 1.00, 1.00, 0.00"/><path d="M3.578,8.213h4.135c2.483,0,3.331,1.271,3.331,2.802,0,1.364-.772,2.119-1.544,2.408,1.059.212,2.089,1.091,2.089,2.817,0,2.166-1.681,3.559-3.997,3.559H3.578v-11.585ZM7.121,13.089c1.121,0,2.06-.484,2.06-1.681,0-.894-.575-1.605-1.923-1.605h-1.696v3.286h1.559ZM7.394,18.223c1.03,0,2.166-.484,2.166-1.893,0-1.211-.607-1.802-1.834-1.802h-2.165v3.695h1.832Z" fill="#fff"/><path d="M13.995,8.213h1.984v7.603c0,1.484.818,2.408,2.362,2.408s2.363-.924,2.363-2.408v-7.603h1.984v8.041c0,2.5-1.878,3.771-4.347,3.771s-4.346-1.271-4.346-3.771v-8.041Z" fill="#fff"/><path d="M25.593,17.496c.772.318,1.635.681,2.878.681,1.635,0,1.954-.939,1.954-1.575,0-.803-.455-1.303-1.546-1.741l-1.287-.516c-1.515-.605-2.589-1.271-2.589-3.028,0-1.832,1.408-3.331,4.179-3.331,1.529,0,2.484.317,3.135.635l-.682,1.773c-.65-.379-1.453-.681-2.559-.681-1.014,0-1.817.514-1.817,1.362,0,.621.303,1.015,1.273,1.408l1.56.637c1.696.696,2.483,1.59,2.483,3.21,0,3.044-2.286,3.696-3.982,3.696-1.636,0-2.878-.455-3.726-.984l.727-1.546Z" fill="#fff"/></g><g transform="translate(0,0)"><path class="picto-outline" fill="rgb(0,111,158)" d="M39.333,0h44.1697v28h-44.1697V0.7z"/><path fill="rgb(255,255,255)" d="M48.09 19.96L55.90 19.96L55.90 23.30L59.00 23.30L59.00 19.96L61.38 19.96L61.38 17.24L59.00 17.24L59.00 4.52L54.60 4.52L48.09 17.11ZM50.92 17.24L54.63 9.99C55.29 8.72 55.73 7.73 55.90 7.07L55.90 17.24ZM62.92 22.49C64.13 23.13 66.16 23.50 67.69 23.50C72.84 23.50 74.91 19.45 74.91 13.60C74.91 7.81 73.24 4.30 68.64 4.30C65.08 4.30 62.68 6.83 62.68 10.70C62.68 14.61 65.67 15.93 67.71 15.93C69.58 15.93 70.88 15.10 71.54 14.68C71.54 18.51 70.36 20.70 67.59 20.70C65.77 20.70 64.57 20.21 63.81 19.89ZM68.74 12.87C66.95 12.87 66.04 11.81 66.04 10.16C66.04 8.42 66.68 6.90 68.69 6.90C70.78 6.90 71.44 9.33 71.44 12.05C70.66 12.57 70.02 12.87 68.74 12.87Z"/></g></g></svg>