<svg xmlns="http://www.w3.org/2000/svg" viewBox="0 0 83.503 28" data-ligne-id="BUS50" class=""><g><g><path fill="rgb(226,0,26)" class="picto-outline" d="M3.6,0S0,5.4,0,14s3.6,14,3.6,14h31.4V0H3.6Z" device-cmyk="0.00, 1.00, 1.00, 0.00"/><path d="M3.578,8.213h4.135c2.483,0,3.331,1.271,3.331,2.802,0,1.364-.772,2.119-1.544,2.408,1.059.212,2.089,1.091,2.089,2.817,0,2.166-1.681,3.559-3.997,3.559H3.578v-11.585ZM7.121,13.089c1.121,0,2.06-.484,2.06-1.681,0-.894-.575-1.605-1.923-1.605h-1.696v3.286h1.559ZM7.394,18.223c1.03,0,2.166-.484,2.166-1.893,0-1.211-.607-1.802-1.834-1.802h-2.165v3.695h1.832Z" fill="#fff"/><path d="M13.995,8.213h1.984v7.603c0,1.484.818,2.408,2.362,2.408s2.363-.924,2.363-2.408v-7.603h1.984v8.041c0,2.5-1.878,3.771-4.347,3.771s-4.346-1.271-4.346-3.771v-8.041Z" fill="#fff"/><path d="M25.593,17.496c.772.318,1.635.681,2.878.681,1.635,0,1.954-.939,1.954-1.575,0-.803-.455-1.303-1.546-1.741l-1.287-.516c-1.515-.605-2.589-1.271-2.589-3.028,0-1.832,1.408-3.331,4.179-3.331,1.529,0,2.484.317,3.135.635l-.682,1.773c-.65-.379-1.453-.681-2.559-.681-1.014,0-1.817.514-1.817,1.362,0,.621.303,1.015,1.273,1.408l1.56.637c1.696.696,2.483,1.59,2.483,3.21,0,3.044-2.286,3.696-3.982,3.696-1.636,0-2.878-.455-3.726-.984l.727-1.546Z" fill="#fff"/></g><g transform="translate(0,0)"><path class="picto-outline" fill="rgb(200,136,23)" d="M39.333,0h44.1697v28h-44.1697V0.7z"/><path fill="rgb(255,255,255)" d="M48.14 22.29C49.24 22.81 51.18 23.52 53.43 23.52C57.97 23.52 60.10 20.68 60.10 17.02C60.10 13.39 58.02 11.51 54.44 11.51L52.03 11.51L52.21 7.24L59.71 7.24L59.71 4.54L49.02 4.54L48.70 14.23L53.33 14.23C55.59 14.23 56.77 15.04 56.77 17.22C56.77 19.47 55.52 20.77 53.04 20.77C51.72 20.77 49.98 20.41 48.80 19.99ZM68.27 23.52C73.93 23.52 74.86 19.01 74.86 13.96C74.86 9.15 73.56 4.32 68.27 4.32C63.00 4.32 61.70 9.15 61.70 13.96C61.70 19.01 62.63 23.52 68.27 23.52ZM68.27 20.65C66.18 20.65 65.13 18.86 65.13 14.23C65.13 10.28 65.74 7.31 68.27 7.31C70.82 7.31 71.43 10.28 71.43 14.23C71.43 18.86 70.38 20.65 68.27 20.65Z"/></g></g></svg>