<svg xmlns="http://www.w3.org/2000/svg" viewBox="0 0 83.503 28" data-ligne-id="BUS215" class=""><g><g><path fill="rgb(226,0,26)" class="picto-outline" d="M3.6,0S0,5.4,0,14s3.6,14,3.6,14h31.4V0H3.6Z" device-cmyk="0.00, 1.00, 1.00, 0.00"/><path d="M3.578,8.213h4.135c2.483,0,3.331,1.271,3.331,2.802,0,1.364-.772,2.119-1.544,2.408,1.059.212,2.089,1.091,2.089,2.817,0,2.166-1.681,3.559-3.997,3.559H3.578v-11.585ZM7.121,13.089c1.121,0,2.06-.484,2.06-1.681,0-.894-.575-1.605-1.923-1.605h-1.696v3.286h1.559ZM7.394,18.223c1.03,0,2.166-.484,2.166-1.893,0-1.211-.607-1.802-1.834-1.802h-2.165v3.695h1.832Z" fill="#fff"/><path d="M13.995,8.213h1.984v7.603c0,1.484.818,2.408,2.362,2.408s2.363-.924,2.363-2.408v-7.603h1.984v8.041c0,2.5-1.878,3.771-4.347,3.771s-4.346-1.271-4.346-3.771v-8.041Z" fill="#fff"/><path d="M25.593,17.496c.772.318,1.635.681,2.878.681,1.635,0,1.954-.939,1.954-1.575,0-.803-.455-1.303-1.546-1.741l-1.287-.516c-1.515-.605-2.589-1.271-2.589-3.028,0-1.832,1.408-3.331,4.179-3.331,1.529,0,2.484.317,3.135.635l-.682,1.773c-.65-.379-1.453-.681-2.559-.681-1.014,0-1.817.514-1.817,1.362,0,.621.303,1.015,1.273,1.408l1.56.637c1.696.696,2.483,1.59,2.483,3.21,0,3.044-2.286,3.696-3.982,3.696-1.636,0-2.878-.455-3.726-.984l.727-1.546Z" fill="#fff"/></g><g transform="translate(0,0)"><path class="picto-outline" fill="rgb(107,162,48)" d="M39.333,0h44.1697v28h-44.1697V0.7z"/><path fill="rgb(255,255,255)" d="M42.53 23.30L54.52 23.30L54.52 20.55L46.16 20.55C46.20 19.77 46.35 19.13 47.85 18.00L50.57 15.97C52.97 14.15 54.22 12.71 54.22 9.64C54.22 6.21 51.62 4.32 47.90 4.32C46.23 4.32 44.07 4.91 42.35 5.94L43.43 8.27C44.34 7.78 46.08 7.09 47.65 7.09C49.32 7.09 50.79 7.80 50.79 10.08C50.79 11.73 49.86 12.73 48.24 13.93L45.98 15.62C43.56 17.46 42.53 18.98 42.53 20.90ZM55.93 23.30L67.65 23.30L67.65 20.73L63.90 20.73L63.90 4.54L61.16 4.54L55.10 7.85L56.28 10.13L60.62 7.68L60.62 20.73L55.93 20.73ZM68.68 22.29C69.78 22.81 71.72 23.52 73.98 23.52C78.51 23.52 80.65 20.68 80.65 17.02C80.65 13.39 78.56 11.51 74.98 11.51L72.58 11.51L72.75 7.24L80.25 7.24L80.25 4.54L69.56 4.54L69.24 14.23L73.88 14.23C76.13 14.23 77.31 15.04 77.31 17.22C77.31 19.47 76.06 20.77 73.58 20.77C72.26 20.77 70.52 20.41 69.34 19.99Z"/></g></g></svg>