<svg xmlns="http://www.w3.org/2000/svg" viewBox="0 0 83.503 28" data-ligne-id="BUS218" class=""><g><g><path fill="rgb(226,0,26)" class="picto-outline" d="M3.6,0S0,5.4,0,14s3.6,14,3.6,14h31.4V0H3.6Z" device-cmyk="0.00, 1.00, 1.00, 0.00"/><path d="M3.578,8.213h4.135c2.483,0,3.331,1.271,3.331,2.802,0,1.364-.772,2.119-1.544,2.408,1.059.212,2.089,1.091,2.089,2.817,0,2.166-1.681,3.559-3.997,3.559H3.578v-11.585ZM7.121,13.089c1.121,0,2.06-.484,2.06-1.681,0-.894-.575-1.605-1.923-1.605h-1.696v3.286h1.559ZM7.394,18.223c1.03,0,2.166-.484,2.166-1.893,0-1.211-.607-1.802-1.834-1.802h-2.165v3.695h1.832Z" fill="#fff"/><path d="M13.995,8.213h1.984v7.603c0,1.484.818,2.408,2.362,2.408s2.363-.924,2.363-2.408v-7.603h1.984v8.041c0,2.5-1.878,3.771-4.347,3.771s-4.346-1.271-4.346-3.771v-8.041Z" fill="#fff"/><path d="M25.593,17.496c.772.318,1.635.681,2.878.681,1.635,0,1.954-.939,1.954-1.575,0-.803-.455-1.303-1.546-1.741l-1.287-.516c-1.515-.605-2.589-1.271-2.589-3.028,0-1.832,1.408-3.331,4.179-3.331,1.529,0,2.484.317,3.135.635l-.682,1.773c-.65-.379-1.453-.681-2.559-.681-1.014,0-1.817.514-1.817,1.362,0,.621.303,1.015,1.273,1.408l1.56.637c1.696.696,2.483,1.59,2.483,3.21,0,3.044-2.286,3.696-3.982,3.696-1.636,0-2.878-.455-3.726-.984l.727-1.546Z" fill="#fff"/></g><g transform="translate(0,0)"><path class="picto-outline" fill="rgb(110,137,151)" d="M39.333,0h44.1697v28h-44.1697V0.7z"/><path fill="rgb(255,255,255)" d="M42.43 23.30L54.43 23.30L54.43 20.55L46.06 20.55C46.11 19.76 46.26 19.13 47.76 18.00L50.48 15.96C52.89 14.14 54.14 12.69 54.14 9.62C54.14 6.19 51.54 4.30 47.81 4.30C46.14 4.30 43.98 4.89 42.26 5.92L43.34 8.25C44.25 7.76 45.99 7.07 47.56 7.07C49.23 7.07 50.70 7.78 50.70 10.07C50.70 11.71 49.77 12.72 48.15 13.92L45.89 15.62C43.46 17.46 42.43 18.98 42.43 20.89ZM55.85 23.30L67.59 23.30L67.59 20.72L63.83 20.72L63.83 4.52L61.08 4.52L55.02 7.83L56.20 10.12L60.54 7.66L60.54 20.72L55.85 20.72ZM68.59 18.32C68.59 20.99 70.31 23.50 74.34 23.50C78.58 23.50 80.74 20.72 80.74 17.75C80.74 15.49 79.52 13.92 77.21 12.89C78.61 12.23 79.98 10.93 79.98 8.76C79.98 6.06 78.09 4.30 74.83 4.30C71.68 4.30 69.13 6.24 69.13 9.50C69.13 10.95 69.62 12.37 71.63 13.60C70.04 14.49 68.59 15.86 68.59 18.32ZM74.68 12.01C72.99 11.29 72.69 10.34 72.69 9.35C72.69 7.54 73.67 6.90 74.78 6.90C76.10 6.90 76.59 7.78 76.59 9.04C76.59 10.36 76.03 11.34 74.68 12.01ZM72.10 18.22C72.10 16.82 72.69 15.54 73.84 14.85C75.98 15.62 77.26 16.28 77.26 18.24C77.26 19.86 76.37 21.04 74.70 21.04C73.26 21.04 72.10 20.16 72.10 18.22Z"/></g></g></svg>