<svg xmlns="http://www.w3.org/2000/svg" viewBox="0 0 83.503 28" data-ligne-id="BUS235" class=""><g><g><path fill="rgb(226,0,26)" class="picto-outline" d="M3.6,0S0,5.4,0,14s3.6,14,3.6,14h31.4V0H3.6Z" device-cmyk="0.00, 1.00, 1.00, 0.00"/><path d="M3.578,8.213h4.135c2.483,0,3.331,1.271,3.331,2.802,0,1.364-.772,2.119-1.544,2.408,1.059.212,2.089,1.091,2.089,2.817,0,2.166-1.681,3.559-3.997,3.559H3.578v-11.585ZM7.121,13.089c1.121,0,2.06-.484,2.06-1.681,0-.894-.575-1.605-1.923-1.605h-1.696v3.286h1.559ZM7.394,18.223c1.03,0,2.166-.484,2.166-1.893,0-1.211-.607-1.802-1.834-1.802h-2.165v3.695h1.832Z" fill="#fff"/><path d="M13.995,8.213h1.984v7.603c0,1.484.818,2.408,2.362,2.408s2.363-.924,2.363-2.408v-7.603h1.984v8.041c0,2.5-1.878,3.771-4.347,3.771s-4.346-1.271-4.346-3.771v-8.041Z" fill="#fff"/><path d="M25.593,17.496c.772.318,1.635.681,2.878.681,1.635,0,1.954-.939,1.954-1.575,0-.803-.455-1.303-1.546-1.741l-1.287-.516c-1.515-.605-2.589-1.271-2.589-3.028,0-1.832,1.408-3.331,4.179-3.331,1.529,0,2.484.317,3.135.635l-.682,1.773c-.65-.379-1.453-.681-2.559-.681-1.014,0-1.817.514-1.817,1.362,0,.621.303,1.015,1.273,1.408l1.56.637c1.696.696,2.483,1.59,2.483,3.21,0,3.044-2.286,3.696-3.982,3.696-1.636,0-2.878-.455-3.726-.984l.727-1.546Z" fill="#fff"/></g><g transform="translate(0,0)"><path class="picto-outline" fill="rgb(107,162,48)" d="M39.333,0h44.1697v28h-44.1697V0.7z"/><path fill="rgb(255,255,255)" d="M42.76 23.30L54.75 23.30L54.75 20.55L46.39 20.55C46.44 19.77 46.58 19.13 48.08 18.00L50.80 15.97C53.21 14.15 54.46 12.71 54.46 9.64C54.46 6.21 51.86 4.32 48.13 4.32C46.46 4.32 44.30 4.91 42.59 5.94L43.67 8.27C44.57 7.78 46.31 7.09 47.88 7.09C49.55 7.09 51.02 7.80 51.02 10.08C51.02 11.73 50.09 12.73 48.47 13.93L46.22 15.62C43.79 17.46 42.76 18.98 42.76 20.90ZM55.14 22.05C56.07 22.59 57.98 23.50 60.51 23.50C64.85 23.50 67.15 20.82 67.15 17.59C67.15 15.31 66.02 13.71 64.16 13.07C65.68 12.36 66.93 11.21 66.93 8.96C66.93 6.26 65.17 4.32 61.44 4.32C59.18 4.32 56.80 5.03 55.06 6.01L56.19 8.54C57.34 7.83 58.99 7.17 60.78 7.17C62.74 7.17 63.55 7.95 63.55 9.47C63.55 11.53 61.88 12.29 59.94 12.29L58.28 12.29L58.28 14.99L60.41 14.99C62.30 14.99 63.84 15.58 63.84 17.56C63.84 19.28 62.71 20.58 60.29 20.58C58.45 20.58 56.78 19.87 56.07 19.50ZM68.45 22.29C69.55 22.81 71.49 23.52 73.74 23.52C78.28 23.52 80.41 20.68 80.41 17.02C80.41 13.39 78.33 11.51 74.75 11.51L72.35 11.51L72.52 7.24L80.02 7.24L80.02 4.54L69.33 4.54L69.01 14.23L73.64 14.23C75.90 14.23 77.08 15.04 77.08 17.22C77.08 19.47 75.83 20.77 73.35 20.77C72.03 20.77 70.29 20.41 69.11 19.99Z"/></g></g></svg>