<svg xmlns="http://www.w3.org/2000/svg" viewBox="0 0 83.503 28" data-ligne-id="BUS236" class=""><g><g><path fill="rgb(226,0,26)" class="picto-outline" d="M3.6,0S0,5.4,0,14s3.6,14,3.6,14h31.4V0H3.6Z" device-cmyk="0.00, 1.00, 1.00, 0.00"/><path d="M3.578,8.213h4.135c2.483,0,3.331,1.271,3.331,2.802,0,1.364-.772,2.119-1.544,2.408,1.059.212,2.089,1.091,2.089,2.817,0,2.166-1.681,3.559-3.997,3.559H3.578v-11.585ZM7.121,13.089c1.121,0,2.06-.484,2.06-1.681,0-.894-.575-1.605-1.923-1.605h-1.696v3.286h1.559ZM7.394,18.223c1.03,0,2.166-.484,2.166-1.893,0-1.211-.607-1.802-1.834-1.802h-2.165v3.695h1.832Z" fill="#fff"/><path d="M13.995,8.213h1.984v7.603c0,1.484.818,2.408,2.362,2.408s2.363-.924,2.363-2.408v-7.603h1.984v8.041c0,2.5-1.878,3.771-4.347,3.771s-4.346-1.271-4.346-3.771v-8.041Z" fill="#fff"/><path d="M25.593,17.496c.772.318,1.635.681,2.878.681,1.635,0,1.954-.939,1.954-1.575,0-.803-.455-1.303-1.546-1.741l-1.287-.516c-1.515-.605-2.589-1.271-2.589-3.028,0-1.832,1.408-3.331,4.179-3.331,1.529,0,2.484.317,3.135.635l-.682,1.773c-.65-.379-1.453-.681-2.559-.681-1.014,0-1.817.514-1.817,1.362,0,.621.303,1.015,1.273,1.408l1.56.637c1.696.696,2.483,1.59,2.483,3.21,0,3.044-2.286,3.696-3.982,3.696-1.636,0-2.878-.455-3.726-.984l.727-1.546Z" fill="#fff"/></g><g transform="translate(0,0)"><path class="picto-outline" fill="rgb(102,36,131)" d="M39.333,0h44.1697v28h-44.1697V0.7z"/><path fill="rgb(255,255,255)" d="M42.64 23.30L54.63 23.30L54.63 20.55L46.27 20.55C46.31 19.77 46.46 19.13 47.96 18.00L50.68 15.97C53.08 14.15 54.33 12.71 54.33 9.64C54.33 6.21 51.73 4.32 48.01 4.32C46.34 4.32 44.18 4.91 42.46 5.94L43.54 8.27C44.45 7.78 46.19 7.09 47.76 7.09C49.43 7.09 50.90 7.80 50.90 10.08C50.90 11.73 49.97 12.73 48.35 13.93L46.09 15.62C43.67 17.46 42.64 18.98 42.64 20.90ZM55.01 22.05C55.95 22.59 57.86 23.50 60.38 23.50C64.72 23.50 67.03 20.82 67.03 17.59C67.03 15.31 65.90 13.71 64.04 13.07C65.56 12.36 66.81 11.21 66.81 8.96C66.81 6.26 65.04 4.32 61.32 4.32C59.06 4.32 56.68 5.03 54.94 6.01L56.07 8.54C57.22 7.83 58.86 7.17 60.65 7.17C62.62 7.17 63.42 7.95 63.42 9.47C63.42 11.53 61.76 12.29 59.82 12.29L58.15 12.29L58.15 14.99L60.29 14.99C62.17 14.99 63.72 15.58 63.72 17.56C63.72 19.28 62.59 20.58 60.16 20.58C58.32 20.58 56.66 19.87 55.95 19.50ZM74.43 23.52C78.16 23.52 80.54 20.87 80.54 17.10C80.54 13.05 77.79 12.09 75.80 12.09C74.04 12.09 72.42 12.85 71.76 13.27C72.05 9.03 73.96 7.07 76.71 7.07C77.72 7.07 78.40 7.34 78.94 7.61L79.80 5.06C78.94 4.64 77.57 4.32 76.19 4.32C70.97 4.32 68.35 8.86 68.35 14.99C68.35 20.04 70.14 23.52 74.43 23.52ZM74.65 20.92C72.57 20.92 71.76 19.20 71.76 15.77C72.74 15.23 73.89 14.96 74.82 14.96C76.46 14.96 77.18 15.80 77.18 17.68C77.18 19.55 76.49 20.92 74.65 20.92Z"/></g></g></svg>