<svg xmlns="http://www.w3.org/2000/svg" viewBox="0 0 83.503 28" data-ligne-id="BUS52" class=""><g><g><path fill="rgb(226,0,26)" class="picto-outline" d="M3.6,0S0,5.4,0,14s3.6,14,3.6,14h31.4V0H3.6Z" device-cmyk="0.00, 1.00, 1.00, 0.00"/><path d="M3.578,8.213h4.135c2.483,0,3.331,1.271,3.331,2.802,0,1.364-.772,2.119-1.544,2.408,1.059.212,2.089,1.091,2.089,2.817,0,2.166-1.681,3.559-3.997,3.559H3.578v-11.585ZM7.121,13.089c1.121,0,2.06-.484,2.06-1.681,0-.894-.575-1.605-1.923-1.605h-1.696v3.286h1.559ZM7.394,18.223c1.03,0,2.166-.484,2.166-1.893,0-1.211-.607-1.802-1.834-1.802h-2.165v3.695h1.832Z" fill="#fff"/><path d="M13.995,8.213h1.984v7.603c0,1.484.818,2.408,2.362,2.408s2.363-.924,2.363-2.408v-7.603h1.984v8.041c0,2.5-1.878,3.771-4.347,3.771s-4.346-1.271-4.346-3.771v-8.041Z" fill="#fff"/><path d="M25.593,17.496c.772.318,1.635.681,2.878.681,1.635,0,1.954-.939,1.954-1.575,0-.803-.455-1.303-1.546-1.741l-1.287-.516c-1.515-.605-2.589-1.271-2.589-3.028,0-1.832,1.408-3.331,4.179-3.331,1.529,0,2.484.317,3.135.635l-.682,1.773c-.65-.379-1.453-.681-2.559-.681-1.014,0-1.817.514-1.817,1.362,0,.621.303,1.015,1.273,1.408l1.56.637c1.696.696,2.483,1.59,2.483,3.21,0,3.044-2.286,3.696-3.982,3.696-1.636,0-2.878-.455-3.726-.984l.727-1.546Z" fill="#fff"/></g><g transform="translate(0,0)"><path class="picto-outline" fill="rgb(0,158,61)" d="M39.333,0h44.1697v28h-44.1697V0.7z"/><path fill="rgb(255,255,255)" d="M48.49 22.29C49.60 22.81 51.53 23.52 53.79 23.52C58.32 23.52 60.46 20.68 60.46 17.02C60.46 13.39 58.37 11.51 54.79 11.51L52.39 11.51L52.56 7.24L60.07 7.24L60.07 4.54L49.37 4.54L49.06 14.23L53.69 14.23C55.95 14.23 57.12 15.04 57.12 17.22C57.12 19.47 55.87 20.77 53.40 20.77C52.07 20.77 50.33 20.41 49.15 19.99ZM62.52 23.30L74.51 23.30L74.51 20.55L66.15 20.55C66.20 19.77 66.34 19.13 67.84 18.00L70.56 15.97C72.96 14.15 74.21 12.71 74.21 9.64C74.21 6.21 71.61 4.32 67.89 4.32C66.22 4.32 64.06 4.91 62.35 5.94L63.42 8.27C64.33 7.78 66.07 7.09 67.64 7.09C69.31 7.09 70.78 7.80 70.78 10.08C70.78 11.73 69.85 12.73 68.23 13.93L65.98 15.62C63.55 17.46 62.52 18.98 62.52 20.90Z"/></g></g></svg>