<svg xmlns="http://www.w3.org/2000/svg" viewBox="0 0 83.503 28" data-ligne-id="BUS57" class=""><g><g><path fill="rgb(226,0,26)" class="picto-outline" d="M3.6,0S0,5.4,0,14s3.6,14,3.6,14h31.4V0H3.6Z" device-cmyk="0.00, 1.00, 1.00, 0.00"/><path d="M3.578,8.213h4.135c2.483,0,3.331,1.271,3.331,2.802,0,1.364-.772,2.119-1.544,2.408,1.059.212,2.089,1.091,2.089,2.817,0,2.166-1.681,3.559-3.997,3.559H3.578v-11.585ZM7.121,13.089c1.121,0,2.06-.484,2.06-1.681,0-.894-.575-1.605-1.923-1.605h-1.696v3.286h1.559ZM7.394,18.223c1.03,0,2.166-.484,2.166-1.893,0-1.211-.607-1.802-1.834-1.802h-2.165v3.695h1.832Z" fill="#fff"/><path d="M13.995,8.213h1.984v7.603c0,1.484.818,2.408,2.362,2.408s2.363-.924,2.363-2.408v-7.603h1.984v8.041c0,2.5-1.878,3.771-4.347,3.771s-4.346-1.271-4.346-3.771v-8.041Z" fill="#fff"/><path d="M25.593,17.496c.772.318,1.635.681,2.878.681,1.635,0,1.954-.939,1.954-1.575,0-.803-.455-1.303-1.546-1.741l-1.287-.516c-1.515-.605-2.589-1.271-2.589-3.028,0-1.832,1.408-3.331,4.179-3.331,1.529,0,2.484.317,3.135.635l-.682,1.773c-.65-.379-1.453-.681-2.559-.681-1.014,0-1.817.514-1.817,1.362,0,.621.303,1.015,1.273,1.408l1.56.637c1.696.696,2.483,1.59,2.483,3.21,0,3.044-2.286,3.696-3.982,3.696-1.636,0-2.878-.455-3.726-.984l.727-1.546Z" fill="#fff"/></g><g transform="translate(0,0)"><path class="picto-outline" fill="rgb(232,48,138)" d="M39.333,0h44.1697v28h-44.1697V0.7z"/><path fill="rgb(255,255,255)" d="M48.39 22.28C49.51 22.80 51.47 23.52 53.75 23.52C58.34 23.52 60.50 20.65 60.50 16.95C60.50 13.28 58.39 11.37 54.77 11.37L52.33 11.37L52.51 7.05L60.10 7.05L60.10 4.32L49.28 4.32L48.96 14.12L53.65 14.12C55.93 14.12 57.12 14.94 57.12 17.15C57.12 19.43 55.86 20.74 53.35 20.74C52.01 20.74 50.25 20.37 49.06 19.95ZM64.96 23.30L68.43 23.30C68.43 19.50 68.51 18.29 69.90 16.23L71.58 13.72C74.26 9.76 74.61 8.64 74.61 6.41C74.61 5.61 74.54 4.89 74.46 4.32L62.41 4.32L62.41 7.13L71.19 7.13C71.19 7.35 71.16 7.57 71.14 7.80C70.99 8.69 70.52 9.56 69.15 11.59L67.74 13.70C65.43 17.12 64.96 18.81 64.96 23.30Z"/></g></g></svg>