<svg xmlns="http://www.w3.org/2000/svg" viewBox="0 0 83.503 28" data-ligne-id="BUS59" class=""><g><g><path fill="rgb(226,0,26)" class="picto-outline" d="M3.6,0S0,5.4,0,14s3.6,14,3.6,14h31.4V0H3.6Z" device-cmyk="0.00, 1.00, 1.00, 0.00"/><path d="M3.578,8.213h4.135c2.483,0,3.331,1.271,3.331,2.802,0,1.364-.772,2.119-1.544,2.408,1.059.212,2.089,1.091,2.089,2.817,0,2.166-1.681,3.559-3.997,3.559H3.578v-11.585ZM7.121,13.089c1.121,0,2.06-.484,2.06-1.681,0-.894-.575-1.605-1.923-1.605h-1.696v3.286h1.559ZM7.394,18.223c1.03,0,2.166-.484,2.166-1.893,0-1.211-.607-1.802-1.834-1.802h-2.165v3.695h1.832Z" fill="#fff"/><path d="M13.995,8.213h1.984v7.603c0,1.484.818,2.408,2.362,2.408s2.363-.924,2.363-2.408v-7.603h1.984v8.041c0,2.5-1.878,3.771-4.347,3.771s-4.346-1.271-4.346-3.771v-8.041Z" fill="#fff"/><path d="M25.593,17.496c.772.318,1.635.681,2.878.681,1.635,0,1.954-.939,1.954-1.575,0-.803-.455-1.303-1.546-1.741l-1.287-.516c-1.515-.605-2.589-1.271-2.589-3.028,0-1.832,1.408-3.331,4.179-3.331,1.529,0,2.484.317,3.135.635l-.682,1.773c-.65-.379-1.453-.681-2.559-.681-1.014,0-1.817.514-1.817,1.362,0,.621.303,1.015,1.273,1.408l1.56.637c1.696.696,2.483,1.59,2.483,3.21,0,3.044-2.286,3.696-3.982,3.696-1.636,0-2.878-.455-3.726-.984l.727-1.546Z" fill="#fff"/></g><g transform="translate(0,0)"><path class="picto-outline" fill="rgb(153,35,88)" d="M39.333,0h44.1697v28h-44.1697V0.7z"/><path fill="rgb(255,255,255)" d="M48.43 22.29C49.53 22.81 51.47 23.52 53.73 23.52C58.26 23.52 60.40 20.68 60.40 17.02C60.40 13.39 58.31 11.51 54.73 11.51L52.33 11.51L52.50 7.24L60.00 7.24L60.00 4.54L49.31 4.54L48.99 14.23L53.63 14.23C55.88 14.23 57.06 15.04 57.06 17.22C57.06 19.47 55.81 20.77 53.33 20.77C52.01 20.77 50.27 20.41 49.09 19.99ZM62.60 22.49C63.80 23.13 65.84 23.50 67.36 23.50C72.51 23.50 74.57 19.45 74.57 13.61C74.57 7.83 72.90 4.32 68.32 4.32C64.76 4.32 62.36 6.85 62.36 10.72C62.36 14.62 65.35 15.94 67.39 15.94C69.25 15.94 70.55 15.11 71.21 14.69C71.21 18.52 70.03 20.70 67.26 20.70C65.45 20.70 64.25 20.21 63.49 19.89ZM68.41 12.88C66.62 12.88 65.72 11.82 65.72 10.18C65.72 8.44 66.36 6.92 68.37 6.92C70.45 6.92 71.11 9.35 71.11 12.07C70.33 12.58 69.69 12.88 68.41 12.88Z"/></g></g></svg>