<svg xmlns="http://www.w3.org/2000/svg" viewBox="0 0 83.503 28" data-ligne-id="BUS63" class=""><g><g><path fill="rgb(226,0,26)" class="picto-outline" d="M3.6,0S0,5.4,0,14s3.6,14,3.6,14h31.4V0H3.6Z" device-cmyk="0.00, 1.00, 1.00, 0.00"/><path d="M3.578,8.213h4.135c2.483,0,3.331,1.271,3.331,2.802,0,1.364-.772,2.119-1.544,2.408,1.059.212,2.089,1.091,2.089,2.817,0,2.166-1.681,3.559-3.997,3.559H3.578v-11.585ZM7.121,13.089c1.121,0,2.06-.484,2.06-1.681,0-.894-.575-1.605-1.923-1.605h-1.696v3.286h1.559ZM7.394,18.223c1.03,0,2.166-.484,2.166-1.893,0-1.211-.607-1.802-1.834-1.802h-2.165v3.695h1.832Z" fill="#fff"/><path d="M13.995,8.213h1.984v7.603c0,1.484.818,2.408,2.362,2.408s2.363-.924,2.363-2.408v-7.603h1.984v8.041c0,2.5-1.878,3.771-4.347,3.771s-4.346-1.271-4.346-3.771v-8.041Z" fill="#fff"/><path d="M25.593,17.496c.772.318,1.635.681,2.878.681,1.635,0,1.954-.939,1.954-1.575,0-.803-.455-1.303-1.546-1.741l-1.287-.516c-1.515-.605-2.589-1.271-2.589-3.028,0-1.832,1.408-3.331,4.179-3.331,1.529,0,2.484.317,3.135.635l-.682,1.773c-.65-.379-1.453-.681-2.559-.681-1.014,0-1.817.514-1.817,1.362,0,.621.303,1.015,1.273,1.408l1.56.637c1.696.696,2.483,1.59,2.483,3.21,0,3.044-2.286,3.696-3.982,3.696-1.636,0-2.878-.455-3.726-.984l.727-1.546Z" fill="#fff"/></g><g transform="translate(0,0)"><path class="picto-outline" fill="rgb(0,153,188)" d="M39.333,0h44.1697v28h-44.1697V0.7z"/><path fill="rgb(255,255,255)" d="M54.81 23.52C58.53 23.52 60.91 20.87 60.91 17.10C60.91 13.05 58.17 12.09 56.18 12.09C54.41 12.09 52.80 12.85 52.13 13.27C52.43 9.03 54.34 7.07 57.09 7.07C58.09 7.07 58.78 7.34 59.32 7.61L60.18 5.06C59.32 4.64 57.94 4.32 56.57 4.32C51.35 4.32 48.72 8.86 48.72 14.99C48.72 20.04 50.51 23.52 54.81 23.52ZM55.03 20.92C52.94 20.92 52.13 19.20 52.13 15.77C53.11 15.23 54.27 14.96 55.20 14.96C56.84 14.96 57.55 15.80 57.55 17.68C57.55 19.55 56.87 20.92 55.03 20.92ZM62.26 22.05C63.19 22.59 65.10 23.50 67.63 23.50C71.97 23.50 74.28 20.82 74.28 17.59C74.28 15.31 73.15 13.71 71.28 13.07C72.80 12.36 74.05 11.21 74.05 8.96C74.05 6.26 72.29 4.32 68.56 4.32C66.31 4.32 63.93 5.03 62.19 6.01L63.31 8.54C64.47 7.83 66.11 7.17 67.90 7.17C69.86 7.17 70.67 7.95 70.67 9.47C70.67 11.53 69.00 12.29 67.07 12.29L65.40 12.29L65.40 14.99L67.53 14.99C69.42 14.99 70.97 15.58 70.97 17.56C70.97 19.28 69.84 20.58 67.41 20.58C65.57 20.58 63.90 19.87 63.19 19.50Z"/></g></g></svg>