<svg xmlns="http://www.w3.org/2000/svg" viewBox="0 0 83.503 28" data-ligne-id="BUS64" class=""><g><g><path fill="rgb(226,0,26)" class="picto-outline" d="M3.6,0S0,5.4,0,14s3.6,14,3.6,14h31.4V0H3.6Z" device-cmyk="0.00, 1.00, 1.00, 0.00"/><path d="M3.578,8.213h4.135c2.483,0,3.331,1.271,3.331,2.802,0,1.364-.772,2.119-1.544,2.408,1.059.212,2.089,1.091,2.089,2.817,0,2.166-1.681,3.559-3.997,3.559H3.578v-11.585ZM7.121,13.089c1.121,0,2.06-.484,2.06-1.681,0-.894-.575-1.605-1.923-1.605h-1.696v3.286h1.559ZM7.394,18.223c1.03,0,2.166-.484,2.166-1.893,0-1.211-.607-1.802-1.834-1.802h-2.165v3.695h1.832Z" fill="#fff"/><path d="M13.995,8.213h1.984v7.603c0,1.484.818,2.408,2.362,2.408s2.363-.924,2.363-2.408v-7.603h1.984v8.041c0,2.5-1.878,3.771-4.347,3.771s-4.346-1.271-4.346-3.771v-8.041Z" fill="#fff"/><path d="M25.593,17.496c.772.318,1.635.681,2.878.681,1.635,0,1.954-.939,1.954-1.575,0-.803-.455-1.303-1.546-1.741l-1.287-.516c-1.515-.605-2.589-1.271-2.589-3.028,0-1.832,1.408-3.331,4.179-3.331,1.529,0,2.484.317,3.135.635l-.682,1.773c-.65-.379-1.453-.681-2.559-.681-1.014,0-1.817.514-1.817,1.362,0,.621.303,1.015,1.273,1.408l1.56.637c1.696.696,2.483,1.59,2.483,3.21,0,3.044-2.286,3.696-3.982,3.696-1.636,0-2.878-.455-3.726-.984l.727-1.546Z" fill="#fff"/></g><g transform="translate(0,0)"><path class="picto-outline" fill="rgb(0,51,106)" d="M39.333,0h44.1697v28h-44.1697V0.7z"/><path fill="rgb(255,255,255)" d="M54.23 23.52C57.96 23.52 60.34 20.87 60.34 17.10C60.34 13.05 57.59 12.09 55.60 12.09C53.84 12.09 52.22 12.85 51.56 13.27C51.85 9.03 53.76 7.07 56.51 7.07C57.52 7.07 58.20 7.34 58.74 7.61L59.60 5.06C58.74 4.64 57.37 4.32 56.00 4.32C50.77 4.32 48.15 8.86 48.15 14.99C48.15 20.04 49.94 23.52 54.23 23.52ZM54.45 20.92C52.37 20.92 51.56 19.20 51.56 15.77C52.54 15.23 53.69 14.96 54.62 14.96C56.26 14.96 56.98 15.80 56.98 17.68C56.98 19.55 56.29 20.92 54.45 20.92ZM61.59 19.97L69.38 19.97L69.38 23.30L72.47 23.30L72.47 19.97L74.85 19.97L74.85 17.24L72.47 17.24L72.47 4.54L68.08 4.54L61.59 17.12ZM64.41 17.24L68.11 10.01C68.77 8.73 69.21 7.75 69.38 7.09L69.38 17.24Z"/></g></g></svg>