<svg xmlns="http://www.w3.org/2000/svg" viewBox="0 0 83.503 28" data-ligne-id="BUS65" class=""><g><g><path fill="rgb(226,0,26)" class="picto-outline" d="M3.6,0S0,5.4,0,14s3.6,14,3.6,14h31.4V0H3.6Z" device-cmyk="0.00, 1.00, 1.00, 0.00"/><path d="M3.578,8.213h4.135c2.483,0,3.331,1.271,3.331,2.802,0,1.364-.772,2.119-1.544,2.408,1.059.212,2.089,1.091,2.089,2.817,0,2.166-1.681,3.559-3.997,3.559H3.578v-11.585ZM7.121,13.089c1.121,0,2.06-.484,2.06-1.681,0-.894-.575-1.605-1.923-1.605h-1.696v3.286h1.559ZM7.394,18.223c1.03,0,2.166-.484,2.166-1.893,0-1.211-.607-1.802-1.834-1.802h-2.165v3.695h1.832Z" fill="#fff"/><path d="M13.995,8.213h1.984v7.603c0,1.484.818,2.408,2.362,2.408s2.363-.924,2.363-2.408v-7.603h1.984v8.041c0,2.5-1.878,3.771-4.347,3.771s-4.346-1.271-4.346-3.771v-8.041Z" fill="#fff"/><path d="M25.593,17.496c.772.318,1.635.681,2.878.681,1.635,0,1.954-.939,1.954-1.575,0-.803-.455-1.303-1.546-1.741l-1.287-.516c-1.515-.605-2.589-1.271-2.589-3.028,0-1.832,1.408-3.331,4.179-3.331,1.529,0,2.484.317,3.135.635l-.682,1.773c-.65-.379-1.453-.681-2.559-.681-1.014,0-1.817.514-1.817,1.362,0,.621.303,1.015,1.273,1.408l1.56.637c1.696.696,2.483,1.59,2.483,3.21,0,3.044-2.286,3.696-3.982,3.696-1.636,0-2.878-.455-3.726-.984l.727-1.546Z" fill="#fff"/></g><g transform="translate(0,0)"><path class="picto-outline" fill="rgb(197,126,101)" d="M39.333,0h44.1697v28h-44.1697V0.7z"/><path fill="rgb(255,255,255)" d="M54.56 23.52C58.29 23.52 60.67 20.87 60.67 17.10C60.67 13.05 57.92 12.09 55.93 12.09C54.17 12.09 52.55 12.85 51.89 13.27C52.18 9.03 54.09 7.07 56.84 7.07C57.85 7.07 58.53 7.34 59.07 7.61L59.93 5.06C59.07 4.64 57.70 4.32 56.33 4.32C51.10 4.32 48.48 8.86 48.48 14.99C48.48 20.04 50.27 23.52 54.56 23.52ZM54.78 20.92C52.70 20.92 51.89 19.20 51.89 15.77C52.87 15.23 54.02 14.96 54.95 14.96C56.60 14.96 57.31 15.80 57.31 17.68C57.31 19.55 56.62 20.92 54.78 20.92ZM62.55 22.29C63.66 22.81 65.60 23.52 67.85 23.52C72.39 23.52 74.52 20.68 74.52 17.02C74.52 13.39 72.44 11.51 68.86 11.51L66.45 11.51L66.62 7.24L74.13 7.24L74.13 4.54L63.44 4.54L63.12 14.23L67.75 14.23C70.01 14.23 71.19 15.04 71.19 17.22C71.19 19.47 69.94 20.77 67.46 20.77C66.13 20.77 64.39 20.41 63.22 19.99Z"/></g></g></svg>