<svg xmlns="http://www.w3.org/2000/svg" viewBox="0 0 83.503 28" data-ligne-id="BUS67" class=""><g><g><path fill="rgb(226,0,26)" class="picto-outline" d="M3.6,0S0,5.4,0,14s3.6,14,3.6,14h31.4V0H3.6Z" device-cmyk="0.00, 1.00, 1.00, 0.00"/><path d="M3.578,8.213h4.135c2.483,0,3.331,1.271,3.331,2.802,0,1.364-.772,2.119-1.544,2.408,1.059.212,2.089,1.091,2.089,2.817,0,2.166-1.681,3.559-3.997,3.559H3.578v-11.585ZM7.121,13.089c1.121,0,2.06-.484,2.06-1.681,0-.894-.575-1.605-1.923-1.605h-1.696v3.286h1.559ZM7.394,18.223c1.03,0,2.166-.484,2.166-1.893,0-1.211-.607-1.802-1.834-1.802h-2.165v3.695h1.832Z" fill="#fff"/><path d="M13.995,8.213h1.984v7.603c0,1.484.818,2.408,2.362,2.408s2.363-.924,2.363-2.408v-7.603h1.984v8.041c0,2.5-1.878,3.771-4.347,3.771s-4.346-1.271-4.346-3.771v-8.041Z" fill="#fff"/><path d="M25.593,17.496c.772.318,1.635.681,2.878.681,1.635,0,1.954-.939,1.954-1.575,0-.803-.455-1.303-1.546-1.741l-1.287-.516c-1.515-.605-2.589-1.271-2.589-3.028,0-1.832,1.408-3.331,4.179-3.331,1.529,0,2.484.317,3.135.635l-.682,1.773c-.65-.379-1.453-.681-2.559-.681-1.014,0-1.817.514-1.817,1.362,0,.621.303,1.015,1.273,1.408l1.56.637c1.696.696,2.483,1.59,2.483,3.21,0,3.044-2.286,3.696-3.982,3.696-1.636,0-2.878-.455-3.726-.984l.727-1.546Z" fill="#fff"/></g><g transform="translate(0,0)"><path class="picto-outline" fill="rgb(194,3,68)" d="M39.333,0h44.1697v28h-44.1697V0.7z"/><path fill="rgb(255,255,255)" d="M54.63 23.52C58.36 23.52 60.74 20.87 60.74 17.10C60.74 13.05 57.99 12.09 56.01 12.09C54.24 12.09 52.62 12.85 51.96 13.27C52.26 9.03 54.17 7.07 56.91 7.07C57.92 7.07 58.61 7.34 59.15 7.61L60.00 5.06C59.15 4.64 57.77 4.32 56.40 4.32C51.18 4.32 48.55 8.86 48.55 14.99C48.55 20.04 50.34 23.52 54.63 23.52ZM54.85 20.92C52.77 20.92 51.96 19.20 51.96 15.77C52.94 15.23 54.09 14.96 55.03 14.96C56.67 14.96 57.38 15.80 57.38 17.68C57.38 19.55 56.69 20.92 54.85 20.92ZM64.91 23.30L68.34 23.30C68.34 19.55 68.41 18.35 69.79 16.31L71.46 13.83C74.10 9.91 74.45 8.81 74.45 6.60C74.45 5.82 74.37 5.11 74.30 4.54L62.38 4.54L62.38 7.31L71.06 7.31C71.06 7.53 71.04 7.75 71.01 7.97C70.87 8.86 70.40 9.72 69.05 11.73L67.65 13.81C65.37 17.19 64.91 18.86 64.91 23.30Z"/></g></g></svg>