<svg xmlns="http://www.w3.org/2000/svg" viewBox="0 0 83.503 28" data-ligne-id="BUS68" class=""><g><g><path fill="rgb(226,0,26)" class="picto-outline" d="M3.6,0S0,5.4,0,14s3.6,14,3.6,14h31.4V0H3.6Z" device-cmyk="0.00, 1.00, 1.00, 0.00"/><path d="M3.578,8.213h4.135c2.483,0,3.331,1.271,3.331,2.802,0,1.364-.772,2.119-1.544,2.408,1.059.212,2.089,1.091,2.089,2.817,0,2.166-1.681,3.559-3.997,3.559H3.578v-11.585ZM7.121,13.089c1.121,0,2.06-.484,2.06-1.681,0-.894-.575-1.605-1.923-1.605h-1.696v3.286h1.559ZM7.394,18.223c1.03,0,2.166-.484,2.166-1.893,0-1.211-.607-1.802-1.834-1.802h-2.165v3.695h1.832Z" fill="#fff"/><path d="M13.995,8.213h1.984v7.603c0,1.484.818,2.408,2.362,2.408s2.363-.924,2.363-2.408v-7.603h1.984v8.041c0,2.5-1.878,3.771-4.347,3.771s-4.346-1.271-4.346-3.771v-8.041Z" fill="#fff"/><path d="M25.593,17.496c.772.318,1.635.681,2.878.681,1.635,0,1.954-.939,1.954-1.575,0-.803-.455-1.303-1.546-1.741l-1.287-.516c-1.515-.605-2.589-1.271-2.589-3.028,0-1.832,1.408-3.331,4.179-3.331,1.529,0,2.484.317,3.135.635l-.682,1.773c-.65-.379-1.453-.681-2.559-.681-1.014,0-1.817.514-1.817,1.362,0,.621.303,1.015,1.273,1.408l1.56.637c1.696.696,2.483,1.59,2.483,3.21,0,3.044-2.286,3.696-3.982,3.696-1.636,0-2.878-.455-3.726-.984l.727-1.546Z" fill="#fff"/></g><g transform="translate(0,0)"><path class="picto-outline" fill="rgb(38,153,214)" d="M39.333,0h44.1697v28h-44.1697V0.7z"/><path fill="rgb(255,255,255)" d="M54.49 23.52C58.21 23.52 60.59 20.87 60.59 17.10C60.59 13.05 57.85 12.09 55.86 12.09C54.09 12.09 52.48 12.85 51.81 13.27C52.11 9.03 54.02 7.07 56.77 7.07C57.77 7.07 58.46 7.34 59.00 7.61L59.86 5.06C59.00 4.64 57.63 4.32 56.25 4.32C51.03 4.32 48.41 8.86 48.41 14.99C48.41 20.04 50.20 23.52 54.49 23.52ZM54.71 20.92C52.62 20.92 51.81 19.20 51.81 15.77C52.80 15.23 53.95 14.96 54.88 14.96C56.52 14.96 57.23 15.80 57.23 17.68C57.23 19.55 56.55 20.92 54.71 20.92ZM62.46 18.32C62.46 21.00 64.17 23.50 68.19 23.50C72.44 23.50 74.59 20.73 74.59 17.76C74.59 15.50 73.37 13.93 71.06 12.90C72.46 12.24 73.83 10.94 73.83 8.78C73.83 6.09 71.95 4.32 68.68 4.32C65.55 4.32 63.00 6.26 63.00 9.52C63.00 10.97 63.49 12.39 65.50 13.61C63.90 14.50 62.46 15.87 62.46 18.32ZM68.54 12.02C66.85 11.31 66.55 10.35 66.55 9.37C66.55 7.56 67.53 6.92 68.64 6.92C69.96 6.92 70.45 7.80 70.45 9.05C70.45 10.38 69.89 11.36 68.54 12.02ZM65.96 18.22C65.96 16.83 66.55 15.55 67.70 14.86C69.84 15.62 71.11 16.29 71.11 18.25C71.11 19.87 70.23 21.04 68.56 21.04C67.12 21.04 65.96 20.16 65.96 18.22Z"/></g></g></svg>