<svg xmlns="http://www.w3.org/2000/svg" viewBox="0 0 83.503 28" data-ligne-id="BUS69" class=""><g><g><path fill="rgb(226,0,26)" class="picto-outline" d="M3.6,0S0,5.4,0,14s3.6,14,3.6,14h31.4V0H3.6Z" device-cmyk="0.00, 1.00, 1.00, 0.00"/><path d="M3.578,8.213h4.135c2.483,0,3.331,1.271,3.331,2.802,0,1.364-.772,2.119-1.544,2.408,1.059.212,2.089,1.091,2.089,2.817,0,2.166-1.681,3.559-3.997,3.559H3.578v-11.585ZM7.121,13.089c1.121,0,2.06-.484,2.06-1.681,0-.894-.575-1.605-1.923-1.605h-1.696v3.286h1.559ZM7.394,18.223c1.03,0,2.166-.484,2.166-1.893,0-1.211-.607-1.802-1.834-1.802h-2.165v3.695h1.832Z" fill="#fff"/><path d="M13.995,8.213h1.984v7.603c0,1.484.818,2.408,2.362,2.408s2.363-.924,2.363-2.408v-7.603h1.984v8.041c0,2.5-1.878,3.771-4.347,3.771s-4.346-1.271-4.346-3.771v-8.041Z" fill="#fff"/><path d="M25.593,17.496c.772.318,1.635.681,2.878.681,1.635,0,1.954-.939,1.954-1.575,0-.803-.455-1.303-1.546-1.741l-1.287-.516c-1.515-.605-2.589-1.271-2.589-3.028,0-1.832,1.408-3.331,4.179-3.331,1.529,0,2.484.317,3.135.635l-.682,1.773c-.65-.379-1.453-.681-2.559-.681-1.014,0-1.817.514-1.817,1.362,0,.621.303,1.015,1.273,1.408l1.56.637c1.696.696,2.483,1.59,2.483,3.21,0,3.044-2.286,3.696-3.982,3.696-1.636,0-2.878-.455-3.726-.984l.727-1.546Z" fill="#fff"/></g><g transform="translate(0,0)"><path class="picto-outline" fill="rgb(102,36,131)" d="M39.333,0h44.1697v28h-44.1697V0.7z"/><path fill="rgb(255,255,255)" d="M54.52 23.52C58.25 23.52 60.63 20.87 60.63 17.10C60.63 13.05 57.88 12.09 55.90 12.09C54.13 12.09 52.51 12.85 51.85 13.27C52.15 9.03 54.06 7.07 56.80 7.07C57.81 7.07 58.50 7.34 59.04 7.61L59.89 5.06C59.04 4.64 57.66 4.32 56.29 4.32C51.07 4.32 48.44 8.86 48.44 14.99C48.44 20.04 50.23 23.52 54.52 23.52ZM54.74 20.92C52.66 20.92 51.85 19.20 51.85 15.77C52.83 15.23 53.98 14.96 54.92 14.96C56.56 14.96 57.27 15.80 57.27 17.68C57.27 19.55 56.58 20.92 54.74 20.92ZM62.59 22.49C63.79 23.13 65.83 23.50 67.35 23.50C72.50 23.50 74.56 19.45 74.56 13.61C74.56 7.83 72.89 4.32 68.30 4.32C64.75 4.32 62.35 6.85 62.35 10.72C62.35 14.62 65.34 15.94 67.37 15.94C69.24 15.94 70.54 15.11 71.20 14.69C71.20 18.52 70.02 20.70 67.25 20.70C65.44 20.70 64.23 20.21 63.47 19.89ZM68.40 12.88C66.61 12.88 65.71 11.82 65.71 10.18C65.71 8.44 66.34 6.92 68.35 6.92C70.44 6.92 71.10 9.35 71.10 12.07C70.32 12.58 69.68 12.88 68.40 12.88Z"/></g></g></svg>