<svg xmlns="http://www.w3.org/2000/svg" viewBox="0 0 83.503 28" data-ligne-id="BUS72" class=""><g><g><path fill="rgb(226,0,26)" class="picto-outline" d="M3.6,0S0,5.4,0,14s3.6,14,3.6,14h31.4V0H3.6Z" device-cmyk="0.00, 1.00, 1.00, 0.00"/><path d="M3.578,8.213h4.135c2.483,0,3.331,1.271,3.331,2.802,0,1.364-.772,2.119-1.544,2.408,1.059.212,2.089,1.091,2.089,2.817,0,2.166-1.681,3.559-3.997,3.559H3.578v-11.585ZM7.121,13.089c1.121,0,2.06-.484,2.06-1.681,0-.894-.575-1.605-1.923-1.605h-1.696v3.286h1.559ZM7.394,18.223c1.03,0,2.166-.484,2.166-1.893,0-1.211-.607-1.802-1.834-1.802h-2.165v3.695h1.832Z" fill="#fff"/><path d="M13.995,8.213h1.984v7.603c0,1.484.818,2.408,2.362,2.408s2.363-.924,2.363-2.408v-7.603h1.984v8.041c0,2.5-1.878,3.771-4.347,3.771s-4.346-1.271-4.346-3.771v-8.041Z" fill="#fff"/><path d="M25.593,17.496c.772.318,1.635.681,2.878.681,1.635,0,1.954-.939,1.954-1.575,0-.803-.455-1.303-1.546-1.741l-1.287-.516c-1.515-.605-2.589-1.271-2.589-3.028,0-1.832,1.408-3.331,4.179-3.331,1.529,0,2.484.317,3.135.635l-.682,1.773c-.65-.379-1.453-.681-2.559-.681-1.014,0-1.817.514-1.817,1.362,0,.621.303,1.015,1.273,1.408l1.56.637c1.696.696,2.483,1.59,2.483,3.21,0,3.044-2.286,3.696-3.982,3.696-1.636,0-2.878-.455-3.726-.984l.727-1.546Z" fill="#fff"/></g><g transform="translate(0,0)"><path class="picto-outline" fill="rgb(232,48,138)" d="M39.333,0h44.1697v28h-44.1697V0.7z"/><path fill="rgb(255,255,255)" d="M50.77 23.30L54.24 23.30C54.24 19.50 54.32 18.29 55.71 16.23L57.39 13.72C60.07 9.76 60.42 8.64 60.42 6.41C60.42 5.61 60.35 4.89 60.27 4.32L48.22 4.32L48.22 7.13L57.00 7.13C57.00 7.35 56.97 7.57 56.95 7.80C56.80 8.69 56.33 9.56 54.96 11.59L53.55 13.70C51.24 17.12 50.77 18.81 50.77 23.30ZM62.65 23.30L74.78 23.30L74.78 20.52L66.32 20.52C66.37 19.73 66.52 19.08 68.04 17.94L70.79 15.88C73.22 14.05 74.49 12.58 74.49 9.48C74.49 6.01 71.86 4.10 68.09 4.10C66.40 4.10 64.22 4.70 62.48 5.74L63.57 8.09C64.49 7.60 66.25 6.90 67.84 6.90C69.52 6.90 71.01 7.62 71.01 9.93C71.01 11.59 70.07 12.61 68.43 13.82L66.15 15.54C63.70 17.40 62.65 18.93 62.65 20.87Z"/></g></g></svg>