<svg xmlns="http://www.w3.org/2000/svg" viewBox="0 0 83.503 28" data-ligne-id="BUS76" class=""><g><g><path fill="rgb(226,0,26)" class="picto-outline" d="M3.6,0S0,5.4,0,14s3.6,14,3.6,14h31.4V0H3.6Z" device-cmyk="0.00, 1.00, 1.00, 0.00"/><path d="M3.578,8.213h4.135c2.483,0,3.331,1.271,3.331,2.802,0,1.364-.772,2.119-1.544,2.408,1.059.212,2.089,1.091,2.089,2.817,0,2.166-1.681,3.559-3.997,3.559H3.578v-11.585ZM7.121,13.089c1.121,0,2.06-.484,2.06-1.681,0-.894-.575-1.605-1.923-1.605h-1.696v3.286h1.559ZM7.394,18.223c1.03,0,2.166-.484,2.166-1.893,0-1.211-.607-1.802-1.834-1.802h-2.165v3.695h1.832Z" fill="#fff"/><path d="M13.995,8.213h1.984v7.603c0,1.484.818,2.408,2.362,2.408s2.363-.924,2.363-2.408v-7.603h1.984v8.041c0,2.5-1.878,3.771-4.347,3.771s-4.346-1.271-4.346-3.771v-8.041Z" fill="#fff"/><path d="M25.593,17.496c.772.318,1.635.681,2.878.681,1.635,0,1.954-.939,1.954-1.575,0-.803-.455-1.303-1.546-1.741l-1.287-.516c-1.515-.605-2.589-1.271-2.589-3.028,0-1.832,1.408-3.331,4.179-3.331,1.529,0,2.484.317,3.135.635l-.682,1.773c-.65-.379-1.453-.681-2.559-.681-1.014,0-1.817.514-1.817,1.362,0,.621.303,1.015,1.273,1.408l1.56.637c1.696.696,2.483,1.59,2.483,3.21,0,3.044-2.286,3.696-3.982,3.696-1.636,0-2.878-.455-3.726-.984l.727-1.546Z" fill="#fff"/></g><g transform="translate(0,0)"><path class="picto-outline" fill="rgb(131,196,145)" d="M39.333,0h44.1697v28h-44.1697V0.7z"/><path fill="rgb(0,0,0)" d="M50.75 23.30L54.18 23.30C54.18 19.55 54.25 18.35 55.63 16.31L57.29 13.83C59.94 9.91 60.29 8.81 60.29 6.60C60.29 5.82 60.21 5.11 60.14 4.54L48.22 4.54L48.22 7.31L56.90 7.31C56.90 7.53 56.88 7.75 56.85 7.97C56.71 8.86 56.24 9.72 54.89 11.73L53.49 13.81C51.21 17.19 50.75 18.86 50.75 23.30ZM68.67 23.52C72.40 23.52 74.78 20.87 74.78 17.10C74.78 13.05 72.03 12.09 70.05 12.09C68.28 12.09 66.66 12.85 66.00 13.27C66.29 9.03 68.21 7.07 70.95 7.07C71.96 7.07 72.64 7.34 73.18 7.61L74.04 5.06C73.18 4.64 71.81 4.32 70.44 4.32C65.21 4.32 62.59 8.86 62.59 14.99C62.59 20.04 64.38 23.52 68.67 23.52ZM68.89 20.92C66.81 20.92 66.00 19.20 66.00 15.77C66.98 15.23 68.13 14.96 69.06 14.96C70.71 14.96 71.42 15.80 71.42 17.68C71.42 19.55 70.73 20.92 68.89 20.92Z"/></g></g></svg>