<svg xmlns="http://www.w3.org/2000/svg" viewBox="0 0 83.503 28" data-ligne-id="BUS77" class=""><g><g><path fill="rgb(226,0,26)" class="picto-outline" d="M3.6,0S0,5.4,0,14s3.6,14,3.6,14h31.4V0H3.6Z" device-cmyk="0.00, 1.00, 1.00, 0.00"/><path d="M3.578,8.213h4.135c2.483,0,3.331,1.271,3.331,2.802,0,1.364-.772,2.119-1.544,2.408,1.059.212,2.089,1.091,2.089,2.817,0,2.166-1.681,3.559-3.997,3.559H3.578v-11.585ZM7.121,13.089c1.121,0,2.06-.484,2.06-1.681,0-.894-.575-1.605-1.923-1.605h-1.696v3.286h1.559ZM7.394,18.223c1.03,0,2.166-.484,2.166-1.893,0-1.211-.607-1.802-1.834-1.802h-2.165v3.695h1.832Z" fill="#fff"/><path d="M13.995,8.213h1.984v7.603c0,1.484.818,2.408,2.362,2.408s2.363-.924,2.363-2.408v-7.603h1.984v8.041c0,2.5-1.878,3.771-4.347,3.771s-4.346-1.271-4.346-3.771v-8.041Z" fill="#fff"/><path d="M25.593,17.496c.772.318,1.635.681,2.878.681,1.635,0,1.954-.939,1.954-1.575,0-.803-.455-1.303-1.546-1.741l-1.287-.516c-1.515-.605-2.589-1.271-2.589-3.028,0-1.832,1.408-3.331,4.179-3.331,1.529,0,2.484.317,3.135.635l-.682,1.773c-.65-.379-1.453-.681-2.559-.681-1.014,0-1.817.514-1.817,1.362,0,.621.303,1.015,1.273,1.408l1.56.637c1.696.696,2.483,1.59,2.483,3.21,0,3.044-2.286,3.696-3.982,3.696-1.636,0-2.878-.455-3.726-.984l.727-1.546Z" fill="#fff"/></g><g transform="translate(0,0)"><path class="picto-outline" fill="rgb(0,79,159)" d="M39.333,0h44.1697v28h-44.1697V0.7z"/><path fill="rgb(255,255,255)" d="M50.70 23.30L54.21 23.30C54.21 19.46 54.28 18.23 55.69 16.15L57.40 13.61C60.11 9.60 60.46 8.47 60.46 6.21C60.46 5.41 60.38 4.68 60.31 4.10L48.11 4.10L48.11 6.94L56.99 6.94C56.99 7.16 56.97 7.39 56.94 7.61C56.79 8.52 56.32 9.40 54.94 11.45L53.51 13.59C51.17 17.05 50.70 18.76 50.70 23.30ZM65.13 23.30L68.64 23.30C68.64 19.46 68.72 18.23 70.12 16.15L71.83 13.61C74.54 9.60 74.89 8.47 74.89 6.21C74.89 5.41 74.81 4.68 74.74 4.10L62.54 4.10L62.54 6.94L71.43 6.94C71.43 7.16 71.40 7.39 71.38 7.61C71.23 8.52 70.75 9.40 69.37 11.45L67.94 13.59C65.60 17.05 65.13 18.76 65.13 23.30Z"/></g></g></svg>