<svg xmlns="http://www.w3.org/2000/svg" viewBox="0 0 83.503 28" data-ligne-id="BUS78" class=""><g><g><path fill="rgb(226,0,26)" class="picto-outline" d="M3.6,0S0,5.4,0,14s3.6,14,3.6,14h31.4V0H3.6Z" device-cmyk="0.00, 1.00, 1.00, 0.00"/><path d="M3.578,8.213h4.135c2.483,0,3.331,1.271,3.331,2.802,0,1.364-.772,2.119-1.544,2.408,1.059.212,2.089,1.091,2.089,2.817,0,2.166-1.681,3.559-3.997,3.559H3.578v-11.585ZM7.121,13.089c1.121,0,2.06-.484,2.06-1.681,0-.894-.575-1.605-1.923-1.605h-1.696v3.286h1.559ZM7.394,18.223c1.03,0,2.166-.484,2.166-1.893,0-1.211-.607-1.802-1.834-1.802h-2.165v3.695h1.832Z" fill="#fff"/><path d="M13.995,8.213h1.984v7.603c0,1.484.818,2.408,2.362,2.408s2.363-.924,2.363-2.408v-7.603h1.984v8.041c0,2.5-1.878,3.771-4.347,3.771s-4.346-1.271-4.346-3.771v-8.041Z" fill="#fff"/><path d="M25.593,17.496c.772.318,1.635.681,2.878.681,1.635,0,1.954-.939,1.954-1.575,0-.803-.455-1.303-1.546-1.741l-1.287-.516c-1.515-.605-2.589-1.271-2.589-3.028,0-1.832,1.408-3.331,4.179-3.331,1.529,0,2.484.317,3.135.635l-.682,1.773c-.65-.379-1.453-.681-2.559-.681-1.014,0-1.817.514-1.817,1.362,0,.621.303,1.015,1.273,1.408l1.56.637c1.696.696,2.483,1.59,2.483,3.21,0,3.044-2.286,3.696-3.982,3.696-1.636,0-2.878-.455-3.726-.984l.727-1.546Z" fill="#fff"/></g><g transform="translate(0,0)"><path class="picto-outline" fill="rgb(102,36,131)" d="M39.333,0h44.1697v28h-44.1697V0.7z"/><path fill="rgb(255,255,255)" d="M50.78 23.30L54.22 23.30C54.22 19.54 54.29 18.34 55.67 16.30L57.34 13.82C59.99 9.89 60.33 8.79 60.33 6.58C60.33 5.79 60.26 5.08 60.19 4.52L48.25 4.52L48.25 7.29L56.95 7.29C56.95 7.51 56.92 7.73 56.90 7.95C56.75 8.84 56.28 9.70 54.93 11.71L53.53 13.80C51.25 17.19 50.78 18.86 50.78 23.30ZM62.59 18.32C62.59 20.99 64.31 23.50 68.34 23.50C72.59 23.50 74.75 20.72 74.75 17.75C74.75 15.49 73.52 13.92 71.21 12.89C72.61 12.23 73.98 10.93 73.98 8.76C73.98 6.06 72.09 4.30 68.83 4.30C65.69 4.30 63.13 6.24 63.13 9.50C63.13 10.95 63.62 12.37 65.64 13.60C64.04 14.49 62.59 15.86 62.59 18.32ZM68.68 12.01C66.99 11.29 66.69 10.34 66.69 9.35C66.69 7.54 67.67 6.90 68.78 6.90C70.11 6.90 70.60 7.78 70.60 9.04C70.60 10.36 70.03 11.34 68.68 12.01ZM66.10 18.22C66.10 16.82 66.69 15.54 67.85 14.85C69.98 15.62 71.26 16.28 71.26 18.24C71.26 19.86 70.38 21.04 68.71 21.04C67.26 21.04 66.10 20.16 66.10 18.22Z"/></g></g></svg>