<svg xmlns="http://www.w3.org/2000/svg" viewBox="0 0 83.503 28" data-ligne-id="BUS79" class=""><g><g><path fill="rgb(226,0,26)" class="picto-outline" d="M3.6,0S0,5.4,0,14s3.6,14,3.6,14h31.4V0H3.6Z" device-cmyk="0.00, 1.00, 1.00, 0.00"/><path d="M3.578,8.213h4.135c2.483,0,3.331,1.271,3.331,2.802,0,1.364-.772,2.119-1.544,2.408,1.059.212,2.089,1.091,2.089,2.817,0,2.166-1.681,3.559-3.997,3.559H3.578v-11.585ZM7.121,13.089c1.121,0,2.06-.484,2.06-1.681,0-.894-.575-1.605-1.923-1.605h-1.696v3.286h1.559ZM7.394,18.223c1.03,0,2.166-.484,2.166-1.893,0-1.211-.607-1.802-1.834-1.802h-2.165v3.695h1.832Z" fill="#fff"/><path d="M13.995,8.213h1.984v7.603c0,1.484.818,2.408,2.362,2.408s2.363-.924,2.363-2.408v-7.603h1.984v8.041c0,2.5-1.878,3.771-4.347,3.771s-4.346-1.271-4.346-3.771v-8.041Z" fill="#fff"/><path d="M25.593,17.496c.772.318,1.635.681,2.878.681,1.635,0,1.954-.939,1.954-1.575,0-.803-.455-1.303-1.546-1.741l-1.287-.516c-1.515-.605-2.589-1.271-2.589-3.028,0-1.832,1.408-3.331,4.179-3.331,1.529,0,2.484.317,3.135.635l-.682,1.773c-.65-.379-1.453-.681-2.559-.681-1.014,0-1.817.514-1.817,1.362,0,.621.303,1.015,1.273,1.408l1.56.637c1.696.696,2.483,1.59,2.483,3.21,0,3.044-2.286,3.696-3.982,3.696-1.636,0-2.878-.455-3.726-.984l.727-1.546Z" fill="#fff"/></g><g transform="translate(0,0)"><path class="picto-outline" fill="rgb(131,108,119)" d="M39.333,0h44.1697v28h-44.1697V0.7z"/><path fill="rgb(255,255,255)" d="M50.82 23.30L54.26 23.30C54.26 19.54 54.33 18.34 55.71 16.30L57.38 13.82C60.03 9.89 60.37 8.79 60.37 6.58C60.37 5.79 60.30 5.08 60.22 4.52L48.29 4.52L48.29 7.29L56.98 7.29C56.98 7.51 56.96 7.73 56.93 7.95C56.79 8.84 56.32 9.70 54.97 11.71L53.57 13.80C51.29 17.19 50.82 18.86 50.82 23.30ZM62.73 22.49C63.93 23.13 65.97 23.50 67.49 23.50C72.65 23.50 74.71 19.45 74.71 13.60C74.71 7.81 73.04 4.30 68.45 4.30C64.89 4.30 62.48 6.83 62.48 10.70C62.48 14.61 65.48 15.93 67.52 15.93C69.38 15.93 70.68 15.10 71.35 14.68C71.35 18.51 70.17 20.70 67.39 20.70C65.58 20.70 64.37 20.21 63.61 19.89ZM68.55 12.87C66.75 12.87 65.85 11.81 65.85 10.16C65.85 8.42 66.48 6.90 68.50 6.90C70.58 6.90 71.25 9.33 71.25 12.05C70.46 12.57 69.82 12.87 68.55 12.87Z"/></g></g></svg>