<svg xmlns="http://www.w3.org/2000/svg" viewBox="0 0 83.503 28" data-ligne-id="BUS80" class=""><g><g><path fill="rgb(226,0,26)" class="picto-outline" d="M3.6,0S0,5.4,0,14s3.6,14,3.6,14h31.4V0H3.6Z" device-cmyk="0.00, 1.00, 1.00, 0.00"/><path d="M3.578,8.213h4.135c2.483,0,3.331,1.271,3.331,2.802,0,1.364-.772,2.119-1.544,2.408,1.059.212,2.089,1.091,2.089,2.817,0,2.166-1.681,3.559-3.997,3.559H3.578v-11.585ZM7.121,13.089c1.121,0,2.06-.484,2.06-1.681,0-.894-.575-1.605-1.923-1.605h-1.696v3.286h1.559ZM7.394,18.223c1.03,0,2.166-.484,2.166-1.893,0-1.211-.607-1.802-1.834-1.802h-2.165v3.695h1.832Z" fill="#fff"/><path d="M13.995,8.213h1.984v7.603c0,1.484.818,2.408,2.362,2.408s2.363-.924,2.363-2.408v-7.603h1.984v8.041c0,2.5-1.878,3.771-4.347,3.771s-4.346-1.271-4.346-3.771v-8.041Z" fill="#fff"/><path d="M25.593,17.496c.772.318,1.635.681,2.878.681,1.635,0,1.954-.939,1.954-1.575,0-.803-.455-1.303-1.546-1.741l-1.287-.516c-1.515-.605-2.589-1.271-2.589-3.028,0-1.832,1.408-3.331,4.179-3.331,1.529,0,2.484.317,3.135.635l-.682,1.773c-.65-.379-1.453-.681-2.559-.681-1.014,0-1.817.514-1.817,1.362,0,.621.303,1.015,1.273,1.408l1.56.637c1.696.696,2.483,1.59,2.483,3.21,0,3.044-2.286,3.696-3.982,3.696-1.636,0-2.878-.455-3.726-.984l.727-1.546Z" fill="#fff"/></g><g transform="translate(0,0)"><path class="picto-outline" fill="rgb(214,130,181)" d="M39.333,0h44.1697v28h-44.1697V0.7z"/><path fill="rgb(0,0,0)" d="M48.12 18.32C48.12 21.00 49.84 23.50 53.86 23.50C58.10 23.50 60.26 20.73 60.26 17.76C60.26 15.50 59.04 13.93 56.73 12.90C58.13 12.24 59.50 10.94 59.50 8.78C59.50 6.09 57.61 4.32 54.35 4.32C51.21 4.32 48.66 6.26 48.66 9.52C48.66 10.97 49.15 12.39 51.16 13.61C49.57 14.50 48.12 15.87 48.12 18.32ZM54.20 12.02C52.51 11.31 52.22 10.35 52.22 9.37C52.22 7.56 53.20 6.92 54.30 6.92C55.63 6.92 56.12 7.80 56.12 9.05C56.12 10.38 55.55 11.36 54.20 12.02ZM51.63 18.22C51.63 16.83 52.22 15.55 53.37 14.86C55.50 15.62 56.78 16.29 56.78 18.25C56.78 19.87 55.90 21.04 54.23 21.04C52.78 21.04 51.63 20.16 51.63 18.22ZM68.28 23.52C73.94 23.52 74.88 19.01 74.88 13.96C74.88 9.15 73.58 4.32 68.28 4.32C63.01 4.32 61.71 9.15 61.71 13.96C61.71 19.01 62.64 23.52 68.28 23.52ZM68.28 20.65C66.20 20.65 65.14 18.86 65.14 14.23C65.14 10.28 65.75 7.31 68.28 7.31C70.83 7.31 71.44 10.28 71.44 14.23C71.44 18.86 70.39 20.65 68.28 20.65Z"/></g></g></svg>