<svg xmlns="http://www.w3.org/2000/svg" viewBox="0 0 83.503 28" data-ligne-id="BUS81" class=""><g><g><path fill="rgb(226,0,26)" class="picto-outline" d="M3.6,0S0,5.4,0,14s3.6,14,3.6,14h31.4V0H3.6Z" device-cmyk="0.00, 1.00, 1.00, 0.00"/><path d="M3.578,8.213h4.135c2.483,0,3.331,1.271,3.331,2.802,0,1.364-.772,2.119-1.544,2.408,1.059.212,2.089,1.091,2.089,2.817,0,2.166-1.681,3.559-3.997,3.559H3.578v-11.585ZM7.121,13.089c1.121,0,2.06-.484,2.06-1.681,0-.894-.575-1.605-1.923-1.605h-1.696v3.286h1.559ZM7.394,18.223c1.03,0,2.166-.484,2.166-1.893,0-1.211-.607-1.802-1.834-1.802h-2.165v3.695h1.832Z" fill="#fff"/><path d="M13.995,8.213h1.984v7.603c0,1.484.818,2.408,2.362,2.408s2.363-.924,2.363-2.408v-7.603h1.984v8.041c0,2.5-1.878,3.771-4.347,3.771s-4.346-1.271-4.346-3.771v-8.041Z" fill="#fff"/><path d="M25.593,17.496c.772.318,1.635.681,2.878.681,1.635,0,1.954-.939,1.954-1.575,0-.803-.455-1.303-1.546-1.741l-1.287-.516c-1.515-.605-2.589-1.271-2.589-3.028,0-1.832,1.408-3.331,4.179-3.331,1.529,0,2.484.317,3.135.635l-.682,1.773c-.65-.379-1.453-.681-2.559-.681-1.014,0-1.817.514-1.817,1.362,0,.621.303,1.015,1.273,1.408l1.56.637c1.696.696,2.483,1.59,2.483,3.21,0,3.044-2.286,3.696-3.982,3.696-1.636,0-2.878-.455-3.726-.984l.727-1.546Z" fill="#fff"/></g><g transform="translate(0,0)"><path class="picto-outline" fill="rgb(245,156,0)" d="M39.333,0h44.1697v28h-44.1697V0.7z"/><path fill="rgb(0,0,0)" d="M48.32 18.32C48.32 20.99 50.03 23.50 54.06 23.50C58.31 23.50 60.47 20.72 60.47 17.75C60.47 15.49 59.24 13.92 56.93 12.89C58.33 12.23 59.71 10.93 59.71 8.76C59.71 6.06 57.82 4.30 54.55 4.30C51.41 4.30 48.86 6.24 48.86 9.50C48.86 10.95 49.35 12.37 51.36 13.60C49.76 14.49 48.32 15.86 48.32 18.32ZM54.40 12.01C52.71 11.29 52.42 10.34 52.42 9.35C52.42 7.54 53.40 6.90 54.50 6.90C55.83 6.90 56.32 7.78 56.32 9.04C56.32 10.36 55.75 11.34 54.40 12.01ZM51.83 18.22C51.83 16.82 52.42 15.54 53.57 14.85C55.71 15.62 56.98 16.28 56.98 18.24C56.98 19.86 56.10 21.04 54.43 21.04C52.98 21.04 51.83 20.16 51.83 18.22ZM62.95 23.30L74.68 23.30L74.68 20.72L70.93 20.72L70.93 4.52L68.18 4.52L62.11 7.83L63.29 10.12L67.64 7.66L67.64 20.72L62.95 20.72Z"/></g></g></svg>