<svg xmlns="http://www.w3.org/2000/svg" viewBox="0 0 83.503 28" data-ligne-id="BUS82" class=""><g><g><path fill="rgb(226,0,26)" class="picto-outline" d="M3.6,0S0,5.4,0,14s3.6,14,3.6,14h31.4V0H3.6Z" device-cmyk="0.00, 1.00, 1.00, 0.00"/><path d="M3.578,8.213h4.135c2.483,0,3.331,1.271,3.331,2.802,0,1.364-.772,2.119-1.544,2.408,1.059.212,2.089,1.091,2.089,2.817,0,2.166-1.681,3.559-3.997,3.559H3.578v-11.585ZM7.121,13.089c1.121,0,2.06-.484,2.06-1.681,0-.894-.575-1.605-1.923-1.605h-1.696v3.286h1.559ZM7.394,18.223c1.03,0,2.166-.484,2.166-1.893,0-1.211-.607-1.802-1.834-1.802h-2.165v3.695h1.832Z" fill="#fff"/><path d="M13.995,8.213h1.984v7.603c0,1.484.818,2.408,2.362,2.408s2.363-.924,2.363-2.408v-7.603h1.984v8.041c0,2.5-1.878,3.771-4.347,3.771s-4.346-1.271-4.346-3.771v-8.041Z" fill="#fff"/><path d="M25.593,17.496c.772.318,1.635.681,2.878.681,1.635,0,1.954-.939,1.954-1.575,0-.803-.455-1.303-1.546-1.741l-1.287-.516c-1.515-.605-2.589-1.271-2.589-3.028,0-1.832,1.408-3.331,4.179-3.331,1.529,0,2.484.317,3.135.635l-.682,1.773c-.65-.379-1.453-.681-2.559-.681-1.014,0-1.817.514-1.817,1.362,0,.621.303,1.015,1.273,1.408l1.56.637c1.696.696,2.483,1.59,2.483,3.21,0,3.044-2.286,3.696-3.982,3.696-1.636,0-2.878-.455-3.726-.984l.727-1.546Z" fill="#fff"/></g><g transform="translate(0,0)"><path class="picto-outline" fill="rgb(241,145,163)" d="M39.333,0h44.1697v28h-44.1697V0.7z"/><path fill="rgb(0,0,0)" d="M48.46 18.32C48.46 20.99 50.18 23.50 54.21 23.50C58.46 23.50 60.62 20.72 60.62 17.75C60.62 15.49 59.39 13.92 57.08 12.89C58.48 12.23 59.85 10.93 59.85 8.76C59.85 6.06 57.96 4.30 54.70 4.30C51.56 4.30 49.00 6.24 49.00 9.50C49.00 10.95 49.49 12.37 51.51 13.60C49.91 14.49 48.46 15.86 48.46 18.32ZM54.55 12.01C52.86 11.29 52.56 10.34 52.56 9.35C52.56 7.54 53.55 6.90 54.65 6.90C55.98 6.90 56.47 7.78 56.47 9.04C56.47 10.36 55.90 11.34 54.55 12.01ZM51.97 18.22C51.97 16.82 52.56 15.54 53.72 14.85C55.85 15.62 57.13 16.28 57.13 18.24C57.13 19.86 56.25 21.04 54.58 21.04C53.13 21.04 51.97 20.16 51.97 18.22ZM62.53 23.30L74.54 23.30L74.54 20.55L66.16 20.55C66.21 19.76 66.36 19.13 67.86 18.00L70.58 15.96C72.99 14.14 74.24 12.69 74.24 9.62C74.24 6.19 71.64 4.30 67.91 4.30C66.24 4.30 64.08 4.89 62.36 5.92L63.44 8.25C64.35 7.76 66.09 7.07 67.66 7.07C69.33 7.07 70.81 7.78 70.81 10.07C70.81 11.71 69.87 12.72 68.25 13.92L65.99 15.62C63.56 17.46 62.53 18.98 62.53 20.89Z"/></g></g></svg>