<svg xmlns="http://www.w3.org/2000/svg" viewBox="0 0 83.503 28" data-ligne-id="BUS84" class=""><g><g><path fill="rgb(226,0,26)" class="picto-outline" d="M3.6,0S0,5.4,0,14s3.6,14,3.6,14h31.4V0H3.6Z" device-cmyk="0.00, 1.00, 1.00, 0.00"/><path d="M3.578,8.213h4.135c2.483,0,3.331,1.271,3.331,2.802,0,1.364-.772,2.119-1.544,2.408,1.059.212,2.089,1.091,2.089,2.817,0,2.166-1.681,3.559-3.997,3.559H3.578v-11.585ZM7.121,13.089c1.121,0,2.06-.484,2.06-1.681,0-.894-.575-1.605-1.923-1.605h-1.696v3.286h1.559ZM7.394,18.223c1.03,0,2.166-.484,2.166-1.893,0-1.211-.607-1.802-1.834-1.802h-2.165v3.695h1.832Z" fill="#fff"/><path d="M13.995,8.213h1.984v7.603c0,1.484.818,2.408,2.362,2.408s2.363-.924,2.363-2.408v-7.603h1.984v8.041c0,2.5-1.878,3.771-4.347,3.771s-4.346-1.271-4.346-3.771v-8.041Z" fill="#fff"/><path d="M25.593,17.496c.772.318,1.635.681,2.878.681,1.635,0,1.954-.939,1.954-1.575,0-.803-.455-1.303-1.546-1.741l-1.287-.516c-1.515-.605-2.589-1.271-2.589-3.028,0-1.832,1.408-3.331,4.179-3.331,1.529,0,2.484.317,3.135.635l-.682,1.773c-.65-.379-1.453-.681-2.559-.681-1.014,0-1.817.514-1.817,1.362,0,.621.303,1.015,1.273,1.408l1.56.637c1.696.696,2.483,1.59,2.483,3.21,0,3.044-2.286,3.696-3.982,3.696-1.636,0-2.878-.455-3.726-.984l.727-1.546Z" fill="#fff"/></g><g transform="translate(0,0)"><path class="picto-outline" fill="rgb(128,104,46)" d="M39.333,0h44.1697v28h-44.1697V0.7z"/><path fill="rgb(255,255,255)" d="M48.11 18.32C48.11 20.99 49.83 23.50 53.85 23.50C58.10 23.50 60.26 20.72 60.26 17.75C60.26 15.49 59.03 13.92 56.72 12.89C58.12 12.23 59.50 10.93 59.50 8.76C59.50 6.06 57.61 4.30 54.34 4.30C51.20 4.30 48.65 6.24 48.65 9.50C48.65 10.95 49.14 12.37 51.15 13.60C49.56 14.49 48.11 15.86 48.11 18.32ZM54.20 12.01C52.50 11.29 52.21 10.34 52.21 9.35C52.21 7.54 53.19 6.90 54.29 6.90C55.62 6.90 56.11 7.78 56.11 9.04C56.11 10.36 55.55 11.34 54.20 12.01ZM51.62 18.22C51.62 16.82 52.21 15.54 53.36 14.85C55.50 15.62 56.77 16.28 56.77 18.24C56.77 19.86 55.89 21.04 54.22 21.04C52.77 21.04 51.62 20.16 51.62 18.22ZM61.61 19.96L69.42 19.96L69.42 23.30L72.51 23.30L72.51 19.96L74.89 19.96L74.89 17.24L72.51 17.24L72.51 4.52L68.12 4.52L61.61 17.11ZM64.43 17.24L68.14 9.99C68.80 8.72 69.25 7.73 69.42 7.07L69.42 17.24Z"/></g></g></svg>