<svg xmlns="http://www.w3.org/2000/svg" viewBox="0 0 83.503 28" data-ligne-id="BUS85" class=""><g><g><path fill="rgb(226,0,26)" class="picto-outline" d="M3.6,0S0,5.4,0,14s3.6,14,3.6,14h31.4V0H3.6Z" device-cmyk="0.00, 1.00, 1.00, 0.00"/><path d="M3.578,8.213h4.135c2.483,0,3.331,1.271,3.331,2.802,0,1.364-.772,2.119-1.544,2.408,1.059.212,2.089,1.091,2.089,2.817,0,2.166-1.681,3.559-3.997,3.559H3.578v-11.585ZM7.121,13.089c1.121,0,2.06-.484,2.06-1.681,0-.894-.575-1.605-1.923-1.605h-1.696v3.286h1.559ZM7.394,18.223c1.03,0,2.166-.484,2.166-1.893,0-1.211-.607-1.802-1.834-1.802h-2.165v3.695h1.832Z" fill="#fff"/><path d="M13.995,8.213h1.984v7.603c0,1.484.818,2.408,2.362,2.408s2.363-.924,2.363-2.408v-7.603h1.984v8.041c0,2.5-1.878,3.771-4.347,3.771s-4.346-1.271-4.346-3.771v-8.041Z" fill="#fff"/><path d="M25.593,17.496c.772.318,1.635.681,2.878.681,1.635,0,1.954-.939,1.954-1.575,0-.803-.455-1.303-1.546-1.741l-1.287-.516c-1.515-.605-2.589-1.271-2.589-3.028,0-1.832,1.408-3.331,4.179-3.331,1.529,0,2.484.317,3.135.635l-.682,1.773c-.65-.379-1.453-.681-2.559-.681-1.014,0-1.817.514-1.817,1.362,0,.621.303,1.015,1.273,1.408l1.56.637c1.696.696,2.483,1.59,2.483,3.21,0,3.044-2.286,3.696-3.982,3.696-1.636,0-2.878-.455-3.726-.984l.727-1.546Z" fill="#fff"/></g><g transform="translate(0,0)"><path class="picto-outline" fill="rgb(0,111,158)" d="M39.333,0h44.1697v28h-44.1697V0.7z"/><path fill="rgb(255,255,255)" d="M48.45 18.32C48.45 21.00 50.17 23.50 54.19 23.50C58.43 23.50 60.59 20.73 60.59 17.76C60.59 15.50 59.37 13.93 57.06 12.90C58.46 12.24 59.83 10.94 59.83 8.78C59.83 6.09 57.94 4.32 54.68 4.32C51.54 4.32 48.99 6.26 48.99 9.52C48.99 10.97 49.48 12.39 51.50 13.61C49.90 14.50 48.45 15.87 48.45 18.32ZM54.54 12.02C52.84 11.31 52.55 10.35 52.55 9.37C52.55 7.56 53.53 6.92 54.63 6.92C55.96 6.92 56.45 7.80 56.45 9.05C56.45 10.38 55.88 11.36 54.54 12.02ZM51.96 18.22C51.96 16.83 52.55 15.55 53.70 14.86C55.84 15.62 57.11 16.29 57.11 18.25C57.11 19.87 56.23 21.04 54.56 21.04C53.11 21.04 51.96 20.16 51.96 18.22ZM62.58 22.29C63.68 22.81 65.62 23.52 67.88 23.52C72.41 23.52 74.55 20.68 74.55 17.02C74.55 13.39 72.46 11.51 68.88 11.51L66.48 11.51L66.65 7.24L74.15 7.24L74.15 4.54L63.46 4.54L63.14 14.23L67.78 14.23C70.03 14.23 71.21 15.04 71.21 17.22C71.21 19.47 69.96 20.77 67.48 20.77C66.16 20.77 64.42 20.41 63.24 19.99Z"/></g></g></svg>