<svg xmlns="http://www.w3.org/2000/svg" viewBox="0 0 83.503 28" data-ligne-id="BUS87" class=""><g><g><path fill="rgb(226,0,26)" class="picto-outline" d="M3.6,0S0,5.4,0,14s3.6,14,3.6,14h31.4V0H3.6Z" device-cmyk="0.00, 1.00, 1.00, 0.00"/><path d="M3.578,8.213h4.135c2.483,0,3.331,1.271,3.331,2.802,0,1.364-.772,2.119-1.544,2.408,1.059.212,2.089,1.091,2.089,2.817,0,2.166-1.681,3.559-3.997,3.559H3.578v-11.585ZM7.121,13.089c1.121,0,2.06-.484,2.06-1.681,0-.894-.575-1.605-1.923-1.605h-1.696v3.286h1.559ZM7.394,18.223c1.03,0,2.166-.484,2.166-1.893,0-1.211-.607-1.802-1.834-1.802h-2.165v3.695h1.832Z" fill="#fff"/><path d="M13.995,8.213h1.984v7.603c0,1.484.818,2.408,2.362,2.408s2.363-.924,2.363-2.408v-7.603h1.984v8.041c0,2.5-1.878,3.771-4.347,3.771s-4.346-1.271-4.346-3.771v-8.041Z" fill="#fff"/><path d="M25.593,17.496c.772.318,1.635.681,2.878.681,1.635,0,1.954-.939,1.954-1.575,0-.803-.455-1.303-1.546-1.741l-1.287-.516c-1.515-.605-2.589-1.271-2.589-3.028,0-1.832,1.408-3.331,4.179-3.331,1.529,0,2.484.317,3.135.635l-.682,1.773c-.65-.379-1.453-.681-2.559-.681-1.014,0-1.817.514-1.817,1.362,0,.621.303,1.015,1.273,1.408l1.56.637c1.696.696,2.483,1.59,2.483,3.21,0,3.044-2.286,3.696-3.982,3.696-1.636,0-2.878-.455-3.726-.984l.727-1.546Z" fill="#fff"/></g><g transform="translate(0,0)"><path class="picto-outline" fill="rgb(110,137,151)" d="M39.333,0h44.1697v28h-44.1697V0.7z"/><path fill="rgb(255,255,255)" d="M48.51 18.32C48.51 20.99 50.23 23.50 54.26 23.50C58.50 23.50 60.67 20.72 60.67 17.75C60.67 15.49 59.44 13.92 57.13 12.89C58.53 12.23 59.90 10.93 59.90 8.76C59.90 6.06 58.01 4.30 54.75 4.30C51.61 4.30 49.05 6.24 49.05 9.50C49.05 10.95 49.54 12.37 51.56 13.60C49.96 14.49 48.51 15.86 48.51 18.32ZM54.60 12.01C52.91 11.29 52.61 10.34 52.61 9.35C52.61 7.54 53.59 6.90 54.70 6.90C56.02 6.90 56.52 7.78 56.52 9.04C56.52 10.36 55.95 11.34 54.60 12.01ZM52.02 18.22C52.02 16.82 52.61 15.54 53.77 14.85C55.90 15.62 57.18 16.28 57.18 18.24C57.18 19.86 56.29 21.04 54.63 21.04C53.18 21.04 52.02 20.16 52.02 18.22ZM64.94 23.30L68.37 23.30C68.37 19.54 68.45 18.34 69.82 16.30L71.49 13.82C74.14 9.89 74.49 8.79 74.49 6.58C74.49 5.79 74.41 5.08 74.34 4.52L62.41 4.52L62.41 7.29L71.10 7.29C71.10 7.51 71.08 7.73 71.05 7.95C70.90 8.84 70.44 9.70 69.09 11.71L67.69 13.80C65.40 17.19 64.94 18.86 64.94 23.30Z"/></g></g></svg>