<svg xmlns="http://www.w3.org/2000/svg" viewBox="0 0 83.503 28" data-ligne-id="BUS88" class=""><g><g><path fill="rgb(226,0,26)" class="picto-outline" d="M3.6,0S0,5.4,0,14s3.6,14,3.6,14h31.4V0H3.6Z" device-cmyk="0.00, 1.00, 1.00, 0.00"/><path d="M3.578,8.213h4.135c2.483,0,3.331,1.271,3.331,2.802,0,1.364-.772,2.119-1.544,2.408,1.059.212,2.089,1.091,2.089,2.817,0,2.166-1.681,3.559-3.997,3.559H3.578v-11.585ZM7.121,13.089c1.121,0,2.06-.484,2.06-1.681,0-.894-.575-1.605-1.923-1.605h-1.696v3.286h1.559ZM7.394,18.223c1.03,0,2.166-.484,2.166-1.893,0-1.211-.607-1.802-1.834-1.802h-2.165v3.695h1.832Z" fill="#fff"/><path d="M13.995,8.213h1.984v7.603c0,1.484.818,2.408,2.362,2.408s2.363-.924,2.363-2.408v-7.603h1.984v8.041c0,2.5-1.878,3.771-4.347,3.771s-4.346-1.271-4.346-3.771v-8.041Z" fill="#fff"/><path d="M25.593,17.496c.772.318,1.635.681,2.878.681,1.635,0,1.954-.939,1.954-1.575,0-.803-.455-1.303-1.546-1.741l-1.287-.516c-1.515-.605-2.589-1.271-2.589-3.028,0-1.832,1.408-3.331,4.179-3.331,1.529,0,2.484.317,3.135.635l-.682,1.773c-.65-.379-1.453-.681-2.559-.681-1.014,0-1.817.514-1.817,1.362,0,.621.303,1.015,1.273,1.408l1.56.637c1.696.696,2.483,1.59,2.483,3.21,0,3.044-2.286,3.696-3.982,3.696-1.636,0-2.878-.455-3.726-.984l.727-1.546Z" fill="#fff"/></g><g transform="translate(0,0)"><path class="picto-outline" fill="rgb(200,136,23)" d="M39.333,0h44.1697v28h-44.1697V0.7z"/><path fill="rgb(255,255,255)" d="M48.36 18.32C48.36 20.99 50.08 23.50 54.11 23.50C58.36 23.50 60.52 20.72 60.52 17.75C60.52 15.49 59.29 13.92 56.98 12.89C58.38 12.23 59.76 10.93 59.76 8.76C59.76 6.06 57.87 4.30 54.60 4.30C51.46 4.30 48.90 6.24 48.90 9.50C48.90 10.95 49.40 12.37 51.41 13.60C49.81 14.49 48.36 15.86 48.36 18.32ZM54.45 12.01C52.76 11.29 52.46 10.34 52.46 9.35C52.46 7.54 53.45 6.90 54.55 6.90C55.88 6.90 56.37 7.78 56.37 9.04C56.37 10.36 55.80 11.34 54.45 12.01ZM51.88 18.22C51.88 16.82 52.46 15.54 53.62 14.85C55.75 15.62 57.03 16.28 57.03 18.24C57.03 19.86 56.15 21.04 54.48 21.04C53.03 21.04 51.88 20.16 51.88 18.22ZM62.48 18.32C62.48 20.99 64.20 23.50 68.23 23.50C72.47 23.50 74.64 20.72 74.64 17.75C74.64 15.49 73.41 13.92 71.10 12.89C72.50 12.23 73.87 10.93 73.87 8.76C73.87 6.06 71.98 4.30 68.72 4.30C65.58 4.30 63.02 6.24 63.02 9.50C63.02 10.95 63.51 12.37 65.53 13.60C63.93 14.49 62.48 15.86 62.48 18.32ZM68.57 12.01C66.88 11.29 66.58 10.34 66.58 9.35C66.58 7.54 67.56 6.90 68.67 6.90C70.00 6.90 70.49 7.78 70.49 9.04C70.49 10.36 69.92 11.34 68.57 12.01ZM65.99 18.22C65.99 16.82 66.58 15.54 67.74 14.85C69.87 15.62 71.15 16.28 71.15 18.24C71.15 19.86 70.27 21.04 68.60 21.04C67.15 21.04 65.99 20.16 65.99 18.22Z"/></g></g></svg>