<svg xmlns="http://www.w3.org/2000/svg" viewBox="0 0 83.503 28" data-ligne-id="BUS93" class=""><g><g><path fill="rgb(226,0,26)" class="picto-outline" d="M3.6,0S0,5.4,0,14s3.6,14,3.6,14h31.4V0H3.6Z" device-cmyk="0.00, 1.00, 1.00, 0.00"/><path d="M3.578,8.213h4.135c2.483,0,3.331,1.271,3.331,2.802,0,1.364-.772,2.119-1.544,2.408,1.059.212,2.089,1.091,2.089,2.817,0,2.166-1.681,3.559-3.997,3.559H3.578v-11.585ZM7.121,13.089c1.121,0,2.06-.484,2.06-1.681,0-.894-.575-1.605-1.923-1.605h-1.696v3.286h1.559ZM7.394,18.223c1.03,0,2.166-.484,2.166-1.893,0-1.211-.607-1.802-1.834-1.802h-2.165v3.695h1.832Z" fill="#fff"/><path d="M13.995,8.213h1.984v7.603c0,1.484.818,2.408,2.362,2.408s2.363-.924,2.363-2.408v-7.603h1.984v8.041c0,2.5-1.878,3.771-4.347,3.771s-4.346-1.271-4.346-3.771v-8.041Z" fill="#fff"/><path d="M25.593,17.496c.772.318,1.635.681,2.878.681,1.635,0,1.954-.939,1.954-1.575,0-.803-.455-1.303-1.546-1.741l-1.287-.516c-1.515-.605-2.589-1.271-2.589-3.028,0-1.832,1.408-3.331,4.179-3.331,1.529,0,2.484.317,3.135.635l-.682,1.773c-.65-.379-1.453-.681-2.559-.681-1.014,0-1.817.514-1.817,1.362,0,.621.303,1.015,1.273,1.408l1.56.637c1.696.696,2.483,1.59,2.483,3.21,0,3.044-2.286,3.696-3.982,3.696-1.636,0-2.878-.455-3.726-.984l.727-1.546Z" fill="#fff"/></g><g transform="translate(0,0)"><path class="picto-outline" fill="rgb(229,0,105)" d="M39.333,0h44.1697v28h-44.1697V0.7z"/><path fill="rgb(255,255,255)" d="M48.86 22.49C50.06 23.13 52.10 23.50 53.62 23.50C58.77 23.50 60.84 19.45 60.84 13.60C60.84 7.81 59.17 4.30 54.58 4.30C51.02 4.30 48.61 6.83 48.61 10.70C48.61 14.61 51.61 15.93 53.64 15.93C55.51 15.93 56.81 15.10 57.47 14.68C57.47 18.51 56.29 20.70 53.52 20.70C51.70 20.70 50.50 20.21 49.74 19.89ZM54.67 12.87C52.88 12.87 51.97 11.81 51.97 10.16C51.97 8.42 52.61 6.90 54.63 6.90C56.71 6.90 57.38 9.33 57.38 12.05C56.59 12.57 55.95 12.87 54.67 12.87ZM62.36 22.05C63.29 22.59 65.21 23.50 67.74 23.50C72.08 23.50 74.39 20.82 74.39 17.58C74.39 15.30 73.26 13.70 71.39 13.06C72.92 12.35 74.17 11.20 74.17 8.94C74.17 6.24 72.40 4.30 68.67 4.30C66.41 4.30 64.03 5.01 62.29 5.99L63.42 8.52C64.57 7.81 66.21 7.14 68.01 7.14C69.97 7.14 70.78 7.93 70.78 9.45C70.78 11.51 69.11 12.28 67.17 12.28L65.50 12.28L65.50 14.98L67.64 14.98C69.53 14.98 71.08 15.57 71.08 17.55C71.08 19.27 69.95 20.57 67.52 20.57C65.67 20.57 64.00 19.86 63.29 19.49Z"/></g></g></svg>