<svg xmlns="http://www.w3.org/2000/svg" viewBox="0 0 83.503 28" data-ligne-id="BUS95" class=""><g><g><path fill="rgb(226,0,26)" class="picto-outline" d="M3.6,0S0,5.4,0,14s3.6,14,3.6,14h31.4V0H3.6Z" device-cmyk="0.00, 1.00, 1.00, 0.00"/><path d="M3.578,8.213h4.135c2.483,0,3.331,1.271,3.331,2.802,0,1.364-.772,2.119-1.544,2.408,1.059.212,2.089,1.091,2.089,2.817,0,2.166-1.681,3.559-3.997,3.559H3.578v-11.585ZM7.121,13.089c1.121,0,2.06-.484,2.06-1.681,0-.894-.575-1.605-1.923-1.605h-1.696v3.286h1.559ZM7.394,18.223c1.03,0,2.166-.484,2.166-1.893,0-1.211-.607-1.802-1.834-1.802h-2.165v3.695h1.832Z" fill="#fff"/><path d="M13.995,8.213h1.984v7.603c0,1.484.818,2.408,2.362,2.408s2.363-.924,2.363-2.408v-7.603h1.984v8.041c0,2.5-1.878,3.771-4.347,3.771s-4.346-1.271-4.346-3.771v-8.041Z" fill="#fff"/><path d="M25.593,17.496c.772.318,1.635.681,2.878.681,1.635,0,1.954-.939,1.954-1.575,0-.803-.455-1.303-1.546-1.741l-1.287-.516c-1.515-.605-2.589-1.271-2.589-3.028,0-1.832,1.408-3.331,4.179-3.331,1.529,0,2.484.317,3.135.635l-.682,1.773c-.65-.379-1.453-.681-2.559-.681-1.014,0-1.817.514-1.817,1.362,0,.621.303,1.015,1.273,1.408l1.56.637c1.696.696,2.483,1.59,2.483,3.21,0,3.044-2.286,3.696-3.982,3.696-1.636,0-2.878-.455-3.726-.984l.727-1.546Z" fill="#fff"/></g><g transform="translate(0,0)"><path class="picto-outline" fill="rgb(63,78,85)" d="M39.333,0h44.1697v28h-44.1697V0.7z"/><path fill="rgb(255,255,255)" d="M48.63 22.49C49.83 23.13 51.86 23.50 53.38 23.50C58.53 23.50 60.59 19.45 60.59 13.61C60.59 7.83 58.93 4.32 54.34 4.32C50.78 4.32 48.38 6.85 48.38 10.72C48.38 14.62 51.37 15.94 53.41 15.94C55.27 15.94 56.57 15.11 57.23 14.69C57.23 18.52 56.06 20.70 53.29 20.70C51.47 20.70 50.27 20.21 49.51 19.89ZM54.44 12.88C52.65 12.88 51.74 11.82 51.74 10.18C51.74 8.44 52.38 6.92 54.39 6.92C56.47 6.92 57.14 9.35 57.14 12.07C56.35 12.58 55.71 12.88 54.44 12.88ZM62.65 22.29C63.76 22.81 65.69 23.52 67.95 23.52C72.49 23.52 74.62 20.68 74.62 17.02C74.62 13.39 72.53 11.51 68.95 11.51L66.55 11.51L66.72 7.24L74.23 7.24L74.23 4.54L63.54 4.54L63.22 14.23L67.85 14.23C70.11 14.23 71.28 15.04 71.28 17.22C71.28 19.47 70.03 20.77 67.56 20.77C66.23 20.77 64.49 20.41 63.31 19.99Z"/></g></g></svg>