<svg xmlns="http://www.w3.org/2000/svg" viewBox="0 0 83.503 28" data-ligne-id="BUS96" class=""><g><g><path fill="rgb(226,0,26)" class="picto-outline" d="M3.6,0S0,5.4,0,14s3.6,14,3.6,14h31.4V0H3.6Z" device-cmyk="0.00, 1.00, 1.00, 0.00"/><path d="M3.578,8.213h4.135c2.483,0,3.331,1.271,3.331,2.802,0,1.364-.772,2.119-1.544,2.408,1.059.212,2.089,1.091,2.089,2.817,0,2.166-1.681,3.559-3.997,3.559H3.578v-11.585ZM7.121,13.089c1.121,0,2.06-.484,2.06-1.681,0-.894-.575-1.605-1.923-1.605h-1.696v3.286h1.559ZM7.394,18.223c1.03,0,2.166-.484,2.166-1.893,0-1.211-.607-1.802-1.834-1.802h-2.165v3.695h1.832Z" fill="#fff"/><path d="M13.995,8.213h1.984v7.603c0,1.484.818,2.408,2.362,2.408s2.363-.924,2.363-2.408v-7.603h1.984v8.041c0,2.5-1.878,3.771-4.347,3.771s-4.346-1.271-4.346-3.771v-8.041Z" fill="#fff"/><path d="M25.593,17.496c.772.318,1.635.681,2.878.681,1.635,0,1.954-.939,1.954-1.575,0-.803-.455-1.303-1.546-1.741l-1.287-.516c-1.515-.605-2.589-1.271-2.589-3.028,0-1.832,1.408-3.331,4.179-3.331,1.529,0,2.484.317,3.135.635l-.682,1.773c-.65-.379-1.453-.681-2.559-.681-1.014,0-1.817.514-1.817,1.362,0,.621.303,1.015,1.273,1.408l1.56.637c1.696.696,2.483,1.59,2.483,3.21,0,3.044-2.286,3.696-3.982,3.696-1.636,0-2.878-.455-3.726-.984l.727-1.546Z" fill="#fff"/></g><g transform="translate(0,0)"><path class="picto-outline" fill="rgb(153,35,88)" d="M39.333,0h44.1697v28h-44.1697V0.7z"/><path fill="rgb(255,255,255)" d="M48.50 22.49C49.71 23.13 51.74 23.50 53.26 23.50C58.41 23.50 60.47 19.45 60.47 13.61C60.47 7.83 58.80 4.32 54.22 4.32C50.66 4.32 48.26 6.85 48.26 10.72C48.26 14.62 51.25 15.94 53.29 15.94C55.15 15.94 56.45 15.11 57.11 14.69C57.11 18.52 55.93 20.70 53.16 20.70C51.35 20.70 50.15 20.21 49.39 19.89ZM54.32 12.88C52.53 12.88 51.62 11.82 51.62 10.18C51.62 8.44 52.26 6.92 54.27 6.92C56.35 6.92 57.01 9.35 57.01 12.07C56.23 12.58 55.59 12.88 54.32 12.88ZM68.64 23.52C72.36 23.52 74.74 20.87 74.74 17.10C74.74 13.05 72.00 12.09 70.01 12.09C68.24 12.09 66.62 12.85 65.96 13.27C66.26 9.03 68.17 7.07 70.92 7.07C71.92 7.07 72.61 7.34 73.15 7.61L74.01 5.06C73.15 4.64 71.77 4.32 70.40 4.32C65.18 4.32 62.55 8.86 62.55 14.99C62.55 20.04 64.34 23.52 68.64 23.52ZM68.86 20.92C66.77 20.92 65.96 19.20 65.96 15.77C66.94 15.23 68.10 14.96 69.03 14.96C70.67 14.96 71.38 15.80 71.38 17.68C71.38 19.55 70.70 20.92 68.86 20.92Z"/></g></g></svg>