<svg xmlns="http://www.w3.org/2000/svg" viewBox="0 0 83.503 28" data-ligne-id="BUS98" class=""><g><g><path fill="rgb(226,0,26)" class="picto-outline" d="M3.6,0S0,5.4,0,14s3.6,14,3.6,14h31.4V0H3.6Z" device-cmyk="0.00, 1.00, 1.00, 0.00"/><path d="M3.578,8.213h4.135c2.483,0,3.331,1.271,3.331,2.802,0,1.364-.772,2.119-1.544,2.408,1.059.212,2.089,1.091,2.089,2.817,0,2.166-1.681,3.559-3.997,3.559H3.578v-11.585ZM7.121,13.089c1.121,0,2.06-.484,2.06-1.681,0-.894-.575-1.605-1.923-1.605h-1.696v3.286h1.559ZM7.394,18.223c1.03,0,2.166-.484,2.166-1.893,0-1.211-.607-1.802-1.834-1.802h-2.165v3.695h1.832Z" fill="#fff"/><path d="M13.995,8.213h1.984v7.603c0,1.484.818,2.408,2.362,2.408s2.363-.924,2.363-2.408v-7.603h1.984v8.041c0,2.5-1.878,3.771-4.347,3.771s-4.346-1.271-4.346-3.771v-8.041Z" fill="#fff"/><path d="M25.593,17.496c.772.318,1.635.681,2.878.681,1.635,0,1.954-.939,1.954-1.575,0-.803-.455-1.303-1.546-1.741l-1.287-.516c-1.515-.605-2.589-1.271-2.589-3.028,0-1.832,1.408-3.331,4.179-3.331,1.529,0,2.484.317,3.135.635l-.682,1.773c-.65-.379-1.453-.681-2.559-.681-1.014,0-1.817.514-1.817,1.362,0,.621.303,1.015,1.273,1.408l1.56.637c1.696.696,2.483,1.59,2.483,3.21,0,3.044-2.286,3.696-3.982,3.696-1.636,0-2.878-.455-3.726-.984l.727-1.546Z" fill="#fff"/></g><g transform="translate(0,0)"><path class="picto-outline" fill="rgb(211,216,0)" d="M39.333,0h44.1697v28h-44.1697V0.7z"/><path fill="rgb(0,0,0)" d="M48.54 22.49C49.74 23.13 51.78 23.50 53.30 23.50C58.46 23.50 60.52 19.45 60.52 13.60C60.52 7.81 58.85 4.30 54.26 4.30C50.70 4.30 48.29 6.83 48.29 10.70C48.29 14.61 51.29 15.93 53.32 15.93C55.19 15.93 56.49 15.10 57.15 14.68C57.15 18.51 55.98 20.70 53.20 20.70C51.38 20.70 50.18 20.21 49.42 19.89ZM54.36 12.87C52.56 12.87 51.65 11.81 51.65 10.16C51.65 8.42 52.29 6.90 54.31 6.90C56.39 6.90 57.06 9.33 57.06 12.05C56.27 12.57 55.63 12.87 54.36 12.87ZM62.56 18.32C62.56 20.99 64.27 23.50 68.30 23.50C72.55 23.50 74.71 20.72 74.71 17.75C74.71 15.49 73.48 13.92 71.17 12.89C72.57 12.23 73.95 10.93 73.95 8.76C73.95 6.06 72.06 4.30 68.79 4.30C65.65 4.30 63.10 6.24 63.10 9.50C63.10 10.95 63.59 12.37 65.60 13.60C64.00 14.49 62.56 15.86 62.56 18.32ZM68.64 12.01C66.95 11.29 66.66 10.34 66.66 9.35C66.66 7.54 67.64 6.90 68.74 6.90C70.07 6.90 70.56 7.78 70.56 9.04C70.56 10.36 70.00 11.34 68.64 12.01ZM66.07 18.22C66.07 16.82 66.66 15.54 67.81 14.85C69.95 15.62 71.22 16.28 71.22 18.24C71.22 19.86 70.34 21.04 68.67 21.04C67.22 21.04 66.07 20.16 66.07 18.22Z"/></g></g></svg>