<svg xmlns="http://www.w3.org/2000/svg" viewBox="0 0 91.3918 28" data-ligne-id="BUSRELAIS60" class=""><g><g><path d="M0,.063h44.337v27.937H0V.063Z" fill="rgb(253,195,0)"/><path d="M7.128,7.962c1.174,0,1.856-.427,1.856-1.522s-.681-1.442-1.641-1.442h-1.642v2.964h1.428,0ZM3.924,3.597h3.871c1.695,0,3.004.854,3.004,2.71,0,1.108-.454,2.163-1.722,2.737l2.296,4.766h-2.07l-1.975-4.418h-1.642v4.418h-1.761V3.597h0Z"/><path d="M16.646,9.524c-.053-.668-.307-1.401-1.215-1.401-.721,0-1.295.508-1.402,1.401h2.617,0ZM15.472,6.881c1.708,0,2.896,1.068,2.896,2.95,0,.307-.014.588-.041.881h-4.351c0,1.229.774,1.79,2.002,1.79.735,0,1.322-.174,1.789-.387l.481.921c-.774.586-1.722.894-2.816.894-2.056,0-3.23-1.282-3.23-3.444s1.282-3.604,3.271-3.604"/><path d="M20.063,3.597h1.683v8.009c0,.735.387.841.933.801v1.308c-.279.094-.64.215-1.16.215-.881,0-1.456-.401-1.456-1.896V3.597Z"/><path d="M26.378,12.875c.359,0,.627-.094.881-.227v-1.776l-.948.28c-.52.16-.854.347-.854.907s.428.815.921.815M25.576,10.271l1.683-.387v-.467c0-.828-.321-1.121-.961-1.121-.575,0-1.309.226-1.776.453l-.428-1.188c.708-.428,1.547-.68,2.404-.68,1.601,0,2.536.773,2.536,2.255v2.804c0,.48.119.641.654.56v1.163c-.293.093-.68.213-1.201.213-.655,0-.908-.293-1.095-.588-.481.4-1.002.641-1.695.641-1.054,0-1.922-.534-1.922-1.696,0-1.095.547-1.669,1.801-1.962"/><path d="M31.157,7.054h1.776v6.755h-1.776v-6.755ZM30.823,4.665c0-.641.533-1.175,1.215-1.175s1.229.534,1.229,1.175-.521,1.135-1.229,1.135-1.215-.521-1.215-1.135"/><path d="M34.949,12.127c.4.214,1.094.547,1.881.547.508,0,.974-.186.974-.68,0-.441-.279-.601-.908-.855l-.827-.333c-.747-.307-1.456-.761-1.456-1.79,0-1.721,1.522-2.135,2.59-2.135s1.602.199,2.028.387l-.507,1.361c-.414-.267-.961-.453-1.467-.453s-1.029.146-1.029.641c0,.373.254.507.788.721l.814.334c.881.36,1.468.895,1.468,1.868,0,1.708-1.468,2.189-2.509,2.189s-1.695-.267-2.27-.573l.429-1.229h.001Z"/><path d="M3.925,17.797h2.419c1.454,0,1.95.744,1.95,1.64,0,.797-.452,1.241-.904,1.409.621.124,1.223.639,1.223,1.648,0,1.267-.984,2.083-2.34,2.083h-2.348v-6.78h0ZM5.998,20.651c.656,0,1.206-.284,1.206-.984,0-.523-.337-.939-1.126-.939h-.993v1.923h.913,0ZM6.157,23.656c.603,0,1.268-.284,1.268-1.108,0-.709-.355-1.055-1.072-1.055h-1.268v2.163h1.072Z"/><path d="M9.822,20.092h1.161v2.765c0,.47.124.833.639.833.274,0,.523-.142.673-.364.115-.159.177-.364.177-.594v-2.641h1.179v4.485h-1.117l-.044-.576c-.266.39-.682.656-1.276.656-.895,0-1.391-.647-1.391-1.622v-2.943h0Z"/><path d="M14.955,23.46c.266.142.727.364,1.25.364.336,0,.647-.124.647-.452,0-.293-.186-.399-.603-.567l-.549-.222c-.496-.204-.966-.505-.966-1.188,0-1.143,1.01-1.418,1.719-1.418s1.064.133,1.347.257l-.336.904c-.275-.178-.639-.301-.975-.301s-.682.097-.682.426c0,.248.168.336.523.479l.541.221c.585.239.975.594.975,1.241,0,1.134-.975,1.454-1.666,1.454s-1.126-.177-1.506-.381l.284-.816h0Z"/></g><g transform="translate(9,0)"><path class="picto-outline" fill="rgb(245,156,0)" d="M39.333,0h44.1697v28h-44.1697V0.7z"/><path fill="rgb(0,0,0)" d="M53.47 23.52C57.20 23.52 59.58 20.87 59.58 17.10C59.58 13.05 56.83 12.09 54.85 12.09C53.08 12.09 51.46 12.85 50.80 13.27C51.10 9.03 53.01 7.07 55.75 7.07C56.76 7.07 57.45 7.34 57.99 7.61L58.84 5.06C57.99 4.64 56.61 4.32 55.24 4.32C50.02 4.32 47.39 8.86 47.39 14.99C47.39 20.04 49.18 23.52 53.47 23.52ZM53.69 20.92C51.61 20.92 50.80 19.20 50.80 15.77C51.78 15.23 52.93 14.96 53.87 14.96C55.51 14.96 56.22 15.80 56.22 17.68C56.22 19.55 55.53 20.92 53.69 20.92ZM67.50 23.52C73.16 23.52 74.10 19.01 74.10 13.96C74.10 9.15 72.80 4.32 67.50 4.32C62.23 4.32 60.93 9.15 60.93 13.96C60.93 19.01 61.86 23.52 67.50 23.52ZM67.50 20.65C65.42 20.65 64.36 18.86 64.36 14.23C64.36 10.28 64.97 7.31 67.50 7.31C70.05 7.31 70.66 10.28 70.66 14.23C70.66 18.86 69.61 20.65 67.50 20.65Z"/></g></g></svg>