<svg xmlns="http://www.w3.org/2000/svg" viewBox="0 0 83.503 28" data-ligne-id="Chrono10" class=""><g><g><path fill="rgb(226,0,26)" class="picto-outline" device-cmyk="0.00, 1.00, 1.00, 0.00" d="M3.6,0S0,5.4,0,14s3.6,14,3.6,14h31.4V0H3.6Z"/><path d="M20.3705,4.3c2.0987,0,3.7564.4389,4.8784.8768l-1.0241,3.3449c-1.0967-.5368-2.3197-.8052-3.807-.8052-3.0512,0-5.9783,2.0492-5.9783,6.4909,0,4.9784,3.2702,6.2709,5.953,6.2709,1.8314,0,2.7102-.44,3.9301-.8746l.9999,2.5608c-1.7072.9988-3.7091,1.5356-5.9309,1.5356-4.2953,0-8.9296-2.3903-8.9296-9.4421,0-6.0036,3.7564-9.9579,9.9084-9.9579" fill="#FFFFFF"/></g><path class="picto-outline" fill="rgb(214,130,181)" d="M39.333,0h44.1697v28h-44.1697V0.7z"/><path fill="rgb(0,0,0)" d="M48.80 23.30L60.52 23.30L60.52 20.73L56.77 20.73L56.77 4.54L54.02 4.54L47.96 7.85L49.14 10.13L53.48 7.68L53.48 20.73L48.80 20.73ZM68.44 23.52C74.10 23.52 75.04 19.01 75.04 13.96C75.04 9.15 73.74 4.32 68.44 4.32C63.17 4.32 61.87 9.15 61.87 13.96C61.87 19.01 62.80 23.52 68.44 23.52ZM68.44 20.65C66.36 20.65 65.30 18.86 65.30 14.23C65.30 10.28 65.91 7.31 68.44 7.31C70.99 7.31 71.60 10.28 71.60 14.23C71.60 18.86 70.55 20.65 68.44 20.65Z"/></g></svg>