<svg xmlns="http://www.w3.org/2000/svg" viewBox="0 0 83.503 28" data-ligne-id="Chrono13" class=""><g><g><path fill="rgb(226,0,26)" class="picto-outline" device-cmyk="0.00, 1.00, 1.00, 0.00" d="M3.6,0S0,5.4,0,14s3.6,14,3.6,14h31.4V0H3.6Z"/><path d="M20.3705,4.3c2.0987,0,3.7564.4389,4.8784.8768l-1.0241,3.3449c-1.0967-.5368-2.3197-.8052-3.807-.8052-3.0512,0-5.9783,2.0492-5.9783,6.4909,0,4.9784,3.2702,6.2709,5.953,6.2709,1.8314,0,2.7102-.44,3.9301-.8746l.9999,2.5608c-1.7072.9988-3.7091,1.5356-5.9309,1.5356-4.2953,0-8.9296-2.3903-8.9296-9.4421,0-6.0036,3.7564-9.9579,9.9084-9.9579" fill="#FFFFFF"/></g><path class="picto-outline" fill="rgb(194,3,68)" d="M39.333,0h44.1697v28h-44.1697V0.7z"/><path fill="rgb(255,255,255)" d="M49.36 23.30L61.09 23.30L61.09 20.72L57.34 20.72L57.34 4.52L54.59 4.52L48.52 7.83L49.70 10.12L54.05 7.66L54.05 20.72L49.36 20.72ZM62.45 22.05C63.38 22.59 65.29 23.50 67.82 23.50C72.17 23.50 74.48 20.82 74.48 17.58C74.48 15.30 73.35 13.70 71.48 13.06C73.00 12.35 74.25 11.20 74.25 8.94C74.25 6.24 72.49 4.30 68.76 4.30C66.50 4.30 64.11 5.01 62.37 5.99L63.50 8.52C64.65 7.81 66.30 7.14 68.09 7.14C70.06 7.14 70.87 7.93 70.87 9.45C70.87 11.51 69.20 12.28 67.26 12.28L65.59 12.28L65.59 14.98L67.72 14.98C69.61 14.98 71.16 15.57 71.16 17.55C71.16 19.27 70.03 20.57 67.60 20.57C65.76 20.57 64.09 19.86 63.38 19.49Z"/></g></svg>