<svg xmlns="http://www.w3.org/2000/svg" viewBox="0 0 83.503 28" data-ligne-id="Chrono14" class=""><g><g><path fill="rgb(226,0,26)" class="picto-outline" device-cmyk="0.00, 1.00, 1.00, 0.00" d="M3.6,0S0,5.4,0,14s3.6,14,3.6,14h31.4V0H3.6Z"/><path d="M20.3705,4.3c2.0987,0,3.7564.4389,4.8784.8768l-1.0241,3.3449c-1.0967-.5368-2.3197-.8052-3.807-.8052-3.0512,0-5.9783,2.0492-5.9783,6.4909,0,4.9784,3.2702,6.2709,5.953,6.2709,1.8314,0,2.7102-.44,3.9301-.8746l.9999,2.5608c-1.7072.9988-3.7091,1.5356-5.9309,1.5356-4.2953,0-8.9296-2.3903-8.9296-9.4421,0-6.0036,3.7564-9.9579,9.9084-9.9579" fill="#FFFFFF"/></g><path class="picto-outline" fill="rgb(241,145,163)" d="M39.333,0h44.1697v28h-44.1697V0.7z"/><path fill="rgb(0,0,0)" d="M48.50 23.30L60.50 23.30L60.50 20.66L56.66 20.66L56.66 4.10L53.85 4.10L47.65 7.49L48.85 9.82L53.29 7.31L53.29 20.66L48.50 20.66ZM61.78 19.89L69.76 19.89L69.76 23.30L72.92 23.30L72.92 19.89L75.35 19.89L75.35 17.10L72.92 17.10L72.92 4.10L68.43 4.10L61.78 16.98ZM64.66 17.10L68.45 9.70C69.13 8.39 69.58 7.39 69.76 6.71L69.76 17.10Z"/></g></svg>