<svg xmlns="http://www.w3.org/2000/svg" viewBox="0 0 83.503 28" data-ligne-id="Chrono15" class=""><g><g><path fill="rgb(226,0,26)" class="picto-outline" device-cmyk="0.00, 1.00, 1.00, 0.00" d="M3.6,0S0,5.4,0,14s3.6,14,3.6,14h31.4V0H3.6Z"/><path d="M20.3705,4.3c2.0987,0,3.7564.4389,4.8784.8768l-1.0241,3.3449c-1.0967-.5368-2.3197-.8052-3.807-.8052-3.0512,0-5.9783,2.0492-5.9783,6.4909,0,4.9784,3.2702,6.2709,5.953,6.2709,1.8314,0,2.7102-.44,3.9301-.8746l.9999,2.5608c-1.7072.9988-3.7091,1.5356-5.9309,1.5356-4.2953,0-8.9296-2.3903-8.9296-9.4421,0-6.0036,3.7564-9.9579,9.9084-9.9579" fill="#FFFFFF"/></g><path class="picto-outline" fill="rgb(211,216,0)" d="M39.333,0h44.1697v28h-44.1697V0.7z"/><path fill="rgb(0,0,0)" d="M48.99 23.30L60.84 23.30L60.84 20.70L57.05 20.70L57.05 4.32L54.27 4.32L48.14 7.67L49.33 9.98L53.72 7.50L53.72 20.70L48.99 20.70ZM62.75 22.28C63.87 22.80 65.83 23.52 68.11 23.52C72.70 23.52 74.86 20.65 74.86 16.95C74.86 13.28 72.75 11.37 69.13 11.37L66.70 11.37L66.87 7.05L74.46 7.05L74.46 4.32L63.65 4.32L63.32 14.12L68.01 14.12C70.29 14.12 71.48 14.94 71.48 17.15C71.48 19.43 70.22 20.74 67.71 20.74C66.37 20.74 64.61 20.37 63.42 19.95Z"/></g></svg>