<svg xmlns="http://www.w3.org/2000/svg" viewBox="0 0 83.503 28" data-ligne-id="Chrono16" class=""><g><g><path fill="rgb(226,0,26)" class="picto-outline" device-cmyk="0.00, 1.00, 1.00, 0.00" d="M3.6,0S0,5.4,0,14s3.6,14,3.6,14h31.4V0H3.6Z"/><path d="M20.3705,4.3c2.0987,0,3.7564.4389,4.8784.8768l-1.0241,3.3449c-1.0967-.5368-2.3197-.8052-3.807-.8052-3.0512,0-5.9783,2.0492-5.9783,6.4909,0,4.9784,3.2702,6.2709,5.953,6.2709,1.8314,0,2.7102-.44,3.9301-.8746l.9999,2.5608c-1.7072.9988-3.7091,1.5356-5.9309,1.5356-4.2953,0-8.9296-2.3903-8.9296-9.4421,0-6.0036,3.7564-9.9579,9.9084-9.9579" fill="#FFFFFF"/></g><path class="picto-outline" fill="rgb(197,126,101)" d="M39.333,0h44.1697v28h-44.1697V0.7z"/><path fill="rgb(255,255,255)" d="M49.01 23.30L60.73 23.30L60.73 20.73L56.98 20.73L56.98 4.54L54.23 4.54L48.17 7.85L49.35 10.13L53.69 7.68L53.69 20.73L49.01 20.73ZM68.72 23.52C72.45 23.52 74.83 20.87 74.83 17.10C74.83 13.05 72.08 12.09 70.09 12.09C68.33 12.09 66.71 12.85 66.05 13.27C66.34 9.03 68.26 7.07 71.00 7.07C72.01 7.07 72.69 7.34 73.23 7.61L74.09 5.06C73.23 4.64 71.86 4.32 70.49 4.32C65.26 4.32 62.64 8.86 62.64 14.99C62.64 20.04 64.43 23.52 68.72 23.52ZM68.94 20.92C66.86 20.92 66.05 19.20 66.05 15.77C67.03 15.23 68.18 14.96 69.11 14.96C70.76 14.96 71.47 15.80 71.47 17.68C71.47 19.55 70.78 20.92 68.94 20.92Z"/></g></svg>