<svg xmlns="http://www.w3.org/2000/svg" viewBox="0 0 83.503 28" data-ligne-id="Chrono17" class=""><g><g><path fill="rgb(226,0,26)" class="picto-outline" device-cmyk="0.00, 1.00, 1.00, 0.00" d="M3.6,0S0,5.4,0,14s3.6,14,3.6,14h31.4V0H3.6Z"/><path d="M20.3705,4.3c2.0987,0,3.7564.4389,4.8784.8768l-1.0241,3.3449c-1.0967-.5368-2.3197-.8052-3.807-.8052-3.0512,0-5.9783,2.0492-5.9783,6.4909,0,4.9784,3.2702,6.2709,5.953,6.2709,1.8314,0,2.7102-.44,3.9301-.8746l.9999,2.5608c-1.7072.9988-3.7091,1.5356-5.9309,1.5356-4.2953,0-8.9296-2.3903-8.9296-9.4421,0-6.0036,3.7564-9.9579,9.9084-9.9579" fill="#FFFFFF"/></g><path class="picto-outline" fill="rgb(63,78,85)" d="M39.333,0h44.1697v28h-44.1697V0.7z"/><path fill="rgb(255,255,255)" d="M48.91 23.30L60.91 23.30L60.91 20.66L57.07 20.66L57.07 4.10L54.26 4.10L48.06 7.49L49.26 9.82L53.71 7.31L53.71 20.66L48.91 20.66ZM65.18 23.30L68.69 23.30C68.69 19.46 68.77 18.23 70.17 16.15L71.88 13.61C74.59 9.60 74.94 8.47 74.94 6.21C74.94 5.41 74.86 4.68 74.79 4.10L62.59 4.10L62.59 6.94L71.48 6.94C71.48 7.16 71.45 7.39 71.43 7.61C71.28 8.52 70.80 9.40 69.42 11.45L67.99 13.59C65.65 17.05 65.18 18.76 65.18 23.30Z"/></g></svg>