<svg xmlns="http://www.w3.org/2000/svg" viewBox="0 0 83.503 28" data-ligne-id="Chrono18" class=""><g><g><path fill="rgb(226,0,26)" class="picto-outline" device-cmyk="0.00, 1.00, 1.00, 0.00" d="M3.6,0S0,5.4,0,14s3.6,14,3.6,14h31.4V0H3.6Z"/><path d="M20.3705,4.3c2.0987,0,3.7564.4389,4.8784.8768l-1.0241,3.3449c-1.0967-.5368-2.3197-.8052-3.807-.8052-3.0512,0-5.9783,2.0492-5.9783,6.4909,0,4.9784,3.2702,6.2709,5.953,6.2709,1.8314,0,2.7102-.44,3.9301-.8746l.9999,2.5608c-1.7072.9988-3.7091,1.5356-5.9309,1.5356-4.2953,0-8.9296-2.3903-8.9296-9.4421,0-6.0036,3.7564-9.9579,9.9084-9.9579" fill="#FFFFFF"/></g><path class="picto-outline" fill="rgb(0,163,166)" d="M39.333,0h44.1697v28h-44.1697V0.7z"/><path fill="rgb(255,255,255)" d="M49.04 23.30L60.78 23.30L60.78 20.72L57.02 20.72L57.02 4.52L54.27 4.52L48.20 7.83L49.38 10.12L53.73 7.66L53.73 20.72L49.04 20.72ZM62.64 18.32C62.64 20.99 64.36 23.50 68.39 23.50C72.63 23.50 74.80 20.72 74.80 17.75C74.80 15.49 73.57 13.92 71.26 12.89C72.66 12.23 74.03 10.93 74.03 8.76C74.03 6.06 72.14 4.30 68.88 4.30C65.74 4.30 63.18 6.24 63.18 9.50C63.18 10.95 63.67 12.37 65.69 13.60C64.09 14.49 62.64 15.86 62.64 18.32ZM68.73 12.01C67.04 11.29 66.74 10.34 66.74 9.35C66.74 7.54 67.72 6.90 68.83 6.90C70.15 6.90 70.65 7.78 70.65 9.04C70.65 10.36 70.08 11.34 68.73 12.01ZM66.15 18.22C66.15 16.82 66.74 15.54 67.90 14.85C70.03 15.62 71.31 16.28 71.31 18.24C71.31 19.86 70.42 21.04 68.76 21.04C67.31 21.04 66.15 20.16 66.15 18.22Z"/></g></svg>