<svg xmlns="http://www.w3.org/2000/svg" viewBox="0 0 83.503 28" data-ligne-id="Chrono2" class=""><g><g><path fill="rgb(226,0,26)" class="picto-outline" device-cmyk="0.00, 1.00, 1.00, 0.00" d="M3.6,0S0,5.4,0,14s3.6,14,3.6,14h31.4V0H3.6Z"/><path d="M20.3705,4.3c2.0987,0,3.7564.4389,4.8784.8768l-1.0241,3.3449c-1.0967-.5368-2.3197-.8052-3.807-.8052-3.0512,0-5.9783,2.0492-5.9783,6.4909,0,4.9784,3.2702,6.2709,5.953,6.2709,1.8314,0,2.7102-.44,3.9301-.8746l.9999,2.5608c-1.7072.9988-3.7091,1.5356-5.9309,1.5356-4.2953,0-8.9296-2.3903-8.9296-9.4421,0-6.0036,3.7564-9.9579,9.9084-9.9579" fill="#FFFFFF"/></g><path class="picto-outline" fill="rgb(229,0,105)" d="M39.333,0h44.1697v28h-44.1697V0.7z"/><path fill="rgb(255,255,255)" d="M55.52 23.30L67.65 23.30L67.65 20.52L59.19 20.52C59.24 19.73 59.39 19.08 60.90 17.94L63.66 15.88C66.09 14.05 67.35 12.58 67.35 9.48C67.35 6.01 64.72 4.10 60.95 4.10C59.27 4.10 57.08 4.70 55.35 5.74L56.44 8.09C57.36 7.60 59.12 6.90 60.71 6.90C62.39 6.90 63.88 7.62 63.88 9.93C63.88 11.59 62.94 12.61 61.30 13.82L59.02 15.54C56.56 17.40 55.52 18.93 55.52 20.87Z"/></g></svg>