<svg xmlns="http://www.w3.org/2000/svg" viewBox="0 0 83.503 28" data-ligne-id="Chrono20" class=""><g><g><path fill="rgb(226,0,26)" class="picto-outline" device-cmyk="0.00, 1.00, 1.00, 0.00" d="M3.6,0S0,5.4,0,14s3.6,14,3.6,14h31.4V0H3.6Z"/><path d="M20.3705,4.3c2.0987,0,3.7564.4389,4.8784.8768l-1.0241,3.3449c-1.0967-.5368-2.3197-.8052-3.807-.8052-3.0512,0-5.9783,2.0492-5.9783,6.4909,0,4.9784,3.2702,6.2709,5.953,6.2709,1.8314,0,2.7102-.44,3.9301-.8746l.9999,2.5608c-1.7072.9988-3.7091,1.5356-5.9309,1.5356-4.2953,0-8.9296-2.3903-8.9296-9.4421,0-6.0036,3.7564-9.9579,9.9084-9.9579" fill="#FFFFFF"/></g><path class="picto-outline" fill="rgb(131,108,119)" d="M39.333,0h44.1697v28h-44.1697V0.7z"/><path fill="rgb(255,255,255)" d="M48.19 23.30L60.18 23.30L60.18 20.55L51.81 20.55C51.86 19.77 52.01 19.13 53.51 18.00L56.23 15.97C58.63 14.15 59.88 12.71 59.88 9.64C59.88 6.21 57.28 4.32 53.56 4.32C51.89 4.32 49.73 4.91 48.01 5.94L49.09 8.27C50.00 7.78 51.74 7.09 53.31 7.09C54.98 7.09 56.45 7.80 56.45 10.08C56.45 11.73 55.52 12.73 53.90 13.93L51.64 15.62C49.21 17.46 48.19 18.98 48.19 20.90ZM68.39 23.52C74.05 23.52 74.99 19.01 74.99 13.96C74.99 9.15 73.69 4.32 68.39 4.32C63.12 4.32 61.82 9.15 61.82 13.96C61.82 19.01 62.75 23.52 68.39 23.52ZM68.39 20.65C66.31 20.65 65.25 18.86 65.25 14.23C65.25 10.28 65.86 7.31 68.39 7.31C70.94 7.31 71.55 10.28 71.55 14.23C71.55 18.86 70.50 20.65 68.39 20.65Z"/></g></svg>