<svg xmlns="http://www.w3.org/2000/svg" viewBox="0 0 83.503 28" data-ligne-id="Chrono200" class=""><g><g><path fill="rgb(226,0,26)" class="picto-outline" device-cmyk="0.00, 1.00, 1.00, 0.00" d="M3.6,0S0,5.4,0,14s3.6,14,3.6,14h31.4V0H3.6Z"/><path d="M20.3705,4.3c2.0987,0,3.7564.4389,4.8784.8768l-1.0241,3.3449c-1.0967-.5368-2.3197-.8052-3.807-.8052-3.0512,0-5.9783,2.0492-5.9783,6.4909,0,4.9784,3.2702,6.2709,5.953,6.2709,1.8314,0,2.7102-.44,3.9301-.8746l.9999,2.5608c-1.7072.9988-3.7091,1.5356-5.9309,1.5356-4.2953,0-8.9296-2.3903-8.9296-9.4421,0-6.0036,3.7564-9.9579,9.9084-9.9579" fill="#FFFFFF"/></g><path class="picto-outline" fill="rgb(253,195,0)" d="M39.333,0h44.1697v28h-44.1697V0.7z"/><path fill="rgb(0,0,0)" d="M41.89 23.30L53.88 23.30L53.88 20.55L45.52 20.55C45.57 19.77 45.71 19.13 47.21 18.00L49.93 15.97C52.33 14.15 53.59 12.71 53.59 9.64C53.59 6.21 50.99 4.32 47.26 4.32C45.59 4.32 43.43 4.91 41.72 5.94L42.80 8.27C43.70 7.78 45.44 7.09 47.01 7.09C48.68 7.09 50.15 7.80 50.15 10.08C50.15 11.73 49.22 12.73 47.60 13.93L45.35 15.62C42.92 17.46 41.89 18.98 41.89 20.90ZM60.84 23.52C66.50 23.52 67.43 19.01 67.43 13.96C67.43 9.15 66.13 4.32 60.84 4.32C55.57 4.32 54.27 9.15 54.27 13.96C54.27 19.01 55.20 23.52 60.84 23.52ZM60.84 20.65C58.75 20.65 57.70 18.86 57.70 14.23C57.70 10.28 58.31 7.31 60.84 7.31C63.39 7.31 64.00 10.28 64.00 14.23C64.00 18.86 62.95 20.65 60.84 20.65ZM74.69 23.52C80.35 23.52 81.28 19.01 81.28 13.96C81.28 9.15 79.98 4.32 74.69 4.32C69.41 4.32 68.12 9.15 68.12 13.96C68.12 19.01 69.05 23.52 74.69 23.52ZM74.69 20.65C72.60 20.65 71.55 18.86 71.55 14.23C71.55 10.28 72.16 7.31 74.69 7.31C77.24 7.31 77.85 10.28 77.85 14.23C77.85 18.86 76.80 20.65 74.69 20.65Z"/></g></svg>