<svg xmlns="http://www.w3.org/2000/svg" viewBox="0 0 83.503 28" data-ligne-id="Chrono201" class=""><g><g><path fill="rgb(226,0,26)" class="picto-outline" device-cmyk="0.00, 1.00, 1.00, 0.00" d="M3.6,0S0,5.4,0,14s3.6,14,3.6,14h31.4V0H3.6Z"/><path d="M20.3705,4.3c2.0987,0,3.7564.4389,4.8784.8768l-1.0241,3.3449c-1.0967-.5368-2.3197-.8052-3.807-.8052-3.0512,0-5.9783,2.0492-5.9783,6.4909,0,4.9784,3.2702,6.2709,5.953,6.2709,1.8314,0,2.7102-.44,3.9301-.8746l.9999,2.5608c-1.7072.9988-3.7091,1.5356-5.9309,1.5356-4.2953,0-8.9296-2.3903-8.9296-9.4421,0-6.0036,3.7564-9.9579,9.9084-9.9579" fill="#FFFFFF"/></g><path class="picto-outline" fill="rgb(0,117,191)" d="M39.333,0h44.1697v28h-44.1697V0.7z"/><path fill="rgb(255,255,255)" d="M42.10 23.30L54.09 23.30L54.09 20.55L45.73 20.55C45.78 19.77 45.92 19.13 47.42 18.00L50.14 15.97C52.54 14.15 53.79 12.71 53.79 9.64C53.79 6.21 51.19 4.32 47.47 4.32C45.80 4.32 43.64 4.91 41.93 5.94L43.00 8.27C43.91 7.78 45.65 7.09 47.22 7.09C48.89 7.09 50.36 7.80 50.36 10.08C50.36 11.73 49.43 12.73 47.81 13.93L45.55 15.62C43.13 17.46 42.10 18.98 42.10 20.90ZM61.05 23.52C66.71 23.52 67.64 19.01 67.64 13.96C67.64 9.15 66.34 4.32 61.05 4.32C55.77 4.32 54.47 9.15 54.47 13.96C54.47 19.01 55.41 23.52 61.05 23.52ZM61.05 20.65C58.96 20.65 57.91 18.86 57.91 14.23C57.91 10.28 58.52 7.31 61.05 7.31C63.60 7.31 64.21 10.28 64.21 14.23C64.21 18.86 63.16 20.65 61.05 20.65ZM69.35 23.30L81.07 23.30L81.07 20.73L77.32 20.73L77.32 4.54L74.58 4.54L68.52 7.85L69.70 10.13L74.04 7.68L74.04 20.73L69.35 20.73Z"/></g></svg>