<svg xmlns="http://www.w3.org/2000/svg" viewBox="0 0 83.503 28" data-ligne-id="Chrono21" class=""><g><g><path fill="rgb(226,0,26)" class="picto-outline" device-cmyk="0.00, 1.00, 1.00, 0.00" d="M3.6,0S0,5.4,0,14s3.6,14,3.6,14h31.4V0H3.6Z"/><path d="M20.3705,4.3c2.0987,0,3.7564.4389,4.8784.8768l-1.0241,3.3449c-1.0967-.5368-2.3197-.8052-3.807-.8052-3.0512,0-5.9783,2.0492-5.9783,6.4909,0,4.9784,3.2702,6.2709,5.953,6.2709,1.8314,0,2.7102-.44,3.9301-.8746l.9999,2.5608c-1.7072.9988-3.7091,1.5356-5.9309,1.5356-4.2953,0-8.9296-2.3903-8.9296-9.4421,0-6.0036,3.7564-9.9579,9.9084-9.9579" fill="#FFFFFF"/></g><path class="picto-outline" fill="rgb(0,153,188)" d="M39.333,0h44.1697v28h-44.1697V0.7z"/><path fill="rgb(255,255,255)" d="M48.24 23.30L60.37 23.30L60.37 20.52L51.91 20.52C51.96 19.73 52.11 19.08 53.62 17.94L56.38 15.88C58.81 14.05 60.07 12.58 60.07 9.48C60.07 6.01 57.44 4.10 53.67 4.10C51.99 4.10 49.80 4.70 48.07 5.74L49.16 8.09C50.08 7.60 51.84 6.90 53.43 6.90C55.11 6.90 56.60 7.62 56.60 9.93C56.60 11.59 55.66 12.61 54.02 13.82L51.74 15.54C49.28 17.40 48.24 18.93 48.24 20.87ZM63.08 23.30L74.93 23.30L74.93 20.70L71.14 20.70L71.14 4.32L68.36 4.32L62.23 7.67L63.42 9.98L67.81 7.50L67.81 20.70L63.08 20.70Z"/></g></svg>