<svg xmlns="http://www.w3.org/2000/svg" viewBox="0 0 83.503 28" data-ligne-id="Chrono22" class=""><g><g><path fill="rgb(226,0,26)" class="picto-outline" device-cmyk="0.00, 1.00, 1.00, 0.00" d="M3.6,0S0,5.4,0,14s3.6,14,3.6,14h31.4V0H3.6Z"/><path d="M20.3705,4.3c2.0987,0,3.7564.4389,4.8784.8768l-1.0241,3.3449c-1.0967-.5368-2.3197-.8052-3.807-.8052-3.0512,0-5.9783,2.0492-5.9783,6.4909,0,4.9784,3.2702,6.2709,5.953,6.2709,1.8314,0,2.7102-.44,3.9301-.8746l.9999,2.5608c-1.7072.9988-3.7091,1.5356-5.9309,1.5356-4.2953,0-8.9296-2.3903-8.9296-9.4421,0-6.0036,3.7564-9.9579,9.9084-9.9579" fill="#FFFFFF"/></g><path class="picto-outline" fill="rgb(188,163,206)" d="M39.333,0h44.1697v28h-44.1697V0.7z"/><path fill="rgb(0,0,0)" d="M48.39 23.30L60.52 23.30L60.52 20.52L52.06 20.52C52.11 19.73 52.26 19.08 53.77 17.94L56.53 15.88C58.96 14.05 60.22 12.58 60.22 9.48C60.22 6.01 57.59 4.10 53.82 4.10C52.14 4.10 49.95 4.70 48.22 5.74L49.31 8.09C50.23 7.60 51.99 6.90 53.57 6.90C55.26 6.90 56.75 7.62 56.75 9.93C56.75 11.59 55.81 12.61 54.17 13.82L51.89 15.54C49.43 17.40 48.39 18.93 48.39 20.87ZM62.65 23.30L74.78 23.30L74.78 20.52L66.32 20.52C66.37 19.73 66.52 19.08 68.04 17.94L70.79 15.88C73.22 14.05 74.49 12.58 74.49 9.48C74.49 6.01 71.86 4.10 68.09 4.10C66.40 4.10 64.22 4.70 62.48 5.74L63.57 8.09C64.49 7.60 66.25 6.90 67.84 6.90C69.52 6.90 71.01 7.62 71.01 9.93C71.01 11.59 70.07 12.61 68.43 13.82L66.15 15.54C63.70 17.40 62.65 18.93 62.65 20.87Z"/></g></svg>