<svg xmlns="http://www.w3.org/2000/svg" viewBox="0 0 83.503 28" data-ligne-id="Chrono23" class=""><g><g><path fill="rgb(226,0,26)" class="picto-outline" device-cmyk="0.00, 1.00, 1.00, 0.00" d="M3.6,0S0,5.4,0,14s3.6,14,3.6,14h31.4V0H3.6Z"/><path d="M20.3705,4.3c2.0987,0,3.7564.4389,4.8784.8768l-1.0241,3.3449c-1.0967-.5368-2.3197-.8052-3.807-.8052-3.0512,0-5.9783,2.0492-5.9783,6.4909,0,4.9784,3.2702,6.2709,5.953,6.2709,1.8314,0,2.7102-.44,3.9301-.8746l.9999,2.5608c-1.7072.9988-3.7091,1.5356-5.9309,1.5356-4.2953,0-8.9296-2.3903-8.9296-9.4421,0-6.0036,3.7564-9.9579,9.9084-9.9579" fill="#FFFFFF"/></g><path class="picto-outline" fill="rgb(0,158,61)" d="M39.333,0h44.1697v28h-44.1697V0.7z"/><path fill="rgb(255,255,255)" d="M48.75 23.30L60.75 23.30L60.75 20.55L52.38 20.55C52.43 19.76 52.58 19.13 54.07 18.00L56.80 15.96C59.20 14.14 60.46 12.69 60.46 9.62C60.46 6.19 57.85 4.30 54.12 4.30C52.45 4.30 50.29 4.89 48.57 5.92L49.65 8.25C50.56 7.76 52.31 7.07 53.88 7.07C55.55 7.07 57.02 7.78 57.02 10.07C57.02 11.71 56.09 12.72 54.47 13.92L52.21 15.62C49.78 17.46 48.75 18.98 48.75 20.89ZM62.40 22.05C63.33 22.59 65.24 23.50 67.77 23.50C72.12 23.50 74.43 20.82 74.43 17.58C74.43 15.30 73.30 13.70 71.43 13.06C72.95 12.35 74.21 11.20 74.21 8.94C74.21 6.24 72.44 4.30 68.71 4.30C66.45 4.30 64.07 5.01 62.32 5.99L63.45 8.52C64.61 7.81 66.25 7.14 68.04 7.14C70.01 7.14 70.82 7.93 70.82 9.45C70.82 11.51 69.15 12.28 67.21 12.28L65.54 12.28L65.54 14.98L67.67 14.98C69.57 14.98 71.11 15.57 71.11 17.55C71.11 19.27 69.98 20.57 67.55 20.57C65.71 20.57 64.04 19.86 63.33 19.49Z"/></g></svg>