<svg xmlns="http://www.w3.org/2000/svg" viewBox="0 0 83.503 28" data-ligne-id="Chrono24" class=""><g><g><path fill="rgb(226,0,26)" class="picto-outline" device-cmyk="0.00, 1.00, 1.00, 0.00" d="M3.6,0S0,5.4,0,14s3.6,14,3.6,14h31.4V0H3.6Z"/><path d="M20.3705,4.3c2.0987,0,3.7564.4389,4.8784.8768l-1.0241,3.3449c-1.0967-.5368-2.3197-.8052-3.807-.8052-3.0512,0-5.9783,2.0492-5.9783,6.4909,0,4.9784,3.2702,6.2709,5.953,6.2709,1.8314,0,2.7102-.44,3.9301-.8746l.9999,2.5608c-1.7072.9988-3.7091,1.5356-5.9309,1.5356-4.2953,0-8.9296-2.3903-8.9296-9.4421,0-6.0036,3.7564-9.9579,9.9084-9.9579" fill="#FFFFFF"/></g><path class="picto-outline" fill="rgb(0,51,106)" d="M39.333,0h44.1697v28h-44.1697V0.7z"/><path fill="rgb(255,255,255)" d="M48.03 23.30L60.16 23.30L60.16 20.52L51.70 20.52C51.75 19.73 51.90 19.08 53.41 17.94L56.17 15.88C58.60 14.05 59.86 12.58 59.86 9.48C59.86 6.01 57.23 4.10 53.46 4.10C51.78 4.10 49.59 4.70 47.86 5.74L48.95 8.09C49.87 7.60 51.63 6.90 53.21 6.90C54.90 6.90 56.39 7.62 56.39 9.93C56.39 11.59 55.45 12.61 53.81 13.82L51.53 15.54C49.07 17.40 48.03 18.93 48.03 20.87ZM61.72 19.93L69.61 19.93L69.61 23.30L72.74 23.30L72.74 19.93L75.14 19.93L75.14 17.17L72.74 17.17L72.74 4.32L68.30 4.32L61.72 17.05ZM64.58 17.17L68.32 9.86C68.99 8.57 69.44 7.57 69.61 6.90L69.61 17.17Z"/></g></svg>