<svg xmlns="http://www.w3.org/2000/svg" viewBox="0 0 83.503 28" data-ligne-id="Chrono25" class=""><g><g><path fill="rgb(226,0,26)" class="picto-outline" device-cmyk="0.00, 1.00, 1.00, 0.00" d="M3.6,0S0,5.4,0,14s3.6,14,3.6,14h31.4V0H3.6Z"/><path d="M20.3705,4.3c2.0987,0,3.7564.4389,4.8784.8768l-1.0241,3.3449c-1.0967-.5368-2.3197-.8052-3.807-.8052-3.0512,0-5.9783,2.0492-5.9783,6.4909,0,4.9784,3.2702,6.2709,5.953,6.2709,1.8314,0,2.7102-.44,3.9301-.8746l.9999,2.5608c-1.7072.9988-3.7091,1.5356-5.9309,1.5356-4.2953,0-8.9296-2.3903-8.9296-9.4421,0-6.0036,3.7564-9.9579,9.9084-9.9579" fill="#FFFFFF"/></g><path class="picto-outline" fill="rgb(253,195,0)" d="M39.333,0h44.1697v28h-44.1697V0.7z"/><path fill="rgb(0,0,0)" d="M48.52 23.30L60.51 23.30L60.51 20.55L52.15 20.55C52.19 19.77 52.34 19.13 53.84 18.00L56.56 15.97C58.96 14.15 60.21 12.71 60.21 9.64C60.21 6.21 57.61 4.32 53.89 4.32C52.22 4.32 50.06 4.91 48.34 5.94L49.42 8.27C50.33 7.78 52.07 7.09 53.64 7.09C55.31 7.09 56.78 7.80 56.78 10.08C56.78 11.73 55.85 12.73 54.23 13.93L51.97 15.62C49.55 17.46 48.52 18.98 48.52 20.90ZM62.69 22.29C63.79 22.81 65.73 23.52 67.99 23.52C72.52 23.52 74.66 20.68 74.66 17.02C74.66 13.39 72.57 11.51 68.99 11.51L66.59 11.51L66.76 7.24L74.26 7.24L74.26 4.54L63.57 4.54L63.25 14.23L67.89 14.23C70.14 14.23 71.32 15.04 71.32 17.22C71.32 19.47 70.07 20.77 67.59 20.77C66.27 20.77 64.53 20.41 63.35 19.99Z"/></g></svg>