<svg xmlns="http://www.w3.org/2000/svg" viewBox="0 0 83.503 28" data-ligne-id="Chrono26" class=""><g><g><path fill="rgb(226,0,26)" class="picto-outline" device-cmyk="0.00, 1.00, 1.00, 0.00" d="M3.6,0S0,5.4,0,14s3.6,14,3.6,14h31.4V0H3.6Z"/><path d="M20.3705,4.3c2.0987,0,3.7564.4389,4.8784.8768l-1.0241,3.3449c-1.0967-.5368-2.3197-.8052-3.807-.8052-3.0512,0-5.9783,2.0492-5.9783,6.4909,0,4.9784,3.2702,6.2709,5.953,6.2709,1.8314,0,2.7102-.44,3.9301-.8746l.9999,2.5608c-1.7072.9988-3.7091,1.5356-5.9309,1.5356-4.2953,0-8.9296-2.3903-8.9296-9.4421,0-6.0036,3.7564-9.9579,9.9084-9.9579" fill="#FFFFFF"/></g><path class="picto-outline" fill="rgb(38,153,214)" d="M39.333,0h44.1697v28h-44.1697V0.7z"/><path fill="rgb(255,255,255)" d="M48.39 23.30L60.38 23.30L60.38 20.55L52.02 20.55C52.07 19.77 52.22 19.13 53.71 18.00L56.44 15.97C58.84 14.15 60.09 12.71 60.09 9.64C60.09 6.21 57.49 4.32 53.76 4.32C52.10 4.32 49.94 4.91 48.22 5.94L49.30 8.27C50.21 7.78 51.95 7.09 53.52 7.09C55.19 7.09 56.66 7.80 56.66 10.08C56.66 11.73 55.73 12.73 54.11 13.93L51.85 15.62C49.42 17.46 48.39 18.98 48.39 20.90ZM68.67 23.52C72.40 23.52 74.78 20.87 74.78 17.10C74.78 13.05 72.03 12.09 70.05 12.09C68.28 12.09 66.66 12.85 66.00 13.27C66.29 9.03 68.21 7.07 70.95 7.07C71.96 7.07 72.64 7.34 73.18 7.61L74.04 5.06C73.18 4.64 71.81 4.32 70.44 4.32C65.21 4.32 62.59 8.86 62.59 14.99C62.59 20.04 64.38 23.52 68.67 23.52ZM68.89 20.92C66.81 20.92 66.00 19.20 66.00 15.77C66.98 15.23 68.13 14.96 69.06 14.96C70.71 14.96 71.42 15.80 71.42 17.68C71.42 19.55 70.73 20.92 68.89 20.92Z"/></g></svg>