<svg xmlns="http://www.w3.org/2000/svg" viewBox="0 0 83.503 28" data-ligne-id="Chrono5" class=""><g><g><path fill="rgb(226,0,26)" class="picto-outline" device-cmyk="0.00, 1.00, 1.00, 0.00" d="M3.6,0S0,5.4,0,14s3.6,14,3.6,14h31.4V0H3.6Z"/><path d="M20.3705,4.3c2.0987,0,3.7564.4389,4.8784.8768l-1.0241,3.3449c-1.0967-.5368-2.3197-.8052-3.807-.8052-3.0512,0-5.9783,2.0492-5.9783,6.4909,0,4.9784,3.2702,6.2709,5.953,6.2709,1.8314,0,2.7102-.44,3.9301-.8746l.9999,2.5608c-1.7072.9988-3.7091,1.5356-5.9309,1.5356-4.2953,0-8.9296-2.3903-8.9296-9.4421,0-6.0036,3.7564-9.9579,9.9084-9.9579" fill="#FFFFFF"/></g><path class="picto-outline" fill="rgb(236,102,8)" d="M39.333,0h44.1697v28h-44.1697V0.7z"/><path fill="rgb(255,255,255)" d="M55.45 22.28C56.56 22.80 58.52 23.52 60.81 23.52C65.39 23.52 67.55 20.65 67.55 16.95C67.55 13.28 65.44 11.37 61.82 11.37L59.39 11.37L59.57 7.05L67.16 7.05L67.16 4.32L56.34 4.32L56.02 14.12L60.71 14.12C62.99 14.12 64.18 14.94 64.18 17.15C64.18 19.43 62.91 20.74 60.41 20.74C59.07 20.74 57.31 20.37 56.12 19.95Z"/></g></svg>