<svg xmlns="http://www.w3.org/2000/svg" viewBox="0 0 83.503 28" data-ligne-id="Chrono6" class=""><g><g><path fill="rgb(226,0,26)" class="picto-outline" device-cmyk="0.00, 1.00, 1.00, 0.00" d="M3.6,0S0,5.4,0,14s3.6,14,3.6,14h31.4V0H3.6Z"/><path d="M20.3705,4.3c2.0987,0,3.7564.4389,4.8784.8768l-1.0241,3.3449c-1.0967-.5368-2.3197-.8052-3.807-.8052-3.0512,0-5.9783,2.0492-5.9783,6.4909,0,4.9784,3.2702,6.2709,5.953,6.2709,1.8314,0,2.7102-.44,3.9301-.8746l.9999,2.5608c-1.7072.9988-3.7091,1.5356-5.9309,1.5356-4.2953,0-8.9296-2.3903-8.9296-9.4421,0-6.0036,3.7564-9.9579,9.9084-9.9579" fill="#FFFFFF"/></g><path class="picto-outline" fill="rgb(131,196,145)" d="M39.333,0h44.1697v28h-44.1697V0.7z"/><path fill="rgb(0,0,0)" d="M61.49 23.52C65.21 23.52 67.59 20.87 67.59 17.10C67.59 13.05 64.85 12.09 62.86 12.09C61.10 12.09 59.48 12.85 58.81 13.27C59.11 9.03 61.02 7.07 63.77 7.07C64.77 7.07 65.46 7.34 66.00 7.61L66.86 5.06C66.00 4.64 64.63 4.32 63.25 4.32C58.03 4.32 55.41 8.86 55.41 14.99C55.41 20.04 57.20 23.52 61.49 23.52ZM61.71 20.92C59.62 20.92 58.81 19.20 58.81 15.77C59.80 15.23 60.95 14.96 61.88 14.96C63.52 14.96 64.23 15.80 64.23 17.68C64.23 19.55 63.55 20.92 61.71 20.92Z"/></g></svg>