<svg xmlns="http://www.w3.org/2000/svg" viewBox="0 0 83.503 28" data-ligne-id="Chrono8" class=""><g><g><path fill="rgb(226,0,26)" class="picto-outline" device-cmyk="0.00, 1.00, 1.00, 0.00" d="M3.6,0S0,5.4,0,14s3.6,14,3.6,14h31.4V0H3.6Z"/><path d="M20.3705,4.3c2.0987,0,3.7564.4389,4.8784.8768l-1.0241,3.3449c-1.0967-.5368-2.3197-.8052-3.807-.8052-3.0512,0-5.9783,2.0492-5.9783,6.4909,0,4.9784,3.2702,6.2709,5.953,6.2709,1.8314,0,2.7102-.44,3.9301-.8746l.9999,2.5608c-1.7072.9988-3.7091,1.5356-5.9309,1.5356-4.2953,0-8.9296-2.3903-8.9296-9.4421,0-6.0036,3.7564-9.9579,9.9084-9.9579" fill="#FFFFFF"/></g><path class="picto-outline" fill="rgb(102,36,131)" d="M39.333,0h44.1697v28h-44.1697V0.7z"/><path fill="rgb(255,255,255)" d="M55.42 18.32C55.42 20.99 57.14 23.50 61.17 23.50C65.42 23.50 67.58 20.72 67.58 17.75C67.58 15.49 66.35 13.92 64.04 12.89C65.44 12.23 66.82 10.93 66.82 8.76C66.82 6.06 64.93 4.30 61.66 4.30C58.52 4.30 55.96 6.24 55.96 9.50C55.96 10.95 56.45 12.37 58.47 13.60C56.87 14.49 55.42 15.86 55.42 18.32ZM61.51 12.01C59.82 11.29 59.52 10.34 59.52 9.35C59.52 7.54 60.51 6.90 61.61 6.90C62.94 6.90 63.43 7.78 63.43 9.04C63.43 10.36 62.86 11.34 61.51 12.01ZM58.93 18.22C58.93 16.82 59.52 15.54 60.68 14.85C62.81 15.62 64.09 16.28 64.09 18.24C64.09 19.86 63.21 21.04 61.54 21.04C60.09 21.04 58.93 20.16 58.93 18.22Z"/></g></svg>