<svg xmlns="http://www.w3.org/2000/svg" viewBox="0 0 83.503 28" data-ligne-id="Chrono9" class=""><g><g><path fill="rgb(226,0,26)" class="picto-outline" device-cmyk="0.00, 1.00, 1.00, 0.00" d="M3.6,0S0,5.4,0,14s3.6,14,3.6,14h31.4V0H3.6Z"/><path d="M20.3705,4.3c2.0987,0,3.7564.4389,4.8784.8768l-1.0241,3.3449c-1.0967-.5368-2.3197-.8052-3.807-.8052-3.0512,0-5.9783,2.0492-5.9783,6.4909,0,4.9784,3.2702,6.2709,5.953,6.2709,1.8314,0,2.7102-.44,3.9301-.8746l.9999,2.5608c-1.7072.9988-3.7091,1.5356-5.9309,1.5356-4.2953,0-8.9296-2.3903-8.9296-9.4421,0-6.0036,3.7564-9.9579,9.9084-9.9579" fill="#FFFFFF"/></g><path class="picto-outline" fill="rgb(200,136,23)" d="M39.333,0h44.1697v28h-44.1697V0.7z"/><path fill="rgb(255,255,255)" d="M55.63 22.49C56.84 23.13 58.87 23.50 60.40 23.50C65.55 23.50 67.61 19.45 67.61 13.60C67.61 7.81 65.94 4.30 61.35 4.30C57.79 4.30 55.39 6.83 55.39 10.70C55.39 14.61 58.38 15.93 60.42 15.93C62.29 15.93 63.59 15.10 64.25 14.68C64.25 18.51 63.07 20.70 60.30 20.70C58.48 20.70 57.28 20.21 56.52 19.89ZM61.45 12.87C59.66 12.87 58.75 11.81 58.75 10.16C58.75 8.42 59.39 6.90 61.40 6.90C63.49 6.90 64.15 9.33 64.15 12.05C63.37 12.57 62.73 12.87 61.45 12.87Z"/></g></svg>