<svg xmlns="http://www.w3.org/2000/svg" viewBox="0 0 83.503 28" data-ligne-id="JD307"><g><g><path d="M35,0H3.6S0,5.4,0,14s3.6,14,3.6,14h31.4" fill="#e2001a"/><rect y=".777" width="35" height="26.445" fill="none"/><path d="M7.646,19.394c.159.02.279.02.398.02,2.071,0,2.608-.915,2.608-2.667V6.238h2.607v11.067c0,2.966-1.97,4.458-4.1,4.458-.676,0-1.154-.099-1.513-.159v-2.21Z" fill="#fff"/><path d="M16.762,6.237h5.475c3.841,0,7.364,1.752,7.364,7.245,0,5.673-3.563,7.982-8.162,7.982h-4.677V6.237ZM21.261,19.275c3.125,0,5.673-1.313,5.673-5.474,0-3.523-1.713-5.354-4.917-5.354h-2.648v10.828h1.892Z" fill="#fff"/></g><path fill="rgb(49,39,131)" d="M39.333,0h44.1697v28h-44.1697V0.7z"/><path fill="#edd100" d="M43.14 21.10C43.96 21.58 45.66 22.38 47.89 22.38C51.74 22.38 53.78 20.01 53.78 17.14C53.78 15.12 52.78 13.71 51.13 13.15C52.48 12.52 53.59 11.49 53.59 9.50C53.59 7.11 52.02 5.39 48.72 5.39C46.72 5.39 44.61 6.02 43.07 6.89L44.07 9.13C45.09 8.50 46.55 7.91 48.13 7.91C49.87 7.91 50.59 8.61 50.59 9.95C50.59 11.78 49.11 12.45 47.39 12.45L45.92 12.45L45.92 14.84L47.81 14.84C49.48 14.84 50.85 15.36 50.85 17.12C50.85 18.64 49.85 19.79 47.70 19.79C46.07 19.79 44.59 19.16 43.96 18.84ZM61.45 22.40C66.47 22.40 67.29 18.40 67.29 13.93C67.29 9.67 66.14 5.39 61.45 5.39C56.78 5.39 55.63 9.67 55.63 13.93C55.63 18.40 56.45 22.40 61.45 22.40ZM61.45 19.86C59.60 19.86 58.67 18.27 58.67 14.17C58.67 10.67 59.21 8.04 61.45 8.04C63.71 8.04 64.25 10.67 64.25 14.17C64.25 18.27 63.32 19.86 61.45 19.86ZM70.62 22.21L73.66 22.21C73.66 18.88 73.73 17.82 74.94 16.01L76.42 13.82C78.77 10.34 79.07 9.37 79.07 7.41C79.07 6.72 79.01 6.09 78.94 5.59L68.38 5.59L68.38 8.04L76.07 8.04C76.07 8.24 76.05 8.43 76.03 8.63C75.90 9.41 75.49 10.17 74.29 11.95L73.05 13.80C71.03 16.80 70.62 18.27 70.62 22.21Z"/></g></svg>