<svg xmlns="http://www.w3.org/2000/svg" viewBox="0 0 83.503 28" data-ligne-id="JD396"><g><g><path d="M35,0H3.6S0,5.4,0,14s3.6,14,3.6,14h31.4" fill="#e2001a"/><rect y=".777" width="35" height="26.445" fill="none"/><path d="M7.646,19.394c.159.02.279.02.398.02,2.071,0,2.608-.915,2.608-2.667V6.238h2.607v11.067c0,2.966-1.97,4.458-4.1,4.458-.676,0-1.154-.099-1.513-.159v-2.21Z" fill="#fff"/><path d="M16.762,6.237h5.475c3.841,0,7.364,1.752,7.364,7.245,0,5.673-3.563,7.982-8.162,7.982h-4.677V6.237ZM21.261,19.275c3.125,0,5.673-1.313,5.673-5.474,0-3.523-1.713-5.354-4.917-5.354h-2.648v10.828h1.892Z" fill="#fff"/></g><path fill="rgb(49,39,131)" d="M39.333,0h44.1697v28h-44.1697V0.7z"/><path fill="#edd100" d="M43.14 21.03C43.95 21.50 45.63 22.30 47.85 22.30C51.66 22.30 53.68 19.95 53.68 17.11C53.68 15.11 52.69 13.71 51.05 13.15C52.39 12.53 53.49 11.52 53.49 9.54C53.49 7.17 51.94 5.47 48.67 5.47C46.69 5.47 44.60 6.09 43.07 6.95L44.06 9.17C45.07 8.55 46.51 7.97 48.08 7.97C49.81 7.97 50.52 8.65 50.52 9.99C50.52 11.80 49.05 12.46 47.35 12.46L45.89 12.46L45.89 14.83L47.76 14.83C49.42 14.83 50.77 15.35 50.77 17.09C50.77 18.60 49.78 19.74 47.65 19.74C46.04 19.74 44.58 19.11 43.95 18.79ZM56.05 21.41C57.10 21.97 58.89 22.30 60.22 22.30C64.74 22.30 66.55 18.75 66.55 13.62C66.55 8.55 65.08 5.47 61.06 5.47C57.94 5.47 55.83 7.69 55.83 11.09C55.83 14.51 58.46 15.67 60.24 15.67C61.88 15.67 63.02 14.94 63.60 14.57C63.60 17.93 62.57 19.84 60.13 19.84C58.54 19.84 57.49 19.41 56.82 19.13ZM61.15 12.98C59.57 12.98 58.78 12.05 58.78 10.61C58.78 9.08 59.34 7.75 61.10 7.75C62.93 7.75 63.51 9.88 63.51 12.27C62.82 12.72 62.26 12.98 61.15 12.98ZM73.71 22.32C76.98 22.32 79.07 19.99 79.07 16.68C79.07 13.13 76.66 12.29 74.92 12.29C73.37 12.29 71.95 12.96 71.37 13.32C71.63 9.60 73.30 7.88 75.71 7.88C76.60 7.88 77.20 8.12 77.67 8.35L78.42 6.11C77.67 5.75 76.47 5.47 75.26 5.47C70.68 5.47 68.38 9.45 68.38 14.83C68.38 19.26 69.95 22.32 73.71 22.32ZM73.91 20.04C72.08 20.04 71.37 18.53 71.37 15.52C72.23 15.04 73.24 14.81 74.06 14.81C75.50 14.81 76.12 15.54 76.12 17.20C76.12 18.83 75.52 20.04 73.91 20.04Z"/></g></svg>