<svg xmlns="http://www.w3.org/2000/svg" viewBox="0 0 83.503 28" data-ligne-id="JD450" class=""><g><g><path fill="rgb(226,0,26)" class="picto-outline" device-cmyk="0.00, 1.00, 1.00, 0.00" d="M3.6,0S0,5.4,0,14s3.6,14,3.6,14h31.4V0H3.6Z"/><path d="M7.646,19.394c.159.02.279.02.398.02,2.071,0,2.608-.915,2.608-2.667V6.238h2.607v11.067c0,2.966-1.97,4.458-4.1,4.458-.676,0-1.154-.099-1.513-.159v-2.21Z" fill="#fff"/><path d="M16.762,6.237h5.475c3.841,0,7.364,1.752,7.364,7.245,0,5.673-3.563,7.982-8.162,7.982h-4.677V6.237ZM21.261,19.275c3.125,0,5.673-1.313,5.673-5.474,0-3.523-1.713-5.354-4.917-5.354h-2.648v10.828h1.892Z" fill="#fff"/></g><path class="picto-outline" fill="rgb(23,41,123)" d="M39.333,0h44.1697v28h-44.1697V0.7z"/><path fill="#edd100" d="M43.38 19.40L50.47 19.40L50.47 22.43L53.28 22.43L53.28 19.40L55.44 19.40L55.44 16.92L53.28 16.92L53.28 5.37L49.29 5.37L43.38 16.81ZM45.94 16.92L49.31 10.34C49.91 9.18 50.31 8.29 50.47 7.69L50.47 16.92ZM56.64 21.52C57.64 21.98 59.40 22.63 61.46 22.63C65.58 22.63 67.52 20.04 67.52 16.72C67.52 13.42 65.63 11.70 62.37 11.70L60.18 11.70L60.34 7.82L67.16 7.82L67.16 5.37L57.44 5.37L57.15 14.18L61.37 14.18C63.42 14.18 64.49 14.92 64.49 16.90C64.49 18.95 63.35 20.13 61.10 20.13C59.89 20.13 58.31 19.80 57.24 19.42ZM73.63 22.63C78.78 22.63 79.62 18.53 79.62 13.93C79.62 9.56 78.44 5.17 73.63 5.17C68.83 5.17 67.65 9.56 67.65 13.93C67.65 18.53 68.50 22.63 73.63 22.63ZM73.63 20.02C71.73 20.02 70.77 18.39 70.77 14.18C70.77 10.59 71.33 7.89 73.63 7.89C75.94 7.89 76.50 10.59 76.50 14.18C76.50 18.39 75.54 20.02 73.63 20.02Z"/></g></svg>