<svg xmlns="http://www.w3.org/2000/svg" viewBox="0 0 83.503 28" data-ligne-id="JD521"><g><g><path d="M35,0H3.6S0,5.4,0,14s3.6,14,3.6,14h31.4" fill="#e2001a"/><rect y=".777" width="35" height="26.445" fill="none"/><path d="M7.646,19.394c.159.02.279.02.398.02,2.071,0,2.608-.915,2.608-2.667V6.238h2.607v11.067c0,2.966-1.97,4.458-4.1,4.458-.676,0-1.154-.099-1.513-.159v-2.21Z" fill="#fff"/><path d="M16.762,6.237h5.475c3.841,0,7.364,1.752,7.364,7.245,0,5.673-3.563,7.982-8.162,7.982h-4.677V6.237ZM21.261,19.275c3.125,0,5.673-1.313,5.673-5.474,0-3.523-1.713-5.354-4.917-5.354h-2.648v10.828h1.892Z" fill="#fff"/></g><path fill="rgb(49,39,131)" d="M39.333,0h44.1697v28h-44.1697V0.7z"/><path fill="#edd100" d="M43.07 21.36C44.05 21.82 45.78 22.45 47.79 22.45C51.83 22.45 53.73 19.91 53.73 16.66C53.73 13.43 51.87 11.74 48.68 11.74L46.54 11.74L46.70 7.94L53.38 7.94L53.38 5.54L43.86 5.54L43.57 14.17L47.70 14.17C49.71 14.17 50.76 14.89 50.76 16.83C50.76 18.84 49.65 20.00 47.44 20.00C46.26 20.00 44.71 19.67 43.66 19.30ZM55.57 22.25L66.25 22.25L66.25 19.81L58.80 19.81C58.84 19.11 58.97 18.54 60.31 17.53L62.73 15.72C64.87 14.10 65.99 12.82 65.99 10.08C65.99 7.03 63.67 5.34 60.35 5.34C58.86 5.34 56.94 5.87 55.41 6.79L56.37 8.86C57.18 8.42 58.73 7.81 60.13 7.81C61.62 7.81 62.93 8.45 62.93 10.48C62.93 11.94 62.10 12.84 60.66 13.91L58.65 15.41C56.48 17.05 55.57 18.41 55.57 20.11ZM68.63 22.25L79.07 22.25L79.07 19.96L75.73 19.96L75.73 5.54L73.28 5.54L67.89 8.49L68.93 10.52L72.80 8.34L72.80 19.96L68.63 19.96Z"/></g></svg>