<svg xmlns="http://www.w3.org/2000/svg" viewBox="0 0 83.503 28" data-ligne-id="JD687"><g><g><path d="M35,0H3.6S0,5.4,0,14s3.6,14,3.6,14h31.4" fill="#e2001a"/><rect y=".777" width="35" height="26.445" fill="none"/><path d="M7.646,19.394c.159.02.279.02.398.02,2.071,0,2.608-.915,2.608-2.667V6.238h2.607v11.067c0,2.966-1.97,4.458-4.1,4.458-.676,0-1.154-.099-1.513-.159v-2.21Z" fill="#fff"/><path d="M16.762,6.237h5.475c3.841,0,7.364,1.752,7.364,7.245,0,5.673-3.563,7.982-8.162,7.982h-4.677V6.237ZM21.261,19.275c3.125,0,5.673-1.313,5.673-5.474,0-3.523-1.713-5.354-4.917-5.354h-2.648v10.828h1.892Z" fill="#fff"/></g><path fill="rgb(49,39,131)" d="M39.333,0h44.1697v28h-44.1697V0.7z"/><path fill="#edd100" d="M48.54 22.54C51.90 22.54 54.04 20.16 54.04 16.76C54.04 13.12 51.57 12.25 49.78 12.25C48.19 12.25 46.73 12.94 46.14 13.31C46.40 9.50 48.13 7.73 50.60 7.73C51.50 7.73 52.12 7.97 52.61 8.22L53.38 5.92C52.61 5.54 51.37 5.26 50.13 5.26C45.43 5.26 43.07 9.34 43.07 14.86C43.07 19.41 44.68 22.54 48.54 22.54ZM48.74 20.20C46.87 20.20 46.14 18.66 46.14 15.57C47.02 15.08 48.06 14.84 48.90 14.84C50.38 14.84 51.02 15.59 51.02 17.29C51.02 18.96 50.40 20.20 48.74 20.20ZM55.72 17.86C55.72 20.27 57.26 22.52 60.88 22.52C64.70 22.52 66.64 20.02 66.64 17.35C66.64 15.32 65.54 13.91 63.47 12.98C64.72 12.39 65.96 11.22 65.96 9.27C65.96 6.85 64.26 5.26 61.32 5.26C58.50 5.26 56.20 7.00 56.20 9.94C56.20 11.24 56.64 12.52 58.45 13.62C57.02 14.42 55.72 15.65 55.72 17.86ZM61.19 12.19C59.67 11.55 59.40 10.69 59.40 9.80C59.40 8.17 60.29 7.60 61.28 7.60C62.47 7.60 62.91 8.39 62.91 9.52C62.91 10.71 62.41 11.59 61.19 12.19ZM58.87 17.77C58.87 16.51 59.40 15.37 60.44 14.75C62.36 15.43 63.51 16.03 63.51 17.79C63.51 19.25 62.71 20.31 61.21 20.31C59.91 20.31 58.87 19.52 58.87 17.77ZM70.48 22.34L73.57 22.34C73.57 18.96 73.64 17.88 74.88 16.05L76.38 13.82C78.76 10.29 79.07 9.30 79.07 7.31C79.07 6.60 79.00 5.96 78.94 5.46L68.21 5.46L68.21 7.95L76.02 7.95C76.02 8.15 76.00 8.35 75.98 8.55C75.85 9.34 75.43 10.11 74.21 11.92L72.96 13.80C70.90 16.85 70.48 18.35 70.48 22.34Z"/></g></svg>