<svg xmlns="http://www.w3.org/2000/svg" viewBox="0 0 83.503 28" data-ligne-id="JD681"><g><g><path d="M35,0H3.6S0,5.4,0,14s3.6,14,3.6,14h31.4" fill="#e2001a"/><rect y=".777" width="35" height="26.445" fill="none"/><path d="M7.646,19.394c.159.02.279.02.398.02,2.071,0,2.608-.915,2.608-2.667V6.238h2.607v11.067c0,2.966-1.97,4.458-4.1,4.458-.676,0-1.154-.099-1.513-.159v-2.21Z" fill="#fff"/><path d="M16.762,6.237h5.475c3.841,0,7.364,1.752,7.364,7.245,0,5.673-3.563,7.982-8.162,7.982h-4.677V6.237ZM21.261,19.275c3.125,0,5.673-1.313,5.673-5.474,0-3.523-1.713-5.354-4.917-5.354h-2.648v10.828h1.892Z" fill="#fff"/></g><path fill="rgb(49,39,131)" d="M39.333,0h44.1697v28h-44.1697V0.7z"/><path fill="#edd100" d="M48.49 22.45C51.81 22.45 53.93 20.09 53.93 16.73C53.93 13.12 51.49 12.27 49.72 12.27C48.14 12.27 46.70 12.95 46.11 13.32C46.37 9.54 48.08 7.79 50.52 7.79C51.42 7.79 52.03 8.03 52.51 8.27L53.28 6.00C52.51 5.62 51.29 5.34 50.06 5.34C45.41 5.34 43.07 9.38 43.07 14.85C43.07 19.35 44.67 22.45 48.49 22.45ZM48.69 20.14C46.83 20.14 46.11 18.61 46.11 15.55C46.98 15.07 48.01 14.83 48.84 14.83C50.31 14.83 50.94 15.57 50.94 17.25C50.94 18.91 50.33 20.14 48.69 20.14ZM55.60 17.82C55.60 20.20 57.13 22.43 60.71 22.43C64.49 22.43 66.41 19.96 66.41 17.32C66.41 15.31 65.32 13.91 63.27 12.99C64.51 12.40 65.74 11.24 65.74 9.32C65.74 6.91 64.05 5.34 61.15 5.34C58.35 5.34 56.08 7.07 56.08 9.97C56.08 11.26 56.51 12.53 58.31 13.62C56.88 14.41 55.60 15.63 55.60 17.82ZM61.02 12.20C59.51 11.57 59.25 10.72 59.25 9.84C59.25 8.22 60.12 7.66 61.10 7.66C62.28 7.66 62.72 8.44 62.72 9.56C62.72 10.74 62.22 11.61 61.02 12.20ZM58.72 17.73C58.72 16.49 59.25 15.35 60.27 14.74C62.17 15.42 63.31 16.01 63.31 17.75C63.31 19.20 62.52 20.25 61.04 20.25C59.75 20.25 58.72 19.46 58.72 17.73ZM68.62 22.26L79.07 22.26L79.07 19.96L75.73 19.96L75.73 5.54L73.28 5.54L67.88 8.49L68.93 10.52L72.80 8.33L72.80 19.96L68.62 19.96Z"/></g></svg>