<svg xmlns="http://www.w3.org/2000/svg" viewBox="0 0 83.503 28" data-ligne-id="JD721"><g><g><path d="M35,0H3.6S0,5.4,0,14s3.6,14,3.6,14h31.4" fill="#e2001a"/><rect y=".777" width="35" height="26.445" fill="none"/><path d="M7.646,19.394c.159.02.279.02.398.02,2.071,0,2.608-.915,2.608-2.667V6.238h2.607v11.067c0,2.966-1.97,4.458-4.1,4.458-.676,0-1.154-.099-1.513-.159v-2.21Z" fill="#fff"/><path d="M16.762,6.237h5.475c3.841,0,7.364,1.752,7.364,7.245,0,5.673-3.563,7.982-8.162,7.982h-4.677V6.237ZM21.261,19.275c3.125,0,5.673-1.313,5.673-5.474,0-3.523-1.713-5.354-4.917-5.354h-2.648v10.828h1.892Z" fill="#fff"/></g><path fill="rgb(49,39,131)" d="M39.333,0h44.1697v28h-44.1697V0.7z"/><path fill="#edd100" d="M45.31 22.10L48.35 22.10C48.35 18.78 48.41 17.72 49.63 15.91L51.10 13.72C53.45 10.25 53.75 9.27 53.75 7.32C53.75 6.62 53.69 5.99 53.62 5.49L43.07 5.49L43.07 7.95L50.76 7.95C50.76 8.14 50.74 8.34 50.71 8.53C50.58 9.31 50.17 10.07 48.98 11.85L47.74 13.70C45.72 16.70 45.31 18.17 45.31 22.10ZM55.71 22.10L66.32 22.10L66.32 19.67L58.92 19.67C58.96 18.98 59.09 18.41 60.42 17.41L62.83 15.61C64.96 14.00 66.06 12.72 66.06 10.01C66.06 6.97 63.76 5.30 60.46 5.30C58.99 5.30 57.08 5.82 55.56 6.73L56.51 8.79C57.31 8.36 58.86 7.75 60.25 7.75C61.72 7.75 63.02 8.38 63.02 10.40C63.02 11.85 62.20 12.74 60.77 13.81L58.77 15.31C56.62 16.94 55.71 18.28 55.71 19.98ZM68.69 22.10L79.07 22.10L79.07 19.82L75.75 19.82L75.75 5.49L73.32 5.49L67.95 8.42L69.00 10.44L72.84 8.27L72.84 19.82L68.69 19.82Z"/></g></svg>