<svg xmlns="http://www.w3.org/2000/svg" viewBox="0 0 83.503 28" data-ligne-id="JD733"><g><g><path d="M35,0H3.6S0,5.4,0,14s3.6,14,3.6,14h31.4" fill="#e2001a"/><rect y=".777" width="35" height="26.445" fill="none"/><path d="M7.646,19.394c.159.02.279.02.398.02,2.071,0,2.608-.915,2.608-2.667V6.238h2.607v11.067c0,2.966-1.97,4.458-4.1,4.458-.676,0-1.154-.099-1.513-.159v-2.21Z" fill="#fff"/><path d="M16.762,6.237h5.475c3.841,0,7.364,1.752,7.364,7.245,0,5.673-3.563,7.982-8.162,7.982h-4.677V6.237ZM21.261,19.275c3.125,0,5.673-1.313,5.673-5.474,0-3.523-1.713-5.354-4.917-5.354h-2.648v10.828h1.892Z" fill="#fff"/></g><path fill="rgb(49,39,131)" d="M39.333,0h44.1697v28h-44.1697V0.7z"/><path fill="#edd100" d="M45.35 22.35L48.44 22.35C48.44 18.96 48.51 17.88 49.75 16.04L51.25 13.81C53.64 10.27 53.95 9.28 53.95 7.29C53.95 6.58 53.88 5.94 53.82 5.43L43.07 5.43L43.07 7.93L50.90 7.93C50.90 8.13 50.88 8.33 50.85 8.53C50.72 9.32 50.30 10.10 49.09 11.91L47.82 13.79C45.77 16.84 45.35 18.34 45.35 22.35ZM55.52 21.22C56.36 21.70 58.09 22.52 60.36 22.52C64.28 22.52 66.36 20.11 66.36 17.19C66.36 15.14 65.34 13.70 63.66 13.13C65.03 12.48 66.16 11.44 66.16 9.41C66.16 6.98 64.56 5.23 61.20 5.23C59.17 5.23 57.02 5.87 55.45 6.76L56.47 9.03C57.51 8.39 58.99 7.80 60.61 7.80C62.38 7.80 63.10 8.50 63.10 9.87C63.10 11.73 61.60 12.42 59.85 12.42L58.35 12.42L58.35 14.85L60.27 14.85C61.98 14.85 63.37 15.38 63.37 17.17C63.37 18.72 62.35 19.89 60.16 19.89C58.51 19.89 57.00 19.25 56.36 18.92ZM68.24 21.22C69.08 21.70 70.80 22.52 73.08 22.52C76.99 22.52 79.07 20.11 79.07 17.19C79.07 15.14 78.05 13.70 76.37 13.13C77.74 12.48 78.87 11.44 78.87 9.41C78.87 6.98 77.28 5.23 73.92 5.23C71.88 5.23 69.74 5.87 68.17 6.76L69.19 9.03C70.23 8.39 71.71 7.80 73.32 7.80C75.09 7.80 75.82 8.50 75.82 9.87C75.82 11.73 74.32 12.42 72.57 12.42L71.07 12.42L71.07 14.85L72.99 14.85C74.69 14.85 76.09 15.38 76.09 17.17C76.09 18.72 75.07 19.89 72.88 19.89C71.22 19.89 69.72 19.25 69.08 18.92Z"/></g></svg>