<svg xmlns="http://www.w3.org/2000/svg" viewBox="0 0 83.503 28" data-ligne-id="JD758"><g><g><path d="M35,0H3.6S0,5.4,0,14s3.6,14,3.6,14h31.4" fill="#e2001a"/><rect y=".777" width="35" height="26.445" fill="none"/><path d="M7.646,19.394c.159.02.279.02.398.02,2.071,0,2.608-.915,2.608-2.667V6.238h2.607v11.067c0,2.966-1.97,4.458-4.1,4.458-.676,0-1.154-.099-1.513-.159v-2.21Z" fill="#fff"/><path d="M16.762,6.237h5.475c3.841,0,7.364,1.752,7.364,7.245,0,5.673-3.563,7.982-8.162,7.982h-4.677V6.237ZM21.261,19.275c3.125,0,5.673-1.313,5.673-5.474,0-3.523-1.713-5.354-4.917-5.354h-2.648v10.828h1.892Z" fill="#fff"/></g><path fill="rgb(49,39,131)" d="M39.333,0h44.1697v28h-44.1697V0.7z"/><path fill="#edd100" d="M45.31 22.22L48.36 22.22C48.36 18.89 48.42 17.82 49.64 16.02L51.12 13.82C53.47 10.34 53.78 9.36 53.78 7.40C53.78 6.70 53.71 6.07 53.65 5.57L43.07 5.57L43.07 8.03L50.78 8.03C50.78 8.23 50.75 8.42 50.73 8.62C50.60 9.40 50.19 10.16 48.99 11.95L47.75 13.80C45.73 16.80 45.31 18.28 45.31 22.22ZM55.80 21.33C56.78 21.79 58.50 22.42 60.50 22.42C64.53 22.42 66.42 19.89 66.42 16.65C66.42 13.43 64.57 11.75 61.40 11.75L59.26 11.75L59.42 7.96L66.08 7.96L66.08 5.57L56.59 5.57L56.30 14.17L60.42 14.17C62.42 14.17 63.46 14.89 63.46 16.82C63.46 18.83 62.35 19.98 60.16 19.98C58.98 19.98 57.44 19.65 56.39 19.28ZM68.30 17.80C68.30 20.18 69.82 22.40 73.39 22.40C77.16 22.40 79.07 19.94 79.07 17.30C79.07 15.30 77.98 13.91 75.94 12.99C77.18 12.40 78.40 11.25 78.40 9.34C78.40 6.94 76.72 5.37 73.82 5.37C71.04 5.37 68.78 7.09 68.78 9.99C68.78 11.27 69.21 12.54 71.00 13.62C69.58 14.41 68.30 15.63 68.30 17.80ZM73.69 12.21C72.19 11.58 71.93 10.73 71.93 9.86C71.93 8.25 72.80 7.68 73.78 7.68C74.96 7.68 75.39 8.47 75.39 9.58C75.39 10.75 74.89 11.62 73.69 12.21ZM71.41 17.72C71.41 16.48 71.93 15.34 72.95 14.73C74.85 15.41 75.98 16.00 75.98 17.74C75.98 19.17 75.20 20.22 73.72 20.22C72.43 20.22 71.41 19.44 71.41 17.72Z"/></g></svg>