<svg xmlns="http://www.w3.org/2000/svg" viewBox="0 0 83.503 28" data-ligne-id="JD759"><g><g><path d="M35,0H3.6S0,5.4,0,14s3.6,14,3.6,14h31.4" fill="#e2001a"/><rect y=".777" width="35" height="26.445" fill="none"/><path d="M7.646,19.394c.159.02.279.02.398.02,2.071,0,2.608-.915,2.608-2.667V6.238h2.607v11.067c0,2.966-1.97,4.458-4.1,4.458-.676,0-1.154-.099-1.513-.159v-2.21Z" fill="#fff"/><path d="M16.762,6.237h5.475c3.841,0,7.364,1.752,7.364,7.245,0,5.673-3.563,7.982-8.162,7.982h-4.677V6.237ZM21.261,19.275c3.125,0,5.673-1.313,5.673-5.474,0-3.523-1.713-5.354-4.917-5.354h-2.648v10.828h1.892Z" fill="#fff"/></g><path fill="rgb(49,39,131)" d="M39.333,0h44.1697v28h-44.1697V0.7z"/><path fill="#edd100" d="M45.32 22.24L48.37 22.24C48.37 18.90 48.43 17.83 49.66 16.02L51.14 13.82C53.49 10.33 53.80 9.35 53.80 7.39C53.80 6.69 53.73 6.06 53.67 5.56L43.07 5.56L43.07 8.02L50.79 8.02C50.79 8.22 50.77 8.41 50.75 8.61C50.61 9.39 50.20 10.16 49.00 11.94L47.76 13.80C45.73 16.81 45.32 18.29 45.32 22.24ZM55.83 21.34C56.81 21.80 58.53 22.43 60.54 22.43C64.57 22.43 66.47 19.90 66.47 16.65C66.47 13.43 64.61 11.75 61.43 11.75L59.29 11.75L59.45 7.95L66.12 7.95L66.12 5.56L56.61 5.56L56.33 14.17L60.45 14.17C62.46 14.17 63.50 14.89 63.50 16.83C63.50 18.84 62.39 19.99 60.19 19.99C59.01 19.99 57.46 19.66 56.42 19.29ZM68.43 21.52C69.50 22.08 71.31 22.41 72.66 22.41C77.24 22.41 79.07 18.81 79.07 13.62C79.07 8.48 77.59 5.36 73.51 5.36C70.35 5.36 68.21 7.61 68.21 11.05C68.21 14.52 70.87 15.70 72.68 15.70C74.34 15.70 75.49 14.95 76.08 14.58C76.08 17.98 75.04 19.93 72.57 19.93C70.96 19.93 69.89 19.49 69.21 19.21ZM73.60 12.97C72.01 12.97 71.20 12.03 71.20 10.57C71.20 9.02 71.77 7.67 73.55 7.67C75.41 7.67 76.00 9.83 76.00 12.25C75.30 12.71 74.73 12.97 73.60 12.97Z"/></g></svg>