<svg xmlns="http://www.w3.org/2000/svg" viewBox="0 0 83.503 28" data-ligne-id="JD761"><g><g><path d="M35,0H3.6S0,5.4,0,14s3.6,14,3.6,14h31.4" fill="#e2001a"/><rect y=".777" width="35" height="26.445" fill="none"/><path d="M7.646,19.394c.159.02.279.02.398.02,2.071,0,2.608-.915,2.608-2.667V6.238h2.607v11.067c0,2.966-1.97,4.458-4.1,4.458-.676,0-1.154-.099-1.513-.159v-2.21Z" fill="#fff"/><path d="M16.762,6.237h5.475c3.841,0,7.364,1.752,7.364,7.245,0,5.673-3.563,7.982-8.162,7.982h-4.677V6.237ZM21.261,19.275c3.125,0,5.673-1.313,5.673-5.474,0-3.523-1.713-5.354-4.917-5.354h-2.648v10.828h1.892Z" fill="#fff"/></g><path fill="rgb(49,39,131)" d="M39.333,0h44.1697v28h-44.1697V0.7z"/><path fill="#edd100" d="M45.31 22.20L48.35 22.20C48.35 18.88 48.41 17.81 49.63 16.01L51.10 13.82C53.45 10.35 53.75 9.37 53.75 7.41C53.75 6.72 53.69 6.09 53.62 5.59L43.07 5.59L43.07 8.04L50.76 8.04C50.76 8.24 50.74 8.43 50.71 8.63C50.58 9.41 50.17 10.17 48.98 11.95L47.74 13.80C45.72 16.79 45.31 18.27 45.31 22.20ZM61.18 22.40C64.48 22.40 66.59 20.05 66.59 16.71C66.59 13.12 64.15 12.28 62.39 12.28C60.83 12.28 59.40 12.95 58.81 13.32C59.07 9.56 60.77 7.83 63.20 7.83C64.09 7.83 64.70 8.07 65.17 8.30L65.93 6.05C65.17 5.68 63.96 5.39 62.74 5.39C58.12 5.39 55.79 9.41 55.79 14.84C55.79 19.31 57.38 22.40 61.18 22.40ZM61.37 20.09C59.53 20.09 58.81 18.57 58.81 15.53C59.68 15.06 60.70 14.82 61.53 14.82C62.98 14.82 63.61 15.56 63.61 17.23C63.61 18.88 63.00 20.09 61.37 20.09ZM68.69 22.20L79.07 22.20L79.07 19.92L75.75 19.92L75.75 5.59L73.32 5.59L67.95 8.52L69.00 10.54L72.84 8.37L72.84 19.92L68.69 19.92Z"/></g></svg>