<svg xmlns="http://www.w3.org/2000/svg" viewBox="0 0 83.503 28" data-ligne-id="JD763"><g><g><path d="M35,0H3.6S0,5.4,0,14s3.6,14,3.6,14h31.4" fill="#e2001a"/><rect y=".777" width="35" height="26.445" fill="none"/><path d="M7.646,19.394c.159.02.279.02.398.02,2.071,0,2.608-.915,2.608-2.667V6.238h2.607v11.067c0,2.966-1.97,4.458-4.1,4.458-.676,0-1.154-.099-1.513-.159v-2.21Z" fill="#fff"/><path d="M16.762,6.237h5.475c3.841,0,7.364,1.752,7.364,7.245,0,5.673-3.563,7.982-8.162,7.982h-4.677V6.237ZM21.261,19.275c3.125,0,5.673-1.313,5.673-5.474,0-3.523-1.713-5.354-4.917-5.354h-2.648v10.828h1.892Z" fill="#fff"/></g><path fill="rgb(49,39,131)" d="M39.333,0h44.1697v28h-44.1697V0.7z"/><path fill="#edd100" d="M45.35 22.36L48.44 22.36C48.44 18.97 48.51 17.89 49.75 16.06L51.25 13.82C53.64 10.28 53.95 9.29 53.95 7.30C53.95 6.59 53.88 5.95 53.82 5.44L43.07 5.44L43.07 7.94L50.90 7.94C50.90 8.14 50.88 8.34 50.85 8.54C50.72 9.33 50.30 10.11 49.09 11.92L47.82 13.80C45.77 16.85 45.35 18.35 45.35 22.36ZM61.51 22.56C64.87 22.56 67.02 20.17 67.02 16.76C67.02 13.11 64.54 12.25 62.75 12.25C61.16 12.25 59.70 12.94 59.10 13.31C59.37 9.49 61.09 7.72 63.57 7.72C64.48 7.72 65.10 7.96 65.58 8.20L66.36 5.91C65.58 5.53 64.34 5.24 63.10 5.24C58.39 5.24 56.03 9.33 56.03 14.86C56.03 19.42 57.64 22.56 61.51 22.56ZM61.71 20.21C59.83 20.21 59.10 18.66 59.10 15.57C59.99 15.08 61.03 14.84 61.87 14.84C63.35 14.84 63.99 15.59 63.99 17.29C63.99 18.97 63.37 20.21 61.71 20.21ZM68.24 21.23C69.08 21.72 70.80 22.53 73.08 22.53C76.99 22.53 79.07 20.12 79.07 17.20C79.07 15.15 78.05 13.71 76.37 13.14C77.74 12.49 78.87 11.46 78.87 9.42C78.87 6.99 77.28 5.24 73.92 5.24C71.88 5.24 69.74 5.88 68.17 6.77L69.19 9.05C70.23 8.40 71.71 7.81 73.32 7.81C75.09 7.81 75.82 8.51 75.82 9.89C75.82 11.74 74.32 12.43 72.57 12.43L71.07 12.43L71.07 14.86L72.99 14.86C74.69 14.86 76.09 15.39 76.09 17.18C76.09 18.73 75.07 19.90 72.88 19.90C71.22 19.90 69.72 19.26 69.08 18.93Z"/></g></svg>