<svg xmlns="http://www.w3.org/2000/svg" viewBox="0 0 83.503 28" data-ligne-id="JD765"><g><g><path d="M35,0H3.6S0,5.4,0,14s3.6,14,3.6,14h31.4" fill="#e2001a"/><rect y=".777" width="35" height="26.445" fill="none"/><path d="M7.646,19.394c.159.02.279.02.398.02,2.071,0,2.608-.915,2.608-2.667V6.238h2.607v11.067c0,2.966-1.97,4.458-4.1,4.458-.676,0-1.154-.099-1.513-.159v-2.21Z" fill="#fff"/><path d="M16.762,6.237h5.475c3.841,0,7.364,1.752,7.364,7.245,0,5.673-3.563,7.982-8.162,7.982h-4.677V6.237ZM21.261,19.275c3.125,0,5.673-1.313,5.673-5.474,0-3.523-1.713-5.354-4.917-5.354h-2.648v10.828h1.892Z" fill="#fff"/></g><path fill="rgb(49,39,131)" d="M39.333,0h44.1697v28h-44.1697V0.7z"/><path fill="#edd100" d="M45.32 22.25L48.38 22.25C48.38 18.91 48.44 17.84 49.67 16.03L51.15 13.82C53.51 10.32 53.82 9.34 53.82 7.38C53.82 6.68 53.75 6.04 53.69 5.54L43.07 5.54L43.07 8.01L50.80 8.01C50.80 8.21 50.78 8.40 50.76 8.60C50.63 9.39 50.21 10.15 49.01 11.94L47.77 13.80C45.74 16.81 45.32 18.30 45.32 22.25ZM61.29 22.45C64.61 22.45 66.73 20.09 66.73 16.73C66.73 13.12 64.28 12.27 62.51 12.27C60.94 12.27 59.50 12.95 58.91 13.32C59.17 9.54 60.87 7.79 63.32 7.79C64.22 7.79 64.83 8.03 65.31 8.27L66.07 6.00C65.31 5.63 64.09 5.34 62.86 5.34C58.21 5.34 55.87 9.39 55.87 14.85C55.87 19.35 57.47 22.45 61.29 22.45ZM61.49 20.13C59.63 20.13 58.91 18.60 58.91 15.55C59.78 15.07 60.81 14.82 61.64 14.82C63.10 14.82 63.74 15.57 63.74 17.25C63.74 18.91 63.12 20.13 61.49 20.13ZM68.41 21.36C69.39 21.82 71.12 22.45 73.13 22.45C77.17 22.45 79.07 19.91 79.07 16.66C79.07 13.43 77.21 11.74 74.02 11.74L71.88 11.74L72.04 7.94L78.72 7.94L78.72 5.54L69.20 5.54L68.91 14.17L73.04 14.17C75.05 14.17 76.10 14.89 76.10 16.83C76.10 18.84 74.99 20.00 72.78 20.00C71.60 20.00 70.05 19.67 69.00 19.30Z"/></g></svg>