<svg xmlns="http://www.w3.org/2000/svg" viewBox="0 0 83.503 28" data-ligne-id="JD764"><g><g><path d="M35,0H3.6S0,5.4,0,14s3.6,14,3.6,14h31.4" fill="#e2001a"/><rect y=".777" width="35" height="26.445" fill="none"/><path d="M7.646,19.394c.159.02.279.02.398.02,2.071,0,2.608-.915,2.608-2.667V6.238h2.607v11.067c0,2.966-1.97,4.458-4.1,4.458-.676,0-1.154-.099-1.513-.159v-2.21Z" fill="#fff"/><path d="M16.762,6.237h5.475c3.841,0,7.364,1.752,7.364,7.245,0,5.673-3.563,7.982-8.162,7.982h-4.677V6.237ZM21.261,19.275c3.125,0,5.673-1.313,5.673-5.474,0-3.523-1.713-5.354-4.917-5.354h-2.648v10.828h1.892Z" fill="#fff"/></g><path fill="rgb(49,39,131)" d="M39.333,0h44.1697v28h-44.1697V0.7z"/><path fill="#edd100" d="M45.28 22.11L48.29 22.11C48.29 18.83 48.36 17.77 49.56 15.99L51.02 13.82C53.34 10.38 53.64 9.41 53.64 7.48C53.64 6.79 53.58 6.17 53.52 5.67L43.07 5.67L43.07 8.10L50.68 8.10C50.68 8.29 50.66 8.49 50.64 8.68C50.51 9.46 50.10 10.21 48.92 11.97L47.69 13.80C45.69 16.76 45.28 18.22 45.28 22.11ZM61.00 22.31C64.26 22.31 66.35 19.99 66.35 16.68C66.35 13.13 63.94 12.29 62.20 12.29C60.65 12.29 59.23 12.96 58.65 13.32C58.91 9.61 60.59 7.89 62.99 7.89C63.88 7.89 64.48 8.12 64.95 8.36L65.70 6.12C64.95 5.76 63.75 5.48 62.54 5.48C57.96 5.48 55.67 9.46 55.67 14.83C55.67 19.26 57.23 22.31 61.00 22.31ZM61.19 20.03C59.36 20.03 58.65 18.53 58.65 15.52C59.51 15.04 60.52 14.81 61.34 14.81C62.78 14.81 63.40 15.54 63.40 17.19C63.40 18.83 62.80 20.03 61.19 20.03ZM67.44 19.19L74.28 19.19L74.28 22.11L76.99 22.11L76.99 19.19L79.07 19.19L79.07 16.81L76.99 16.81L76.99 5.67L73.14 5.67L67.44 16.70ZM69.91 16.81L73.16 10.47C73.74 9.35 74.13 8.49 74.28 7.91L74.28 16.81Z"/></g></svg>