<svg xmlns="http://www.w3.org/2000/svg" viewBox="0 0 83.503 28" data-ligne-id="JD777"><g><g><path d="M35,0H3.6S0,5.4,0,14s3.6,14,3.6,14h31.4" fill="#e2001a"/><rect y=".777" width="35" height="26.445" fill="none"/><path d="M7.646,19.394c.159.02.279.02.398.02,2.071,0,2.608-.915,2.608-2.667V6.238h2.607v11.067c0,2.966-1.97,4.458-4.1,4.458-.676,0-1.154-.099-1.513-.159v-2.21Z" fill="#fff"/><path d="M16.762,6.237h5.475c3.841,0,7.364,1.752,7.364,7.245,0,5.673-3.563,7.982-8.162,7.982h-4.677V6.237ZM21.261,19.275c3.125,0,5.673-1.313,5.673-5.474,0-3.523-1.713-5.354-4.917-5.354h-2.648v10.828h1.892Z" fill="#fff"/></g><path fill="rgb(49,39,131)" d="M39.333,0h44.1697v28h-44.1697V0.7z"/><path fill="#edd100" d="M45.33 22.09L48.40 22.09C48.40 18.73 48.46 17.66 49.69 15.84L51.18 13.62C53.55 10.12 53.86 9.13 53.86 7.16C53.86 6.45 53.79 5.82 53.73 5.31L43.07 5.31L43.07 7.79L50.83 7.79C50.83 7.99 50.81 8.19 50.79 8.38C50.66 9.17 50.24 9.94 49.03 11.74L47.78 13.60C45.75 16.63 45.33 18.12 45.33 22.09ZM57.94 22.09L61.00 22.09C61.00 18.73 61.07 17.66 62.30 15.84L63.79 13.62C66.16 10.12 66.46 9.13 66.46 7.16C66.46 6.45 66.40 5.82 66.33 5.31L55.68 5.31L55.68 7.79L63.44 7.79C63.44 7.99 63.42 8.19 63.39 8.38C63.26 9.17 62.85 9.94 61.64 11.74L60.39 13.60C58.35 16.63 57.94 18.12 57.94 22.09ZM70.54 22.09L73.61 22.09C73.61 18.73 73.68 17.66 74.90 15.84L76.40 13.62C78.76 10.12 79.07 9.13 79.07 7.16C79.07 6.45 79.00 5.82 78.94 5.31L68.28 5.31L68.28 7.79L76.04 7.79C76.04 7.99 76.02 8.19 76.00 8.38C75.87 9.17 75.45 9.94 74.25 11.74L73.00 13.60C70.96 16.63 70.54 18.12 70.54 22.09Z"/></g></svg>