<svg xmlns="http://www.w3.org/2000/svg" viewBox="0 0 83.503 28" data-ligne-id="JD780"><g><g><path d="M35,0H3.6S0,5.4,0,14s3.6,14,3.6,14h31.4" fill="#e2001a"/><rect y=".777" width="35" height="26.445" fill="none"/><path d="M7.646,19.394c.159.02.279.02.398.02,2.071,0,2.608-.915,2.608-2.667V6.238h2.607v11.067c0,2.966-1.97,4.458-4.1,4.458-.676,0-1.154-.099-1.513-.159v-2.21Z" fill="#fff"/><path d="M16.762,6.237h5.475c3.841,0,7.364,1.752,7.364,7.245,0,5.673-3.563,7.982-8.162,7.982h-4.677V6.237ZM21.261,19.275c3.125,0,5.673-1.313,5.673-5.474,0-3.523-1.713-5.354-4.917-5.354h-2.648v10.828h1.892Z" fill="#fff"/></g><path fill="rgb(49,39,131)" d="M39.333,0h44.1697v28h-44.1697V0.7z"/><path fill="#edd100" d="M45.28 22.11L48.29 22.11C48.29 18.83 48.36 17.77 49.56 15.99L51.02 13.82C53.34 10.38 53.64 9.41 53.64 7.48C53.64 6.79 53.58 6.17 53.52 5.67L43.07 5.67L43.07 8.10L50.68 8.10C50.68 8.29 50.66 8.49 50.64 8.68C50.51 9.46 50.10 10.21 48.92 11.97L47.69 13.80C45.69 16.76 45.28 18.22 45.28 22.11ZM55.62 17.75C55.62 20.09 57.13 22.29 60.65 22.29C64.37 22.29 66.26 19.86 66.26 17.26C66.26 15.28 65.19 13.90 63.17 13.00C64.39 12.42 65.59 11.28 65.59 9.39C65.59 7.03 63.94 5.48 61.08 5.48C58.33 5.48 56.09 7.18 56.09 10.04C56.09 11.30 56.52 12.55 58.29 13.62C56.89 14.40 55.62 15.60 55.62 17.75ZM60.95 12.23C59.47 11.60 59.21 10.77 59.21 9.91C59.21 8.32 60.07 7.76 61.04 7.76C62.20 7.76 62.63 8.53 62.63 9.63C62.63 10.79 62.13 11.65 60.95 12.23ZM58.70 17.67C58.70 16.44 59.21 15.32 60.22 14.72C62.09 15.39 63.21 15.97 63.21 17.69C63.21 19.11 62.44 20.14 60.97 20.14C59.71 20.14 58.70 19.36 58.70 17.67ZM73.29 22.31C78.25 22.31 79.07 18.35 79.07 13.93C79.07 9.71 77.93 5.48 73.29 5.48C68.67 5.48 67.53 9.71 67.53 13.93C67.53 18.35 68.35 22.31 73.29 22.31ZM73.29 19.79C71.46 19.79 70.54 18.22 70.54 14.16C70.54 10.70 71.08 8.10 73.29 8.10C75.52 8.10 76.06 10.70 76.06 14.16C76.06 18.22 75.14 19.79 73.29 19.79Z"/></g></svg>