<svg xmlns="http://www.w3.org/2000/svg" viewBox="0 0 83.503 28" data-ligne-id="JD781"><g><g><path d="M35,0H3.6S0,5.4,0,14s3.6,14,3.6,14h31.4" fill="#e2001a"/><rect y=".777" width="35" height="26.445" fill="none"/><path d="M7.646,19.394c.159.02.279.02.398.02,2.071,0,2.608-.915,2.608-2.667V6.238h2.607v11.067c0,2.966-1.97,4.458-4.1,4.458-.676,0-1.154-.099-1.513-.159v-2.21Z" fill="#fff"/><path d="M16.762,6.237h5.475c3.841,0,7.364,1.752,7.364,7.245,0,5.673-3.563,7.982-8.162,7.982h-4.677V6.237ZM21.261,19.275c3.125,0,5.673-1.313,5.673-5.474,0-3.523-1.713-5.354-4.917-5.354h-2.648v10.828h1.892Z" fill="#fff"/></g><path fill="rgb(49,39,131)" d="M39.333,0h44.1697v28h-44.1697V0.7z"/><path fill="#edd100" d="M45.31 22.19L48.35 22.19C48.35 18.87 48.41 17.80 49.63 16.00L51.10 13.81C53.45 10.33 53.75 9.36 53.75 7.40C53.75 6.71 53.69 6.08 53.62 5.58L43.07 5.58L43.07 8.03L50.76 8.03C50.76 8.23 50.74 8.42 50.71 8.62C50.58 9.40 50.17 10.16 48.98 11.94L47.74 13.79C45.72 16.78 45.31 18.26 45.31 22.19ZM55.75 17.78C55.75 20.15 57.27 22.36 60.83 22.36C64.59 22.36 66.50 19.91 66.50 17.28C66.50 15.29 65.41 13.90 63.37 12.98C64.61 12.40 65.83 11.25 65.83 9.34C65.83 6.95 64.15 5.38 61.27 5.38C58.49 5.38 56.23 7.10 56.23 9.99C56.23 11.27 56.66 12.53 58.44 13.61C57.03 14.39 55.75 15.61 55.75 17.78ZM61.14 12.20C59.64 11.57 59.38 10.73 59.38 9.86C59.38 8.25 60.25 7.69 61.22 7.69C62.39 7.69 62.83 8.47 62.83 9.57C62.83 10.75 62.33 11.62 61.14 12.20ZM58.86 17.70C58.86 16.46 59.38 15.33 60.40 14.72C62.29 15.39 63.42 15.98 63.42 17.72C63.42 19.15 62.63 20.19 61.16 20.19C59.88 20.19 58.86 19.41 58.86 17.70ZM68.69 22.19L79.07 22.19L79.07 19.91L75.75 19.91L75.75 5.58L73.32 5.58L67.95 8.51L69.00 10.53L72.84 8.36L72.84 19.91L68.69 19.91Z"/></g></svg>