<svg xmlns="http://www.w3.org/2000/svg" viewBox="0 0 83.503 28" data-ligne-id="JD791"><g><g><path d="M35,0H3.6S0,5.4,0,14s3.6,14,3.6,14h31.4" fill="#e2001a"/><rect y=".777" width="35" height="26.445" fill="none"/><path d="M7.646,19.394c.159.02.279.02.398.02,2.071,0,2.608-.915,2.608-2.667V6.238h2.607v11.067c0,2.966-1.97,4.458-4.1,4.458-.676,0-1.154-.099-1.513-.159v-2.21Z" fill="#fff"/><path d="M16.762,6.237h5.475c3.841,0,7.364,1.752,7.364,7.245,0,5.673-3.563,7.982-8.162,7.982h-4.677V6.237ZM21.261,19.275c3.125,0,5.673-1.313,5.673-5.474,0-3.523-1.713-5.354-4.917-5.354h-2.648v10.828h1.892Z" fill="#fff"/></g><path fill="rgb(49,39,131)" d="M39.333,0h44.1697v28h-44.1697V0.7z"/><path fill="#edd100" d="M45.31 22.19L48.35 22.19C48.35 18.87 48.41 17.80 49.63 16.00L51.10 13.81C53.45 10.33 53.75 9.36 53.75 7.40C53.75 6.71 53.69 6.08 53.62 5.58L43.07 5.58L43.07 8.03L50.76 8.03C50.76 8.23 50.74 8.42 50.71 8.62C50.58 9.40 50.17 10.16 48.98 11.94L47.74 13.79C45.72 16.78 45.31 18.26 45.31 22.19ZM55.84 21.47C56.90 22.04 58.70 22.36 60.05 22.36C64.61 22.36 66.43 18.78 66.43 13.61C66.43 8.49 64.96 5.38 60.90 5.38C57.75 5.38 55.62 7.62 55.62 11.05C55.62 14.50 58.27 15.68 60.07 15.68C61.72 15.68 62.87 14.94 63.46 14.57C63.46 17.96 62.42 19.89 59.96 19.89C58.36 19.89 57.29 19.45 56.62 19.17ZM60.98 12.96C59.40 12.96 58.60 12.03 58.60 10.57C58.60 9.03 59.16 7.69 60.94 7.69C62.79 7.69 63.37 9.84 63.37 12.25C62.68 12.70 62.11 12.96 60.98 12.96ZM68.69 22.19L79.07 22.19L79.07 19.91L75.75 19.91L75.75 5.58L73.32 5.58L67.95 8.51L69.00 10.53L72.84 8.36L72.84 19.91L68.69 19.91Z"/></g></svg>