<svg xmlns="http://www.w3.org/2000/svg" viewBox="0 0 83.503 28" data-ligne-id="JD807"><g><g><path d="M35,0H3.6S0,5.4,0,14s3.6,14,3.6,14h31.4" fill="#e2001a"/><rect y=".777" width="35" height="26.445" fill="none"/><path d="M7.646,19.394c.159.02.279.02.398.02,2.071,0,2.608-.915,2.608-2.667V6.238h2.607v11.067c0,2.966-1.97,4.458-4.1,4.458-.676,0-1.154-.099-1.513-.159v-2.21Z" fill="#fff"/><path d="M16.762,6.237h5.475c3.841,0,7.364,1.752,7.364,7.245,0,5.673-3.563,7.982-8.162,7.982h-4.677V6.237ZM21.261,19.275c3.125,0,5.673-1.313,5.673-5.474,0-3.523-1.713-5.354-4.917-5.354h-2.648v10.828h1.892Z" fill="#fff"/></g><path fill="rgb(49,39,131)" d="M39.333,0h44.1697v28h-44.1697V0.7z"/><path fill="#edd100" d="M43.07 17.86C43.07 20.26 44.61 22.51 48.23 22.51C52.04 22.51 53.98 20.02 53.98 17.35C53.98 15.32 52.88 13.91 50.81 12.98C52.06 12.39 53.30 11.22 53.30 9.28C53.30 6.85 51.60 5.27 48.67 5.27C45.85 5.27 43.56 7.01 43.56 9.94C43.56 11.24 44.00 12.52 45.80 13.62C44.37 14.42 43.07 15.65 43.07 17.86ZM48.54 12.19C47.02 11.55 46.75 10.69 46.75 9.81C46.75 8.18 47.63 7.60 48.63 7.60C49.82 7.60 50.26 8.40 50.26 9.52C50.26 10.71 49.75 11.59 48.54 12.19ZM46.22 17.77C46.22 16.51 46.75 15.36 47.79 14.75C49.71 15.43 50.85 16.03 50.85 17.79C50.85 19.24 50.06 20.30 48.56 20.30C47.26 20.30 46.22 19.51 46.22 17.77ZM61.19 22.53C66.28 22.53 67.12 18.47 67.12 13.93C67.12 9.61 65.95 5.27 61.19 5.27C56.45 5.27 55.28 9.61 55.28 13.93C55.28 18.47 56.12 22.53 61.19 22.53ZM61.19 19.95C59.32 19.95 58.37 18.34 58.37 14.17C58.37 10.62 58.92 7.96 61.19 7.96C63.48 7.96 64.04 10.62 64.04 14.17C64.04 18.34 63.09 19.95 61.19 19.95ZM70.49 22.33L73.58 22.33C73.58 18.96 73.65 17.88 74.88 16.05L76.38 13.82C78.76 10.29 79.07 9.30 79.07 7.32C79.07 6.61 79.00 5.97 78.94 5.47L68.22 5.47L68.22 7.96L76.03 7.96C76.03 8.16 76.01 8.35 75.98 8.55C75.85 9.35 75.43 10.12 74.22 11.93L72.96 13.80C70.91 16.84 70.49 18.34 70.49 22.33Z"/></g></svg>