<svg xmlns="http://www.w3.org/2000/svg" viewBox="0 0 83.503 28" data-ligne-id="JD837"><g><g><path d="M35,0H3.6S0,5.4,0,14s3.6,14,3.6,14h31.4" fill="#e2001a"/><rect y=".777" width="35" height="26.445" fill="none"/><path d="M7.646,19.394c.159.02.279.02.398.02,2.071,0,2.608-.915,2.608-2.667V6.238h2.607v11.067c0,2.966-1.97,4.458-4.1,4.458-.676,0-1.154-.099-1.513-.159v-2.21Z" fill="#fff"/><path d="M16.762,6.237h5.475c3.841,0,7.364,1.752,7.364,7.245,0,5.673-3.563,7.982-8.162,7.982h-4.677V6.237ZM21.261,19.275c3.125,0,5.673-1.313,5.673-5.474,0-3.523-1.713-5.354-4.917-5.354h-2.648v10.828h1.892Z" fill="#fff"/></g><path fill="rgb(49,39,131)" d="M39.333,0h44.1697v28h-44.1697V0.7z"/><path fill="#edd100" d="M43.07 17.84C43.07 20.25 44.61 22.50 48.23 22.50C52.04 22.50 53.98 20.00 53.98 17.34C53.98 15.31 52.88 13.90 50.81 12.97C52.06 12.38 53.30 11.21 53.30 9.27C53.30 6.84 51.60 5.26 48.67 5.26C45.85 5.26 43.56 7.00 43.56 9.93C43.56 11.23 44.00 12.51 45.80 13.61C44.37 14.41 43.07 15.64 43.07 17.84ZM48.54 12.18C47.02 11.54 46.75 10.68 46.75 9.80C46.75 8.17 47.63 7.59 48.63 7.59C49.82 7.59 50.26 8.39 50.26 9.51C50.26 10.70 49.75 11.58 48.54 12.18ZM46.22 17.76C46.22 16.50 46.75 15.35 47.79 14.74C49.71 15.42 50.85 16.01 50.85 17.78C50.85 19.23 50.06 20.29 48.56 20.29C47.26 20.29 46.22 19.50 46.22 17.76ZM55.28 21.20C56.12 21.68 57.84 22.50 60.11 22.50C64.01 22.50 66.09 20.09 66.09 17.18C66.09 15.13 65.07 13.70 63.40 13.13C64.76 12.49 65.89 11.45 65.89 9.42C65.89 7.00 64.30 5.26 60.95 5.26C58.92 5.26 56.78 5.90 55.22 6.78L56.23 9.05C57.27 8.41 58.74 7.81 60.35 7.81C62.12 7.81 62.85 8.52 62.85 9.89C62.85 11.74 61.35 12.42 59.60 12.42L58.11 12.42L58.11 14.85L60.02 14.85C61.72 14.85 63.11 15.38 63.11 17.16C63.11 18.70 62.10 19.87 59.91 19.87C58.26 19.87 56.76 19.23 56.12 18.90ZM70.49 22.32L73.58 22.32C73.58 18.95 73.65 17.87 74.88 16.04L76.38 13.81C78.76 10.28 79.07 9.29 79.07 7.31C79.07 6.60 79.00 5.96 78.94 5.46L68.22 5.46L68.22 7.95L76.03 7.95C76.03 8.14 76.01 8.34 75.98 8.54C75.85 9.34 75.43 10.11 74.22 11.91L72.96 13.79C70.91 16.83 70.49 18.33 70.49 22.32Z"/></g></svg>