<svg xmlns="http://www.w3.org/2000/svg" viewBox="0 0 83.503 28" data-ligne-id="JD854"><g><g><path d="M35,0H3.6S0,5.4,0,14s3.6,14,3.6,14h31.4" fill="#e2001a"/><rect y=".777" width="35" height="26.445" fill="none"/><path d="M7.646,19.394c.159.02.279.02.398.02,2.071,0,2.608-.915,2.608-2.667V6.238h2.607v11.067c0,2.966-1.97,4.458-4.1,4.458-.676,0-1.154-.099-1.513-.159v-2.21Z" fill="#fff"/><path d="M16.762,6.237h5.475c3.841,0,7.364,1.752,7.364,7.245,0,5.673-3.563,7.982-8.162,7.982h-4.677V6.237ZM21.261,19.275c3.125,0,5.673-1.313,5.673-5.474,0-3.523-1.713-5.354-4.917-5.354h-2.648v10.828h1.892Z" fill="#fff"/></g><path fill="rgb(49,39,131)" d="M39.333,0h44.1697v28h-44.1697V0.7z"/><path fill="#edd100" d="M43.07 17.77C43.07 20.13 44.58 22.33 48.13 22.33C51.87 22.33 53.77 19.89 53.77 17.28C53.77 15.29 52.69 13.91 50.66 13.00C51.89 12.41 53.10 11.27 53.10 9.37C53.10 6.99 51.43 5.43 48.56 5.43C45.79 5.43 43.55 7.14 43.55 10.02C43.55 11.29 43.98 12.54 45.75 13.62C44.35 14.40 43.07 15.61 43.07 17.77ZM48.43 12.22C46.94 11.59 46.68 10.75 46.68 9.89C46.68 8.29 47.54 7.73 48.52 7.73C49.68 7.73 50.11 8.50 50.11 9.61C50.11 10.77 49.62 11.64 48.43 12.22ZM46.16 17.69C46.16 16.46 46.68 15.33 47.69 14.73C49.57 15.40 50.70 15.98 50.70 17.71C50.70 19.13 49.92 20.17 48.45 20.17C47.18 20.17 46.16 19.39 46.16 17.69ZM55.52 21.27C56.49 21.73 58.20 22.35 60.18 22.35C64.18 22.35 66.06 19.85 66.06 16.63C66.06 13.43 64.23 11.77 61.07 11.77L58.95 11.77L59.10 8.01L65.72 8.01L65.72 5.63L56.29 5.63L56.01 14.16L60.10 14.16C62.09 14.16 63.12 14.88 63.12 16.80C63.12 18.79 62.02 19.93 59.84 19.93C58.67 19.93 57.14 19.61 56.10 19.24ZM67.38 19.22L74.25 19.22L74.25 22.16L76.97 22.16L76.97 19.22L79.07 19.22L79.07 16.82L76.97 16.82L76.97 5.63L73.11 5.63L67.38 16.71ZM69.87 16.82L73.13 10.45C73.71 9.32 74.10 8.46 74.25 7.88L74.25 16.82Z"/></g></svg>