<svg xmlns="http://www.w3.org/2000/svg" viewBox="0 0 83.503 28" data-ligne-id="JD868"><g><g><path d="M35,0H3.6S0,5.4,0,14s3.6,14,3.6,14h31.4" fill="#e2001a"/><rect y=".777" width="35" height="26.445" fill="none"/><path d="M7.646,19.394c.159.02.279.02.398.02,2.071,0,2.608-.915,2.608-2.667V6.238h2.607v11.067c0,2.966-1.97,4.458-4.1,4.458-.676,0-1.154-.099-1.513-.159v-2.21Z" fill="#fff"/><path d="M16.762,6.237h5.475c3.841,0,7.364,1.752,7.364,7.245,0,5.673-3.563,7.982-8.162,7.982h-4.677V6.237ZM21.261,19.275c3.125,0,5.673-1.313,5.673-5.474,0-3.523-1.713-5.354-4.917-5.354h-2.648v10.828h1.892Z" fill="#fff"/></g><path fill="rgb(49,39,131)" d="M39.333,0h44.1697v28h-44.1697V0.7z"/><path fill="#edd100" d="M43.07 17.83C43.07 20.21 44.60 22.44 48.19 22.44C51.98 22.44 53.90 19.97 53.90 17.32C53.90 15.31 52.81 13.91 50.75 12.99C52.00 12.40 53.22 11.24 53.22 9.31C53.22 6.90 51.54 5.33 48.63 5.33C45.83 5.33 43.55 7.06 43.55 9.97C43.55 11.26 43.99 12.53 45.78 13.62C44.36 14.41 43.07 15.64 43.07 17.83ZM48.50 12.20C46.99 11.57 46.73 10.71 46.73 9.84C46.73 8.22 47.60 7.65 48.59 7.65C49.77 7.65 50.20 8.44 50.20 9.55C50.20 10.73 49.70 11.61 48.50 12.20ZM46.20 17.74C46.20 16.49 46.73 15.35 47.75 14.74C49.66 15.42 50.80 16.01 50.80 17.76C50.80 19.20 50.01 20.25 48.52 20.25C47.23 20.25 46.20 19.47 46.20 17.74ZM61.13 22.46C64.45 22.46 66.57 20.10 66.57 16.73C66.57 13.12 64.12 12.27 62.35 12.27C60.78 12.27 59.33 12.94 58.74 13.32C59.00 9.53 60.71 7.78 63.16 7.78C64.06 7.78 64.67 8.02 65.15 8.26L65.92 5.99C65.15 5.61 63.93 5.33 62.70 5.33C58.04 5.33 55.70 9.38 55.70 14.85C55.70 19.36 57.30 22.46 61.13 22.46ZM61.32 20.14C59.46 20.14 58.74 18.61 58.74 15.55C59.62 15.07 60.64 14.83 61.48 14.83C62.94 14.83 63.58 15.57 63.58 17.26C63.58 18.92 62.96 20.14 61.32 20.14ZM68.24 17.83C68.24 20.21 69.77 22.44 73.36 22.44C77.14 22.44 79.07 19.97 79.07 17.32C79.07 15.31 77.98 13.91 75.92 12.99C77.17 12.40 78.39 11.24 78.39 9.31C78.39 6.90 76.71 5.33 73.80 5.33C71.00 5.33 68.72 7.06 68.72 9.97C68.72 11.26 69.16 12.53 70.95 13.62C69.53 14.41 68.24 15.64 68.24 17.83ZM73.66 12.20C72.15 11.57 71.89 10.71 71.89 9.84C71.89 8.22 72.77 7.65 73.75 7.65C74.93 7.65 75.37 8.44 75.37 9.55C75.37 10.73 74.87 11.61 73.66 12.20ZM71.37 17.74C71.37 16.49 71.89 15.35 72.92 14.74C74.82 15.42 75.96 16.01 75.96 17.76C75.96 19.20 75.18 20.25 73.69 20.25C72.40 20.25 71.37 19.47 71.37 17.74Z"/></g></svg>