<svg xmlns="http://www.w3.org/2000/svg" viewBox="0 0 83.503 28" data-ligne-id="JD876"><g><g><path d="M35,0H3.6S0,5.4,0,14s3.6,14,3.6,14h31.4" fill="#e2001a"/><rect y=".777" width="35" height="26.445" fill="none"/><path d="M7.646,19.394c.159.02.279.02.398.02,2.071,0,2.608-.915,2.608-2.667V6.238h2.607v11.067c0,2.966-1.97,4.458-4.1,4.458-.676,0-1.154-.099-1.513-.159v-2.21Z" fill="#fff"/><path d="M16.762,6.237h5.475c3.841,0,7.364,1.752,7.364,7.245,0,5.673-3.563,7.982-8.162,7.982h-4.677V6.237ZM21.261,19.275c3.125,0,5.673-1.313,5.673-5.474,0-3.523-1.713-5.354-4.917-5.354h-2.648v10.828h1.892Z" fill="#fff"/></g><path fill="rgb(49,39,131)" d="M39.333,0h44.1697v28h-44.1697V0.7z"/><path fill="#edd100" d="M43.07 17.82C43.07 20.19 44.60 22.42 48.18 22.42C51.96 22.42 53.88 19.95 53.88 17.31C53.88 15.30 52.79 13.91 50.73 12.99C51.98 12.40 53.20 11.24 53.20 9.32C53.20 6.92 51.52 5.35 48.62 5.35C45.82 5.35 43.55 7.07 43.55 9.98C43.55 11.27 43.99 12.53 45.78 13.62C44.36 14.41 43.07 15.63 43.07 17.82ZM48.48 12.20C46.98 11.57 46.72 10.72 46.72 9.85C46.72 8.23 47.59 7.66 48.57 7.66C49.75 7.66 50.19 8.45 50.19 9.56C50.19 10.74 49.69 11.62 48.48 12.20ZM46.19 17.73C46.19 16.48 46.72 15.35 47.74 14.74C49.64 15.41 50.78 16.00 50.78 17.75C50.78 19.19 49.99 20.24 48.51 20.24C47.22 20.24 46.19 19.45 46.19 17.73ZM57.68 22.25L60.73 22.25C60.73 18.91 60.80 17.84 62.02 16.03L63.50 13.82C65.86 10.33 66.17 9.34 66.17 7.38C66.17 6.68 66.10 6.05 66.04 5.55L55.43 5.55L55.43 8.01L63.16 8.01C63.16 8.21 63.13 8.41 63.11 8.60C62.98 9.39 62.57 10.15 61.37 11.94L60.12 13.80C58.09 16.81 57.68 18.30 57.68 22.25ZM73.63 22.44C76.95 22.44 79.07 20.09 79.07 16.72C79.07 13.12 76.63 12.27 74.86 12.27C73.29 12.27 71.84 12.95 71.25 13.32C71.52 9.54 73.22 7.79 75.66 7.79C76.56 7.79 77.17 8.03 77.65 8.27L78.42 6.00C77.65 5.63 76.43 5.35 75.21 5.35C70.56 5.35 68.22 9.39 68.22 14.85C68.22 19.34 69.81 22.44 73.63 22.44ZM73.83 20.13C71.98 20.13 71.25 18.60 71.25 15.54C72.13 15.06 73.15 14.82 73.98 14.82C75.45 14.82 76.08 15.57 76.08 17.25C76.08 18.91 75.47 20.13 73.83 20.13Z"/></g></svg>