<svg xmlns="http://www.w3.org/2000/svg" viewBox="0 0 83.503 28" data-ligne-id="JD881"><g><g><path d="M35,0H3.6S0,5.4,0,14s3.6,14,3.6,14h31.4" fill="#e2001a"/><rect y=".777" width="35" height="26.445" fill="none"/><path d="M7.646,19.394c.159.02.279.02.398.02,2.071,0,2.608-.915,2.608-2.667V6.238h2.607v11.067c0,2.966-1.97,4.458-4.1,4.458-.676,0-1.154-.099-1.513-.159v-2.21Z" fill="#fff"/><path d="M16.762,6.237h5.475c3.841,0,7.364,1.752,7.364,7.245,0,5.673-3.563,7.982-8.162,7.982h-4.677V6.237ZM21.261,19.275c3.125,0,5.673-1.313,5.673-5.474,0-3.523-1.713-5.354-4.917-5.354h-2.648v10.828h1.892Z" fill="#fff"/></g><path fill="rgb(49,39,131)" d="M39.333,0h44.1697v28h-44.1697V0.7z"/><path fill="#edd100" d="M43.07 17.80C43.07 20.18 44.60 22.41 48.18 22.41C51.96 22.41 53.88 19.94 53.88 17.30C53.88 15.29 52.79 13.90 50.73 12.98C51.98 12.39 53.20 11.23 53.20 9.31C53.20 6.91 51.52 5.34 48.62 5.34C45.82 5.34 43.55 7.06 43.55 9.97C43.55 11.25 43.99 12.52 45.78 13.61C44.36 14.40 43.07 15.62 43.07 17.80ZM48.48 12.19C46.98 11.56 46.72 10.71 46.72 9.84C46.72 8.22 47.59 7.65 48.57 7.65C49.75 7.65 50.19 8.44 50.19 9.55C50.19 10.73 49.69 11.60 48.48 12.19ZM46.19 17.72C46.19 16.47 46.72 15.34 47.74 14.73C49.64 15.40 50.78 15.99 50.78 17.74C50.78 19.18 49.99 20.23 48.51 20.23C47.22 20.23 46.19 19.44 46.19 17.72ZM55.62 17.80C55.62 20.18 57.15 22.41 60.73 22.41C64.51 22.41 66.43 19.94 66.43 17.30C66.43 15.29 65.34 13.90 63.29 12.98C64.53 12.39 65.75 11.23 65.75 9.31C65.75 6.91 64.07 5.34 61.17 5.34C58.37 5.34 56.10 7.06 56.10 9.97C56.10 11.25 56.54 12.52 58.33 13.61C56.91 14.40 55.62 15.62 55.62 17.80ZM61.04 12.19C59.53 11.56 59.27 10.71 59.27 9.84C59.27 8.22 60.14 7.65 61.13 7.65C62.30 7.65 62.74 8.44 62.74 9.55C62.74 10.73 62.24 11.60 61.04 12.19ZM58.75 17.72C58.75 16.47 59.27 15.34 60.30 14.73C62.19 15.40 63.33 15.99 63.33 17.74C63.33 19.18 62.54 20.23 61.06 20.23C59.77 20.23 58.75 19.44 58.75 17.72ZM68.64 22.24L79.07 22.24L79.07 19.94L75.73 19.94L75.73 5.54L73.29 5.54L67.89 8.48L68.94 10.51L72.80 8.33L72.80 19.94L68.64 19.94Z"/></g></svg>