<svg xmlns="http://www.w3.org/2000/svg" viewBox="0 0 83.503 28" data-ligne-id="JD897"><g><g><path d="M35,0H3.6S0,5.4,0,14s3.6,14,3.6,14h31.4" fill="#e2001a"/><rect y=".777" width="35" height="26.445" fill="none"/><path d="M7.646,19.394c.159.02.279.02.398.02,2.071,0,2.608-.915,2.608-2.667V6.238h2.607v11.067c0,2.966-1.97,4.458-4.1,4.458-.676,0-1.154-.099-1.513-.159v-2.21Z" fill="#fff"/><path d="M16.762,6.237h5.475c3.841,0,7.364,1.752,7.364,7.245,0,5.673-3.563,7.982-8.162,7.982h-4.677V6.237ZM21.261,19.275c3.125,0,5.673-1.313,5.673-5.474,0-3.523-1.713-5.354-4.917-5.354h-2.648v10.828h1.892Z" fill="#fff"/></g><path fill="rgb(49,39,131)" d="M39.333,0h44.1697v28h-44.1697V0.7z"/><path fill="#edd100" d="M43.07 17.84C43.07 20.25 44.61 22.50 48.23 22.50C52.04 22.50 53.98 20.00 53.98 17.34C53.98 15.31 52.88 13.90 50.81 12.97C52.06 12.38 53.30 11.21 53.30 9.27C53.30 6.84 51.60 5.26 48.67 5.26C45.85 5.26 43.56 7.00 43.56 9.93C43.56 11.23 44.00 12.51 45.80 13.61C44.37 14.41 43.07 15.64 43.07 17.84ZM48.54 12.18C47.02 11.54 46.75 10.68 46.75 9.80C46.75 8.17 47.63 7.59 48.63 7.59C49.82 7.59 50.26 8.39 50.26 9.51C50.26 10.70 49.75 11.58 48.54 12.18ZM46.22 17.76C46.22 16.50 46.75 15.35 47.79 14.74C49.71 15.42 50.85 16.01 50.85 17.78C50.85 19.23 50.06 20.29 48.56 20.29C47.26 20.29 46.22 19.50 46.22 17.76ZM55.83 21.59C56.91 22.17 58.74 22.50 60.11 22.50C64.74 22.50 66.59 18.86 66.59 13.61C66.59 8.41 65.09 5.26 60.97 5.26C57.77 5.26 55.61 7.53 55.61 11.01C55.61 14.52 58.30 15.71 60.13 15.71C61.81 15.71 62.98 14.96 63.57 14.58C63.57 18.02 62.51 19.98 60.02 19.98C58.39 19.98 57.31 19.54 56.63 19.26ZM61.06 12.95C59.45 12.95 58.63 12.00 58.63 10.53C58.63 8.96 59.21 7.59 61.02 7.59C62.89 7.59 63.48 9.78 63.48 12.22C62.78 12.69 62.21 12.95 61.06 12.95ZM70.49 22.32L73.58 22.32C73.58 18.95 73.65 17.87 74.88 16.04L76.38 13.81C78.76 10.28 79.07 9.29 79.07 7.31C79.07 6.60 79.00 5.96 78.94 5.46L68.22 5.46L68.22 7.95L76.03 7.95C76.03 8.14 76.01 8.34 75.98 8.54C75.85 9.34 75.43 10.11 74.22 11.91L72.96 13.79C70.91 16.83 70.49 18.33 70.49 22.32Z"/></g></svg>