<svg xmlns="http://www.w3.org/2000/svg" viewBox="0 0 83.503 28" data-ligne-id="JD927"><g><g><path d="M35,0H3.6S0,5.4,0,14s3.6,14,3.6,14h31.4" fill="#e2001a"/><rect y=".777" width="35" height="26.445" fill="none"/><path d="M7.646,19.394c.159.02.279.02.398.02,2.071,0,2.608-.915,2.608-2.667V6.238h2.607v11.067c0,2.966-1.97,4.458-4.1,4.458-.676,0-1.154-.099-1.513-.159v-2.21Z" fill="#fff"/><path d="M16.762,6.237h5.475c3.841,0,7.364,1.752,7.364,7.245,0,5.673-3.563,7.982-8.162,7.982h-4.677V6.237ZM21.261,19.275c3.125,0,5.673-1.313,5.673-5.474,0-3.523-1.713-5.354-4.917-5.354h-2.648v10.828h1.892Z" fill="#fff"/></g><path fill="rgb(49,39,131)" d="M39.333,0h44.1697v28h-44.1697V0.7z"/><path fill="#edd100" d="M43.29 21.56C44.37 22.13 46.19 22.46 47.55 22.46C52.16 22.46 54.01 18.84 54.01 13.61C54.01 8.43 52.52 5.29 48.41 5.29C45.22 5.29 43.07 7.55 43.07 11.02C43.07 14.51 45.75 15.70 47.57 15.70C49.24 15.70 50.41 14.95 51.00 14.58C51.00 18.01 49.95 19.96 47.46 19.96C45.84 19.96 44.76 19.52 44.08 19.24ZM48.50 12.95C46.89 12.95 46.08 12.01 46.08 10.54C46.08 8.98 46.65 7.62 48.45 7.62C50.32 7.62 50.91 9.79 50.91 12.23C50.21 12.69 49.64 12.95 48.50 12.95ZM55.79 22.29L66.53 22.29L66.53 19.83L59.04 19.83C59.08 19.13 59.21 18.55 60.55 17.54L62.99 15.72C65.14 14.10 66.27 12.80 66.27 10.05C66.27 6.98 63.94 5.29 60.60 5.29C59.10 5.29 57.17 5.81 55.63 6.74L56.60 8.82C57.41 8.38 58.97 7.77 60.38 7.77C61.87 7.77 63.19 8.41 63.19 10.45C63.19 11.92 62.36 12.82 60.91 13.90L58.88 15.41C56.71 17.06 55.79 18.42 55.79 20.14ZM70.53 22.29L73.60 22.29C73.60 18.93 73.67 17.85 74.90 16.03L76.39 13.81C78.76 10.30 79.07 9.31 79.07 7.33C79.07 6.63 79.00 5.99 78.94 5.49L68.26 5.49L68.26 7.97L76.04 7.97C76.04 8.16 76.02 8.36 76.00 8.56C75.86 9.35 75.45 10.12 74.24 11.92L72.99 13.79C70.94 16.82 70.53 18.31 70.53 22.29Z"/></g></svg>