<svg xmlns="http://www.w3.org/2000/svg" viewBox="0 0 83.503 28" data-ligne-id="JD952"><g><g><path d="M35,0H3.6S0,5.4,0,14s3.6,14,3.6,14h31.4" fill="#e2001a"/><rect y=".777" width="35" height="26.445" fill="none"/><path d="M7.646,19.394c.159.02.279.02.398.02,2.071,0,2.608-.915,2.608-2.667V6.238h2.607v11.067c0,2.966-1.97,4.458-4.1,4.458-.676,0-1.154-.099-1.513-.159v-2.21Z" fill="#fff"/><path d="M16.762,6.237h5.475c3.841,0,7.364,1.752,7.364,7.245,0,5.673-3.563,7.982-8.162,7.982h-4.677V6.237ZM21.261,19.275c3.125,0,5.673-1.313,5.673-5.474,0-3.523-1.713-5.354-4.917-5.354h-2.648v10.828h1.892Z" fill="#fff"/></g><path fill="rgb(49,39,131)" d="M39.333,0h44.1697v28h-44.1697V0.7z"/><path fill="#edd100" d="M43.29 21.56C44.36 22.12 46.18 22.45 47.54 22.45C52.14 22.45 53.98 18.84 53.98 13.62C53.98 8.45 52.49 5.32 48.39 5.32C45.22 5.32 43.07 7.58 43.07 11.04C43.07 14.52 45.74 15.70 47.56 15.70C49.23 15.70 50.39 14.96 50.98 14.59C50.98 18.01 49.93 19.96 47.45 19.96C45.83 19.96 44.76 19.52 44.08 19.23ZM48.48 12.97C46.88 12.97 46.07 12.02 46.07 10.56C46.07 9.00 46.64 7.64 48.44 7.64C50.30 7.64 50.89 9.81 50.89 12.24C50.19 12.70 49.62 12.97 48.48 12.97ZM55.82 21.38C56.81 21.84 58.54 22.48 60.56 22.48C64.61 22.48 66.52 19.93 66.52 16.67C66.52 13.43 64.65 11.74 61.45 11.74L59.31 11.74L59.46 7.93L66.16 7.93L66.16 5.52L56.61 5.52L56.33 14.17L60.47 14.17C62.48 14.17 63.54 14.89 63.54 16.84C63.54 18.86 62.42 20.02 60.20 20.02C59.02 20.02 57.47 19.69 56.41 19.32ZM68.36 22.28L79.07 22.28L79.07 19.82L71.60 19.82C71.64 19.12 71.77 18.55 73.11 17.55L75.54 15.73C77.69 14.11 78.81 12.81 78.81 10.07C78.81 7.01 76.48 5.32 73.15 5.32C71.66 5.32 69.74 5.84 68.20 6.77L69.17 8.85C69.98 8.41 71.53 7.79 72.94 7.79C74.43 7.79 75.74 8.43 75.74 10.47C75.74 11.94 74.91 12.83 73.46 13.91L71.45 15.42C69.28 17.06 68.36 18.42 68.36 20.13Z"/></g></svg>