<svg xmlns="http://www.w3.org/2000/svg" viewBox="0 0 83.503 28" data-ligne-id="JD984"><g><g><path d="M35,0H3.6S0,5.4,0,14s3.6,14,3.6,14h31.4" fill="#e2001a"/><rect y=".777" width="35" height="26.445" fill="none"/><path d="M7.646,19.394c.159.02.279.02.398.02,2.071,0,2.608-.915,2.608-2.667V6.238h2.607v11.067c0,2.966-1.97,4.458-4.1,4.458-.676,0-1.154-.099-1.513-.159v-2.21Z" fill="#fff"/><path d="M16.762,6.237h5.475c3.841,0,7.364,1.752,7.364,7.245,0,5.673-3.563,7.982-8.162,7.982h-4.677V6.237ZM21.261,19.275c3.125,0,5.673-1.313,5.673-5.474,0-3.523-1.713-5.354-4.917-5.354h-2.648v10.828h1.892Z" fill="#fff"/></g><path fill="rgb(49,39,131)" d="M39.333,0h44.1697v28h-44.1697V0.7z"/><path fill="#edd100" d="M43.29 21.41C44.34 21.97 46.13 22.29 47.46 22.29C51.98 22.29 53.79 18.74 53.79 13.61C53.79 8.53 52.33 5.45 48.30 5.45C45.18 5.45 43.07 7.67 43.07 11.07C43.07 14.50 45.70 15.66 47.48 15.66C49.12 15.66 50.26 14.93 50.84 14.56C50.84 17.92 49.81 19.84 47.38 19.84C45.78 19.84 44.73 19.41 44.06 19.13ZM48.39 12.97C46.82 12.97 46.02 12.04 46.02 10.60C46.02 9.07 46.58 7.74 48.35 7.74C50.18 7.74 50.76 9.87 50.76 12.26C50.07 12.71 49.51 12.97 48.39 12.97ZM55.58 17.75C55.58 20.09 57.09 22.29 60.62 22.29C64.34 22.29 66.24 19.86 66.24 17.25C66.24 15.27 65.16 13.89 63.14 12.99C64.36 12.41 65.57 11.27 65.57 9.37C65.57 7.00 63.91 5.45 61.05 5.45C58.29 5.45 56.05 7.15 56.05 10.02C56.05 11.29 56.48 12.54 58.25 13.61C56.85 14.39 55.58 15.59 55.58 17.75ZM60.92 12.21C59.43 11.59 59.18 10.75 59.18 9.89C59.18 8.30 60.04 7.74 61.01 7.74C62.17 7.74 62.60 8.51 62.60 9.61C62.60 10.77 62.10 11.63 60.92 12.21ZM58.66 17.66C58.66 16.43 59.18 15.31 60.19 14.71C62.06 15.38 63.18 15.96 63.18 17.68C63.18 19.10 62.41 20.14 60.94 20.14C59.67 20.14 58.66 19.36 58.66 17.66ZM67.42 19.19L74.27 19.19L74.27 22.12L76.98 22.12L76.98 19.19L79.07 19.19L79.07 16.80L76.98 16.80L76.98 5.65L73.13 5.65L67.42 16.69ZM69.90 16.80L73.15 10.45C73.73 9.33 74.12 8.47 74.27 7.89L74.27 16.80Z"/></g></svg>