<svg xmlns="http://www.w3.org/2000/svg" viewBox="0 0 83.503 28" data-ligne-id="JD987"><g><g><path d="M35,0H3.6S0,5.4,0,14s3.6,14,3.6,14h31.4" fill="#e2001a"/><rect y=".777" width="35" height="26.445" fill="none"/><path d="M7.646,19.394c.159.02.279.02.398.02,2.071,0,2.608-.915,2.608-2.667V6.238h2.607v11.067c0,2.966-1.97,4.458-4.1,4.458-.676,0-1.154-.099-1.513-.159v-2.21Z" fill="#fff"/><path d="M16.762,6.237h5.475c3.841,0,7.364,1.752,7.364,7.245,0,5.673-3.563,7.982-8.162,7.982h-4.677V6.237ZM21.261,19.275c3.125,0,5.673-1.313,5.673-5.474,0-3.523-1.713-5.354-4.917-5.354h-2.648v10.828h1.892Z" fill="#fff"/></g><path fill="rgb(49,39,131)" d="M39.333,0h44.1697v28h-44.1697V0.7z"/><path fill="#edd100" d="M43.29 21.56C44.37 22.13 46.19 22.46 47.55 22.46C52.16 22.46 54.01 18.84 54.01 13.61C54.01 8.43 52.52 5.29 48.41 5.29C45.22 5.29 43.07 7.55 43.07 11.02C43.07 14.51 45.75 15.70 47.57 15.70C49.24 15.70 50.41 14.95 51.00 14.58C51.00 18.01 49.95 19.96 47.46 19.96C45.84 19.96 44.76 19.52 44.08 19.24ZM48.50 12.95C46.89 12.95 46.08 12.01 46.08 10.54C46.08 8.98 46.65 7.62 48.45 7.62C50.32 7.62 50.91 9.79 50.91 12.23C50.21 12.69 49.64 12.95 48.50 12.95ZM55.83 17.83C55.83 20.22 57.37 22.46 60.97 22.46C64.77 22.46 66.70 19.98 66.70 17.32C66.70 15.30 65.61 13.90 63.54 12.98C64.79 12.38 66.02 11.22 66.02 9.29C66.02 6.87 64.33 5.29 61.41 5.29C58.60 5.29 56.32 7.02 56.32 9.94C56.32 11.24 56.75 12.51 58.56 13.61C57.13 14.40 55.83 15.63 55.83 17.83ZM61.28 12.18C59.76 11.55 59.50 10.69 59.50 9.81C59.50 8.19 60.38 7.62 61.37 7.62C62.55 7.62 62.99 8.41 62.99 9.53C62.99 10.71 62.49 11.59 61.28 12.18ZM58.97 17.74C58.97 16.49 59.50 15.35 60.53 14.73C62.44 15.41 63.59 16.01 63.59 17.76C63.59 19.21 62.79 20.27 61.30 20.27C60.01 20.27 58.97 19.48 58.97 17.74ZM70.53 22.29L73.60 22.29C73.60 18.93 73.67 17.85 74.90 16.03L76.39 13.81C78.76 10.30 79.07 9.31 79.07 7.33C79.07 6.63 79.00 5.99 78.94 5.49L68.26 5.49L68.26 7.97L76.04 7.97C76.04 8.16 76.02 8.36 76.00 8.56C75.86 9.35 75.45 10.12 74.24 11.92L72.99 13.79C70.94 16.82 70.53 18.31 70.53 22.29Z"/></g></svg>