<svg xmlns="http://www.w3.org/2000/svg" viewBox="0 0 83.503 28" data-ligne-id="JD988"><g><g><path d="M35,0H3.6S0,5.4,0,14s3.6,14,3.6,14h31.4" fill="#e2001a"/><rect y=".777" width="35" height="26.445" fill="none"/><path d="M7.646,19.394c.159.02.279.02.398.02,2.071,0,2.608-.915,2.608-2.667V6.238h2.607v11.067c0,2.966-1.97,4.458-4.1,4.458-.676,0-1.154-.099-1.513-.159v-2.21Z" fill="#fff"/><path d="M16.762,6.237h5.475c3.841,0,7.364,1.752,7.364,7.245,0,5.673-3.563,7.982-8.162,7.982h-4.677V6.237ZM21.261,19.275c3.125,0,5.673-1.313,5.673-5.474,0-3.523-1.713-5.354-4.917-5.354h-2.648v10.828h1.892Z" fill="#fff"/></g><path fill="rgb(49,39,131)" d="M39.333,0h44.1697v28h-44.1697V0.7z"/><path fill="#edd100" d="M43.29 21.51C44.36 22.07 46.17 22.40 47.52 22.40C52.10 22.40 53.93 18.80 53.93 13.61C53.93 8.47 52.45 5.35 48.37 5.35C45.21 5.35 43.07 7.59 43.07 11.04C43.07 14.51 45.73 15.68 47.54 15.68C49.20 15.68 50.35 14.94 50.94 14.57C50.94 17.97 49.90 19.91 47.43 19.91C45.82 19.91 44.75 19.48 44.07 19.19ZM48.46 12.96C46.86 12.96 46.06 12.02 46.06 10.56C46.06 9.01 46.62 7.66 48.41 7.66C50.27 7.66 50.85 9.82 50.85 12.24C50.16 12.70 49.59 12.96 48.46 12.96ZM55.74 17.80C55.74 20.18 57.27 22.40 60.84 22.40C64.61 22.40 66.53 19.94 66.53 17.30C66.53 15.29 65.44 13.90 63.39 12.98C64.64 12.39 65.86 11.24 65.86 9.32C65.86 6.92 64.18 5.35 61.28 5.35C58.49 5.35 56.22 7.07 56.22 9.97C56.22 11.26 56.65 12.52 58.44 13.61C57.03 14.40 55.74 15.62 55.74 17.80ZM61.15 12.20C59.64 11.56 59.38 10.71 59.38 9.84C59.38 8.23 60.25 7.66 61.23 7.66C62.41 7.66 62.85 8.45 62.85 9.56C62.85 10.73 62.35 11.61 61.15 12.20ZM58.86 17.71C58.86 16.47 59.38 15.34 60.41 14.72C62.30 15.40 63.44 15.99 63.44 17.73C63.44 19.17 62.65 20.22 61.17 20.22C59.88 20.22 58.86 19.43 58.86 17.71ZM68.28 17.80C68.28 20.18 69.80 22.40 73.38 22.40C77.15 22.40 79.07 19.94 79.07 17.30C79.07 15.29 77.98 13.90 75.93 12.98C77.17 12.39 78.39 11.24 78.39 9.32C78.39 6.92 76.72 5.35 73.82 5.35C71.02 5.35 68.76 7.07 68.76 9.97C68.76 11.26 69.19 12.52 70.98 13.61C69.56 14.40 68.28 15.62 68.28 17.80ZM73.68 12.20C72.18 11.56 71.92 10.71 71.92 9.84C71.92 8.23 72.79 7.66 73.77 7.66C74.95 7.66 75.39 8.45 75.39 9.56C75.39 10.73 74.88 11.61 73.68 12.20ZM71.40 17.71C71.40 16.47 71.92 15.34 72.94 14.72C74.84 15.40 75.97 15.99 75.97 17.73C75.97 19.17 75.19 20.22 73.71 20.22C72.42 20.22 71.40 19.43 71.40 17.71Z"/></g></svg>