<svg xmlns="http://www.w3.org/2000/svg" viewBox="0 0 83.503 28" data-ligne-id="JD995"><g><g><path d="M35,0H3.6S0,5.4,0,14s3.6,14,3.6,14h31.4" fill="#e2001a"/><rect y=".777" width="35" height="26.445" fill="none"/><path d="M7.646,19.394c.159.02.279.02.398.02,2.071,0,2.608-.915,2.608-2.667V6.238h2.607v11.067c0,2.966-1.97,4.458-4.1,4.458-.676,0-1.154-.099-1.513-.159v-2.21Z" fill="#fff"/><path d="M16.762,6.237h5.475c3.841,0,7.364,1.752,7.364,7.245,0,5.673-3.563,7.982-8.162,7.982h-4.677V6.237ZM21.261,19.275c3.125,0,5.673-1.313,5.673-5.474,0-3.523-1.713-5.354-4.917-5.354h-2.648v10.828h1.892Z" fill="#fff"/></g><path fill="rgb(49,39,131)" d="M39.333,0h44.1697v28h-44.1697V0.7z"/><path fill="#edd100" d="M43.29 21.55C44.36 22.11 46.18 22.44 47.53 22.44C52.13 22.44 53.97 18.83 53.97 13.62C53.97 8.46 52.48 5.33 48.39 5.33C45.22 5.33 43.07 7.58 43.07 11.04C43.07 14.52 45.74 15.70 47.56 15.70C49.22 15.70 50.38 14.96 50.97 14.59C50.97 18.00 49.92 19.95 47.45 19.95C45.83 19.95 44.76 19.51 44.08 19.23ZM48.48 12.97C46.88 12.97 46.07 12.03 46.07 10.56C46.07 9.01 46.64 7.65 48.43 7.65C50.29 7.65 50.88 9.82 50.88 12.24C50.18 12.70 49.61 12.97 48.48 12.97ZM55.87 21.55C56.95 22.11 58.76 22.44 60.12 22.44C64.71 22.44 66.55 18.83 66.55 13.62C66.55 8.46 65.06 5.33 60.97 5.33C57.80 5.33 55.65 7.58 55.65 11.04C55.65 14.52 58.32 15.70 60.14 15.70C61.80 15.70 62.96 14.96 63.55 14.59C63.55 18.00 62.50 19.95 60.03 19.95C58.41 19.95 57.34 19.51 56.66 19.23ZM61.06 12.97C59.46 12.97 58.65 12.03 58.65 10.56C58.65 9.01 59.22 7.65 61.02 7.65C62.88 7.65 63.47 9.82 63.47 12.24C62.77 12.70 62.20 12.97 61.06 12.97ZM68.39 21.37C69.38 21.83 71.10 22.46 73.12 22.46C77.17 22.46 79.07 19.93 79.07 16.67C79.07 13.43 77.21 11.74 74.02 11.74L71.87 11.74L72.02 7.93L78.72 7.93L78.72 5.53L69.18 5.53L68.89 14.17L73.03 14.17C75.04 14.17 76.09 14.89 76.09 16.84C76.09 18.85 74.98 20.01 72.77 20.01C71.59 20.01 70.03 19.69 68.98 19.31Z"/></g></svg>