<svg xmlns="http://www.w3.org/2000/svg" viewBox="0 0 83.503 28" data-ligne-id="JD991"><g><g><path d="M35,0H3.6S0,5.4,0,14s3.6,14,3.6,14h31.4" fill="#e2001a"/><rect y=".777" width="35" height="26.445" fill="none"/><path d="M7.646,19.394c.159.02.279.02.398.02,2.071,0,2.608-.915,2.608-2.667V6.238h2.607v11.067c0,2.966-1.97,4.458-4.1,4.458-.676,0-1.154-.099-1.513-.159v-2.21Z" fill="#fff"/><path d="M16.762,6.237h5.475c3.841,0,7.364,1.752,7.364,7.245,0,5.673-3.563,7.982-8.162,7.982h-4.677V6.237ZM21.261,19.275c3.125,0,5.673-1.313,5.673-5.474,0-3.523-1.713-5.354-4.917-5.354h-2.648v10.828h1.892Z" fill="#fff"/></g><path fill="rgb(49,39,131)" d="M39.333,0h44.1697v28h-44.1697V0.7z"/><path fill="#edd100" d="M43.29 21.49C44.35 22.05 46.16 22.38 47.51 22.38C52.08 22.38 53.90 18.79 53.90 13.61C53.90 8.48 52.42 5.37 48.36 5.37C45.20 5.37 43.07 7.61 43.07 11.05C43.07 14.50 45.72 15.68 47.53 15.68C49.18 15.68 50.34 14.94 50.92 14.57C50.92 17.96 49.88 19.90 47.42 19.90C45.81 19.90 44.75 19.46 44.07 19.18ZM48.44 12.96C46.86 12.96 46.05 12.03 46.05 10.57C46.05 9.02 46.62 7.67 48.40 7.67C50.25 7.67 50.84 9.83 50.84 12.24C50.14 12.70 49.57 12.96 48.44 12.96ZM55.80 21.49C56.86 22.05 58.67 22.38 60.02 22.38C64.58 22.38 66.41 18.79 66.41 13.61C66.41 8.48 64.93 5.37 60.86 5.37C57.71 5.37 55.58 7.61 55.58 11.05C55.58 14.50 58.23 15.68 60.04 15.68C61.69 15.68 62.84 14.94 63.43 14.57C63.43 17.96 62.39 19.90 59.93 19.90C58.32 19.90 57.25 19.46 56.58 19.18ZM60.95 12.96C59.36 12.96 58.56 12.03 58.56 10.57C58.56 9.02 59.12 7.67 60.91 7.67C62.76 7.67 63.34 9.83 63.34 12.24C62.65 12.70 62.08 12.96 60.95 12.96ZM68.67 22.21L79.07 22.21L79.07 19.92L75.74 19.92L75.74 5.56L73.31 5.56L67.93 8.50L68.98 10.52L72.83 8.35L72.83 19.92L68.67 19.92Z"/></g></svg>