<svg xmlns="http://www.w3.org/2000/svg" viewBox="0 0 83.503 28" data-ligne-id="NAVETTE TRAMWAY190" class=""><g><g><path fill="rgb(226,0,26)" class="picto-outline" device-cmyk="0.00, 1.00, 1.00, 0.00" d="M3.6,0S0,5.4,0,14s3.6,14,3.6,14h31.4V0H3.6Z"/><path fill="#FFFFFF" d="M17.496 8.469l-5.919-.003v-3.475l15.56.008-.003 3.475-5.92-.003-.008 15.244-3.72-.002z"/></g><path fill="rgb(200,136,23)" class="picto-outline" d="M39.333,0h44.1697v28h-44.1697V0.7z"/><path fill="#FFFFFF" d="M40.733,1.4h41.3v25.2h-28.5V1.4z"/><path d="M42.1,7.1h1.9l4.2,7.7c.3.6.5,1.2.6,1.8v-9.5h2v13h-2l-4.2-7.7c-.3-.6-.5-1.2-.6-1.8v9.5h-2v-13Z" fill="rgb(255,255,255)"/><path fill="rgb(200,136,23)" d="M54.59 20.04L62.33 20.04L62.33 18.34L59.85 18.34L59.85 7.65L58.04 7.65L54.04 9.84L54.82 11.34L57.68 9.72L57.68 18.34L54.59 18.34ZM63.63 19.51C64.42 19.93 65.77 20.17 66.77 20.17C70.17 20.17 71.53 17.50 71.53 13.64C71.53 9.82 70.43 7.50 67.40 7.50C65.05 7.50 63.47 9.17 63.47 11.73C63.47 14.31 65.44 15.18 66.79 15.18C68.02 15.18 68.88 14.63 69.31 14.36C69.31 16.88 68.54 18.33 66.71 18.33C65.51 18.33 64.71 18.00 64.21 17.79ZM67.47 13.16C66.28 13.16 65.69 12.46 65.69 11.38C65.69 10.23 66.11 9.22 67.43 9.22C68.81 9.22 69.25 10.82 69.25 12.62C68.73 12.96 68.31 13.16 67.47 13.16ZM76.88 20.19C80.62 20.19 81.24 17.21 81.24 13.87C81.24 10.69 80.38 7.50 76.88 7.50C73.40 7.50 72.54 10.69 72.54 13.87C72.54 17.21 73.15 20.19 76.88 20.19ZM76.88 18.29C75.50 18.29 74.81 17.11 74.81 14.05C74.81 11.44 75.21 9.48 76.88 9.48C78.56 9.48 78.97 11.44 78.97 14.05C78.97 17.11 78.27 18.29 76.88 18.29Z"/></g></svg>