<svg xmlns="http://www.w3.org/2000/svg" viewBox="0 0 67.333 28" data-ligne-id="TRX" class=""><g><g><path fill="rgb(226,0,26)" class="picto-outline" d="M3.6,0S0,5.4,0,14s3.6,14,3.6,14h31.4V0H3.6Z" device-cmyk="0.00, 1.00, 1.00, 0.00"/><path fill="#FFFFFF" d="M17.496 8.469l-5.919-.003v-3.475l15.56.008-.003 3.475-5.92-.003-.008 15.244-3.72-.002z"/></g><g><path d="M39.333,0h28v28h-28V0Z" class="picto-outline" fill="rgb(226,0,26)"/><path d="M55.0428,15.9787l9.1977,2.8131v-1.2548l-9.1977-7.1981v-5.4883c0-.717-.7447-2.3028-1.6547-2.3028s-1.6547,1.5858-1.6547,2.3028v5.4055l-9.308,7.2809v1.2548l9.3217-2.8544v3.1303c0,.9239.0137,1.7512.1241,2.4131l-4.1783,2.8269v1.1445l5.64-1.9444,5.64,1.9444v-1.1445l-4.068-2.758c.1103-.6756.138-1.5306.138-2.4822v-3.0889h-.0002Z" fill="#fff"/></g></g></svg>