<svg class="picto-svg" version="1.1" xmlns="http://www.w3.org/2000/svg" viewBox="0 0 83.503 28"><g><path fill="rgb(226,0,26)" d="M3.6,0S0,5.4,0,14s3.6,14,3.6,14h31.4V0H3.6Z" device-cmyk="0.00, 1.00, 1.00, 0.00"/><path d="M3.578,8.213h4.135c2.483,0,3.331,1.271,3.331,2.802,0,1.364-.772,2.119-1.544,2.408,1.059.212,2.089,1.091,2.089,2.817,0,2.166-1.681,3.559-3.997,3.559H3.578v-11.585ZM7.121,13.089c1.121,0,2.06-.484,2.06-1.681,0-.894-.575-1.605-1.923-1.605h-1.696v3.286h1.559ZM7.394,18.223c1.03,0,2.166-.484,2.166-1.893,0-1.211-.607-1.802-1.834-1.802h-2.165v3.695h1.832Z" fill="#fff"/><path d="M13.995,8.213h1.984v7.603c0,1.484.818,2.408,2.362,2.408s2.363-.924,2.363-2.408v-7.603h1.984v8.041c0,2.5-1.878,3.771-4.347,3.771s-4.346-1.271-4.346-3.771v-8.041Z" fill="#fff"/><path d="M25.593,17.496c.772.318,1.635.681,2.878.681,1.635,0,1.954-.939,1.954-1.575,0-.803-.455-1.303-1.546-1.741l-1.287-.516c-1.515-.605-2.589-1.271-2.589-3.028,0-1.832,1.408-3.331,4.179-3.331,1.529,0,2.484.317,3.135.635l-.682,1.773c-.65-.379-1.453-.681-2.559-.681-1.014,0-1.817.514-1.817,1.362,0,.621.303,1.015,1.273,1.408l1.56.637c1.696.696,2.483,1.59,2.483,3.21,0,3.044-2.286,3.696-3.982,3.696-1.636,0-2.878-.455-3.726-.984l.727-1.546Z" fill="#fff"/></g><path fill="#000000" d="M39.333,0h44.1697v28h-44.1697V0.7z"/><path fill="#FFFFFF" d="M40.733,1.4h41.3v25.2h-41.3V1.4z"/><path fill="#000000" d="M47.44 22.18L50.28 22.18L50.28 8.06L54.65 8.06L54.65 5.61L43.07 5.61L43.07 8.06L47.44 8.06ZM55.37 21.07C56.19 21.55 57.88 22.35 60.11 22.35C63.94 22.35 65.97 19.99 65.97 17.13C65.97 15.12 64.98 13.71 63.33 13.15C64.67 12.52 65.78 11.50 65.78 9.51C65.78 7.13 64.22 5.42 60.93 5.42C58.94 5.42 56.84 6.05 55.30 6.91L56.30 9.14C57.31 8.52 58.76 7.93 60.35 7.93C62.08 7.93 62.79 8.62 62.79 9.97C62.79 11.78 61.32 12.46 59.61 12.46L58.14 12.46L58.14 14.84L60.02 14.84C61.69 14.84 63.05 15.36 63.05 17.11C63.05 18.62 62.06 19.77 59.91 19.77C58.29 19.77 56.82 19.14 56.19 18.82ZM73.68 22.37C76.97 22.37 79.07 20.03 79.07 16.70C79.07 13.13 76.65 12.28 74.89 12.28C73.33 12.28 71.91 12.95 71.32 13.32C71.58 9.58 73.27 7.84 75.69 7.84C76.58 7.84 77.19 8.08 77.66 8.32L78.42 6.07C77.66 5.70 76.45 5.42 75.24 5.42C70.63 5.42 68.31 9.42 68.31 14.84C68.31 19.30 69.89 22.37 73.68 22.37ZM73.88 20.08C72.03 20.08 71.32 18.56 71.32 15.53C72.19 15.05 73.20 14.81 74.03 14.81C75.48 14.81 76.10 15.55 76.10 17.22C76.10 18.86 75.50 20.08 73.88 20.08Z"/></svg>