<svg xmlns="http://www.w3.org/2000/svg" viewBox="0 0 67.333 28" data-ligne-id="TADSud-Ouest"><g><g><path fill="rgb(226,0,26)" device-cmyk="0.00, 1.00, 1.00, 0.00" d="M3.6,0S0,5.4,0,14s3.6,14,3.6,14h31.4V0H3.6Z"/><path fill="#FFFFFF" d="M5.871 8.355h3.838c2.432 0 3.503 1.25 3.503 2.678 0 1.584-.938 2.231-1.384 2.431.892.268 1.874 1.117 1.874 2.7 0 2.074-1.495 3.48-3.726 3.48h-4.105v-11.289zm3.301 4.597c1.026 0 1.696-.426 1.696-1.451 0-.715-.4-1.361-1.561-1.361h-1.072v2.812h.937zm.179 5.02c1.071 0 1.986-.38 1.986-1.719 0-1.05-.691-1.628-1.942-1.628h-1.16v3.347h1.116zM24.795 17.034c.76.401 1.607.826 2.878.826 1.071 0 1.606-.625 1.606-1.295 0-.915-.647-1.316-2.253-2.006-1.428-.603-2.433-1.34-2.433-3.192 0-1.785 1.361-3.279 3.994-3.279 1.295 0 2.275.358 2.877.692l-.714 1.941c-.581-.357-1.427-.625-2.296-.625-.937 0-1.585.423-1.585 1.16 0 .716.47 1.206 1.74 1.741 2.321.981 2.945 1.786 2.945 3.391 0 2.613-1.964 3.526-3.726 3.526-1.695 0-2.944-.602-3.769-1.162l.736-1.718zM20.833 15.717v-7.362h2.365v7.452c0 3.233-1.964 4.105-4.194 4.105-2.232 0-4.195-.872-4.195-4.105v-7.452h2.366v7.362c0 1.474.602 2.186 1.83 2.186 1.226-.001 1.828-.713 1.828-2.186z"/></g><rect x="39.333" y=".0011" width="27.9989" height="27.9989" fill="none"/><rect x="39.3" y="0" width="28" height="28" fill="#fff"/><g><path d="M56.3445,5.45l-.5093-.1756-1.5266,4.4362c1.3017.4489.8714,2.5518.0362,4.9795-.8352,2.4266-1.7571,4.3209-3.1038,3.8577l-1.5387,4.4713.4346.1492c2.2697.7814,5.2011-.4214,7.5751-7.3194,2.374-6.9001.8045-9.6516-1.3675-10.399Z" fill="#E50069"/><path d="M53.7908,4.7737s.0187-.1965.1833-.1394l.9461.3249c.1273.0439.1174.1064.0735.2338l-1.474,4.2847-.9197-.3161,1.1908-4.3879Z" fill="#E50069"/><path d="M48.8044,22.728l-.945-.326c-.1657-.056-.0593-.2228-.0593-.2228l1.7615-4.1903.9197.316-1.474,4.2848c-.045.1273-.0757.1821-.203.1383" fill="#E50069"/><path d="M66.1762,26.8431h-25.6875V1.1556h25.6875v25.6875ZM67.333,0h-28v28h28V0Z" fill="#E50069"/></g></g></svg>